/* XPM */
static char * revenant_projectile_death_xpm[] = {
"135 40 31 1",
" 	c None",
".	c #4F0000",
"+	c #730000",
"@	c #430000",
"#	c #670000",
"$	c #9B0000",
"%	c #5B0000",
"&	c #7F0000",
"*	c #8B0000",
"=	c #470000",
"-	c #B30000",
";	c #A70000",
">	c #BF0000",
",	c #E30000",
"'	c #CB0000",
")	c #EF0000",
"!	c #FF3F3F",
"~	c #D70000",
"{	c #FF5F5F",
"]	c #FF1F1F",
"^	c #F37317",
"/	c #FF0000",
"(	c #FFB37B",
"_	c #FFBBBB",
":	c #FF8F3B",
"<	c #FFA35B",
"[	c #FFC79B",
"}	c #FFD7BB",
"|	c #FF7B7B",
"1	c #FFFF00",
"2	c #EB6F0F",
"                                                                                                    .+   .      .      .               ",
"                                                                                                       @@#.                            ",
"                                                                                                       ## . ##    #.                   ",
"                $       #                                  @  # @##%@                               # #    .#&#    #             +.    ",
"                                                            @# #&*$&#@                       #          #+&+$$&&+#              .#+.   ",
"                         ## #+#                           @@@@  @+**.@@@@ %#                  #        .+&+&$&$$$&$++.      ...  .#+   ",
"                  &&     &# +$&                         @=@##%%%#%..&##  @ @%                     ##. .#&$&+&+&$&&$$##  .#. #+##  .    ",
"                 +$$&   .   ++#                       @@#$$-&+&@@%@%@@%.@@@ @@                  .++&+ #+#+$+##+&+#&$.. .+&+# #&+#   @  ",
"             &$  &$;$$$+&      +                     *%%%#;$$$;*+%%%%.@...@@ #%.                #&#+.  #+&+#..++  #. .  .&$++++&#      ",
"             &$&  #$;$$&$&# #++&;$+                   .# ##$;>>$$$;;&&&.&#%%@#=#              .  +##    .##    .  . .#. .#++&&#++ +&   ",
"              $&   $>>;&$$+ #+&>,>$                  ##%=#**;;''>-;&%%.+#*@..%$*@@                  +    . # +#     #+. +&#+$&+.# #+   ",
"          @   $$$&&$>,'$;$&+$;$',,$                  .@%%#$;$+$$&+#.;&+@#+.@+@*$#@@           # ##.#++#   .. #.      # .+$ #++##  .#   ",
"              ;;$;;$''>$,>>$;';;';+                  @ .%#+$&#$&&*#=@.%..&.@&@+$+@@          #+#&+ .##++          #    .+++#+##+#  .   ",
"             #$$>''$$'$-$,,>;;$$&&                  ..%+#=%#%=$$;=.%%%@***.@%@@##.@          .+##   . .#   @           ##.. # ##.      ",
"            +&$$')$&#$'!-$$'>$$+#  +               *.+**##%##++&#*&$#@@@@&@@=@@.+# @       . ..   .      .            #  #   #+&##.    ",
"         $   #&&>$$&~&!{]$*$$$$#+$>&              %@++*-&%+#+*+.@=+*@@ @@@@=@ ..*&@             +     @             #    ++# ##&$&#.   ",
"            #&+$$&&^~/(!{~_>>$;&+&$$.              .#+*>#%&&&&=.@ @       ##@  .#&# @         #&$+&&$  @            ##  ##+#  &$$+.    ",
"          &$$&$$@&,/::<(:_!~*@$$$;$&              ..&#*>#%*&$$#.  @@      &+%  @.%& @      @ +#&$&&+&#                      + +&+#+#.  ",
"         &$;;$>>$-,/:[}}[_:--&$>;';$            . @@##+-&%+$;;+@ @#+   @  &+#%..#@&@@     @#..#+$&++                    #+&&&##+&$&+## ",
"         +$;'>;$-~-(|}11}<_('$,';;$+              &.  @.#.+*;-$&@@@@@   @#++&*-$#@@        @. .$&+##.                    #+&&###+&+#.  ",
"      &&  +$;$$$--~:(}11}(:''$'>;&#  &            .#.@=%% .$$*&*. @@   @%&###;$$+%.@      @.+#+$&&+                         +#&+++#+#  ",
"      $$    &&$$&>-(:[}}[:'~$&$',>$ &$+            @.@#+%@ &&+%$+  @@  @@+%@+;+*#+@@@      .@ #&++&+  #.               # ##   +&+#...  ",
"         +  &$;$$&,::!(:_:/~&#$),,$  +            .@@@+&%@ @..@&&   @   %+.%**%$.*@ @#        .# #++##                   #+#  +&+# .   ",
"      $>;   +;>>$&&^{:!(:/^)&$;',>$+             @ @ @+$@ @  @ #@.+.#.@#+*~';&+$%%= @      @# .+ .##.                       + #+#.     ",
"      &$$  #&$;;$$2&&{,'')&&$$$&$;>&             @ @@@%&. @=@. ++   *&.;>-'~++&;#@ =@      @.  .# .+#  #.                 #+& +&+# .   ",
"          ##+&$$+&$&,-,'--&$;$$#+&$+               @@%%*#@ %%%%##   ##&$**>;+%*;.@ .#        #  .# .  #.@           #.    #+&#&$++     ",
"           #+&&&+&&$$*$$*$$';$$#++&+              .@.+**+%%.=#$*#@ %+*#..=%=#&&$@  &#          #+# #++     #     .  ..  ##+# +&$+#  @ @",
"            ##  &$$&$$$&$$;$$##@##+               @**&+%%% @@@.@@##&**&%.@.=.+*#@ =          .#+&$&+&# .              #++$$ #+$&#..    ",
"          .     +&&#&$&+#+++#++&                   &#&%.%.%@ @@@@.##&*#%%@@.+-#.@ @         .##+&$$&+    .      . #     ++&+&+&#.#.    ",
"                #++ ##&&+##  &&$&&                   $+@@@ @ @*=@..#+#+&++.%%   +&=@        @..#+&+#.   ##   .    +#  +#  +&$&#..#.    ",
"                 ## #+$$&#.  &$$$& #                 #@@@@@@@@@@%.%#$**$*#%.@@@=+&@          @ .##+#&+#&+# # #    &+#     +&$$+#..@    ",
"         .  #+      &$$&    &$$;                      @@@@ @@ .=@.%#$;-;*.*%@  =+.            .++##+$&&$&+#+#+.  #+#  +&+#&++&#.@@     ",
"            .#   +&  &&   +  &&                         @@ @  +*++&&@@.%+%@  %=#.             .#+#+.&+&$$++++##.#+++#+&$&+#.#+. @      ",
"                 #+$$                                     @ @   +@@@@... @   @#&               .. ++#++$$&&$&+#+&&$&+&#+##. .@         ",
"                 #&;$   #                                   @@@@@   @ @@                          #. ##+&&$$$&##+&&++#+&#              ",
"                   +                                       ++#                                       .+##+&&+# ###+##@.## @            ",
"                                                                                                     @.#..##@    .#   ..#    @         ",
"                                                                                              #+      @.  @@        @.##.   ..         ",
"                                                                                              .#   @        .@       ...   .#.         ",
"                                                                                                     @@     @@             @.          "};
