/* XPM */
static char * revenant_projectile_live_xpm[] = {
"40 16 76 1",
" 	c None",
".	c #7F0000",
"+	c #9B0000",
"@	c #9B3333",
"#	c #9B633B",
"$	c #AF4747",
"%	c #BF0000",
"&	c #932F00",
"*	c #731313",
"=	c #A73F00",
"-	c #A70000",
";	c #A73F3F",
">	c #B74700",
",	c #972F2F",
"'	c #E30000",
")	c #CB0000",
"!	c #8B2323",
"~	c #A36B3F",
"{	c #DF9363",
"]	c #FF7B7B",
"^	c #CB5707",
"/	c #C34F00",
"(	c #9F3700",
"_	c #CB7F4F",
":	c #EB6F0F",
"<	c #7F532F",
"[	c #4F3B2B",
"}	c #836B4B",
"|	c #831F1F",
"1	c #B30000",
"2	c #FF1F1F",
"3	c #BB5757",
"4	c #5B0000",
"5	c #EF0000",
"6	c #D75F0B",
"7	c #E79B6B",
"8	c #FF7F1B",
"9	c #BF7B4B",
"0	c #774F2B",
"a	c #AF4300",
"b	c #6B4727",
"c	c #6F5743",
"d	c #FF0000",
"e	c #FF3F3F",
"f	c #D78B5B",
"g	c #A33B3B",
"h	c #5F4B37",
"i	c #8F7753",
"j	c #4F0000",
"k	c #D37373",
"l	c #574333",
"m	c #836B57",
"n	c #D70000",
"o	c #875733",
"p	c #B34F4F",
"q	c #7F1B1B",
"r	c #67533F",
"s	c #FF9B9B",
"t	c #FF5F5F",
"u	c #775F4B",
"v	c #8F5F37",
"w	c #937B63",
"x	c #AF977F",
"y	c #FFB37B",
"z	c #AF7B1F",
"A	c #7B634F",
"B	c #DF670F",
"C	c #BF5B5B",
"D	c #775F3F",
"E	c #5B472B",
"F	c #874307",
"G	c #C39B2F",
"H	c #D7BB43",
"I	c #872300",
"J	c #730000",
"K	c #732B00",
"       .+. .+              @#$%%&++*    ",
"   =-;>,')''>++      +--!+~;{]@^%%/%+(  ",
"  )>_:$<[}[|1''+.   +-)/233[44||'556:7- ",
" +%589[0a}bc[%d)-+  .%%5:5[4-}<[[e:f7:g ",
"+)2d:[ha^i<-h[5/6=  .+)5dj[.<i<-hj5fke= ",
"+)d:/lbbmemn-h;/^-   +)e:h.ome22<j{9p,q ",
"-'ddr(<2dste)urt,+   -'d[<vwtxteo0*9;(. ",
"-'edl}vmsyswi}[e++   ./2[}iwsysmv}[k++  ",
"-%5:r0oedxtwv<[>/=|  &/zru)etst2<(r_=+  ",
"+-)e;l<225moAh@-%+  .+-e6h-nmembbl5B%=  ",
" .$CBjh-<i<ADE>)+    ++g{[h-<i^ah[2%=+&q",
" FG9];[r<}EE[aHB+.   I+;p@[cb}a0[3,+%-+J",
"  !;pp3||4l[@'')+ .  .=^-/)[[}[[k>!.-+* ",
"   <;336C%-;;%%+J    |(%))%%^)%>ep(I++. ",
"   J;--+.+F *!(       .+%%))%-q&+qK     ",
"    *F.KJ               ..+++.          "};
