/* XPM */
static char * lost_soul_idle_xpm[] = {
"231 69 70 1",
" 	c None",
".	c #989898",
"+	c #A0A0A0",
"@	c #A8A9A9",
"#	c #ACADAD",
"$	c #B8B8B8",
"%	c #808080",
"&	c #8C8C8C",
"*	c #C0C0C0",
"=	c #CCCCCC",
"-	c #DCDCDC",
";	c #E0E0E0",
">	c #848484",
",	c #B4B4B5",
"'	c #C0A990",
")	c #787878",
"!	c #EFF0F0",
"~	c #C8C8C8",
"{	c #D4D4D4",
"]	c #949494",
"^	c #6F7070",
"/	c #636363",
"(	c #785F4A",
"_	c #947C63",
":	c #A89078",
"<	c #383838",
"[	c #4E4E4E",
"}	c #6B6B6B",
"|	c #E8E8E8",
"1	c #454545",
"2	c #000000",
"3	c #1E1E1E",
"4	c #565656",
"5	c #2B2B2B",
"6	c #5F4A34",
"7	c #670000",
"8	c #414141",
"9	c #B40000",
"0	c #FF0000",
"a	c #9C0000",
"b	c #846B56",
"c	c #343434",
"d	c #8C0000",
"e	c #800000",
"f	c #740000",
"g	c #413014",
"h	c #4E381E",
"i	c #5B5B5B",
"j	c #5B4527",
"k	c #675230",
"l	c #785F3D",
"m	c #222222",
"n	c #5F411E",
"o	c #784E27",
"p	c #907852",
"q	c #4A3414",
"r	c #4E0000",
"s	c #9C6338",
"t	c #F7AD7C",
"u	c #A46B3D",
"v	c #D88C5B",
"w	c #5B0000",
"x	c #A80000",
"y	c #80522B",
"z	c #3D2B10",
"A	c #6B4522",
"B	c #410000",
"C	c #FFD0B5",
"D	c #D08452",
"E	c #523D19",
"                                                                                                                                                                                                                                       ",
"                                                                                                                                                                                                                                       ",
"                                                                                                                                                                                                                                       ",
"                                                                                                                                                                                                                                       ",
"                                                                                                                                                                                                                                       ",
"                                                                                                                                                                                                                                       ",
"                                                                                                                                                                                                                                       ",
"                                                                                                                                                                                                                                       ",
"                                                                                                                                                                                                                                       ",
"                                                                                                                                                                                                                                       ",
"                                                                                                                                                                                                                                       ",
"                                                                                                                                                                                                                                       ",
"                                                                                                                                                                                                                                       ",
"                                                                                                                                                                                                                                       ",
"                                                                                                                                                                                                                                       ",
"                                                                                                                                                                                                                                       ",
"                                                                                                                                                                                                                                       ",
"                                                                                                                                                                                                                                       ",
"                                                                                                                                                                                                                                       ",
"                                                                                                                                                                                                                                       ",
"                                  .+@@@@@+.                                                                    .+@@@@@+.                                                                    +@#$$$#@+                                  ",
"                               %&.+@#$$$#@+.&%                                                              %&.+@#$$$#@+.&%                                                               .+@$*===*$@+.                                ",
"                              %&.+@$*===*$@+.&%                                                            %&.+@$*===*$@+.&%                                                             &.@$*=-;-=*$@.&                               ",
"                              %&.@$*=-;-=*$@.&%                                                            %&.@$*=-;-=*$@.&%                                                            %&.@$*=-;-=*$@.&%                              ",
"                        >.+,**@'>@$*=-;-=*$@>'@**,+.>                                                      %&.@$*=-;-=*$@.&%                                                      >.+,**@'>@$*=-;-=*$@>'@**,+.>                        ",
"                       ),-!!-+@+.+$*~{{{~*$+.+@+-!!-,)                                               >.+,**@'>@$*=-;-=*$@>'@**,+.>                                               ),-!!-+@+.+$*~{{{~*$+.+@+-!!-,)                       ",
"                     )],.&>%)^^>,$*$*~~~*$*$,>^^)%>&.,])                                            ),-!!-+@+.+$*~{{{~*$+.+@+-!!-,)                                            )],.&>%)^^>,$*$*~~~*$*$,>^^)%>&.,])                     ",
"                    )#%/(_::(<[}~=;;*,,,*;;=~}[<(::_(/%#)                                         ))>.&>%)^^>,$*$*~~~*$*$,>^^)%>&.>))                                         )%%/(_::(<[}~=;;*,,,*;;=~}[<(::_(/%#)                    ",
"                   }+/       [}{-;!|;{{{;|!;-{}[       /+}                                       )^%/(_::(<[}**==*,,,*==**}[<(::_(/%^)                                       }%/       [}{-;!|;{{{;|!;-{}[       /%}                   ",
"                             }]{-;!!!!!!!!!;-{]}                                                }/        <[}~=;;*,,,*;;=~}[<        /}                                                }]{-;!!!!!!!!!;-{]}                             ",
"                            }+)1234#{!!!{#4321)+}                                                         [}+-;!|;{{{;|!;-+}[                                                         }+)^^^%#{!!!{#%^^^)+}                            ",
"                            ),433335^#{#^533334,)                                                        }}]###$!!!!!!!$###]}}                                                        ),433335^#{#^533334,)                            ",
"                            ),63777338]83377736,)                                                        }+)190a#{!!!{#a091)+}                                                        ),63909338]83390936,)                            ",
"                            }+:b9093c}<}c3909b:+}                                                        ),&3da9e3.,.3e9ad3&,)                                                        }+:bfff3c}<}c3fffb:+}                            ",
"                            /%+$=-$%[<2<[%$-=$+%/                                                        }+@&77733[/[33777&@+}                                                        /%+$=-$%[<2<[%$-=$+%/                            ",
"                              %]$]%[83238[%]$]%                                                           %+$=-$%/[2[/%$-=$+%                                                           %]$]%[83238[%]$]%                              ",
"                              ghhi/^%484%^/ihhg                                                            /^%)/[832<8[/)%^}                                                            ghhi/^%484%^/ihhg                              ",
"                             8hjcc324}>}423ccjh8                                                           ghhi/^%484%^/ihhg                                                           8hjcc324}>}423ccjh8                             ",
"                             4kl8m2mnn2nnm2m8lk4                                                           hjcc324}>}423ccjh                                                           4kl8m2mnn2nnm2m8lk4                             ",
"                             iop[qrrst2tsrrq[poi                                                           }p[qrrst2tsrrq[p}                                                           iop[qrrst2tsrrq[poi                             ",
"                              }s/urff777ffru/s}                                                             s/urff777ffru/s                                                             }s/urff777ffru/s}                              ",
"                               i>vwwdaxadwwv>i                                                               >vwwdaxadwwv>                                                               i>vwwdaxadwwv>i                               ",
"                                }yzyAr7rAyzy}                                                                }yzyAr7rAyzy}                                                                }yzyAr7rAyzy}                                ",
"                                4/yvyBBByvy/4                                                                 /yCyBBByCy/                                                                 4/yvyBBByvy/4                                ",
"                                 )ADEtftEDA)                                                                  )ADEtftEDA)                                                                  )ADEtftEDA)                                 ",
"                                 1}Aqs5sqA}1                                                                   }Aqs5sqA}                                                                   1}Aqs5sqA}1                                 ",
"                                  i}44444}i                                                                    )}44444})                                                                    i}44444}i                                  ",
"                                  1)>=|=>)1                                                                     )>=|=>)                                                                     1)>=|=>)1                                  ",
"                                   1^]#]^1                                                                       ^)))^                                                                       1^]#]^1                                   ",
"                                                                                                                                                                                                                                       ",
"                                                                                                                                                                                                                                       ",
"                                                                                                                                                                                                                                       ",
"                                                                                                                                                                                                                                       ",
"                                                                                                                                                                                                                                       ",
"                                                                                                                                                                                                                                       ",
"                                                                                                                                                                                                                                       ",
"                                                                                                                                                                                                                                       ",
"                                                                                                                                                                                                                                       ",
"                                                                                                                                                                                                                                       ",
"                                                                                                                                                                                                                                       ",
"                                                                                                                                                                                                                                       ",
"                                                                                                                                                                                                                                       ",
"                                                                                                                                                                                                                                       ",
"                                                                                                                                                                                                                                       ",
"                                                                                                                                                                                                                                       ",
"                                                                                                                                                                                                                                       ",
"                                                                                                                                                                                                                                       ",
"                                                                                                                                                                                                                                       ",
"                                                                                                                                                                                                                                       "};
