/* XPM */
static char *result[] = {
/* columns rows colors chars-per-pixel */
"64 64 154 2 ",
"   c #1D1926",
".  c #211D2A",
"X  c #25222E",
"o  c #272431",
"O  c #282633",
"+  c #2C2936",
"@  c #2E2C39",
"#  c #312E3B",
"$  c #2F303E",
"%  c #32313E",
"&  c #353543",
"*  c #383745",
"=  c #373846",
"-  c #3A3946",
";  c #353748",
":  c #373849",
">  c #3B3C4B",
",  c #3C3F51",
"<  c #3E404E",
"1  c #3E4153",
"2  c #3F4459",
"3  c #41414E",
"4  c #434453",
"5  c #454856",
"6  c #494956",
"7  c #42465A",
"8  c #454A5C",
"9  c #4B4D5C",
"0  c #514F5D",
"q  c #4E505E",
"w  c #51515F",
"e  c #454D62",
"r  c #4A4F62",
"t  c #4D5264",
"y  c #4C546B",
"u  c #4F586F",
"i  c #525564",
"p  c #565866",
"a  c #5B5A67",
"s  c #51576A",
"d  c #545A6B",
"f  c #5A5D6C",
"g  c #4E5A72",
"h  c #545D73",
"j  c #595E71",
"k  c #5E616F",
"l  c #576176",
"z  c #5C6274",
"x  c #576179",
"c  c #5B657C",
"v  c #5E687D",
"b  c #60606D",
"n  c #636574",
"m  c #636877",
"M  c #696A77",
"N  c #61677A",
"B  c #646B7C",
"V  c #6B6D7C",
"C  c #6C717F",
"Z  c #71717E",
"A  c #5E6981",
"S  c #626C83",
"D  c #696F80",
"F  c #646E88",
"G  c #677185",
"H  c #6C7384",
"J  c #67718A",
"K  c #6B758C",
"L  c #6E788A",
"P  c #717584",
"I  c #757986",
"U  c #787A87",
"Y  c #727788",
"T  c #737B8B",
"R  c #797D8C",
"E  c #6E7991",
"W  c #737D93",
"Q  c #797E90",
"!  c #7A7E9B",
"~  c #7C818F",
"^  c #778194",
"/  c #7B8293",
"(  c #7F8897",
")  c #768299",
"_  c #7B849B",
"`  c #7E899C",
"'  c #7E88A0",
"]  c #838694",
"[  c #808798",
"{  c #838B9C",
"}  c #8B8E9D",
"|  c #85909E",
" . c #8E909E",
".. c #8083A1",
"X. c #848DA3",
"o. c #898FA4",
"O. c #8A8EA9",
"+. c #8691A4",
"@. c #8B94A4",
"#. c #8793A9",
"$. c #8C95AA",
"%. c #8E99AB",
"&. c #9295A4",
"*. c #9599A6",
"=. c #9096AC",
"-. c #939BAD",
";. c #9A9DAB",
":. c #8C97B0",
">. c #8D99B1",
",. c #9397B1",
"<. c #959DB2",
"1. c #999DB5",
"2. c #97A0AE",
"3. c #9CA1AE",
"4. c #97A0B3",
"5. c #9AA2B5",
"6. c #9DA5B9",
"7. c #9EA9BB",
"8. c #A2A6B4",
"9. c #A5A9B6",
"0. c #A1A6BB",
"q. c #A4ABBD",
"w. c #A9AEBC",
"e. c #ABB2BF",
"r. c #9FA8C3",
"t. c #A6ADC1",
"y. c #A9AEC2",
"u. c #A7B0C1",
"i. c #ACB3C4",
"p. c #AEB5C8",
"a. c #AFB9C9",
"s. c #B1B6C5",
"d. c #B3B8C6",
"f. c #B1B6C9",
"g. c #B5BBCB",
"h. c #B9BECE",
"j. c #B7BED0",
"k. c #BABFD0",
"l. c #BAC0CF",
"z. c #BCC2D2",
"x. c #BFC7D8",
"c. c #C1C6D6",
"v. c #C3C8D7",
"b. c #C1C7D8",
"n. c #C5CBDA",
"m. c #C9CEDC",
"M. c #CBD0DE",
"N. c #CDD3E2",
"B. c #D1D6E4",
"V. c #D2D9E6",
"C. c #D5DCEA",
"Z. c #D8DEEB",
"A. c #DAE1ED",
"S. c #DDE4F3",
/* pixels */
"0.g.k.g.g.g.g.g.g.g.l.g.g.z.g.v.R +.i.n.v.v.z.g.g.-.4 w.c.h.z.z.n.n.m.n.n.6.#.Y s.9.h.c.k.z.z.z.z.*.k 4.i.g.g.g.v.e.q.l.l.z.e.^ ",
"4.6.z.h.g.g.d.l.g.l.l.g.g.g.g.v.m T 4.w.v.x.z.g.g.+.V c.z.l.h.h.h.h.z.c.c.0.#.D v.c.z.z.z.z.z.z.z.z.B w.a.g.g.z.z.{ ( @.5.l.a.C ",
"5.5.0.l.z.g.g.g.g.g.g.g.g.g.z.q.9 H 5.2.w.z.g.g.g.{ T z.z.z.h.k.z.h.g.h.c.n.t.s i.z.k.l.k.z.z.z.x.w.c z.a.d.l.z.2.+.%.+.` | %.C ",
"6.$.%.q.g.g.g.g.d.g.z.g.l.p.q.X.8 m 7.4.<.g.z.g.a.Q G v.m.n.v.l.h.z.h.z.h.k.h.j <.v.l.z.z.z.0.i.v.e.t g.g.d.l.3.@.%.@.&.%.@.+.B ",
">.%.<.1.<.4.6.a.i.t.t.p.u.4.5._ 5 c 6.5.,.i.k.g.g.B z M.v.n.m.z.h.k.k.k.h.k.h.m 4.c.h.z.z.7.<.4.g.l.5 3.g.i.7.@.%.| | | @.%.| m ",
") 7.4.4.5.4.1.4.i.i.r.6.4.5.5.E 4 c 6.5.<.w.h.h.i.i y v.v.n.c.g.g.l.n.h.g.h.z.n i.v.h.s.t.5.5.5.6.x.6 Y c.g.0.%.%.2.%.%.%.@.| k ",
"t ,.6.<.<.5.4.4.6.w.r.7.6.6.$.E > q 4.6.5.7.g.y._ : 9 z.N.v.v.M.B.N.M.N.m.z.n.m @.t.<.' ) E W $.4.z.i i i.q.#./ ~ ^ ^ ^ ^ ^ B < ",
"# v 4.<.$.-.<.%.#.X.' E F h e ; o O 8 v K L F c 1 X > #.@._ _ ' o.1.t.0.1.X._ 0 L h e e y e 7 h #.6.i X 4 t s c S C l g t 9 % % ",
"# + f W W c 9 1 2 > > : & & 6 n T ] &.1.8.8.&.] U V n s 4 > , 7 s t i s j B B 6 & O # # # @ # % q p q q p k k i 1 2 Y ^ I  .5.C ",
"&  .l.c.c.h.3.b o Y g.s.w.s.z.m.M.n.n.n.n.c.n.n.m.n.1.g.&.o i 9.g.h.h.c.c.n.n.n.w.M & @ , H ) R ^ ^ | 6.q.u.g.i.~ O e.M.x.z.i.T ",
"I v.l.v.v.n.M.V.{ ~ N.z.v.z.z.h.g.l.h.z.h.k.z.h.k.h.g.n.+.3 z.N.c.k.h.g.j.j.g.c.M.M.w.4 N 6.6.$.X.6.-.g.l.l.d.f.x.k 9.x.l.6.2.v ",
"4.h.g.v.v.v.c.c.M.{ i.z.z.z.z.z.z.k.z.z.k.c.z.c.c.z.z.v.Q 5 q.z.q.y.s.g.f.y.f.y.0.i.n.n W 7.5.$.X.2.i.z.l.g.e.e.v. .e.v.7.4.` : ",
"8.l.g.v.v.v.v.c.m.Q X.z.z.p.0.z.z.z.z.z.c.i.6.0.g.k.z.c.` 4 <.c.y.p.h.g.k.g.g.1...g.h.j X.6.@.1.4.w.n.v.c.c.n.c.m.5.g.v.q.6.L ; ",
"2.l.g.c.v.v.v.n.N.H ( z.z.g.y.z.g.t.g.k.6.-.4.-.5.i.g.b.0.5 @.z.f.f.h.h.g.g.k.0.! k.f.c +.4.6.<.w.z.v.v.v.v.c.v.v.5.g.z.l.6.E > ",
"*.d.l.v.v.v.v.v.b.H *.n.k.z.z.z.g.1.4.7.6.5.6.4.<.6.i.k.k.i ( g.i.f.j.k.k.g.z.y.,.c.q.N @.i.g.z.x.z.v.v.v.v.v.v.v.} g.z.z.g._ 1 ",
"| g.l.c.v.v.z.g.u.B -.z.h.k.j.w.4.6.4.#.X.{ #.,.5.5.5.i.z.f W t.f.g.g.g.k.c.g.h.k.c.0.j $.z.g.h.l.l.z.z.v.c.v.n.z.B i.z.l.z.' 1 ",
"~ 7.g.m.v.v.6.<.p.n T X.` W F x c x h y y u u h W -.4.0.a.C T i.s.a.l.l.x.e.l.l.g.z.-.d ..g.g.k.t.f.h.h.v.v.x.m.g.1 8.c.h.z.-.> ",
"z $.4.l.v.n.,.' i.f f W H l n M V L P f e : : > < c H S B t ( g.s.l.a.n.w.( | 5.g.n.%.5 c $.y.y.$.6.g.0.z.n.z.M.-.X @.v.h.z.0.7 ",
"i 2.4.4.z.z.i.q.t.r ~ g.g.c.M.B.N.N.M.m.c.Q > X.*.+.Y z V p *.z.i.l.l.l.+.@.| | { 7.$.4 + 8 S W X.$.:.#.t.n.M.b.p . &.N.z.m.a.N ",
"8 %.6.4.q.c.k.g.5.w g.b.z.z.z.v.n.v.n.c.1.:.f -.g.x.v.z.N.u.@.c.i.l.l.%.@.%.%.%.| | ` 3 6 a p B S d z J H L o.B # + ~ 8.z z f 5 ",
"4 %.6.<.6.k.g.h.@.P c.h.z.h.h.l.z.z.n.z.,.#.s X.5.0.g.z.z.e.~ g.e.a.2.@.%.@.@.@.@.%.~ C M.m.n.n.n.;.= & ] *.;.0.s.d.d.s.9.;.] 5 ",
"5 %.5.<.6.h.g.h.{ ^ c.k.z.z.h.k.h.l.z.c.x.<.> h #.X.0.z.z.h.B s.a.e.%.@.%.@.@.&.-.%.I / z.y.p.f.g.N.@.n N.c.n.n.n.m.m.N.V.c.t.X.",
"< $.5.6.1.g.l.i.B T c.c.c.h.z.h.z.<.t.z.v.u.< 2 ` 4.<.g.z.v.k -.z.i.%.| +.+.+.| / { B R c.y.p.s.y.j.-.*.b.g.k.g.h.h.l.z.n.p.>._ ",
"% B >.4.4.5.1.W > Y m.n.v.c.g.g.c.,.1.z.j.g.q 2 ` 1.5.z.h.m.M a { ^ G G G B B B v l $ T c.y.f.f.p.k.;.,.c.z.z.h.z.z.g.h.k.b.z.( ",
"@ $ 2 y l B S B > Y m.n.n.n.n.c.l.h.h.z.k.g.p e X.6.g.z.k.n.V   % < i c S N z s 4 # X D 6.0.f.f.i.z.+.-.n.n.b.z.g.h.l.g.z.g.z.<.",
"i 5. .{ <.i.g.t.c m m.m.m.h.y.m.v.z.k.h.k.g.i y #.g.z.z.l.n.w m 8.3.q.i.g.d.d.s.8.@.9 B 7.<.6.s.i.h.P -.N.v.n.n.z.z.z.g.z.z.z.w.",
"] N.m.n.v.j.t.6.B f n.h.z.n.z.n.v.m.z.g.k.z.9 y $.i.z.z.z.z.f g.m.c.v.z.c.n.n.M.k.r.H / 6.-.4.u.s.f.f @.N.v.n.n.m.v.v.z.g.l.l.0.",
"*.x.g.z.i.5.4.$.i i n.k.z.B.N.M.m.n.m.c.z.m.0 r y.k.z.k.z.w.m z.z.z.i.i.k.g.g.h.z.x.H *.g.6.w.u.i.p.9 / N.m.m.m.M.m.m.v.z.h.c.a.",
"9.x.z.g.4.4.4.A & t z.i.1.%.1.i.z.m.m.z.t.1.6 j g.j.l.g.n.| 9 x.n.m.z.l.z.z.h.h.g.z.} @.j.i.f.i.i.y.4 Q m.j.y.i.h.n.M.M.M.x.p.5.",
"g.z.z.g.-.6.$.g & = l h g x A S E W H F F A 8 { z.n.x.z.N.&.< c.c.v.B.N.m.m.c.z.z.n.+.~ k.i.f.u.g.q.- s T S A F S J W ! T L K B ",
"z.z.l.z.u.5.#.g : 4 M R / ] V 7 : 6 j m f 3 # k Y T C } g.] @ 5.w.1.1.0.i.k.c.z.p.p.Q D k.p.y.<.6.@.& # # & * - z B m D H m 4 + ",
"l.z.z.z.z.i.-.c > 8.N.m.B.B.<.@ m l.m.m.n.g.] % X o o o > 9 6 M V N z j h t r 7 , , & @ s T ^ T H - O # # # O R n.c.c.b.m.m.d.H ",
"w.x.y.g.z.g.4.A 8 d.l.g.g.c.4.6 s.c.c.c.c.n.V.h.i ;.w.8.u.z.z.z.v.v.z.l.g.i.5 = m V R ] } 0.s.5./ M i - % - + } z.i.g.i.i.s.k.g.",
"&.n.a.l.z.z.t.F 8 h.n.h.h.c.u.B h.d.z.v.v.n.g.M.;.@.n.c.c.z.z.z.z.g.g.x.z.x.9 ] Z.v.m.m.m.c.c.v.c.0.1.1.s.z.] Y z.s.g.z.0.O.g.5.",
"m v.z.l.l.g.g.W 3 g.m.c.l.z.i.R h.g.c.c.v.v.l.n.8.B z.z.z.z.z.z.i.7.5.0.f.c.z B v.k.z.z.k.z.k.k.g.f.i.g.z.M.~ M g.f.g.k.g.i.z.-.",
"6 z.l.z.z.z.z.+.r s.V.m.M.n.d.R g.h.h.v.v.v.v.N.-.T x.g.u.6.>.X._ ` +.<.7.n.{ B c.z.g.q.0.f.c.z.l.z.c.l.h.g.t z p.g.j.k.i.z.c.o.",
"i M.m.z.i.g.h.+.m { &.,.u.i.o.H i.l.g.c.c.v.m.V.;.i c s t y d f s i r j L T m &.v.s.6.<.5.5.t.k.z.k.k.h.z.i.4 H x.g.z.5.{ %.e.{ ",
"3 @.Y s 9 i a i 8 - > 7 1 > @ z i.h.c.v.n.v.g.g.-.* R 8.9.g.z.c.v.c.c.s.8.i o 9.l.6.6.<.$.#.-.4.t.i.k.k.z.n.9 M 0.w.e.+.@.+.| T ",
"@ % } w.s.s.s.d.g.g.g.s.e.d.~ p e.l.c.c.v.l.g.g.{ i m.v.z.v.v.n.n.n.m.n.y.X.3 1.6.%.' h y h c S J J W O.,.5.r 6 0.0.-.%.%.%.-.Y ",
"o P A.c.c.c.z.k.h.k.c.k.c.M.M.B | 7.v.v.c.g.g.g.) U n.g.z.h.z.z.c.v.m.i.#.X.= 6 B R B 9 < @ # : - * * ; 5 z 3 @ 6.u.` ( ( ( / d ",
"@ w.b.f.q.f.g.g.g.g.g.g.g.l.c.k ( $.-.c.c.h.g.f./ *.v.k.z.h.g.z.h.h.c.c.p.( : o.h.c.v.v.h.8.Z % # O X $ = - 4 < 8 s z l h t < @ ",
"a l.=.l.i.f.h.h.g.g.h.g.h.g.c.k ) $.X.i.z.g.g.i./ +.b.z.z.k.z.z.h.g.l.l.m.{ H n.d.c.v.v.n.n.Z.@.O V 3.s.d.g.a.g.d.d.d.s.w.5.C % ",
"*.g.s.g.h.g.g.h.g.g.g.g.g.g.n.M Y 0.6.<.z.g.g.i.Y o.n.n.v.z.g.g.h.h.z.h.c.1.^ g.d.c.n.v.v.m.B.-.< B.A.m.m.v.v.v.n.M.M.m.M.A.M.w ",
"1.1.i.h.l.g.g.g.g.z.g.g.h.h.g.t H 6.6.2.g.z.g.i.z | N.v.m.v.z.z.z.h.l.h.c.9.T i.c.c.v.v.v.0.g.{ n B.d.a.g.l.g.g.d.d.d.g.g.z.B.C ",
",.-.$.6.u.u.s.d.s.f.f.g.u.0.' 6 T 7._ #.g.g.g.i.9 { M.v.n.n.m.b.g.z.h.h.c.8.j 5.w.c.v.v.z.X.6.R } M.d.l.j.g.j.g.g.g.l.g.g.l.m.H ",
"S 7.5.1.-.1.4.w.s.i.t.t.7.0.) 7 H 7.O.$.t.h.g.$.= ~ N.v.v.n.n.n.n.c.h.h.c.w.6 { <.8.z.z.g.h.p.Y 9.m.g.w.6.l.g.g.l.l.g.g.z.l.n.H ",
"& H 5.5.4.4.%.#.o.' W T J l 8 @ t >.0.7.6.i.<.A + H n.M.M.M.m.n.n.v.g.i.g.g.- ( 6.4.5.h.g.g.w.Y g.,.l.i.u.l.g.g.g.g.g.g.l.g.n.I ",
"o o & 1 , < 9 y s B H C m i 6 4 4 d v H W K S 5 O H m.g.0.w.g.z.m.m.c.z.y.5.> [ 0.5.<.g.k.z.<.} c.X.d.l.l.g.g.l.g.g.l.g.g.g.v.[ ",
"z ] U Z ~ 3.s.l.c.n.n.M.n.n.v.z.g.9.6.n & & # # + p _ S S S F W #.:.+._ E S + f #.-.,.0.p.6.S @.g.k.g.g.g.g.h.g.g.l.l.g.g.g.v.} ",
"5.C.0.i.N.v.z.z.z.l.h.h.z.j.k.z.z.z.V.@.X # : - - - 4 r p d h r , > , i z f 9 t z G H D j 4 - =.5.h.z.g.g.d.g.l.g.g.l.g.g.g.v.R ",
"Y n.0.y.z.g.h.z.z.z.z.h.z.c.x.z.z.g.g.L M w.s.i.y.g.g.s.g.g.i.3.] 6 I m.h.z.c.c.z.l.k.h.v.Z # 1.6.5.d.c.g.g.g.g.g.g.g.g.g.l.u.z ",
"9 0.c.z.h.z.z.z.z.l.z.c.g.t.g.z.z.z.i.T { M.g.p.g.g.g.g.g.5.i.g.N.( &.N.g.g.g.g.g.l.s.s.c.h.- =.=.$.6.i.g.g.g.d.g.z.l.g.a.q.+.l ",
"> @.l.l.z.l.k.l.z.z.x.i.4.<.-.5.g.g.x.+.S 7.f.s.g.g.g.z.z.6.u.l.g.S 5.c.g.g.g.g.h.g.d.g.t.g.I W 5.,.5.<.4.5.u.d.t.t.y.! %.6.( h ",
"= <.c.g.h.l.z.l.j.g.7.<.5.5.,._ q.g.v.0.H w.f.g.g.c.l.2.2.i.i.l.i.h &.z.g.g.z.g.g.g.h.l.g.t.$.N 7.5.4.4.4.<.-.y.p.t.6.K $.t.W s ",
"= s.m.c.z.z.g.t.6.5.4.4.4.4.6.6.4.0.g.g.I c.i.g.g.w.&.{ L | +.&.%.j c 0.y.f.p.p.g.u.w.0.<.1.o.> X.7.,.-.6.4.5.6.t.0.6.7.4.$.E 4 ",
"- +.4.6.5.$._ ) ) E A A A G E @.4.<.i.g.i *.z.i.5.@.%.-.%.%.@.%.{ 9 9 _ #.$.<.6.6.4.5.4.0.-.r @ s :.5.1.<.$.#.X._ W E A h e 1 @ ",
"- ^ L l e e y y g y e 8 , > 1 u { #.#.@.p % k z k c h f d i e 4 & + + @ = 3 5 6 9 r t r 9 % X O X , s 8 e 7 7 1 , 2 4 - # O + % ",
"% > Z *.9.9.w.w.e.u.e.9.4.;.@.f 3 3 3 i i 4 # X X & k Z V n n P [ -.5.8.w.i.s.i.w.8.3.;.*.&.} } V # + M 8.9.9.y.g.g.k.h.w.T - + ",
"+ 9 A.C.B.M.m.n.m.M.N.N.N.B.A.l.% w e.z.v.v.g.*.w + 6.V.n.m.m.m.m.z.n.v.b.z.z.c.v.n.n.v.n.n.n.V.0.* H C.n.b.z.c.k.z.c.c.m.B.h.P ",
"o R V.a.a.g.g.g.g.i.g.i.g.g.v.m.d 9.x.z.v.v.n.M.N.Z i 0.h.h.t.g.g.5.l.h.z.z.z.z.a.t.i.g.k.h.z.z.X.> P x.f.y.i.f.f.y.y.f.i.i.k.i.",
"O 3.M.d.k.k.g.g.g.g.g.l.g.g.z.z.Y s.g.l.v.v.v.z.m.l.9 -.z.c.1.y.c.z.k.k.z.g.i.6.4.5.4.4.7.p.g.z.g.w z z.g.p.g.k.g.g.g.s.s.s.j.;.",
"- c.c.g.7.t.z.g.g.l.g.g.l.l.z.z.~ i.l.l.v.v.v.v.m.s.9 e.z.k.k.j.g.t.t.7.1.>.#.#.X.X.#.1.6.5.t.g.N.P d g.h.i.g.g.l.k.g.g.g.s.z.#.",
"a k.1.l.t.y.l.l.g.g.l.g.g.l.l.z.~ 0.z.z.v.v.v.v.B.i.i L T L B j s y s y t e 8 e 8 8 8 y J ( ( @.-.T k 0.f.i.l.g.z.g.h.l.g.g.k.} ",
" .g.X.l.l.l.g.g.g.l.g.g.g.g.g.x.~ -.l.l.v.v.v.l.d.6.4 i } o.&.;.8.8.9.8.*.} j @ % # % 4 n ~ M 5 = % d 4.i.g.g.g.g.x.g.z.g.z.g.) "
};
