/* XPM */
static char *result[] = {
/* columns rows colors chars-per-pixel */
"64 64 147 2 ",
"   c #20190F",
".  c #231C12",
"X  c #272014",
"o  c #2B2416",
"O  c #2E2719",
"+  c #2F281A",
"@  c #31271C",
"#  c #342B1C",
"$  c #382F1F",
"%  c #39311F",
"&  c #372C21",
"*  c #382E21",
"=  c #3D3422",
"-  c #3E3825",
";  c #413624",
":  c #433A25",
">  c #493E27",
",  c #423728",
"<  c #463C29",
"1  c #493E2A",
"2  c #494127",
"3  c #4D422C",
"4  c #51462E",
"5  c #554A2E",
"6  c #594E2F",
"7  c #4D4531",
"8  c #524631",
"9  c #564A32",
"0  c #5A4D34",
"q  c #5B4F38",
"w  c #5E5135",
"e  c #5E5239",
"r  c #625536",
"t  c #655937",
"y  c #6B5A33",
"u  c #62553A",
"i  c #66593C",
"p  c #695C3C",
"a  c #705E36",
"s  c #6E613D",
"d  c #726037",
"f  c #72643E",
"g  c #79673C",
"h  c #76683F",
"j  c #79693D",
"k  c #6B5E41",
"l  c #6E6142",
"z  c #726444",
"x  c #776844",
"c  c #7B6C44",
"v  c #756648",
"b  c #766849",
"n  c #7B6C4B",
"m  c #7F7046",
"M  c #7F704C",
"N  c #7F7150",
"B  c #817247",
"V  c #84744B",
"C  c #87784B",
"Z  c #8B7C4E",
"A  c #907F4F",
"S  c #837553",
"D  c #877855",
"F  c #8B7C54",
"G  c #84765A",
"H  c #8C7D59",
"J  c #907F51",
"K  c #91804F",
"L  c #8F805B",
"P  c #938352",
"I  c #988754",
"U  c #9C8A56",
"Y  c #93835C",
"T  c #98875E",
"R  c #9B8A5C",
"E  c #A28F59",
"W  c #A5925B",
"Q  c #AA965C",
"!  c #AD995E",
"~  c #B09B5F",
"^  c #968661",
"/  c #968865",
"(  c #9C8C64",
")  c #93876F",
"_  c #9E8F68",
"`  c #A08F61",
"'  c #A08F6A",
"]  c #A39264",
"[  c #A99664",
"{  c #AC9965",
"}  c #A4946A",
"|  c #A8976B",
" . c #AB9A6D",
".. c #B39D61",
"X. c #B19F6B",
"o. c #A59572",
"O. c #AC9D73",
"+. c #A99B7A",
"@. c #B09F75",
"#. c #B7A063",
"$. c #BBA465",
"%. c #B4A26E",
"&. c #BCA66A",
"*. c #AFA074",
"=. c #AFA17D",
"-. c #B4A374",
";. c #B8A673",
":. c #BCA974",
">. c #B5A57A",
",. c #B8A77A",
"<. c #BCAB7C",
"1. c #C0A767",
"2. c #C4AA69",
"3. c #CAAE6C",
"4. c #CDB16E",
"5. c #D0B36F",
"6. c #C1AE77",
"7. c #C2AF7A",
"8. c #CDB270",
"9. c #C4B27C",
"0. c #C9B57E",
"q. c #D1B572",
"w. c #D3B978",
"e. c #B2A581",
"r. c #B7A982",
"t. c #BDAD83",
"y. c #B2A588",
"u. c #C0AF80",
"i. c #C5B484",
"p. c #C8B787",
"a. c #CCB983",
"s. c #C5B589",
"d. c #CBBB8B",
"f. c #D1BF8A",
"g. c #CEBE91",
"h. c #D5C38F",
"j. c #D4C392",
"k. c #D9C897",
"l. c #DBCB9B",
"z. c #D6C9A0",
"x. c #DFD3B0",
"c. c #E3D3A4",
"v. c #ECDEB3",
"b. c #E5DABD",
"n. c #E4DCCD",
"m. c #E9E1CC",
"M. c #EBE3D4",
/* pixels */
"$ $ % = ; ; : < < 3 3 3 3 > > 8 u l S H H ( ` ] | X.X.O._ Y V n c c x p q 8 1 ; * * * * = < 1 9 9 8 0 0 e e 9 4 9 r w 9 4 , = $ ",
"> 9 0 e u i p l z V Z C B x b b b V S V S C D D F H R | X.%.-.X.X.{ { ] R J J V z 1 3 0 e q q q i i v S S S n b c z b v l u 9 ; ",
"e p l z x n n c m n m n x z z z z z z x c b n b n n V V Z F J Y J C S V S B S C V 0 k k l z v n G H H H H H S n v b v l k k 0 ; ",
"u l x c m V V C V m n c c x x x c x n b n n x x v n n V V F Z V V V B n c c c b u 7 k k v v N S D H H H D D n n n b l l k i 9 ; ",
"u l m m V C K Z K Z C V B B c m B B B B B z l v v v v b n G C F V V V V n b B b 8 q k l n b n N S S S G G S n n b v v l k k 1 , ",
"i s m V Z F K K P K K C V V B B B V B V V S l z n v v v b n S F D S V V B B c l 8 e k v b b n n n n n S S n n v v l l l k u 1 & ",
"u i m C Z P P I P K K Z C C V C C Z Z Z Z C v l v v n n V n S S S Z V V V B x r < 8 q k k k l l l b N n n n b v l l l l k e , & ",
"e u z Z P P P P P K Z Z C C Z Z A J J J J Z C z z n n S G G G b n V S V V n p 1 - < 1 1 1 < 1 1 8 9 k v v v v k k k k l l q , @ ",
"q q i B Z P I P P K Z C Z Z K K J E I E I J J S v n V G G D N n v N S n b v 9 4 e u u k e q 8 7 1 > 7 9 9 9 9 9 1 l l l l k & @ ",
"9 0 0 i c Z Z Z Z Z Z C C Z K P I E W W E E E J S n N G H G N b n N S b v u 3 e k v b n N n n n n v q < < 8 q 0 k l l v l k & @ ",
"1 1 8 9 q p b V Z Z C V Z Z K P E E ....! Q E E J n n S G D S n v v n S v 9 4 9 k l v n n b z S G n v r 3 q u e k k l l k 1 & @ ",
"* * = , > 9 r a z f s s l x m m V J J J J A J B k r p k z z k k i i i r 0 4 8 1 1 q e e e e q q q q 9 8 > 9 e u q q k 1 < & & & ",
"3 1 1 , = ; < , ; ; ; , = - < 1 1 1 1 1 1 1 > 3 1 8 1 1 1 1 1 8 > 3 9 r k k i q < = = - < < < ; - - < 1 1 9 7 1 1 1 , ; , , , , ",
"l l k u 0 4 , = ; 1 9 p u e u k v z k e 1 r v n S n v z l k k k r q z G ^ H G N u < u n S F S n v z v v b z z k l l z l l k l k ",
"Y H H D S v 4 3 p v n D G S H O.-.,.>.H 0 b Y J H H G D D D D D G n k n D H D n 9 n r.p.,. .] ( T ^ ^ ^ T ( ` { >.,.;.@.| ( T H ",
"z l l k l N r i v n S G n v n ' G ( s.} 0 n Y H G F G H H Y ^ ^ H H S k p v z q 8 _ <.O.( Y H F S V n b c b b n S D S S S B z l ",
"i i i k k v e l v n S S v v n H H n | H 9 b D D S S G H H ' | | | ' ' H G v u 1 1 T H B x z z p p u u r u u u i u r w u u u u i ",
"p i k k k z q l z z v b v v S G ' G D S 1 l S S V G D H ( ' | @.@. . .o.( H v 1 < S D S c z l p i u u u r r u u r u u u y k k i ",
"i k k p l l q k l k l b z v b S H @.' v 1 i l b n S H H T ( ^ ^ ' | o.| ' ^ n 9 , b S B b z l p i i u r w w w w w w u u u k u k ",
"i i k k l k 8 u u u p l v v v v S H ,.' w 0 l b S H H H H D G H ( o.o.' ' ( b 8 , l D B b x z k i u r r w w w w w w w u u u i i ",
"r k k l l u 1 e u u u l k v v v b S _  .l 1 l n S D H D D D H H ( ' o.' / ^ v 8 , q V B b x z p i u w w w w 0 0 0 w w u u i i k ",
"k k k l l e , 0 w u u p v l z v v n H | b 9 l n S G S n S G H H ^ ' ' ( Y F b 0 , 3 n n x v l a i u u w w w 0 0 w w w w u i i u ",
"k k k l l 0 ; 8 e u q e k v z v v n H | S 9 k b G S v n n S S D H ^ H ^ H G z q , < v b z a k a i r w w w w 0 0 0 w 0 w u u i i ",
"i i a l i 1 ; , 9 e 0 0 k k l z v n D | n 1 u n S n b n n S S S D H H H G v u 4 , - i x z l k i i r u w 0 9 0 0 0 w w w u u u i ",
"q e i u 4 < = = 1 7 3 1 > 3 9 e k n S G i 1 4 i l k k k k u l l v v b z l u 8 < , ; 1 i i u i u u y w w 0 9 9 9 4 0 0 q w 9 w w ",
"0 8 7 1 < 3 8 3 1 1 1 8 4 5 9 9 9 u i w i l z z k i u u i k p e 9 9 9 9 1 1 1 9 q 1 9 1 , , ; ; , , , 1 4 e y u 0 u k B B k k u ",
"` R H F F Y Y Y T T ^ T T ( ] ] ' [ | X.<.i.d.a.<.>.,.7.f.k.,.J z i H H S B H J F S B z k k i k l l S H J H J ` J H J H J J J @.",
"] | [ ` R Y I I R ` { X.%.;.<.:.6.6.:.6.7.6.6.0.0.a.a.a.f.g.:.Z l ` k.i.` J Z J Z D D S V B V S D J J J ` J A A J Z J Z H S F J ",
"V V B n B V C Z Z P I I U W E W W Q ! ~ ~ ~ ~ ..W E Q [ [ { { B b u.f.[ F B B x x z z z a i y i a z B B B Z B V V C C C F B B B ",
"B n B B C F A A P I U U E W Q Q Q ! ......1.1.2.&...Q W W W E B B 6.X.I Z V B B B a a z l l k i B z B B B B Z V C C C A F C B B ",
"Z Z A A P K I I U E E W W Q Q Q ! ......1.1.3.4.5.3.2.$...~ E B z Q W I A C B B B z B z z B z B B B B B V Z C C Z Z A A A J A F ",
"J I P I I I U E E W W Q Q Q Q ! ~ ....1.1.2.3.5.q.q.q.3.3.1.E j a E E E A Z V B B B B B z B B B B V V V C Z Z Z A A J J J J J J ",
"I I I I U U E E E Q ! Q Q ! ! ......$.1.2.3.4.q.w.w.q.5.3.1.E g a J E E A A A V B B B B B V C C Z Z Z Z Z Z K K K K P I I I U I ",
"U I I I U I E E Q Q ! ! ! ! ~ ....$.$.1.1.2.4.5.q.w.q.5.3.1.E g y C E E J J A A C C C V C C Z Z Z K Z K F K K P P P I I U U U U ",
"I I I I I I E E W Q Q Q Q ! ! ~ ..$...1.1.2.3.5.5.q.5.4.3.1.Q B y a E J J J A C C C C V C C A Z K Z K K K K P P I I I U U U U U ",
"I K I A A A I E E W W W W Q Q ! ! ~ ....$.$.2.5.5.5.5.3.1.1.Q B w y Z A A A A C V V C C C Z A K K K K K K K K P I I I U U U U U ",
"Z C C C C C B B A E E E E W E W Q ~ ! ! ......1.3.2.1.$.~ W A a 9 4 c C C C C V B B V V C C Z V V m m c m m V V C K Z B B C Z Z ",
"5 5 5 5 4 4 > > w B A A J J A Z Z C B B x a a x B B B a p r 6 1 : ; 0 i i r r p p u t r q 9 4 4 4 3 3 4 4 5 4 4 0 r w 4 5 6 w 0 ",
"D l , $ $ ; , , < 4 5 4 1 4 4 9 5 1 ; ; < < 1 4 0 u p p r r 9 4 > ; ; ; ; # # ; = < 1 3 ; = - 1 5 r l b S S V S Y _ +.=.>.=.o.) ",
"n.r.5 ; 4 r u i u u u r 1 9 k l z 0 1 i z F ] ,.u.d.g.a.;.[ ] W E J J S B z u 1 9 k v v u 0 i v M H Y (  .>.>.<.<.i.g.z.x.b.m.M.",
"n.y.9 > p v n n n n b v k k G D S r S [ [ X.6.i.f.j.c.v.c.h.f.a.0.7.6.X.[ ` R r r l n N b u v S D S D H Y _ } | | ( ^ ^ ( ' o.+.",
"g.e.9 8 k l v S N N S n q k H S B 0 D H F A J E ! ..6.0.0.7.;...[ E J Z Z C T i 8 k v n v q p S S D G H ^ ' |  . .] ( Y H D S G ",
"g.e.9 8 k l l n S S S k 1 k n k q 1 D ` J J E W ..$.2.1.1.$.#...Q E I J F Z ( l ; 3 q q q 8 9 k n G H H ^ ' | O. .| ` ^ H G S S ",
"t.+.9 1 k k k z b n n k 8 e k e 0 1 D J J J E ~ ..1.3.4.4.3.3.2...! W E J C ` b = = ; 9 r i p k p b D H Y ^ ` ' } ] ( ^ H G S n ",
"@.( 4 1 e u p l l z v e l H D S z 9 D ^ J E E ~ #.2.4.5.q.q.q.3.2...! E I F } n ; ; 0 / ,.,.,.t.>.O.O._ H H ^ ^ ( ( ^ H F N n n ",
"_ H 1 ; 8 e u u l v z k ' ,.' H z 9 D J A I E ~ $.3.5.q.q.q.q.5.3.1...W I J ` z ; 0 S } <.i.s.s.g.l.l.d.@.H H G S C D D G V n v ",
"H G 8 4 n H `  .,.@.H z } @.' H z 9 S H V A E ~ #.1.4.q.q.q.q.5.3.1...W I J ( l 8 k n ( } _ ^ ^ / ` t.j.g.t.' C S G C G N N b v ",
"D S 8 u D H ' @.u.k.' S ( ^ H D l 4 S J V C E Q ..&.3.q.q.q.q.4.2.1...W I J T u 0 k v G _ ( ( ^ Y D T g.g.>._ H G D G G N n v v ",
"n k 8 0 M G L _ *.i.S k S G G V p > v T H P I W ..&.2.8.q.4.3.3.&.#.{ E Y K L w 9 l l b L / Y / Y Y Y t.+.z z S S S G S n b b b ",
"u e 9 1 e n D ^ ( N 0 i z v V b 0 < e B D S F J ( | X.-.;.X.X.X.{ ] E I K F m 7 7 e l z N L L L G H G S l 8 u b n N N N b v z z ",
"0 q 8 1 5 i b n b i p p k k v k 4 9 q 9 5 0 r u i u k k l z z k s z b x l i 9 2 2 7 5 q e s s l z z p p 9 3 7 9 8 7 8 8 8 0 0 9 ",
"e k n v b L ( } *.-. .H z 0 0 9 4 p z k u e q 0 9 4 3 < > > > 1 4 9 0 w e u z K L L L L N L N M S F H } } ( / ^ H N l u 0 8 9 0 ",
"@.,.7.i.p.d.j.l.l.k.d.;.R D b p 5 9 v B V C S S V n z 4 0 n H ( } *.*.*.>.<.<.t.p.h.p.t.<.:.*.| [ ] ] ;.,.,.h.k.k.j.p.,.O. .` | ",
"E ` ` ` ` W { { %.;.;.%. .[ [ T b 4 0 b V F F J Y D p 5 H u.<.<.<.:.%.X.| ` }  . .O.-.] P P K C Z F Z Z P F | <.9.<.X.] ` T Y Y ",
"C Z Z Z F K K P P P P P P P P P P u > i b n b z k 9 < 1 D } I I U U U U I P K C D n m M m V B V V C V c c V C D S V m m x f m V ",
"F Z Z A A Z Z A K K A F A Z Z Z F e ; 4 0 e 0 2 < > 1 1 v ( J J P P I I K K K M c x x m m m j h B B B B b x c c n x x z f x B C ",
"Z Z Z Z C C C V V C C V V V C B C e $ $ $ % < 7 0 e e 9 u H Z C K C K C C C C m h h x h h h h h h m h m j m m h m x x h c m B C ",
"V V C C B B m m c c c c c c m j x 5 # % 2 0 e k l k k 0 9 n m m m m m m m m m h h h f f s s s s f h h h m m m h x x h h j m m B ",
"j B m c c j x f s s s s f s s s i = = 7 e e i k k i k 9 3 z x l f f f f f s s f h s d s s s t s s s s f h h h h f s f s f h m j ",
"f g f f s s p y t t t t t t t t 9 $ , q 0 q e e u e e 7 2 p l t s t t s t d t s t t t y 6 t r t t t t s t s d y s s s s s s f s ",
"y y t i t 6 6 6 6 6 6 6 6 6 6 6 2 O - 7 7 8 8 q q e q < - 9 e w r 6 6 6 6 r 6 r 6 6 6 6 6 6 6 6 6 6 t t r r r r r r r t t t t y ",
"w 6 6 5 4 2 2 2 2 2 2 2 2 2 2 2 - X * 1 7 7 7 7 7 7 7 * * 2 3 8 5 2 5 5 5 2 2 5 5 2 6 2 5 5 6 5 6 6 5 5 6 6 5 5 5 5 6 6 6 w w w ",
"4 3 2 : ; ; % - = = % : ; ; : - + . # - - < < 7 2 < - + # - - - - : : % % : 2 : 2 - - 2 2 2 2 2 2 2 2 2 2 2 2 2 : 2 5 2 5 2 4 5 ",
"2 : - % % % % # O X o o O + + o .   + * = - - - - - = X o + O O O O + + + + + + + o o + % % - - - - - - : % % % % % % % % : : > "
};
