/* XPM */
static char *result[] = {
/* columns rows colors chars-per-pixel */
"64 64 70 1 ",
"  c #120B0E",
". c #150E12",
"X c #190F16",
"o c #1A1117",
"O c #1D121A",
"+ c #21161D",
"@ c #24191E",
"# c #251424",
"$ c #281627",
"% c #261922",
"& c #2A1B26",
"* c #291728",
"= c #2C1A29",
"- c #311E2C",
"; c #2E2026",
": c #2F2129",
"> c #312326",
", c #34212E",
"< c #38232F",
"1 c #36282C",
"2 c #3A2A2E",
"3 c #362330",
"4 c #3A2532",
"5 c #3D2935",
"6 c #3F2B38",
"7 c #40292F",
"8 c #412C35",
"9 c #422D3A",
"0 c #443236",
"q c #4A3236",
"w c #46313C",
"e c #49343E",
"r c #4E3A3D",
"t c #513B3E",
"y c #4B3541",
"u c #4E3943",
"i c #523C45",
"p c #583F47",
"a c #553E49",
"s c #554145",
"d c #594346",
"f c #56414A",
"g c #5B444C",
"h c #5E484D",
"j c #5F4A50",
"k c #614B4E",
"l c #634D52",
"z c #684F52",
"x c #665154",
"c c #6A5355",
"v c #6D5659",
"b c #6E595A",
"n c #715857",
"m c #725B5C",
"M c #795F5F",
"N c #7C625F",
"B c #775F60",
"V c #6F6165",
"C c #766060",
"Z c #7B6363",
"A c #816664",
"S c #826967",
"D c #846B6A",
"F c #896F6B",
"G c #8B726E",
"H c #8D7473",
"J c #907670",
"K c #907873",
"L c #9D837D",
"P c #9F8580",
/* pixels */
"bmbxi=,9ipiuuyw95<-=**3=*==-569y9wuuyuyibBg-=-33-3-=**$#=448yall",
"bmcli-,9iaiiyy994<-=$$-=***==--3559w999ypzf3yalcvzpy9-*#=-48yall",
"bmxls=,5yiiuyyy944-=###=*#*##**=*==,--49yai-5ugklfu94-*#=3-4wall",
"bbcki=-49yyyyy9444-*$###******=#######*-4wy35yiaaiy9<-*#--<4eall",
"vvxhs===-34434444-=*#*--5yipkzlprusiy93-=43349yaauy43=*#---5egll",
"xxjhi*#%**-=****=**##46yyypkzmBzuwazlgpi9**-5yyiiy94<-*#-3-49fjj",
"xxjgy*whzclgpuw9-=*#*433899ipcBk9<9yfppgi=*-49yiay99<-*#=3-49ijj",
"jjgge,yxbclgiw943-*##333359iajcg5,9yafafi=*-49yiaiy54=*$---59yaf",
"gpai5-5uffai9543-=*#$33---3eyigy-=,39euii=$-39iiau953-*#-3-59yia",
"fay9-=5ypfauy6433=$##=---=--3<43===*==,45*#-39yaiy953-*$-3359wui",
"iy94==4yiaiy99843=####$-59eripgkxcvvxhdr8=#=35yuyy953-*#34354yyy",
"5543*==-49yy9944-*##O#=--59risgkxvNFKGFNz8*=36yyy9943-*#=3-33364",
"$%**##***-4995<-**$###-***--27778qtknAAAcu**359999943=*##$$$*#*=",
"isauy94--**=-=**$$##+*<***=-4577777qtzncdr=$*-554444=$*#$,36yyuu",
"cxlgaai993-##***$##O+$<*#**-987887qqqtzktq=##*==-=**$###=5ufjxxj",
"hgfaiyw993-**<433=###$3*#*--0888q0qeqtzkqq=*=3669we95-$#*6uugjlj",
"gggaiyyy54-#=943-=*###3*$*=3yw88qrrsrrzdqw*=4yajkcccky3#=yyyalla",
"jgaaiyy69<3*=9833=##O#3*$*:3yy0qtdtktrlsq9*-4yyaaaaayy-**3yiplxa",
"gjaayyy6554*-w93-=*##*3*$*=3yu0eskdzttxtq0*-6yuapaai93-**3yigaga",
"jfgayyyyy9<#=w9<--*##*3*$*44up0ihkhcstltq9**3yaagpauyy3**3yyaaaj",
"ggaayyyyw5-#-9833=#OO*3*$=44usefklkbdslrqq*=4yualpauy6-**3yuaaaa",
"jaaiyyyy93-#-954-**#O*3**=55ugrhkxxvdszrq0==3yiajgauy6-*#-9yauaa",
"aaauyy6y5-=#=95<-=###*3**=55ujilxxxbddxrqq**3yifaaayy6-**=4yyyaa",
"uayy46433-*#=94<3=###*3**=59ujflxbbbhsvrqq=*3yiajaay66-**=36yyuy",
"yyy64543-=*$=84<-=*###-**=69ujjvvbmbkdbrr0:*5wuiaiiy98-*#*-46yy6",
"66334----=##*----*###*-*#=99ujjvbmbbkdbtr0==4wyuyyuy94,*#*-34466",
"=***$$**$$##*=*$####O#-$*=99ujxvmVbbxhNrq04=49wyyy9984-*##**==**",
"==5yy943*$-9yy93=**###3#*=6yujxvmmbbldCrre3=46wyyye953-#*-3499y3",
"33yyyy53**9ajiy433=*#%3#*=9yygxvbCnblhnrre<=366y99y543-*=369yuyw",
"3-9y944-**6aau9443*$#$-$*=69ufjxbmbckhbtrr1*-44645543--**3566666",
"*#-443--*$3aayy56-*$#$3$*=6yyffjcbbxkdctrr5#*-------=**#*---:::3",
"y69443-*$#-yay9y4-*$##3#**39yagjkxxxhsxhiy3$$=-34334585=#*=35666",
"vmmcgi93*#*9yyy9<-*###-*#*--5ypghkjhsdhdir4%=40ifgkkcMn9#*5yigkk",
"BBBcji94=**4yyy4,-*##$3*$#*-39yisssseussre4$*,45y9yipgle#*<9wigk",
"BBvlgi94-**49yy4,-$###-=#$**-48qrrr0er0rq9-#=-4599wuyyi9#=<9yall",
"mcllgy94-**-4y94,-*###**####*-33222w054,-*##*-4ww9yaayiy#*-9yijl",
"llljay94-**-4983,-*##**==*****=*=*==:,6ry9*#*-<5yuyiayuy$*-49yia",
"gljgi994-**--443-=**=89yiiiiyiiagshjjVHLPG3#*=459uaaiyyy$=-69yaf",
"aggayy94-##***=-**#,48wyiiiiappakcbBZZDKJSu#*-<59yagyyyy$$-34yua",
"yyyy98<-*#*-3-3-=**<-=-4989899yyyyuuuusippu**=<89yyaiyyy$$--3446",
"=---==****5pcBvzp9-<---,4989yyyyyyyyyyiuyau**--85yyyyyyy##***===",
"auy963-=#=6pzzzky,=<-=-,4499949yeewweyuyyii*#--86yyyyyyy$=39allf",
"Bvlgiy95=*8ypuy9,-*,-==,3966444996539y989ui*#*-56yyyy6y-$-yuxDSb",
"jjaiy943*=5yyy94,-*-3===-3-3-*--=3==-33459y***-3466yy64*#-4yfllj",
"jgaiyy4-#*49y994<=**=-=*#****#*#$#$###$&=3=##*--34654-*#$=49igjj",
"ajaau943**499y94,-**#*=*****-333443:==$$*###$#**=--**$###*<9uafa",
"jaaau953**499964,-*###-,---6yagxxbBmbczhi=*=459yy963-=*##*35uaga",
"agaay95-**,444<3,=*##*,---34yujglbZDFAMcl5=59ufljauy54-###39yiaa",
"uyyyw94-*#$*****#$$##*5==-35yajlxxxBSAmgj6*366yyuy9553*##$-4yyy9",
"433-3--=##*49wy95=*##*4---49agaxxxlxbBcfx6=366yyuyy64-=##$*--443",
"=**--==*##4iggiw53=##*5=-39yaaglxxllvcljb6*,36wyyyy43-*###$*====",
"lxvBckp9-*-yiyw64,=$##3=--39aallxxllxxlxb6*,46wwuiy43-*##*349yag",
"DHKSvzgi9*-yuuy63=*$#*4-3-49iajljvjjjxjlb4$-369yau943-$##39igxBB",
"BZZvzjau5**9yy953=**#%4=--<4iapkjjjjjjihb3*:36wyauy64-$#*,9ualxx",
"llvxlgpy5#*5w843-=####3*--<<yuaaafaisuysx-#=366yyy643-$#*,9yighl",
"lcclgfy03**3543-=$##O#-=*=--4yyyuiiuuywuj:#*:36wy664-=###-4wutii",
"jhjssre04##=,,>-$%##O#*%=*=,1560yyyeew0ws:+%::466663:%#O#=,5w0ss",
"ssssrew2,#+#&=$&%#OOXO##$&&=,,11525665150;+@%::656:::#OoO#:46etu",
"6ww66671;+OO#@@##OOOOXOO%##+##@;%%%%&%%;1@o@#::::1::##OoO#$,120w",
"::>;;;@@+OOXoOOoOXXXXXXXOo+O@O@;;;:::;&@+.o+#%:::::%%OO.OOO+%;;;",
"%@@Oooo+oo++++OOoo....o+@;>>1220rrssdds0:@OOO%%%:&%%Ooo.ooOOO+@@",
"6r62@.@@1122>>&%@+Oo..o+@%&@;;1>1111220601:ooO%%#@@OO....+%::122",
"1222@.o@;;&&@@@+ooo. .oooooo+oo@@@@@@@;;11:..OOOOOOO..  .O@@@&:1",
">111@  +@@@@@++ooo.   o.  oooo@o++@@O@@@1:%. ......     .OOOO%%:"
};
