/* XPM */
static char *result[] = {
/* columns rows colors chars-per-pixel */
"64 64 93 2 ",
"   c #1D1D2A",
".  c #1E212E",
"X  c #1F2330",
"o  c #21232F",
"O  c #222533",
"+  c #242836",
"@  c #282A36",
"#  c #262A3A",
"$  c #292E3D",
"%  c #2C303F",
"&  c #2B2F40",
"*  c #2D3243",
"=  c #2F3348",
"-  c #2F394A",
";  c #313546",
":  c #32364C",
">  c #333B4C",
",  c #393E4F",
"<  c #333652",
"1  c #353B54",
"2  c #393F54",
"3  c #373C59",
"4  c #3A3E5C",
"5  c #354154",
"6  c #3A4355",
"7  c #364559",
"8  c #3C425E",
"9  c #36495D",
"0  c #3B4A5E",
"q  c #3E4361",
"w  c #3D4C63",
"e  c #3B5166",
"r  c #3C5469",
"t  c #3C5B6D",
"y  c #3E5F71",
"u  c #3F6173",
"i  c #40455B",
"p  c #454A5F",
"a  c #414665",
"s  c #434966",
"d  c #484D65",
"f  c #444768",
"g  c #454B6A",
"h  c #494D6E",
"j  c #425167",
"k  c #495067",
"l  c #44546C",
"z  c #49526E",
"x  c #43596E",
"c  c #485A6F",
"v  c #4B4F71",
"b  c #475770",
"n  c #4D5373",
"m  c #455B71",
"M  c #4B5B74",
"N  c #4E5E78",
"B  c #505576",
"V  c #505977",
"C  c #525679",
"Z  c #545B7C",
"A  c #585D7F",
"S  c #446276",
"D  c #496177",
"F  c #446679",
"G  c #4D637A",
"H  c #44687A",
"J  c #4C697E",
"K  c #53627D",
"L  c #59627F",
"P  c #50687F",
"I  c #575F80",
"U  c #595E80",
"Y  c #4D6C81",
"T  c #566581",
"R  c #5B6383",
"E  c #556B83",
"W  c #5B6A85",
"Q  c #5F6788",
"!  c #5E6C89",
"~  c #547187",
"^  c #567289",
"/  c #5D728C",
"(  c #616B87",
")  c #616C8B",
"_  c #63718E",
"`  c #667592",
"'  c #687593",
"]  c #647A95",
"[  c #697A96",
"{  c #677D98",
"}  c #6B7C99",
"|  c #6A839D",
" . c #6C8BA4",
/* pixels */
"s 8 z _ N M M z z c l e b D E | F b M K W Z K K Z z d 8 g h v f a 4 4 q q a a 8 r r r w z a a s z z V K K l L ( W Z n z M V n B ",
"p 8 l N b Z A b M K K M J ~  . .^ / W K L P ! ) ( L B a v A ( C B h a g f h v k b b N l b n z B V K L P E K / | } ( K Z R L n z ",
"a q 8 g h s a q 8 w g b P ~ ^ Y m M b r l l c z z z a 3 q v ( A Z v a a q f q q n n v a q a f g n Z L K M z l M c k w q g w 8 w ",
"B g a n C h n v h h h z N M D H D M N Z K N n g s f 8 3 8 f f f d a q 8 q 8 4 q g g h v g a q q q a s s s g l b c z e s b z z n ",
"L L n R R n h z g v B Z A Z K W R N Z B C U U U C B g f f f f h h f f a q q q q B B C U C v g g s s g h v n b K K K z e M M M A ",
"W R A ) ) Z B n g n Z U A Z Z L Z n n n C U U U B v g h B h v B v v v v v v f g Z C U U C n f f g n n v n Z Z G N G c l K K T T ",
"( ) ( ) ) Q A n v A Q Q U U A Z B v B C U U ) U C v g g B h B B C B C U C n v v Z U U U Z B v v h v n C R Z M N N N b r E K W ) ",
"( ) Q U B Z N g g Q ) R U A Z C v v C C U U ) U B v f f B B B Z C C C U U Z v Z U C B C U U U C n v B R Z n n N Z m l j W W ! ) ",
"L R R R b l w w w R Q U Z Z B h v g A U Z U ( ( A h g f B B B C U C C B B B v A C B B A U R U U C B Z B g n n Z N m b j K W R E ",
"n N Z M M K D b l A R Z B n h a a a C I U U U Q A B h f B B A Z B B h g f g g Z B C Z A A R Q U Z U C v h g n n V K D x G K Z K ",
"z N N N N G J D M R K n n h f q 4 q n C Z U U U A C B g C C A C v v f 8 8 8 a Z n Z R Z Z K A K R U Z C B n C A T J G m K W K K ",
"M M M K K T E E E { _ Q I B v a q q B A C C C U ( ( C g U R Q Z g 8 q 4 8 0 s Z Z ! ! W W W R R R R R R R U U R Z K J M / ! R K ",
"L L W ! c D G G c G K K N n w 3 g s n R A A Q ) ' ) C g R R W W U v g g b Z N K K P W ^ ! ! W R A Z n Z A C V b N P D l W _ ) ( ",
"( K K G j l c b M M D Z M b s 7 n s s Z Z R Q _ _ ) h q g h n n n v g h M M l x M M M D D c x g q 8 4 3 4 8 a a g l e w l G G K ",
"K N z l x Z V b z M M M x x l 7 g q s n z g h h h q q g Q K K R Z Z N M l r t b m D K E J x l g g s g a a a a a g l j l j w j l ",
"L Z c j n K n g d s g g s g w 3 8 q v I A n v g w q w M ] ! ) ! W E W K x t H F J ! E E G m G b g g h h h g g h n b M N M x k x ",
"L K M w M K z d s p s s s d f 4 q f B C C C C B l h b b W ! / E E E W P x x F H J W W E P Z ! A n B V A C B B B C Z C A C n x k ",
"L V j 0 M K M k a i i a s h d 4 4 i h C U U R A Z A M w x b x t x S F F e t F H J E E K G D _ Q R Z B A U Z n v C U U U Z B x k ",
"K M c w M Z z d i a g g g g h a 8 g v n n n g h h h g x M x e t t u u u r t S F J W W P c K W L R U C A Q Z v h B U ) ) Q A n a ",
"k c M z M n s p g v C B h h h f h C C C A C n n B n x b J l e y y u u u t u H J J ^ / G x E Q V A A A A U Z C n Z ( ) ) R B h s ",
"z z b l l g z B C A C C B C h f v C C U U U U U C n v g b r m H J D S y x H J H J P E H t K W Z B A A C C A U U Q U Q U V g f q ",
"V h h a 8 a d z B C A Z C C h f h C Q ( ( U U Q A C n w g M m m J J H D D K M K P P E J D K Q M v h n n B C A R U A C n g f a q ",
"a i a q a a a a f f q f f h f 4 f U ) Q Q Z C A Z Z n 8 l l M b M m J J D K K K K G E ~ D K ) U B n n n C Z C A Q C C h h g q 8 ",
"g g h h h f i a g f h g g v C v g U U Z C B B B C Z h a b b n b M G G G G L P P K P E ] ^ M R ) R Z A L Q A Z Z Z Z C n v a q q ",
"d d h h h f q q q q h C v B C B h Z U Z B h v n C n f q B N B B M N J M G ' / ! ^ / | ] J M x b v g s s s w q 8 f f f f q q h v ",
"h f f g v v f f a a f B B C C v a g v h g f s g g q 4 8 v B b n N M D b b J / ] ] { ] / K G M b b b b b b M b g n B C B g a v C ",
"v h f a f h B v h h v v B U C h v n n n n B B v h f a q q q a n l l m G m D P T W ! / / ! ! W K N I Z N I N M b Q R Z C v s Z _ ",
"B B g a 4 f B C B B v v v C C f g n n C C C C v v v v g g s s s g l x D m K W W W ! W ! ! / W E ! Q E N N N m M | R Z C v v Z Q ",
"( L v h f f g C C C B h h C U f g C n C C C B v v v v v v v h g n x l x c K W ! _ ' / ! W W E `  ._ ( Z M M G M Q U U C v g B v ",
"v A B B B h h C A A B v v B B f g B n R U Z C C B C B B Z C B n n z l b l N W ) [ } ` W E T K ! [ ' Q T N M E N R U C B f g v g ",
"d f B Z C C A C C C C C v v C a s n v A R C C C C C U U U U Z n s s x z w N E W ' ' ) T T K K Q ' ) ! W T K E G R I n v f f n v ",
"h h B A A Z A Z C C C C C B B f a h h C R A A B n B C U U C B v a s z c w Z W W _ ) R T R E K ) _ Q Q E T K T Z I C v a q a B v ",
"v v v U U U v U v U v U U v v f f v v C U U U C B B U U U v h h g g h x q M ! ) ` R N N R T N ! ) W T K Z K K N Z n g q 3 q B B ",
"B v f f v v U v B v v B v v B f q v C U U U U C U B B C v g a g h h n M s M R T R R N n Z M M W Q W T R E Z Z N Z B g 4 1 q B C ",
"v v v U v v v U v v v v B B B f f B C U U U U C v v C B v v h a q g T T q Z T K I T R N N M M R T K K W R R Z v n Z v q a g C C ",
"f v v v v v v v v v v B B U B f h C C C U C C v v v v v v B v g a s M n q b n T Q R R Z N m M K K N N Z U I C v q q q s f f U B ",
"B U v v v f f f U U v U U B v v C U C U C B v h f h f h v B v v g h v g q g b A Q Q R Z C b b m b n b n n Z B g q 8 f v f f U U ",
"U U B B U v v v f v U U v v v v B U C U C U U B U U v h v B v v v h h n q e b N R Q I N N N M I A K N n n v g a 4 8 f g g g ) _ ",
"f q q f f f f f f q 3 4 q q q a a v C C U U U v C U v v B U C v n n C n q a h n C I Z N N B B W ' ] Q I R n g 4 3 4 8 a f q f h ",
"< 4 4 q f 4 < 3 q 4 < < 3 < 3 4 8 q a f g f f q 4 q q 4 4 a a q q q q q 4 4 q q w f q 4 4 4 8 8 w h s f a 8 4 4 3 4 4 4 4 8 4 3 ",
"4 v v f v f 4 f v h a 4 4 4 q q q q f v C B v v v v g q a B B B v n h q q h f f g h f 8 q w q 8 a f f f 8 a q f a q a a f a f q ",
"f B B B v f a C B C v f q a f f a g g C U B B U U C B f g U U C C C v a q v v h h h q 8 g l r g C B v v g C n v a q a g f a q q ",
"a C C U C v f v B C v v v v C v h B C C U C U U U U U v v U C C Z Z B h g U C v g h f 8 e b l v C Z B v g B Z n g g h v v g a 4 ",
"4 A ) ( U C d v v B B B B U U v h B C B B C C I U U U v h C C U Q Q A C v U U C n v f q q q q w C Z C v g n C C U C v B v h f 8 ",
"4 g h h d f a h v B U C v C C v v B C C C v U U U U U C n Q R U A A Q R s n R ) R n w g v w q g Z U B v s B I ) Q I B B f f f 8 ",
"i v h h h B f v v U U U v v v g g B B B U B U C U Q U C C ) R Q ) ( W N s q q g g q n Z B n w h U C C v h I I R U U B v g a f q ",
"g C C C B Z h B v U ( Q C g a a a B v v v U U C C U I Z B R Q _ Q Z h h b s q 8 q q Z I b b g w Z Z Z N n I I I C B v g f a q q ",
"h U A A A A v Z U U U U C h a q f B v v U C U B v v C C g q q f v g Z R I Z N g h v C I B n b w l N Z b e T R B b n h f q 4 q q ",
"k R Q A Z R n Z I R Q Q C h a q g B v n C C C n g v B B g f v g T Z Q Q T Z Z b h b n A K V M l r t e w w K Z z M M n s q 4 q a ",
"d R R R R ( Z K Q Q Q Q C h a a q g v v B B C n v B C B q v B h T Z Q ) T b n q s z z A Z Z V M m m t r e N m M M M x g a a g h ",
"g Q ( ( W W K ! Q ( Q Q Z h a g a q w v n v B n B C U U a g h f B N Z b v s a 8 q s s A L V K L K G m D r M N z b c z h g g g h ",
"d C C n M n M _ W ( R R Z z g v f 4 g f f f n B U C C U g q q a g g g g s s s q q w w V L A K K G T J F x b N M M Z b n g g g n ",
"d f d h k x M W R Q R T A K K M x q s 8 8 q s g s f a q f g f a a v v B C Z n w w w w g L ( / P J E J K m m K N G N M N M x z z ",
"d v v z b g l M K K W / _ ' [ Q N q 8 3 3 q q w w q 3 < q f q 4 3 a f q a v v g g x c b D P / P T Y J G m K ! W W T W W R K K l ",
"d B B B n l x l l r l M T G M x w q w q q q d l q a 4 1 g g 8 4 4 q 8 < 4 f f w M G G T P L / / E ^ E K F m M m b b b b z x w w ",
"f B B B h M l g w w e e r w 9 7 9 w l w r w a a 8 3 1 1 C v 8 4 8 8 3 < 4 a 4 w M G J W ~ ~ _ | / / ^ P N M x e e w r k x e 9 w ",
"p B v g a d w w 0 7 9 e e t 9 9 7 l x k N l 3 8 i 2 < : v v q q 4 4 < = < < 3 g P D K K K G P L E J G M c j e w 7 w e l e 9 7 7 ",
"2 d d i i d 0 7 7 7 5 7 9 9 e 9 7 l b V M l 8 2 2 < : : f f 4 4 3 < & & = = : z P P G M D c x c c l j t w 0 7 2 7 7 6 w 0 5 5 7 ",
"; > > ; 6 p 6 5 6 1 1 5 5 7 9 9 w x c z s j 7 2 : = = = 4 8 4 3 = & # # $ $ ; i l j r j j j 0 0 w w 0 0 5 > ; > 6 6 5 6 6 5 > > ",
"; $ ; ; i i 5 5 6 - * * $ - 5 7 5 s 9 6 w s 6 ; & & & & 4 4 4 : & # O O @ $ * ; 9 7 7 9 5 6 6 5 > 5 5 5 - * ; > > > > 5 5 5 > ; ",
"% @ $ ; 5 5 * 5 5 & & & $ * - - > 5 > , 0 i 6 & & $ # $ < : : & O O O O O # $ & - > > - > 5 5 > % ; ; ; * # ; > ; * ; > , > ; * ",
"% @ O $ - * $ * * - $ # + # * $ % ; > > , 6 , & # # O # = & & @ O . .   O O $ O O # $ * % ; * - % % ; % $ + ; ; $ $ $ = ; * % % ",
"@ O O # $ $ $ # + + # # # # # * # * ; ; $ ; ; & O O O O & O O O O         O O O . + # + % @ # # # # % % $ O ; ; $ + $ & # + + # ",
"O . . O $ $ X X X X X + + # # - + O + # # # + # +   O . @ o O o .         O .   O + + + + O X @ @ + # # # O $ & $ # + O + O O + "
};
