/* XPM */
static char *result[] = {
/* columns rows colors chars-per-pixel */
"64 64 115 2 ",
"   c #150E11",
".  c #190F13",
"X  c #161114",
"o  c #1B1215",
"O  c #1E1419",
"+  c #1E181A",
"@  c #211517",
"#  c #22161B",
"$  c #25191D",
"%  c #2A1C1E",
"&  c #2C201F",
"*  c #261B21",
"=  c #2B1E23",
"-  c #2B1F28",
";  c #311F21",
":  c #272124",
">  c #2D2124",
",  c #2D222A",
"<  c #332325",
"1  c #392627",
"2  c #332827",
"3  c #33252B",
"4  c #38272A",
"5  c #35282D",
"6  c #3B2A2C",
"7  c #3D302F",
"8  c #342730",
"9  c #362931",
"0  c #3B2D34",
"q  c #3D2F38",
"w  c #3E3135",
"e  c #3E3239",
"r  c #412E2E",
"t  c #44312F",
"y  c #412F32",
"u  c #432F3A",
"i  c #433235",
"p  c #493536",
"a  c #473834",
"s  c #4B3937",
"d  c #43343B",
"f  c #49363B",
"g  c #45393E",
"h  c #4C3A3D",
"j  c #503837",
"k  c #50373F",
"l  c #523D3D",
"z  c #4E403A",
"x  c #53423D",
"c  c #58443F",
"v  c #453740",
"b  c #4B3642",
"n  c #463A41",
"m  c #4D3C43",
"M  c #523C44",
"N  c #583F47",
"B  c #553E49",
"V  c #593F48",
"C  c #4D4146",
"Z  c #4F4349",
"A  c #554244",
"S  c #5A4445",
"D  c #5D4845",
"F  c #55444A",
"G  c #5A444A",
"H  c #56484D",
"J  c #5D494C",
"K  c #5D4C51",
"L  c #604747",
"P  c #624946",
"I  c #614748",
"U  c #624C4D",
"Y  c #694E4C",
"T  c #66504C",
"R  c #6A514E",
"E  c #624E51",
"W  c #655154",
"Q  c #6A5455",
"!  c #6D5857",
"~  c #665558",
"^  c #6C5658",
"/  c #6E585A",
"(  c #715756",
")  c #735955",
"_  c #7A5C56",
"`  c #735C5B",
"'  c #795E5B",
"]  c #77605F",
"[  c #7B615D",
"{  c #755F60",
"}  c #776161",
"|  c #7C6462",
" . c #7F6867",
".. c #7D6869",
"X. c #81645E",
"o. c #816763",
"O. c #836965",
"+. c #8A6E67",
"@. c #856C6A",
"#. c #896F69",
"$. c #86706F",
"%. c #8B726C",
"&. c #8E7A6C",
"*. c #91766D",
"=. c #917B6E",
"-. c #8E7571",
";. c #937771",
":. c #957A72",
">. c #997E74",
",. c #97806F",
"<. c #9C8374",
"1. c #9C837A",
"2. c #A0857C",
"3. c #A48C7C",
"4. c #A88F7D",
/* pixels */
"A ' E E ~ W K H H Z F m h g h ~ W A d f f f k k k f u b B B b u v b B B B V J G A A F d < > 1 c ) X.X._ _ ) Q Q S J U E J S h 0 ",
"J ' W ^ { / ~ W K H F C A h Q | / J A h h k k N M f b B E V B b b B B B V K J G S G G A 4 % 4 D ) X._ ) _ R L S A A G D S A p 1 ",
"E ^ J ^ } { ^ ~ W H Z C i W | ] R J G f h b b M B b b N E V b b B b B b B B B E ! A J W m < < p l l j L P D S A l h f i y 6 4 % ",
"Q ' F Q { / ~ K K H F g i | ] D h f f p h M M N B M b V E B b b B B B B M M E ^ U M S W F 5 % 6 h A A Y ) ] ] ) R U S h i i 4 & ",
"Q | S E / ~ W J J F m d d } ! M i y i i f M M B b b b B B B b b B B B B F J E U N k c U h 5 % y y y i i l A M h h d i 7 i i 4 % ",
"^  .F E E E J J H A A d i ' Q A f M M M B N N M N b b G Q V b b b b B V G V B B M h h J h 3 % w 0 0 w g S S S A A A l h f h 6 = ",
"^ o.J U J J G F F A C i i ' Q A h A N N N N N M f b E ^ { E V B u b B B M B B B M f h J d > $ i i w e C G U U J S S A h h A t > ",
"b U J E J F F A h C d < 6 ' ! A M N V N N N B b f I ^ { { { E V b u b b M M B b b f h J d > % d g e i h A U R U J G F M h S i = ",
"r r r 6 < < 2 2 > : % $ 1 ' / A l A N G V V N f B E ^ { { { W K B u b b B b b b b b f G i = = e e d w g h J Q ( Q U G x M G w & ",
"r i s i 4 1 k h i > $ = r ) ^ S J E A S G V N b V E ^ { { ^ E B b b b b b B B V V N f N e = = , , 3 0 d h A U Q R U S A ! G 4 ; ",
"l X.' D p D -.| ! D i 4 i / Q U ) J N G V V B b V E W ^ { W E B b u u b b b b b f d u m u = * - 5 0 0 d f m S U U J S W U h 4 < ",
"U o.R F S -.;.| ) Q J i r Q U G S A M V V V B b V E E E E K B B b u u b b b b u d u y h 0 * - , 9 w q i g h F J U U S A i 6 < < ",
"N ( Y S ) 1.@.) ) U S f 1 J J h M S M V V B B B V V K V V B B b b u b b b b u b u u 0 f 0 = - 8 9 0 e d d h S ! ! R U S h d < < ",
"j I L j A  .} | | R J h 6 U U M k N N S V B B B B B V V B B B b u b B b b b b u u u 0 h 0 * O * = : > 3 5 5 0 p f p i i i < & ; ",
"k S S U S S ( } @.W S i 1 U Q J B B V V K V V V B b B B B b b v u b B b b b u u u w f g 5 # O O O $ * = > 4 r t r < % @ @ @ $ < ",
"I ` o.' U h S Q ! A f 6 < U E U ^ E V E V V V B B b b B b b u u b b b b b u u u m f d g 0 $ * * 5 A M 6 h P R ) ) Y j ; % @ ; 6 ",
"G @.@.| J h i l A i i > < W W W | Q J A G A G G B B b B W F u b b b b v u u 0 u f i d d 4 $ * f ' ' A 6 y f h c U ( [ U 1 < 1 h ",
"M | o.` F d 6 i i 0 > % 6 Q Q ^ { Q U G Q A F V B B b b K m v b b b u b u b u 0 e w w 0 = O 4 ' | Q h < < 6 6 6 6 S @.O.k < 1 p ",
"h Y Q J l w w w 0 < = < r ! Q ! ` Q G U ` S M B V B M b B b b b b v b q u m v u d 0 9 - O $ S @.) S 0 6 M E W E l i ' +.S 1 & i ",
"k M A A g d g m f 0 < < i ' ' Q ^ U G U / J b B B B b b b b u b v u u q u v v u 0 , = O . 3 ) | E d 6 A Q { ` ^ U f l O.U 0 % < ",
"i p l h i i g h f 0 < < p o.o.Q W J I W W G h B F M b b b b u v u u u u v u q 8 5 : # o o ; ) Q G 0 i U ' } / E J M y ! U 0 = & ",
"r 6 r r i h h d y 5 2 ; y _ ) Q W Y E J A f f m M M F B b M M B b v b u q 8 - * * # o . @ $ U U h 6 d R ` } ` E A f 0 G F 6 % $ ",
"y ; < 6 4 r w 6 1 < ; % r k l l k s p p y 4 1 5 y 0 0 u u 0 q 0 8 - - - * * O O . . . # # @ 6 A l 6 0 M K W U A h 0 4 A m 8 % $ ",
"y $ % < < < ; ; ; % % % 1 1 6 i r r y 0 6 4 < ; # # # # # * * O O O * # * O * * - 3 3 3 < : > d M i 6 i h A h d w 5 3 m d 4 = = ",
"u = < p l l k r 6 6 r < 1 y Y #.>.,.3.=.O.' W h 2 6 5 0 q 9 q 9 - d v 9 9 q e n n Z C n e w : 3 d i 5 1 0 y 0 6 4 = 6 h 0 , , 9 ",
"u < f I Q ` Q U U A S k 6 S o.@.&.=.=.=.%.} ` S d M m G K B n n q b m 0 8 , 9 9 e e n e 9 q 8 + ; < 6 2 < < < > : 9 m d 3 = , 9 ",
"f ; f J ! W U } } l F A i Y @.J J U L J A G U F f A J ~ K K H m d e d 8 , , , , 8 8 8 8 , 9 9 : @ = 0 d q 0 0 0 d g w 3 * * , 9 ",
"y = i S U S U } ` A l l i P o.J W ! W U S U U M M K ^ ` Q E K H b d v 0 9 9 e 9 9 9 q 9 , 9 q 9 * * = , 0 0 0 q 9 , * O O * , , ",
"5 $ 0 l h S Q  ...F h p r P o.J W Q E U G G S N E ^ ' | } ^ E K H m m e 9 e e q q 9 q 9 9 e 9 e e 9 , * O O O O O X X X O O # # ",
"r = 1 f f A ` $.$.W h i r L ' J E W E E G A F U ^ ` } |  .` ~ E K m e 9 q e v q 9 q n n n q 8 9 d n n n e 8 O X O O * * * = * * ",
"6 ; f M h J | @. .J h w 4 S ) S E W E E E E J G W } @.$.@.| { ~ m v v v v e q 9 q n C v 9 , : 8 9 q e n v q O * 8 9 q q q e q , ",
"6 ; V I k D Q ] ` S p 4 1 S / A U E E ^ ` ^ Q Q E ^ @.$.@.@.} G m Z Z n v v e e 9 9 , * * : , : : , , 9 q , O - 9 q e e e e q 9 ",
"5 2 S S A Q U U U S i 1 6 S ( A J E E ! ` Q ~ ! W W { @.$...R F K H F m v v e e 8 8 8 : , 8 9 9 9 9 9 8 q , # * - , 9 9 9 3 9 , ",
"; > h U [ o.U A S M p r r J ( A J E E Q W E K W ^ W ^ ' | ! G E K H H Z v v v v v v q 8 8 9 9 9 9 9 9 9 e , O * - , : , , - , = ",
"3 < l ] O.) U L S S N i r J Q M S G J J J E J W E Q ^ W T J E K K K H m v v v v v e e 9 8 9 9 9 w w q 9 e , # - 0 d e e e 9 8 , ",
"< 3 k ( ) Q Q ( Q Q U s y Q Q U S F F G G G J K E ^ ^ W W K K K K K Z m n v v v e e e 9 8 9 q 9 q e e q d 3 O - w m h g e e q 9 ",
"3 4 N U U Q ( ' _ ( A s r Q ! U G h M F F A G K W ~ ^ W W E J J J G H C n n v v e v e 9 9 e d 9 w e w e g > O - w h h g g g e 0 ",
"5 5 Y ) S S R ' ' U M p 1 Y | U l h C D F h G T E ~ W W W J J J H H F Z n n n n d d e e e v e 3 9 e e e e > O - 0 g n i e e e 9 ",
"5 < A ! U k S U U M s r ; l [ U h m D K h h S J W W ! Q W E K J G J F Z m m m n g e e e e e 0 9 0 e e a e > + > 0 i h g f d e 5 ",
"< % y h l h p p p y 6 ; $ i A k i 4 0 i w i h F J U W ! Q ! W T W T J F F Z F m C m g g e 9 5 9 w e e e w : O : 4 i p A h h 0 3 ",
"< ; r r r r r 1 1 ; ; ; ; 1 < < < = $ * * $ * < 1 4 6 0 i i i 7 7 6 5 5 2 < < < > > : $ $ + # # % * $ = * @ % ; < 1 6 f i 6 ; * ",
"6 4 y L Y Y Y Y P S j i r r D P A p i 5 0 0 1 < = ; % % # $ > 7 a a t t 7 7 7 1 2 4 2 2 2 2 2 , 2 2 > = # $ 3 y c D S S h y 1 = ",
"f N ' >.<.3.4.>.*.O.' I j S *.>.=.O._ U J ` W h h l l c t 1 R 1.3.,.=.+.X.[ [ ! W ! J G G K A A J J S f < < f Y [ @.E U S A p 6 ",
"M ) :.3.4.4.4.2.>.$.| ` S P +.*.%.X.` U S ` J S ! ] | O.U p O.%.[ ] ] ! ! W T J U W m h C h h m m M N d ; 6 L _ +.#.Q S M S h 6 ",
"I X.;.3.2.>.>.2.1.;. .^ S P +.o.Q J A m N E h M U E ! ) A t [  .D S A C x m n m h h d e e e w w i e d w 2 y W +.:.@.Q E M h p 6 ",
"N { ;.1.2.:.:.:.-. .` U l S O.| ! Q W J A A h x A J U ^ A r ]  .J U W W W E J J A m m n C m v g f d w 0 < l ( o.$.' E J h p d 6 ",
"M ' *.*.:.>.*.%.@.' Q A h j o.o.^ Q W E G C F J E W U ^ l r ` ..J W W ! ! ^ ! W K H H H Z C g g d d 0 0 1 Y } ) #.' W J h p p 4 ",
"N ' *.*.*.*.#.o.' ^ E ! M j X.} ^ ^ ! W J J K ~ E E U ! l 6 ` | J W ! ! ` / ^ ~ ~ W J J F C g e e e 0 3 0 ) | ! ^ ` Q A i i 0 < ",
"l ' %.*.*.;.%.| ` Q ] ! i i ' [ ^ ^ Q E E K K ~ K K K W l 6 ' ' H ~ ! ` / / ! ~ ~ K K H C n e q 9 0 9 3 2 P { E U Q J h i d 6 < ",
"A ( +.*.%.*.$. .^ U W A i r ' | Q ^ ^ E W K K K K H F E m 1 / ' A T ! ] / / ` ~ ~ K K Z n v q q 9 0 9 3 % A { ( S A h h h i 6 < ",
"k ! O.+.#.@.@. .` W E A i r ) ' E ^ ^ ! ~ K K K H H H K m 2 Q / z W / / ` / ~ K H H H Z n e q 9 9 8 8 , = p Q ^ E A S G h 0 0 < ",
"p ! X.X.+. .{ } ` E G m i i ! W J ! / / ~ W W K F Z H K g < E ! h U ! / ~ ~ T K H H Z n e q 9 8 8 8 8 3 = i S ! W E E A i i 0 3 ",
"i k I ( O.o.` ` ` W S M 0 i Q Q F Q ! ! ~ ~ K H H Z H F d > J E g D ~ ! W K H H H Z n v q 9 9 8 8 , 8 - - M S S W / J l h d i 5 ",
"6 4 r j X.+.' ^ ! J H h 0 i Q ) H G W W K K K K Z m Z n 0 > D U g A J F Z Z C Z Z C n e 9 9 9 8 , , 8 , = A ' W D J A S M p p 6 ",
"i p j L O.o.U Q ! F C p 5 0 U ' F h D H H J H H m n C e 5 * A C w i A C C n n n n n e q 9 9 8 8 8 , 8 - * h ' O.' G F A h f f 4 ",
"r s l c ' Q M J U C d 0 < < J ^ C w h m C m z g v e v 9 = # e i 0 0 g g n 9 9 e e e q 9 8 , , , - - - * # 4 l R ! U A f y i p < ",
"r t s l D h i x m d w 3 = % A G d i h g g g a d e w q , * O 0 5 , 5 w w 9 , 3 0 w 9 9 9 : , , : - * - * @ = t s h h p r 6 t < % ",
"1 6 r 7 7 7 6 7 7 5 3 > * % w i i w i i i w w 6 9 9 : * o o * * * 3 3 < : $ * , 2 2 2 : : : 2 : : - = # . $ 2 t t t 6 4 4 5 $ $ ",
"< < < < ; & > > > & % $ # @ % > > > % % % $ @ @ + + o           X X . .         o + + + + X X X O X o o o # % < < < < % % @ @ $ ",
"# % % & & < & & > < > % % $ % $ $ & $ @ + o + + + X X X X X X + + # + o o o o X + + + o X X X   X X . . @ $ % % % % $ $ @ @ @ $ ",
"% t l c S c x x x S z z a 7 2 < 1 l D D D D c c h i i i p 7 < 6 h z z c S c x z z a 2 + @ @ @ @ = < % % & & < < < 6 p i 6 % @ # ",
"< P T T T D c c c x h g i 5 2 > 6 A s x c x z h p i w i w 6 < < i a h z z x z z z z & & & @ @ ; 6 i r 6 1 2 < 6 6 i s s p < @ $ ",
"< a t 7 7 2 2 2 2 > : > : * : % 5 7 < : & $ $ $ $ # # # $ # O O $ & & & > : < 2 2 2 & @ o o @ & r x j t 1 2 4 t 1 4 7 7 6 ; $ @ ",
"& 5 > & & : : * & $ & $ % # $ $ < > % @ + + + # # O # $ * $ # o + $ + $ & $ & & & & & + o   . % r t r 6 1 2 6 6 < & & ; ; ; @ @ "
};
