/* XPM */
static char *result[] = {
/* columns rows colors chars-per-pixel */
"64 64 78 1 ",
"  c #1B0F0F",
". c #1B110F",
"X c #1D0F10",
"o c #1E1211",
"O c #20160F",
"+ c #231514",
"@ c #291717",
"# c #251915",
"$ c #291817",
"% c #271718",
"& c #291718",
"* c #261919",
"= c #2C1B1B",
"- c #331E1E",
"; c #381F1F",
": c #34201F",
"> c #39201F",
", c #2E1F20",
"< c #321F20",
"1 c #2E2022",
"2 c #352223",
"3 c #3C2423",
"4 c #3F2925",
"5 c #352528",
"6 c #3B2628",
"7 c #3E2A2B",
"8 c #412626",
"9 c #422827",
"0 c #452B2A",
"q c #4A2E2D",
"w c #46312E",
"e c #4C302F",
"r c #462E30",
"t c #4A2F30",
"y c #463232",
"u c #4D3231",
"i c #4E3936",
"p c #4F3639",
"a c #523534",
"s c #583735",
"d c #553836",
"f c #593837",
"g c #543738",
"h c #563939",
"j c #5B3C3C",
"k c #613E3C",
"l c #5D403E",
"z c #62413E",
"x c #5C3E41",
"c c #5D4142",
"v c #5E4448",
"b c #634443",
"n c #694643",
"m c #654945",
"M c #6B4A45",
"N c #644548",
"B c #6A4748",
"V c #664949",
"C c #6C4C4A",
"Z c #714E47",
"A c #724D4B",
"S c #6D514C",
"D c #74524D",
"F c #79534E",
"G c #684E50",
"H c #6D5351",
"J c #745452",
"K c #7B5552",
"L c #775850",
"P c #7B5954",
"I c #755B5B",
"U c #7C5C59",
"Y c #7F605C",
"T c #815B56",
"R c #805C59",
"E c #84605B",
"W c #846661",
"Q c #8C6D68",
/* pixels */
"288akkknkkf>999wagkkxbxbjrpr7ywii44edajaxtahaphhhfBn9qajhxxnBzt9",
"3848qusjfseezs4exgxxjgjxa9r0wiidd400iaaqs0hhaagxxxCj990tjfatt003",
"unzaq880988fMfqesaxgxxhtu89qudlljq789uq0a0hgtgttuhBg9ga43800ujba",
"0jbnAfq0q989sq9aaapahhaae0yullllmd449qu9f0htttt0tgNA9abuhnxkzAWj",
"9hfjzknBbq9984ejgggxgaknqeadzblZFze489qqk0gat0rrppbBa9xbJUGHKUQf",
"9ugaggxBYSqy90ljxhxsafBKqidlSMzFLzke8>88kqsaaqrthhxNf9fnUJGIIPUt",
"9qasaaghbRk04ycjjjxaakABqjjlLMmZTFzze>>8jtfatttghxxnj9jBNNNHIKA8",
"0qquatahcAB48ccjxxjasbAk9bbMYDMZLLzzs839g0hattaahhxbk8jBxxbVCAA3",
"888qptpxjbn9tjaaskfjfjnaqizMTFDFFFFzi4>4e8auqqtaxsjNk<sBhxcBAJA8",
"8qq8tggghcx0auggekfkjss0fijMFMDFTTPZl944s9uaqqestsjzk8sbhhxNJKU0",
"8888tjgghjxrquaaqasata08ifSbZzZLTEPze44>aqesqqqaagsbz0anjhbBKRU<",
"<33<8axgjxcq8uq0qsq000;80hLZPZZLTTzzl99>9q9sqqqqaaask00sjjNCKRJ8",
"80a0<qkxxxzq8q00qqqqa9;48jSMPbBLzLzzzw448q0aa0qstaaae0qkhhbCbBb8",
"8fka<8shxbn0808qqq0saq3efebZPjlSLzzzl4w48uaqaqqauauasqekhgkNxCj3",
"8kka8tuujbn0;88980qsau40zadDDljCLzzl4>44;qsa0qqqataatqtbjhhNNAn3",
"8as8qxsaskk938uaqqujsu4ee0>ijiuxzlzl4>ww88eauaaqqtaaeqqxjxxkNCn9",
"984tjxjhssze8qqqssfkas8qfa0893tjjfkbggknk8qaeaaaasstssqjjxxjbBz3",
"nzujNnjjsskq>qqsqsksfs8aksasagxBABBJKJKRK08uqeaaasssjj0gxssxfBk0",
"nMahNVkjsse988esqssksa3880080afkkhzbnBBAAq;0aaautjksja8ttxtgkBft",
"snsahbbksq89s8qqqsesaq;qatqq08tsahkknBnnbq;;39auttsagqtxsatkjkft",
"uaaqghhh00qsk94eaeeq83;skfggkuqkafjhknkgf933>;8uaataq8xsjxtsjjst",
"uu08qtat>effka30888>>;;qkahskk8saaaafnnkqqq83808qqqq8txkjxsaskaq",
"9sq80at390qffe>44999998sntaakb00fstuskAk0jja98esq8;;8qtjjxggsja8",
"akk0888tss0aq99qqaasuq8ejftaknq8tsasfAAq0ajja80kst0qkatassaaxkt;",
"qas0080kkzk9wieesdlMle40qdjjkna88qajnAautqkja88ftstafastpgssxkt<",
"9qq80qqkZFZe4ilslzZZza>iaqhkkZjqq00qqqeBb8afu8>usstukaautaaxBBs;",
"88qukg0fzFza4lzzMZMzze4eae9jjMjwauq89dbza<qa88;qaaqqssaatasbkq33",
"0afkkkuazzkslzzZMZZZza4aae83qa00quaazbza9440ae8>8tt8agsst0skqqaq",
"0gjbjjq0sszaqlzzZFLzzlqlnfu840ejdwdzbjs0q0wljh00a08<qksaqqa8qkkk",
"3qajfja8eeeuzzzzZZzzze9skaaa8ubVHfezza9uguydggqrxt80qskqqq88skkk",
"0yuafjs399ezZZzSZzzza0esbaanaqzBSSaeaqafuujjjit408txqskskqq88asq",
"gcbhugsasfzzmZLZzlllwiiznjabnqhBBDzqqazawvVVNHDgaqqxaqqsqqqssaq8",
"cmSGd8edlmzzZLLzzlq0uielBfszAfakMZZfeda0ucvxpcNbbV7ua0400qkzkkk8",
"cmSSmwwllmmMSLZbzd90iuwlngkknztazDFz44840hvyygxcNC333004qakknke3",
"vSSSmuuhmMzzZSmle00idw0dkujkkstqdzMzw3e09phtyhjxnj<>3380ukkkkkq;",
"SSmclwilmmllSvde9wulluwdxsskjgt8eafje3u00tttajhjha880atqakkkks8;",
"Smlvlwilvlwllw09lzlzbddut0qqtq8800q04307<0agaxbxhj09ttuqqqskse8>",
"vmlllwiili>wew9izzMzzjlw<38<0hNJISJmcbcmg3aggxxgjbu3tauqq8ess388",
"udieiw44wi0we04azmzmzlla8<88gGAJDCJPSJYWx8tgxxxxxCa-0auq8;9qq88>",
"ihdilvlll994008alzzzzlht33tjNNvNNNNNbHWYh0tuxxxxbCq;4aauqseq8q83",
"vhugjccVCx0ruy0qlzzzuq008tkbvxxxjcxxkNBAx8taxvxxnz933eseskkks88;",
"hiywpgccxcg40ua0wlsdlflz00xxxxgxxcxbnnBBk8ttxNNvnk9099qzkTTZs88>",
"507000qgsxh8aknjlzzZMnll08gggxxNcNNCABnAa8ttxNNNZn9eq80zZZzk9q8>",
"25uieeqyqta8tjkkzzzzksad80jjgxxxNNNAAABBa;gtgNNxBn9aq9qzzkks8qq8",
"5rtaitaaaq8<8aassfjfaadu80ajxkvxNBAATAABs<atkNNxnn0te0qfzfa49qqq",
"2ajaauqqagct;0ssfkjsaasq888uxbbBBCAATAAnk;utskxxnbjjq0ease0asqeq",
"0xxgahkbcbBn;38q0980uqe838ttxnnBBATTTFAnk8ttsxxxcjNKl9a090alzzq9",
"cxgghNcbNzBn<088qq9;;388<0ptgBBBAAFTTAABk8tugggxcuxKF4490eazzzf9",
"bxgjxxxvvxVb3u08qfxa;;qa0aaugbnBAAATTATnk3tatajxhagnP0wpchillzl9",
"hjuhhxxxvxNj3qq;8qtq38ja0sgugsakknATTTAnk3quqafaugxcSuiulVleueq>",
"aaugxxvxxxBh8qa820344qaa9faaaatskkTAAnkkk3qqtaa0qhxbbwllllvw009>",
"ttqyghxxxxBg8qaa4rq08qau3gaatastkknkAkkss80uuuq8qajbc7cvvvll004>",
"attqhhghfjBa9qsje4qu989q3t00qaa0sskkkkksq<;33;=40uakktlVSmllu40>",
"uautaauagkntuufzc0azbq0q8agq80008qqsse080;3qeq026000qtjcHSmld9w2",
"auq0uyuagfnq0qaxbdqznqaj9gfhkahksqqq008383sAAGBxcbq8q0hxvSvli84:",
"utq00rttajf8<qtgjj8ak0qg90tasgsaskssskfsa<tfjhptqa98fjuhylllq33-",
"tt377rrrajg8<8qtaa02038q88eeeauasssqsqsqa<0at07r9q34ebywyllw4:41",
"3<404660tga8-<30ty0=-<80;8qq99qeqq8888888;80736698-;9dh3l7wl5#1#",
"<0r666644tt<=<56776--280;;838990q8;;;8;;<&<4<665472-20y517l4:#1#",
"<036<<25670-&<<<356<&=<<-38>884888;;8;;;-+=5<<<<50-%=:22111#::##",
"=3<<<<22266&=,=<222=+@$=@$83:---$-&@&&@X%X%&&&==<5==7yyyyw7ilww1",
"+<<<<<<<,25o+%%%=@+X+#@@@+++++.++oo+&@X@XXXXoo+,<<X=5575257757w:",
"X&====<===,oo*%X.. XOo++++o+*+.++ X+&%&&,+oo++++*+X%*11=,,155571",
"XXoo++%++++X oo+O+++O+##..#$OOO#$++&&%%&,*oo%%+oo++%=*#,*#,1**#o"
};
