/* XPM */
static char *result[] = {
/* columns rows colors chars-per-pixel */
"64 64 42 1 ",
"  c #130F11",
". c #151214",
"X c #181517",
"o c #191718",
"O c #1D1B1D",
"+ c #201E1F",
"@ c #1F1E20",
"# c #211F20",
"$ c #242224",
"% c #282527",
"& c #272628",
"* c #292729",
"= c #2D2A2C",
"- c #302D2F",
"; c #312F31",
": c #353234",
"> c #383537",
", c #393639",
"< c #3D3A3D",
"1 c #403D3F",
"2 c #3F3D40",
"3 c #413E41",
"4 c #444244",
"5 c #484547",
"6 c #474548",
"7 c #494649",
"8 c #4D4A4C",
"9 c #504D4F",
"0 c #4F4E50",
"q c #514E51",
"w c #545154",
"e c #585456",
"r c #5A5659",
"t c #5D595C",
"y c #615C5E",
"u c #635E61",
"i c #656162",
"p c #696466",
"a c #6D6769",
"s c #6D6A6A",
"d c #716C6C",
"f c #766F71",
/* pixels */
"55<--*-3778q,%%%%,33##=;,353355,39,4r54543<55433<>==--34<*$:,<<4",
"6448q91137qw<%$*=235:;>,58q87qq23733w84784388863<>7re4>1:%=><<45",
"359wwqqw9479<+-:=:33,>,250q8887334775<4<3357863<:=58993=%%:><<44",
"413334889,49<%==%-<3:><235qq78r8998987ye,4752>:>=$:<78w<$%:><455",
"<3,:,<44<=48<%=-;=;,;,<344504tt75568878pe13584;*$**:4807*&:><555",
">:-;:>,3>%47<=::;;;12238rrq38r74454677449w8ii83;-::=;344>*=:><4<",
"=**->::,=$<3<==-,239r78eww04387747<70684<78t984<<<<,;;<,>=:=;:>:",
"=*:383-=$*,<3*-,3;>3qr337742,78348,57400831754221<<<<;-:>>=>,:==",
"*=:<<,*>4::,3;133;;>5r7:,<<:>573*$**$:7w88443244233<,,=;>>=>44,=",
"<>-:>;,rsw>,3;34q71:28q3;;;;>453=$$O*:8w08623444244<,,:*:>>;23<2",
"74;-=:58wy3,3;<3583<<3q03-;:<444<>>>,270884<4344334<,>:=;,>=,,>,",
"35*#=31><qw3;>,,13,3<<58q4;,2373=>>:,:4w862<2<222<3<>>>==,>:<2<<",
"74*#:>;:1354,>:>,,,<1<<17w7:<444;@*=$=4864<<<<<<,,8r4::==>>;<2<2",
"3,=$*%-;>1:=qu3;,;:<3<<<<39<,134<;<4:,5742<<<,::,9pdu4::;>:;<44<",
";=;<;:>-;-*=1yu4;=:,<<<<<>371,4322464342<<>,<;*>7yddpq,:::>=<4<,",
"%>3qyw4:-$-:-1yu9;>>,,<<1<,,8<<<<<<2422<,>>>--2eyrytww0<::=:<4,=",
"2qqquar7:;:,:,4qr1>:>>><3>,,,>;:>>>>:::>>7q5<>wipw47wq95<::;<4:$",
"888qqrq33>,<,,433,:>>,<,,:;:>3789wrte84<1934,=<441,33<4,:;>;<3-*",
";;;;<3>;=,33,,441>188qq874;-7qqwwwwwwww8<:5t<*:33>,,<41:;-:-<4;=",
"%*;>,;--,243,<44<>478qq99q4<qwqqqqq879w9q538<==<,:::,4>;=$**:43=",
"-*-=*$*>333<,<473;,,3873374478q83-<,,5qq8913<==;:-;;:,:;%#>1:,1,",
",;#$->>,<,,::2462;,,,<<2>::<,374,=*=<573<3>1<:&***---;-=#%,77,,4",
"42-,343>:,483<34,->,<<<<<,:;<3<<3:>,531541>13,=&$##$*-=$%;,339<3",
"32-;;;--:8pffw22,->><<,<2,;:334<;;:>,<788<:<<<,;$++#+#+$-,<<,111",
"43-**=;,>38qtuw33;:>,<<<<>;,3334>;%-<57764:<<<2<:;;;;==;><<,<,<4",
"78;>2232;*>3742<2332,,<<<,:,433433>>357763:<,<2<,:::::::>,<>,,,5",
"80>>233;;-=-:;;3quyrq8543<:,3343331,,3443<:<2<2<,,,,,,2675<::<<7",
"07,:33,,,,;*--;3347788ruq<;><<<385,1773<<:;<2222<22<2246573<9e73",
"ue2:322232,,,**-;,22434qq34qq97qtr8wttrw83:<>>:>,:,,:,::>:-14<:4",
"uu7,2,33332<:#*=$*;,4334431qwwq45780qereew:=:<80weeeeee098853:>r",
"qr7:>33332<,=*24,;;-:<2233,:,;*#$$$$&&=><6>>8800000wew0weew994>8",
"qw3:,3732<;$*,33,:>;-;:<333=*$##$Oo$$$$$&---2><66800000www874,;7",
"993;38733>#=-,;=>>:::;;><<,;>;=;=:=>><>:>39>>>>33973368wrw073,;7",
"373;3333>:;;=;#=:<6<:;;><<:::::,<1,<<<,>>9ar3;:,33;>>>;>qw743,-3",
"883=23333,;;,:#;,588<:;;::&>,::=::*:=<<,,5eu9:;>3,3343;*20332>-3",
"33,-33387332>>==;><422>;::,<3,::>-=,<2<:;<,;-%=;,2333,,237332;-3",
"382-33387787:*#=286544<;37004,,:,>;,<35,3>==;;;>,332>3788832,==2",
"382=,333378332==44>><2::,48w83,>$**$:53453222;;2332,2708003,:=*,",
"22;=:,>3,33333:=,3qq3<32;,4474::>3<>,4,77333<;>>39997qq8q7,,>*-,",
",:->33383q3,33338tpse446<;><<,;,45544,5753333,;;quuu89e8832,-*-,",
"-;>3337qqrue328ewrryy3347,:;::4642467,47444332;*3tur83q732>>;**=",
":;,333778wrau237434442<378<,,4674<<4<:34223333223qrr3332<23:;<,>",
"3:->3333334et9,3448qrr537w74444<,<44<;<33<2,25q8>377>399q3>;2434",
"*##;,333333377>37477tpt768785<,3567842:><qr0,3q8-;,>3uu8<;>;<333",
"=;;23>,3233334-243338qrr74787<,777ur442,qrtr3>>>&=*;5833,>,:>332",
"-;3333>:,,3343=3543337qrw4774<488rfdq437q53:;;;=;2,;777332,:>33;",
"->3,3333723342-237343388043580wwtiuiu4<,>==;;;;-273>78q733,>>3,;",
";-=-,3336,3432-,34543457748pdsapieqqyt83<1333,;>44338q0833<>>3<;",
":,;=,3486>2442=><64744444<qtiaspe908qtrq73333,>37427qqq733<:,33;",
">;;#;3473:4432=><34444433:,68qerq8787qrrt832,><574,45853<3<:<333",
"333,;242,:243,=><<<488444:;37888755450qqrq3>,3543>5533<<>>:;;333",
"3373>,,,:;222>*:>,,<47764,;<67443333388qqqrrq8533rtqqrrtrq7<;><,",
"qq7333,>*&>>>--;:::;-;<3,:;<2433322,233887qq4337yrq888qwtuuur;>q",
"tuy3-=$**$*=*=>2::3q04<<<2<:,23<,><2>3333533<,4rq338757788qqr3,q",
"742;-;:>:*&$=:,228e06444478<=:>,;-=*>877qqqq0432<1333237533::;<3",
"2,;;2,,>>;===;:;;24<23<2323<=$=;*#oo#><333554672;:,>>23533,:;;>1",
">,=><<,:;:;-;;;-%=<>>,>>>>:=$$*;####o@%-;;;;:,209:*;:,<332,;;*;,",
":;&::,,:*#%*--;=$$::::;:;&@$$$&=##=##@o#**===:::13$;::>,>>>;-$-;",
"=&$;;:>:$#@@&;-*$O=====*$oOoo$&&###%%##o#*======*;$=;;;;;;-=$$*-",
"$@$&=;;=#$@$*-*$$O$****$oO#$@oooo#-===#oo@$*$&==%%$=**;==***$#*#",
"=$@$**=$oooo@#$#Oo$$$$$OO$@$$$oOO#;=#%##OoO$$$&*$##%&&*=:>,3;#*-",
"&&&@O$@oo...o@@oooO$@OoO$OOO@$@@+$;=#####@o@##$$##O$$$#*;:;-#@#*",
"$O$*$oooooO..oo.X.oooooOoo###OOOo*;;####$OOO@@###OX+ooo&*&$@oO##",
"$Oo@=O.o$&&O .........oXXo$OOO@oO%*=#O##OOO@#oOOOo.XoO@$@@o.oO@#"
};
