/* XPM */
static char *result[] = {
/* columns rows colors chars-per-pixel */
"64 64 61 1 ",
"  c #120F11",
". c #161415",
"X c #181617",
"o c #181718",
"O c #1C1C1D",
"+ c #1E201F",
"@ c #1D1F20",
"# c #1E2122",
"$ c #212525",
"% c #252827",
"& c #222628",
"* c #252A2A",
"= c #292E2D",
"- c #2B312E",
"; c #292F31",
": c #2A2F39",
"> c #2D3333",
", c #2E3438",
"< c #313635",
"1 c #323936",
"2 c #303739",
"3 c #353C3B",
"4 c #393F3C",
"5 c #3A413E",
"6 c #373E40",
"7 c #383F42",
"8 c #3D4442",
"9 c #3F4845",
"0 c #3E4649",
"q c #3F484A",
"w c #404743",
"e c #434A46",
"r c #484E47",
"t c #40474A",
"y c #454D4A",
"u c #484F49",
"i c #47504C",
"p c #4A534D",
"a c #474F50",
"s c #4D5551",
"d c #4F5852",
"f c #505752",
"g c #525B55",
"h c #545E59",
"j c #556057",
"k c #566159",
"l c #5A645C",
"z c #5D685F",
"x c #5B6561",
"c c #5E6A61",
"v c #626D64",
"b c #647066",
"n c #667269",
"m c #69756B",
"M c #6C796E",
"N c #6F7A70",
"B c #727D73",
"V c #748176",
"C c #778278",
"Z c #7B857B",
"A c #80867E",
/* pixels */
"gssap9=pddgkje3%%-5-%+OO####$$$%%$++$$%-&&##&*;#8klkkjp9-=pbcddd",
"ddssi9*ygdhzlr3*%5dd55-5>>-5555555555-5>6666::,#3xlkkjs9>=pbjsdh",
"yat053&9jdjcly3*%dzlzjjddp9sjjzzjjdppsqghdsaq8,#5jhjjdi91-sjiiqi",
"=;&&**#1dghzly5&-jzjjjdpp99qp5pd9ppdddjkxhhsq03*5dhddpi8,#>1-===",
"#$$##&*>9djcli3*%jcjgddpp999p595rrri9ppisdsaq07*5zldds99,;-#####",
">:*=,8piipdzli3*-dzdgdppddppp55555err9riasaaq76*8vnldp95>>952121",
"34ygzbbzldpdja3*%pjdgpdpppdpp9p55e5ee95iyaya866;9nMcjq9511i95895",
"6lvmNVmbji9sdi6*5djdgppddddppp9prrr5er95ytyt762;pnnchi55>5ii9995",
"5zvbnvzdre5idi3*-ddpdppppddddpuuiiriiuewwqyq766;qbncs085>5qs9995",
"5jczdreeee95jp5*-ddpppppupppddpurriryyiyeeq0076;qxblq085;59pp995",
"5jzliee9ei55ss5*-pdpppr5upddddpiriiryyyeyw87076;9jzjdq85;55qi995",
"5jzjiereee91is8*-ppprrrrrdpdduidpriruyyewq07886;5kkgdq55;5599595",
"5jzgpi5rii8>9s5#*999r59rrppiiipppipiee99twt8707;9zkgq995;5555555",
"5jzdppuup99>5e5#+5599r59rppiiye55999e9888877776*5gpq9555;5555555",
"3ep9555e995=59;#+#*=>><11><<<,>-->>>11232622222&&>555>;&*5555555",
">=*&%%*%*=*##,##=>--=*-->11533<,1>;=****&&*;;;;$#OOO##+#*;<55551",
"95*#%%**;;*-*#*59di555pjzzlhfdpfdiqq2;;;>1>>>>>555>5555555555959",
"zkdrppppsqqi9;>gjgq5lVmVBbzcbnvvkdda5;>5ii55jjVjvbncVcdjljgjcjlc",
"VMnbmmmnbckgq>5gjd5dVZbzjffjlzlhkkhq9>>idp5pVVVVnVVZVczzlcVVcVVV",
"mMVVVVMbxhhsq>-q959nZAVbljglzlzlkkddd3>idi>pVVVVzzbVVjdjzczbVllV",
"jllvbnckgsds9;*>1ezVCAMnzllzhvvzkhddi5*5i5>jjViddddjjdppjjjjipdj",
"pddjjkjhdsip9;#>uznVCnjjjgjjhhvzkhhaq5*;5-5lVj5eqddpddrpjjddiipp",
"pppddhdspppq9*#9lzmVNjddfghlvhzlxxhq99;#*#5zjpiepgdddp5djjpppdpp",
"iirppdpqqq995**plvMNvddpfhhhzhjzxkda992;&#izjiip99pjr5pcjddpp5pp",
"rrrrrieeee55>#;dlvnbgpppdjjjlhllhhdaqqqq8*icjippi5jiiiicjpppprpp",
"rer5e99e55555#>djzvlprrppjjlhhhjkddddadkd,ickdpie9iei5ylprr5rddp",
"ri9pee955111-#5dljldrrrpfgjlkgfgddhddhlhi89jdidi9e59555drrrreepr",
"55555555>,=*#+5gjjgprrrrrgjjlhffshhhhhhdi928555ye55555*555555555",
"%*#%%%%%**==--5jjjdrrrrrrfgjjjffdhhdhhhhdq2*#*>15>-***$#$$$$%$$%",
"-5555559eqipi55gjjgr5errrffgjgjjhdhhddhhha6>*##*-**--55>5-$+----",
"djjjjjjgpipse55djddpe5rprrrffjlkhdhdddkxxd91>*$59idlzlzjd5*5iddd",
"pipppdp9999e5>5ddpdprre5wrrggjjjhdaadhhxljd91**pVjjjdddee55ipddd",
"dfpppdiw9e955>5pgppurrwwrpsffghghddqgjjlxhqq0:;gjpppir59551rpddg",
"ipppppeie995>>5pgppeeduruuufffffdhddddhkhhsq85;qgppq99995<-99eip",
"<131555ree951-5pdreeudrruuusfffsddsqqdhhhdqq86&895>-----**%*%*=-",
"=<>=++&---<>-*5iireedprrreuuuusuqdqshdddddsq86:#+$##$$$-<11>-===",
"5ww3*+O+%=>>-#1err5pfprwwrrerrrrpipqqdsqdpq9888#*55599pddjzckdp9",
"551<>35isjjde>-9r55pfrrwweeeeryyii99sqqdqqq9,2:#5jjjcbclczbzdie9",
"5>3dznmMmmbcd5*>555prrw88w8wweww9q9999q905,:6,-#9ckjglczzkjsi9ey",
"53inbnmbbcbzs9-#$*55w4485554555w99995555,,8888-;lVjjgspdsssieppp",
"i5izkkjdddkld9>#%555555544545w5w955;>>55888866:,bMjjguuuiipddpdp",
"di5sjsppsdjkje5=+-5595554444111->>>59pi98qq086>,nnzjpggdjjdddddg",
"gd95pdppsddhji5>$>55555511---<<159dgd9iq9aaq88>2nVllzlkjsieuddgg",
"lks35pdppddjdi519jdd955555444wrrdgdq9iqqqipq88;>nnmnbldueeeudfgg",
"lxd919dpsddddp5<lVjdjdddfggggfffdggdsqqiqssqq8>=vVVmzgpuuruusffg",
"hjdi3>iipsdsi9<%lVvddjljzjjjjgjzbnxgdqqaqssqq0:#vCVzkgddierusssg",
"gdsi5==-=>>>>*++jbcjdzjlzbmNBMmbclgssaqqssqqq0:*vVvzkjgpireuusgs",
"ssi51-#+++++##++dzjjrpddpfjvbzjghddsaqaaqaaqq0:#bVbzlhgpurruuuss",
"q953-***->5555>*ulddreppuuddjjfgdhhqhqqqqq00qq,*nBbzljgprrrrrrrr",
"83525**5jcmmzs5>wjddpwiiiurdfjffddhhqqhdaq000q;*vBbcjggprrerwwee",
"52215-5lZVZVnj955hfupe9ewrruffffdddqhdsqaq0000;*zMbzjjgdreewee55",
"<<555*5VVVbbVz9>4gfrpr5ewwerrfffdddhhqqsqq0008:*jMcljjgprrrpp555",
"155>5#5VnbcMVgq54ffrrr4455wrrrrfddddsqdsqq0008:;pnmzkjdpppp555-5",
">>5-;*9czlcVbdq,4ufwwrw411455rrrqdsdsssqqq0008:*pbncjjdd555555--",
">>555>9lklcnls9-<rprww441-1144rr9iqqqs08088882:*iMcckdde555%5-%=",
"<5555-9zjjkkiq5#-wrw414<-----114589i0088828:28:&eMMcjpw1555%+$$-",
"55555-9jddjp55>+-www<<<<--%%%--<1155555555,,,,:#5jjVji5-%-%$$$*>",
"=555-*9dpddi55%+%4441-<--%%%%%%=--<1111<;5555,;#5ppdji555%#%>55>",
"%->-*+5spiri5>#+%141------%%%$$%*=---<<<>555,;*#55dp5i55-%+=5>-*",
"$$**#+59ir955=+.+-<-%-<-%%%%$$+$$%%===--;>;>;;*@-5555555-++%**&+",
"+++++o<55595>*+o+--%%--%%+%%$+++++$%%%==*-=***$+%5555---*+oO++oo",
"%%*$#o*55555-*+.X%%++%%%%%++$++++++++%$$&&*&%%+o+55-5--*&O.O#***",
"555-*++--55**#+ X++XX$+++++++OOO+O++++++###+$$+.+-%--**$+.@>1555",
"**#+++.$$+**##o  XX X++XOXXXXXXXXOXOOOO+++++O+o o-%%&$$+..&>15>-"
};
