/* XPM */
static char *result[] = {
/* columns rows colors chars-per-pixel */
"64 64 89 1 ",
"  c #0D0708",
". c #0F090A",
"X c #150B0B",
"o c #190D0E",
"O c #170F11",
"+ c #1B0F10",
"@ c #1E1112",
"# c #1C1518",
"$ c #221315",
"% c #281617",
"& c #251619",
"* c #26191B",
"= c #2B1B1D",
"- c #301E1F",
"; c #2C1E21",
": c #301F21",
"> c #2E2123",
", c #2C2428",
"< c #332225",
"1 c #382527",
"2 c #352529",
"3 c #382729",
"4 c #352A2D",
"5 c #3B2A2D",
"6 c #372F33",
"7 c #3D2D31",
"8 c #3E3134",
"9 c #402D2E",
"0 c #4A2E2D",
"q c #412E31",
"w c #443235",
"e c #4A3536",
"r c #463539",
"t c #493639",
"y c #463A3C",
"u c #4D3A3D",
"i c #523535",
"p c #523C3D",
"a c #5A3E3E",
"s c #4E3D40",
"d c #523E41",
"f c #4C4044",
"g c #554244",
"h c #594446",
"j c #544649",
"k c #5B4649",
"l c #5E494C",
"z c #5F4E50",
"x c #624545",
"c c #624847",
"v c #624749",
"b c #624B4D",
"n c #6A4E4E",
"m c #6B504F",
"M c #634E51",
"N c #694F51",
"B c #665154",
"V c #6A5455",
"C c #6C5658",
"Z c #6E595A",
"A c #725555",
"S c #745857",
"D c #725C5D",
"F c #74605F",
"G c #78605F",
"H c #745F60",
"J c #766162",
"K c #7B6464",
"L c #7E6867",
"P c #7C6768",
"I c #7E6969",
"U c #826C6A",
"Y c #86706E",
"T c #88716F",
"R c #857372",
"E c #8A7573",
"W c #8D7876",
"Q c #8E7B7A",
"! c #917E7C",
"~ c #92807D",
"^ c #958483",
"/ c #998683",
"( c #978887",
") c #9B8987",
"_ c #9D8C8B",
"` c #A08E8D",
"' c #A2908C",
"] c #A49493",
"[ c #AC9C9B",
/* pixels */
"BfujBBzzddq:;3EEeahccnnnmnmncbblhhgdstw83272*2plMsghzzkssutpd3=t",
"CguBZVBBMj9:=C`PaaannVAASSSCAVnnbkkgdutw5375$>wphgkBCZMjdutdg2&w",
"ZllZZCVBMk7=q`ZpxaaxnAAASSSSVVNMllkggppe95ww*-9tddjlVZBMkjpug3&5",
"CBZDZCCBMd2;d[bexxiaxnAASDDSAVNMbkkhggutw5wt=*5utushMZZVNMdtg3%3",
"CZZZZCBBlg3-e]CadnaixcmASSSAAmNblkhggdhMe5wt-$5uutudlZHZCBjeu3%3",
"CDBCZCCBbhe:9`ChadxiaavnSSAAAmMblkhggklZp3we=$2wttshlZZHZlgwp3$3",
"ZHCZZZCNMkp<1/Cphxnx00axmAmAmNNMlhgdslh8539w=&<9ruhbNZZCBlseg5@5",
"FKCBZZVNlBM1<~CpaxnmaiaxmmAmmNvvhgdduuew538w*$29wugbBBBNkgteu1@3",
"ZJNMBVVBupu3<~DakvnNvhNAmmANNMbkkguuurrw525q*$25wuglbkggutttd2@3",
"ZZBBNVDBuw933_FkvbNNnhhnAxNNnbMkhguuyrw72257&$335wggdtuptwwtu2@3",
"ZCNzBHDBkuw31_KcbNNNNbvaihvbvbvkgguurww72<7w*$555rgdtwuuutwep<@9",
"CCzMCHZBlde1<)IMNnMMbnvhdpjvvlkhgsttrw85327w=%35wthkdwtpgtwwe:$9",
"ZCBBZZCVBge3</YbNbbnbvvkdpdkkkhhsutrwq7523w8%*237uhggguppueut<$w",
"IQHBDDZVBku3</YMbbbbkkhhxdudhdddutrww755335w*&%=-255993333133=&e",
"//VZDDZCBhp3>/Ybbbbvkkhhgdpuddddutrw7754337w%@oo@@@@@$$@$@@@$@%k",
"(UZJJGDSBhp3=~Rkbbvkhhhdddddsdusurw77752225q$Xo@@@@$@o@$$%%$$%<c",
"WKHKKHDDBgd<-^Ehkchhhdhpduuuuuttrsq775252255@+5shlzMbllBCCVu1=:l",
"WKHKUHHDbhd<=)Eehdhhdddputuuuttrqq775525:::5+;dHKKFFJDDJIIKMw>=p",
"WHKKUKDNhgd5-/!0upppppputeeettrr7774222:::::o;MCVkuguugBFIDgu:%e",
"EKKUKDbhdud9=!'e3wwqwqrerrrwqwqq77725::::::;o;BBVduswtuhzlssg<@5",
"JUEUZvddsqe9=TWp5599339rrrrrww8w7772::2::25;o:Mdltutweudhhuug5@<",
"zDUKvutue9q5%cdeqqqq959qeeetreww7q7799q5672;o:ldktwwwwtuuptuu<@-",
"uslkr7qq599<%=<-:--=:%%%---:<-===;;;:;::;;;+o:Mdg5wtuuuturesu<@%",
";*%=%=====%$$%==-==*%$$$@@$@$$@@++++@++$$++oo2Mbg5wuhftwwwwue:@@",
"#@%*=***==:<5CYRTTUDClkdueee9532:2:::;*%%%&&$2MBdq7wssq755qr5<$$",
"$<wtuuttttuplU^/`!!WUJVVCDFZVlswttresrwqqq7722dvdsrq275557w75<%$",
"=wgdggkgdgkNDKKKKHAkkgsssdjgklu3qq9555522577<:q73::2;<222<221=$$",
">uBuugkkllCDKPUUKPPSNMdjlklllklgqqqerettq7q7:%&$$%@$$$$$$$$@%$o$",
";sBurtuhkBZDPUUUUUIKHCBBVMVBljCPbsddddlddddr72<<;$&;;>;;;;*&**$$",
";ylrrrtgMVZKUUUUUPIIKHZZCVCVBzCCMdMMbMlMvdddsssrssqs8ss7qwwttrq=",
";wjutudBDDJR]`UKLLLIKKJZCVCVCBMBkdbbMMMlkddsttrrr7778q5677qrrtt2",
"*8kddkMZDZDP])bZPLLLKKJHCVVVVlMkkdddddssw722<<<<2<<222::2:22<<5<",
"*qjghMBCCCVVZBuBKPPPHHHDCVCVNMvkdtqw99::;;;;;;;;;:<<<<<<2<2;;;22",
"*5jgglBCCBldewwlHKPPHHDZCZZVBMMdwq559:qq22<;;;;222222,2<2<:;&:2;",
"*3khjkllbbksupgcHHPHHHHHCZZZMkdusssrrqrr77722222222222222,<;&:7=",
"*9bMlllklllMVVCCCHHHHPHHZCZCksddddsdssrwr77727222222<222<2<;&:q=",
"*qNlBbkhhhlBVVVVBBCZHHHHCMMMkjkdvdddssqw7q777572222<,2<2<22%&27=",
"$eZgzBluuujMBBMzMllMVHHHMMMlkjdjddddsisrrq77652222<<<<,,<<;%:27&",
"*wLHDCgduuhMBMMMMlkdlMCHHCzlkkhhddddsrrwr7767222222,2222<<<<<77&",
"$5JPFDCCCCClggglzMBCHHHYHdldklkkMMddsssrr777722222,2<;;<<<<225<$",
"#%8w95<<<<<<--:<:25wrwue<-<1153122<;:=&&&$$$$@@@ooooooooO@++@@@+",
">=-<2<795:*@+*<<22<><23311-%$@&<7q52<<::::;;=*&&*;$oo@&;**&&&@++",
"tPQ~~~'~YGh2$1VZHDDBlVCVblp<$=Z(!RRREEUTUUUDDCCVVbr%*dCldsrrq:%$",
"zPIYWETGCAp3%9IVHHNkhggw3355%w'Wd2ssdkdddddsqsqs5ww*:PHdssq522%%",
"bKGUUUUSCg9<$wRkzkgjkkgu7<<3*9~u:227qsrissqq5<=%;39$=dddirq52:%%",
"kKUYTUUUVw3:$w~CCVVBzlkst555=7~u57q0qsssswsqq3<=;52+%sdddddss3&$",
"jFGUUUUGg33=@w)HZFDDVMkguw9w=5Qldssdsdddssqsw3<::52+&sMBBdddwq&@",
"sCGUUUUGgw3=$e)ZZDDCCVlgtw90=3Wzddddddddsss0s3<<:32+&sCCVMdsrq%@",
"uBCKLUUKbw9-@w!GZDZCBBldtq97&1WVdMMdMddddssss72;:5:O&dCCBdds05%@",
"tlkVDKLKle3=ow!KJSZCBldur973&<EVMdMMMMMddsssw842272o*bHBBMdrq5%+",
"ekghCGKKBt3-@0WUDZZBzjdur753$<YBddbMbdbddddss24,:42O*dVddssrq3=+",
"wkdglDKGCt5=o3EUDCBBkddtq752&=PzdMdMMMMdbdssw74222:o*ldssq537q=+",
"wBggkBCDNe3=o3TLZVbkgsuw3352**PBddMMMvbMddddr72:;2<+&ddiqqq5r0;@",
"wBlgkkbBge3=o<ULBcksuuew532<*:EBddMddvddddssw72:,5;+&ddrwqqq7:%@",
"8lBgjgkgtw2*X=JFldueeww7332<%<EBssddddssdds7742::2;+&ssswqq55:&+",
"1ulhgggsr5<*X*BMdw6554443332*=Plq77sqsqqdsqs72;;,2;++2sr55q52;@o",
"<uyeuyww5<;*X$guw411<<<<255<**Bg557777777r772<;:;;*++;5w7552;;+X",
",4=1<>>=;=*#X@72<>>>;===><>=@$gu52522272442><;<;:;%XX*;;;;;;:;oX",
"#@ooo@@#@@@OXX$$@@#@O@@@@@ooX+w7<><>,;;;;;;%**&*;&+XX+++o++$;$oX",
"OXoXoXXOOoOXXXXoooXOXXXX.X. XX$#@$@#+@OO++.XXXXXOXX...X.XXXX.XXX",
">>>=>****#*#@XX#,8y8ww8634488888yssysss67#XX.+;**;#&##$##;##@+X&",
"68888866<,>=@oX*fjyffyyysyyt86886r6r6864<*O.X#4424644657:,;;;+X;",
",,=>>>,,>**##XX,f>*;>>>><<,>;,;*;;&&&##X+#+X.+;,476466,,4;;*;OX;",
",**>>>>=**#@O.@8,#*==;>>>>>=;*,,;*;&$#OO.OO. +;#;,:;;;;;;;;;#O ;"
};
