/* XPM */
static char *result[] = {
/* columns rows colors chars-per-pixel */
"64 64 123 2 ",
"   c #1E1919",
".  c #25201F",
"X  c #252323",
"o  c #2B2624",
"O  c #2D2927",
"+  c #2E2B2A",
"@  c #322B26",
"#  c #322D2C",
"$  c #36312E",
"%  c #3A332D",
"&  c #353231",
"*  c #3B3533",
"=  c #3E3936",
"-  c #373739",
";  c #3C3638",
":  c #3D3A39",
">  c #413733",
",  c #423A35",
"<  c #493E36",
"1  c #413638",
"2  c #433D3A",
"3  c #493F3C",
"4  c #4C4035",
"5  c #45413D",
"6  c #4B423C",
"7  c #52453E",
"8  c #54493D",
"9  c #59493F",
"0  c #433E42",
"q  c #464341",
"w  c #4B4542",
"e  c #4E4944",
"r  c #4D4A49",
"t  c #524643",
"y  c #534A45",
"u  c #5A4D46",
"i  c #544D4A",
"p  c #5A4E4A",
"a  c #5E5046",
"s  c #55514D",
"d  c #5C524D",
"f  c #565252",
"g  c #5D5652",
"h  c #5E5955",
"j  c #5A5758",
"k  c #5E5B59",
"l  c #605147",
"z  c #62554D",
"x  c #69574B",
"c  c #65584E",
"v  c #6A5A4E",
"b  c #615651",
"n  c #645A54",
"m  c #6A5D54",
"M  c #655E59",
"N  c #695E59",
"B  c #705F53",
"V  c #6D6156",
"C  c #66615C",
"Z  c #6C635C",
"A  c #6E685F",
"S  c #726255",
"D  c #796656",
"F  c #72655C",
"G  c #79675B",
"H  c #75695E",
"J  c #7A6A5D",
"K  c #7F705E",
"L  c #645F60",
"P  c #656361",
"I  c #6C6661",
"U  c #6E6964",
"Y  c #6E6B68",
"T  c #716761",
"R  c #746B63",
"E  c #7A6D63",
"W  c #746E69",
"Q  c #7A6F68",
"!  c #767067",
"~  c #7D7165",
"^  c #76716B",
"/  c #7C736A",
"(  c #7F786F",
")  c #777572",
"_  c #7D7771",
"`  c #7C7974",
"'  c #7B7A78",
"]  c #816D5C",
"[  c #84715E",
"{  c #8B745E",
"}  c #816F62",
"|  c #827265",
" . c #897564",
".. c #8B7A65",
"X. c #82766B",
"o. c #88766A",
"O. c #84796D",
"+. c #8A7B6C",
"@. c #907D6A",
"#. c #817771",
"$. c #847A72",
"%. c #8B7E73",
"&. c #857D7A",
"*. c #93826E",
"=. c #8C8075",
"-. c #8D837B",
";. c #8F887D",
":. c #928476",
">. c #998676",
",. c #93857A",
"<. c #96897C",
"1. c #998B7A",
"2. c #918781",
"3. c #958C83",
"4. c #9B8E83",
"5. c #939086",
"6. c #9C9183",
"7. c #91918E",
"8. c #9F978D",
"9. c #A08F85",
"0. c #A29288",
"q. c #A29690",
"w. c #AA9D95",
/* pixels */
"H ~ J * s C C V C C C y s | H V B H V z J m ^ ) : r C Z R ~ M P I R X.E N N M N M N | %.o.u 1 g A N b Z T R E T b T T N Q | o.M ",
"o.=.| , a h V H A k n V b +.=.~ [ J R m v d P W 6 s C d C ~ M e f r b E N n T Q R N | #.E 0 3 b n E Z Z F / N n b n B N L R <.o.",
"=.;.O., s d V V Z Z A n F ! n V Z R A R G b C X.6 e g A I R ! Z d d p N b b N N R / I E  .t 1 b n G E F b b N m N N d m M k ! &.",
"C C s = p V V g V H F c H Z g c m R H V C Z Z W w s b s g b W R ~ R N V N N T R I b m H  .3 * l V R R Z M T V d g n N N R M k k ",
"C F z $ d c K V E R c Z ` ! [ | Z g R R C C _ R - s Z C z C Z m Z C Z n N L M R O.Z d I X.6 # t N E I M I f d b n M n Y R I C N ",
"R O.A * s d Z H H E c k P ~ X.O.o.Z g R H m R / * q h C n d m C V N M F } b M R I Z R R / t * 5 d V N n g m n N C n N _ ' I C C ",
"R ( A * i d H V N m v s g C C d N Z A R H E T O.q : q m l V Z m b V Z H H N b j L V M U Q q ; u n n h b F b n N C C C W U R I Y ",
"I R g * d J H C S D c g d d d u V V h ^ H R ~ $.w 6 q b V n t g V H I M n N N p p H N M R t , d n b g b n m Z Z Z M P ^ W I Z I ",
"Z R H < V I T X.X.B m c g g V S V R z M E E R ' e t p d n F B N V m n N b g Z C Z V M R O.y 5 e g b b m R N I Z I C Z I I W W Z ",
"! R b # 2 s ! T x J E H Z m F c d C V k #./ P P 0 e d M z E *.O.X.S m N H Z Z Z Z ~ W n ! e 5 b Z N n z F M M M M M M C M P W ! ",
"Z ~ b $ 5 * w i x J V J R ~ F F n m k r h U k M & e b b m R R T o...F Z I R R m i f N g n 6 : s a p 8 c N g M p f k f n h k M I ",
"g g e # t 2 # 8 B a c c d F H n h m d r p p t t $ w p z z 6 c z A J N M M m z m m p N F V 5 5 k m S m d g g t i s k k k j f d b ",
"A d 9 % d z u v S z z N c d e < e n V s C C v b $ 3 c l t u p m g V n Z k M M n n i C D n 5 e A m l J m d M m i r h f g s e y n ",
"s 8 $ @ , t 4 * 4 < 1 < 6 > 6 6 & * 5 = * 6 6 * o < 6 % 1 7 3 5 5 6 q q : 2 w 2 q * 1 t = O @ * w * = , w t t = & : = : 6 6 * 5 ",
"$ 5 6 e , % 4 6 , = 1 * * % o $ * * $ : $ * < < p 3 , 8 > % & # + * + X $ ; * * # = ; 2 = e s w q 5 : = $ $ + +   X - $ # * $ : ",
"R =._ ! E X.X./ +.X.o.E %.$.$ d p Z R g C R / E N X./ 1.>.%.#.o.N $.$.q e M N R M Z E ! E I ( ;.5.6.:.O.Q N h N q : P Z | ~ Z Z ",
"Z I W E R R N N R o.o.| R 2.% 3 u g n N N T L X.E G I T Q %.%.o.F / w.g 2 e m N F H m E R _ / Z ` 6.| R $.O.W %.N * e s U ! / E ",
"R N b R n N m H Z X.:.,.X.#.< 3 b b F N n n R Q E T n R X.F T E X.$.3.k * t g B G N R R M C _ W M I | H / / R E f 5 c g k Z X.E ",
"! Q E Z N F E N z g / E %.R % u b b Z E E N I Q F F T Z Q Q Q X.E &.-.a 6 u z m o.J F H Z N R ! Z b ! R ~ / X.E 3 = s C Z H R O.",
"/ ! %.Q b N E N F H n G o.E 2 t t b n I R N N Q X.T X.Q W I R } %.%.3.b 6 a m S H | J O.E T R I Z C I I A &.-.$.n < g P A | %.O.",
"M A ^ O.| N n V Z R Z T V / < i d b b F M T b T / N E Q Q W E R Q / &.g y n F E G R E T ~ R W A I p b M p P $.,.C $ s f Z N H F ",
"r g m E ~ H m F b b d N N H = 6 u z y m N N m b } G N / W b U N I N $.p q Z d q T V N b Z Z Z n I H m R g j U $.h $ s C m n N c ",
"Z g H W X.| F F c G N b R | : d v x b z F H N G } } N n Z n a N G H R 0 5 f z 9 i X.F b Z M C M h R Z N g p b j s & e b H n g S ",
"H m r C R E m m F R H X.| I : u B F N B N I H E F T E E T F R V R H n ; , t z p w n E m M Z V m b n M H H f U N : 6 l n ^ H m m ",
"Z B e g R W X.~ H V E E X.T 1 t c G o.| n m N G } E N Q ~ F S H F E O.e > p J u i t f m n F n N V d g F I b Z / d & a s Y K R H ",
"F C g d M H W %.+./ o./ F S 2 u v B E Q o.T E B E B Q T H | X.! X./ _ < < a F m l Z p m i g d n F J n Z Z M k W V , a i n H n R ",
"n n s c n R / / ^ / %./ | F = a x N m N X.} o.T L M L | ! R / W W R &.e < c m S Z H H H H n H F v ~ H n Z n Z I c , z d ~ | H Z ",
"U H d n Z Z Z R A O.:.$.E m ; l b d m n 0 T } b i b g N ! ! _ W W Z R q < d V S H F F ~ Z Z F S v b ! ~ ! A Z H s = d 8 h / ~ ! ",
"~ *.H g H F H A W $.+.~ F b % e b n b N B p p 0 p N N R O./ ! W R ^ R = < C c C b N b b Z A J F J l R H R H Z Z s : c c C A H / ",
"~ ..K H H V ! ~ Z R N | J G > t d n p L R Q G B J N I L I ) W ! W W ! 6 % n l 6 V V E J V C ! H S p Z H H R ! H e * g n C H Z U ",
"R X./ ~ A H R O.R H R R o. .; d b j p t d L G o.E M g N p I R I Y P W t 6 z c b Z R E Z C k Y ! R R W ~ / R A ~ y * y n A H C m ",
"! ! K A ! O.Y M W / H o.<.o.* t p i E B p b p 0 n T n T F s Z n Z R H 5 6 u m x Z n d Z S N I ^ / U A H ~ Z g K a $ a n H R g g ",
"A ! F C C / / g b T H / / H 2 y g p b n n Z m t N I H A R Z Z m V R E 5 6 z F V Z m v ! J F P C P R I R / +.F o.V = u C ~ ~ V f ",
"C ! Z A V C A U T N E F #.+.1 q p F b N N m J T Z I R ~ R R A H g Z E e 6 d S m V H ..E C g C Z C n M R R ( o.*.S * w e H ~ Z g ",
"c V C n Z V R Z R / F E %.E ; 3 t G m b } N N N g i Z U R ! H U Z F V * q s M | E g ! ~ c a s A R ~ n Z I C R =.K 4 d n ~ R H Z ",
"C ! K V V Z A R M Z } R R d % u b F F N F N I Z F d C / ! I W U W R E : 5 e g ~ H V ^ Y Z A f i s R ! C h n n C e * e s C m a H ",
"C n O.! Z n C A n N ~ X.b p % 0 0 p b Z I I Z I ..Z C R U n R I / R A 5 5 r g C ! Z ^ ( C Z Z V t d R V m N R +.t $ 6 d k v b m ",
"V ! X./ Y H C X./ F R %.F l % u u l z p n N R Z A i f I R H A R ! I U e 0 s V g I Z g ^ $.C H Z n u a J [ Z C ~ m 2 c r c [ z d ",
"F A M P R A s R W T C N N H , d p z m b m d b Z M g d Z h C C H C Z A q 2 s s a C I A k I R R A V D V V F Z h ! d 5 d e z Z H m ",
"A R d g n Z m n m Z F b g n = t n d b N g Z M C C V N d p g C R s d H = 5 a a C A C ! h s k A A D S F n H A g P s = d n l V F Z ",
"C Z C h d f s h f n V z b z > u d b n m d s g f I n Z Z b d g V V y V 4 4 e y r s d h C C h C C m n Z n r k s j e - i y y g n n ",
"k n f n g s y w p f g d n d $ d b l b k d s g f k n n C Z V V n g z d $ 5 a d p d g s M c i w 6 d i q e t e g h r = c c v 6 c h ",
"5 & * , $ : 4 $ ; 1 1 3 t $ O * w < = 1 6 q 5 2 - e 5 5 e 6 y 5 5 4 % . * 6 2 * : 2 $ & w 5 * $ O $ $ < 6 = q q # # 5 5 6 , : 6 ",
"$ - + o + + * $ # 1 < 0 $ > e 2 = 1 & = : + & O o + * * : = 4 * = = 6 8 5 : = % $ & $ # . @ % 6 4 , * % % $ * - 5 r 5 * : = $ - ",
"f M b 5 n h o.R I W #.%.} T #.X.E +.$.X.W M W _ - s M R ^ ^ 6.6.1.1.1.%.~ W X.%.) A R o.=.p v ! J o.O.X.G n U / _ _ $.E ^ O.R b ",
"E ,.R # y h ~ H Y W E T } N T X.Q X.o.Q T E W 2.2 2 f C I I Y ) =.( =.=.~ H H H Z ~ X.! 6.Z = t v ! E ~ | H N _ O.E W / ^ I $.=.",
"%.,.X.O s g C ~ } N b G  .m b E X.X.o./ I Q Q Q : 2 i I I ! C n A d s / R o.| Z ~ ~ / ~ 8.a 5 l n I O.R I R ! U _ $./ Z Z Z ! / ",
"! Q A * a g g ^ &.Q N G } B b n E T I R R N N R 2 w k P ^ R I R I H H A R E *.~ ~ ~ V / 7.C 9 F F s A / H I ^ I f U / R F Z H H ",
"T Q n , z y d Y I V R R } E N N T R H n b F E o.0 q M P Y Y I P Y ~ H ! R R E R H E B M ^ s 6 M H Z b R H n C ~ Z g I Z m b Z R ",
"m E Z 1 d n c s k F n M Z H m n Z Z M n N N Z E = r f M M C C Y A A A Z Z | =.E m v S b I q , 6 u g Z W H R F R R s 0 Z b n n V ",
"J | Z = e s h d i N d m N R G b N b m N b V Q Q 2 q g C A Z Z C M n V ! | +.Q R E D m n R < ; u m V d U R V H ^ R Z p b F n q b ",
"E V g * u s C m Z H Z M R N E F H Z N n E N Z I = e f n C Y Y A A Z H A U / $.,.} m E Z T 2 t l p N c k / K P P R A n n m J | E ",
"X.[ m * n V Z g g R ^ g n m N N b Z n m I b M C - q f n h M Y R U Z n d 2 r R I l [ J F X.y 5 c i b C s ^ / P g M Z N Z v / +.O.",
"E o.V - s V Z V u s C V b b N R a d a z V n h g & r f n j j g Z V ( H n p , ; t v m m m T a t V c n g r s A h d i n b n F N Z n ",
"Z H g * g C g Z S s C D V C C I n d m z f g t s & r f k s r i d g e y t p 6 % 8 S d z x b 5 e y g Z m r s i 8 t t i a l 3 > d n ",
"d V w : s C V v n i h V h U h n A g z g d n V w X q r s d y e g A c a v z c p c v l d m x % * t w g V s h C v h s t z u y z u c ",
"+ $ X + # + $ # & + O # # * # # * $ O $ * * * O X X O O * * + # & % # $ # % % @ @ # # # @ X > $ + o # # + # % % % % % @ O % % $ ",
"; y g i r i i t 5 s g p i : & n C A Z g 6 5 2 1 1 0 i w 6 y w i a C s + = y z c b a z y p n i i w i i f i u n b * % s D c t w 6 ",
"N #.) T n L T Q R T R X.$.&.5 C ^ -.,.o.X.S b m x f ' &.%.o.Q E H 3.q.e p V A A %.+.o.G E R n Q F I Q b I Q _ 9.u 6 b I %.<.$.+.",
"F N R #.Q N N Q X.Z F X.$.3.q 5 h $.G F X.%.*.{ ] i k W R W ! / ~ I 2.d = y d m Z O.o.X.n T N x N N N N N R R 4.| $ e b F ! X.E ",
"R Q R _ R I N T X.E / ~ R N 2 s i y R T X.X.} ] B m p f Z R E X.$./ R 6 = y n m n R %.%.| T E G E N E T Z N #.2.n * t n R I R E ",
"R X.#.Y Q X.n T X.! H o.X.E ; i i f R R R #.o.} m b N g z J E %.$.$.1.t 5 c F g b p Z N T B E T T F N R ! Z R ,.N * g z Z E Q | ",
"X.R W ) Q R T R Z W ~ =.%.E 2 i i r j M L Q @.@.o.B N Q E | +.X._ $.5.s 4 d n n F E N N N } | T x F N N N Z F -.F 1 M M I Z R } ",
"L j L Q Z Z Z o.R U V ~ %./ 2 e g t i n n E }  . .T T T Z m n H n U &.d d g b S M N m F N T T N Z H N E N E m $.V > d M M Z R Z "
};
