/* XPM */
static char *result[] = {
/* columns rows colors chars-per-pixel */
"64 64 129 2 ",
"   c #9B9B9D",
".  c #9D9D9F",
"X  c #9E9EA0",
"o  c #9F9FA1",
"O  c #99999B",
"+  c #9A9A9C",
"@  c #9C9C9E",
"#  c #979799",
"$  c #8F8F91",
"%  c #929294",
"&  c #98989A",
"*  c #969698",
"=  c #939395",
"-  c #89898B",
";  c #8A8A8C",
":  c #898989",
">  c #838383",
",  c #8D8D8D",
"<  c #8B8B8B",
"1  c gray56",
"2  c gray52",
"3  c #818181",
"4  c #939393",
"5  c #8D8D8E",
"6  c #8D8D8F",
"7  c #838385",
"8  c #8E8E90",
"9  c #919193",
"0  c #868686",
"q  c gray55",
"w  c #888888",
"e  c #848484",
"r  c #949496",
"t  c #888889",
"y  c gray54",
"u  c #909092",
"i  c #8C8C8E",
"p  c #808082",
"a  c gray59",
"s  c #929292",
"d  c gray53",
"f  c gray58",
"g  c #909091",
"h  c #878789",
"j  c #9A9A9A",
"k  c gray61",
"l  c #A0A0A2",
"z  c #89898A",
"x  c #8E8E8E",
"c  c gray57",
"v  c #919192",
"b  c #9C9C9D",
"n  c #9A9A9B",
"m  c #959597",
"M  c #8A8A8B",
"N  c #959595",
"B  c #939394",
"V  c #989898",
"C  c #8B8B8E",
"Z  c gray60",
"A  c #959596",
"S  c #979797",
"D  c #929293",
"F  c #8C8C8D",
"G  c #979798",
"H  c #909090",
"J  c #8E8E8F",
"K  c #989899",
"L  c #8B8B8D",
"P  c #858587",
"I  c #7F7F81",
"U  c #848486",
"Y  c #7E7E80",
"T  c #78787A",
"R  c #777779",
"E  c #7A7A7B",
"W  c #8F8F90",
"Q  c #9B9B9C",
"!  c #99999A",
"~  c #9B9B9B",
"^  c #969699",
"/  c #929291",
"(  c #8B8B8C",
")  c #9F9F9F",
"_  c #A0A0A0",
"`  c gray63",
"'  c #A1A1A2",
"]  c #A1A1A3",
"[  c #A2A2A4",
"{  c #9E9E9F",
"}  c gray62",
"|  c #A0A0A1",
" . c #9D9D9D",
".. c #9F9FA2",
"X. c #A3A3A5",
"o. c #9F9FA0",
"O. c #727274",
"+. c #767678",
"@. c #777778",
"#. c #848483",
"$. c #747474",
"%. c #A4A4A6",
"&. c #969697",
"*. c #9D9D9E",
"=. c #A2A2A3",
"-. c #A3A3A4",
";. c #A2A2A2",
":. c #A1A1A0",
">. c #949495",
",. c #9B9B9E",
"<. c gray64",
"1. c #828283",
"2. c #7B7B7B",
"3. c gray49",
"4. c #7C7C7C",
"5. c #808080",
"6. c gray50",
"7. c gray51",
"8. c gray48",
"9. c gray46",
"0. c #6D6D6D",
"q. c #727272",
"w. c #767676",
"e. c gray45",
"r. c #7B7B7A",
"t. c #7D7D7E",
"y. c #868688",
"u. c #7F7F80",
"i. c white",
/* pixels */
"  . X X X X o O + @ # $ % &             +     @ + + * @ .     + & O = = - ; : > , < , 1 2 > 2 3 > 2 3 4 5 ; 6 7 8 + 9 0 q w e > ",
"@ . X X X X o O + @ @ r &   + + + + + + + +   @   + #   @   + + & O = = - ; t > , 0 y < 2 e w e y , > 1 u i - p ; O & 1 a s 2 0 ",
"X X o X X X o O + . @ r & + O O O O O O O +   @ @   O     + + + & O = = - ; t e , e q , < w < d , f y 1 g 6 6 h % &   j k 4 2 e ",
"o o l o o o X   +     # & O O O O & O O + +   @ . @ +   + +     + + r % - ; z e x 0 c q x : < y x a < s v $ # & O @ b n j f y 0 ",
"o o o o o o . @   + @   + O O O & & & + +       . @   + + @ @ @     m % ; ; M e , e x : c q , : c N 2 s B #   @ @ @ @ j V N < 3 ",
"X X X X X X . @   + @   + O O O & & O O + + + + @   + + + @ @ @ @ + # = i C M e , > , y a c 1 < f N e 4 9 u + + + +   k Z a c : ",
". . . . . . . @   +     + O O O O & O O + O O +   + O O +   @ @ @ + # r 8 6 < 2 , : a , a s 1 f A a d c 9 8 O O + O   k j V S g ",
". . X . @ @ @ @   + + + & & & O O + + + O & O + O O O O & O +   + + & m = D F w w : V 1 V r G O O m ; = r   @   + + + + + O O # ",
". X X . . . @ @   + + O & & & O +       O & O + O O O O O + + + O O + + & * 5 : w : S H V A & O O & 6 r m . . @         + O   O ",
"@ . X X X X . @   + + O & & & O +   @ @ + & O + O O O O +     + & # & O # m J y y : V 1 V r & O O   9 r r @ . @ @ @ @   + + @ + ",
"@ @ @ . . .   . . + O & & & & & O       + O + O + O & O + @ @   O + # * m r 1 : q < S s Z K & + + + % m r   @ . . . @ + + +   @ ",
"            @ ; L + & & & & & & & O O O P $ & &   O # & + @ . + * I 6 * * * 1 : , x S N S p ; O + & 9 m r & @ + & r U r & O + . ",
"        +   + I Y O O O O & & & & O O # T - # #   O # & @ . X . r R h # * * J : , 1 V S S E P O & & 9 m = # +     = R u & & + . ",
"      + + +   +   + + + + O & & O + O + # & + O   O # O @ . X @   * * * * * W z x c Z Z Q m m +   # 9 r % # +   @   # # # &   @ ",
"@     @ @ @     @ @ @ @     + + + + + + + O +   + O # O       + O & # # & O = L 9 r & O   + & # & # m m r # O + +   @ n j j j ! ",
"@   +             @ X . @               + O +     O & O + + + O & # * * # & 9 L r * O     O & * +   + & m # + + +   b ~ j Z V S ",
"@   + + + + + + +   X X . @ @ @ @ @ @ @   O +     O # O O O O & # * m m * * 8 L # & + @ @ O # * & & & # * &     +     n j Z N Z ",
"O       + + O # * + . X X . @ @ @ . . @ @         + # & O + O & & # # * m m $ L # # # O + & # # * & # r # & + O O O O j Z V c 4 ",
"# O +   + O # r = # O +   @ . @         + + O + + & * # # O O # & O + + O & 9 6 # & & O + + + + +     # # # & O O & & G S a s 4 ",
"% m m r = = 9 % = = = r m m r = = r r r m m m m r = 9 % = r r m * # O O O & 9 6 * # # & & # # & O # # ^ r r m m m r = D / c x y ",
"9 B = % 9 9 8 u = u u 9 % % 9 9 u 9 9 9 9 9 9 % 9 u $ u 9 9 % r m m * m m m 9 i * r = r r = B B r 9 g = % B = u W 6 6 J x 5 1 ( ",
") _ ` ' ] ] l o o o l ] [ ] l o o ] ] ] [ [ [ ] l o . o X X [ [ ] [ [ [ ] ] @ * l l l l l ) { ) ) ) } ) _ ) } k j Z V G # O b @ ",
"} ) ) | l l o X X X o l l o X X X ] ] ] ] ] ] ] l l o o . . ] l o o l l o o + r . . X X X { } }  . . . .}  .k k j Z V # O + @ . ",
" .} ) | l l o X X X X X l o X X X ] ] ] ] ] ] ] [ ] l l . . l o X X o o X X O = . @ @ @ @ { } }  . .k  . . .~ k ~ j j n     . X ",
"~  .} { ..] l l l o @ @ X . @ o o ] l l X.X l [ ] ] ] o X X o l . X o o X X # 9 + + @ @ . o.} k j ~ ~ ~ ~ ~ j j  .~ k .   @   @ ",
"j k } } X l ]   @ @ @ . X X . X l l o X   + X o l o l X X o o l X     @ +   * u & O   . { j Z k j j ~ j Z Z j j j j a b O + + + ",
"~ k } o.. @   p p @ . o ] [ [ l X o X + O.; . ] ] o l X X o o ] O +.8   O + * u & O   . O @.#.Z j j j Z V V j ~ Z 1 $.g O & O + ",
"Q b { | X O # $ = l o l [ %.%.] X l o o 8 & [ l l l ] o o l o l l 9 & o X X * g O n   { @ 5 x V ~ j j Z V Z Z k ~ V M &.. b   Q ",
". X o.X.] . + @ X.X.[ [ ] ] l ] ] ] ] ] ] [ X.[ ] [ X.[ ] [ X.] [ [ o X X X &.g Q k  .*.*.k j Z Z Z Z Z j ~ k  . . .} }  .Q ~ k ",
"X X o ] ] l . X [ ] ] [ l ] ] [ X.[ ] ] ] l ] ] l l ] ] ] [ X.] ] ] o X X X V s  .} } ) }  .~ j j j j j j ~ k  . . .} }  .k ~ ~ ",
"X X X o ] X.] l ] X l ] o . . X o ] ] [ l o o o X o o l ] [ [ l l l o X X o.! f ) ) ) _ )  .k j j ~ ~ j j ~ k  . . .} ) } k j ~ ",
"@ X X o l ] l l l X l ] l X . . . X o o o o o o o o o l l o X X X o . . . X K f _ ) } ) }  .~ Z Z Z j ~ ~ ~  . .k k  . . . .~ ~ ",
"@ . o l l l l l l l ] ] ] l l l o . X o l l l l l l l ] l X . . X o . @ @ . G 4 ` }  .} } k j V S V Z ~ ~ k  .k k k k  . . .~ j ",
"@ X o ] ] ] ] ] ] ] [ [ X.[ [ [ ] l l ] ] ] ] ] ] ] ] [ ] o X X o l X X . X V 4 ` } } }  .~ Z V S V j ~ ~ k  . .k k k  . . .j Z ",
"@ X | ] =.=.=.=.] =.-.X.X.-.[ [ [ ] l [ [ ] [ [ [ ] ] [ [ l o o.o.o X X { X V 4 _ ) } }  .j Z V S V Z ~ j ~ k k k k  . . . .~ Z ",
" .} o.` ;.;.` ` ` ` ;.=.=.;.;.;.;.=.o [ [ l ] [ [ l X l ] o X {  . .k  .} } V 4 ) ) )  .k Z Z V V Z Z Z Z Z ~ ~ k  . . . . .~ j ",
"k  .) _ ` ` _ ) ) _ _ :._ ` ` ` ` =.[ X.] o l ] ] o . l ] o X {  . .k k  .} S 4 } ) }  .~ Z V S S V V V V Z j ~ k  . . . . .~ Z ",
"~ k  .) _ _ ) ) } } ) ) ) ) ) _ }   o X . X o l l X . o ] o X {  .k ~ ~ k  .a s } } }  .j V S a a S S S S V Z j k  . . . . .j Z ",
"k ~ ~  .} ) } _ _ k  .} } ) ) _ S >.# &   o l ] o X . o l o X } k Z j k  .} a s _ ) ) k Z a N a a S a a S V V j k ~ k k  .}  .~ ",
"~ j Z ~ ~ k k } } }  .) _ _ ` _ c A * * + l ] l o X . o l o o *.~ V V k } ) N s ` _ ) k j V Z Z V a a N a S S ~ ) k }  .k ~ k k ",
"j Z V V V Z V V j } ) _ ` ;. .Z a A & ,.. X X l l o X l l o X b Z a S j  .) N s ` _ ) k j V Z Z a N N f N a S j k j  .k j V j j ",
"Z Z V a S a V > e j ) _ <._ j ~ j ! n ! 1.v . { | o X o o X *.n N 2.H j k  .N 4 ` ) } k S 3.: a f f f 4 f a S S N H 4.s V j j Z ",
"V V S a a a N 3 5.S j  .;.;._ k V V Z k 5.< }  .b  . . . .j Z V a 3.x k k ~ N N _ } k j N 6.e f 4 f f 4 4 a Z ~ Z H 2.H S S V Z ",
"V V V S S S f V Z j Z Z ~  . .~ j ~ ~  . .~ ~ ~  . . .k ~ Z S N ~ S Z ~ ~ ~ a f  .~ ~ Z V V N 4 f 4 4 s c f S V S Z Z j Z S Z a ",
"V V Z V V V V j j Z k ~ j V V j Z j k  .}  .~  . . . .k j V Z S V j j ~ ~ k S s V V j V S a V a 4 4 s c H s a N V a Z V Z j a 4 ",
"Z j Z V V V j ~ ~ j  .k ~ V S V j k k } } }  . . .k ~ j Z Z Z V S Z Z ~ ~ k V c S N Z ~ Z S V a f s f H 1 4 4 c 4 f N N N f s s ",
"V V V S S V Z j Z j j j Z V S V j ~ k k k k k k k j V Z Z Z j j Z V V Z ~ k Z c S 4 Z k j Z S a a s N H x s c c s 4 f f s H c H ",
"N N N a a a S V V V Z V S S S V Z j ~ ~ ~ ~ ~ ~ j S a S Z Z j j Z V V V j k Z s S 4 Z ~ Z j Z S S 4 a s c N f N S V Z V a N 4 s ",
"c c c 4 f 4 f 4 f N N f f f f N N a a a S a a a N 4 c f a S S S a N N N S V a c f H a S a S a N f c f c 4 V S Z ~ k k j Z S f f ",
"< y < , , , x : q 1 q q , q , q w q , , x < , y d 2 2 : x H H H 1 x x 1 x x , < : w , 1 , x H H , w , < x c 4 f f 4 4 4 f 1 q q ",
"N N N a a a a 1 s a f N a a S f , N a a a s 4 c , , q c a V Z k ~ j Z V V V s q , H a S N Z j ~ a c a f S j  .k ~ j ~  .) Z S a ",
"S S a S S S N , H f f N a N N f c a V S a H c x x x , c a V Z j Z V V V V S x 2 : H a S f N a S a s S f s N V j j Z j j ~ a V V ",
"N N f f f N f q H s c f f f N f s V V f f H x q H 4 1 s N Z j j V a V V a N < 7.w H S Z S N a S S V Z f s N V j j Z ~  .j a N Z ",
"a N f 4 f a N , 1 4 H f f f f 4 H V S s f 4 H , x c , c N V ~ k j Z Z Z S N < > : c Z ~ Z V Z Z Z k j N f S j k k k  ._  .V f Z ",
"a a N N a V V x , N H f f 4 s c 1 S a c 4 c , q x q < H s a Z }  .~ ~ ~ Z a < > : c Z k ~ j ~ k j  .~ a N V ~ } ) ) _ ;.} Z f V ",
"S S S S V j j : w f H 4 f 4 c 1 , a f H , H c , q y q H H f V } } s Z  .~ a : > y c j  .~ f Z  .k k k a a S j ) _ } a }  .Z 4 V ",
"S Z j j j ~ j 8.9.y , s 4 4 c , < f 1 : 0.6.q : < q x 1 q s S ~ f q.q  .j f d 0 1 s Z } V w.2 } k ~ k f f a a ~ _ f e.c N N a j ",
"a V Z j j k k 1 0 w y c s s c q < 4 H , d d d w , , q x q s a N f < f Z 4 , 7.> < c j )  .s f  .} k  .N f a Z j  .k H Z H H N j ",
"N S Z j ~ k k 4 y < y H c c 1 < : 4 c x 4 < > 2 y q x 1 , c N f c s a N q 0 3 > < s j ) ) ) k  .)  .} N s S k V V S V  .1 , a j ",
"a Z ~ j ~ ~ ~ a : q c f s H c x : c x 0 w e > 0 w < x 1 H f N c c q s s d 5.2.5.w H k ) _ ` } k } } _ N H V } k f , H j q : N j ",
"Z j j j ~ j ~ S q 1 4 N s H 4 c < 1 q > 6.3.3 0 : < x < , N S c H w s 4 2 4.8.5.w 1 ~ } _ ) }  .} } _ N H a ~ k a < < f , 0 c Z ",
" .j V Z j Z Z 4 < c s f c x c x w q , q < e > : < q 1 < < s a , y q c H 0 6.r.3 w 1 j  .} }  .k  .} _ a s f S Z f , x x , 3 x a ",
"k Z a S Z V 4 , w , H H 1 H 4 c y q H < 1 y 7.d < , 1 q q c 4 < e e D B 0 t.E 3 w 1 Z  .} }  .k k  .} a 4 N f 4 f H 4 H H 0 x N ",
"V V N N Z S 1 q w < H y q c f 4 q q s , , : 2 d y q 1 < < s S 5 P - m * y.u.E 5.w 1 Z } ) } } k ~ k j N 4 a c s Z x x q : > y V "
};
