/* XPM */
static char *result[] = {
/* columns rows colors chars-per-pixel */
"64 64 256 2 ",
"   c black",
".  c #010101",
"X  c #020202",
"o  c gray1",
"O  c #040404",
"+  c gray2",
"@  c #060606",
"#  c #070707",
"$  c gray3",
"%  c #090909",
"&  c gray4",
"*  c #0B0B0B",
"=  c #0C0C0C",
"-  c gray5",
";  c #0E0E0E",
":  c gray6",
">  c #101010",
",  c #111111",
"<  c gray7",
"1  c #131313",
"2  c gray8",
"3  c #151515",
"4  c #161616",
"5  c gray9",
"6  c #181818",
"7  c #191919",
"8  c gray10",
"9  c #1B1B1B",
"0  c gray11",
"q  c #1D1D1D",
"w  c #1E1E1E",
"e  c gray12",
"r  c #202020",
"t  c gray13",
"y  c #222222",
"u  c #232323",
"i  c gray14",
"p  c #252525",
"a  c gray15",
"s  c #272727",
"d  c #282828",
"f  c gray16",
"g  c #2A2A2A",
"h  c gray17",
"j  c #2C2C2C",
"k  c #2D2D2D",
"l  c gray18",
"z  c #2F2F2F",
"x  c gray19",
"c  c #313131",
"v  c #323232",
"b  c gray20",
"n  c #343434",
"m  c #353535",
"M  c gray21",
"N  c #373737",
"B  c gray22",
"V  c #393939",
"C  c #3A3A3A",
"Z  c gray23",
"A  c #3C3C3C",
"S  c gray24",
"D  c #3E3E3E",
"F  c #3F3F3F",
"G  c gray25",
"H  c #414141",
"J  c gray26",
"K  c #434343",
"L  c #444444",
"P  c gray27",
"I  c #464646",
"U  c gray28",
"Y  c #484848",
"T  c #494949",
"R  c gray29",
"E  c #4B4B4B",
"W  c #4C4C4C",
"Q  c gray30",
"!  c #4E4E4E",
"~  c gray31",
"^  c #505050",
"/  c #515151",
"(  c gray32",
")  c #535353",
"_  c gray33",
"`  c #555555",
"'  c #565656",
"]  c gray34",
"[  c #585858",
"{  c gray35",
"}  c #5A5A5A",
"|  c #5B5B5B",
" . c gray36",
".. c #5D5D5D",
"X. c gray37",
"o. c #5F5F5F",
"O. c #606060",
"+. c gray38",
"@. c #626262",
"#. c gray39",
"$. c #646464",
"%. c #656565",
"&. c gray40",
"*. c #676767",
"=. c #686868",
"-. c DimGray",
";. c #6A6A6A",
":. c gray42",
">. c #6C6C6C",
",. c #6D6D6D",
"<. c gray43",
"1. c #6F6F6F",
"2. c gray44",
"3. c #717171",
"4. c #727272",
"5. c gray45",
"6. c #747474",
"7. c gray46",
"8. c #767676",
"9. c #777777",
"0. c gray47",
"q. c #797979",
"w. c gray48",
"e. c #7B7B7B",
"r. c #7C7C7C",
"t. c gray49",
"y. c #7E7E7E",
"u. c gray50",
"i. c #808080",
"p. c #818181",
"a. c gray51",
"s. c #838383",
"d. c #848484",
"f. c gray52",
"g. c #868686",
"h. c gray53",
"j. c #888888",
"k. c #898989",
"l. c gray54",
"z. c #8B8B8B",
"x. c gray55",
"c. c #8D8D8D",
"v. c #8E8E8E",
"b. c gray56",
"n. c #909090",
"m. c gray57",
"M. c #929292",
"N. c #939393",
"B. c gray58",
"V. c #959595",
"C. c gray59",
"Z. c #979797",
"A. c #989898",
"S. c gray60",
"D. c #9A9A9A",
"F. c #9B9B9B",
"G. c gray61",
"H. c #9D9D9D",
"J. c gray62",
"K. c #9F9F9F",
"L. c #A0A0A0",
"P. c gray63",
"I. c #A2A2A2",
"U. c gray64",
"Y. c #A4A4A4",
"T. c #A5A5A5",
"R. c gray65",
"E. c #A7A7A7",
"W. c gray66",
"Q. c #A9A9A9",
"!. c #AAAAAA",
"~. c gray67",
"^. c #ACACAC",
"/. c gray68",
"(. c #AEAEAE",
"). c #AFAFAF",
"_. c gray69",
"`. c #B1B1B1",
"'. c #B2B2B2",
"]. c gray70",
"[. c #B4B4B4",
"{. c gray71",
"}. c #B6B6B6",
"|. c #B7B7B7",
" X c gray72",
".X c #B9B9B9",
"XX c gray73",
"oX c #BBBBBB",
"OX c #BCBCBC",
"+X c gray74",
"@X c gray",
"#X c gray75",
"$X c #C0C0C0",
"%X c #C1C1C1",
"&X c gray76",
"*X c #C3C3C3",
"=X c gray77",
"-X c #C5C5C5",
";X c #C6C6C6",
":X c gray78",
">X c #C8C8C8",
",X c gray79",
"<X c #CACACA",
"1X c #CBCBCB",
"2X c gray80",
"3X c #CDCDCD",
"4X c #CECECE",
"5X c gray81",
"6X c #D0D0D0",
"7X c gray82",
"8X c #D2D2D2",
"9X c LightGray",
"0X c gray83",
"qX c #D5D5D5",
"wX c gray84",
"eX c #D7D7D7",
"rX c #D8D8D8",
"tX c gray85",
"yX c #DADADA",
"uX c gray86",
"iX c gainsboro",
"pX c #DDDDDD",
"aX c gray87",
"sX c #DFDFDF",
"dX c gray88",
"fX c #E1E1E1",
"gX c #E2E2E2",
"hX c gray89",
"jX c #E4E4E4",
"kX c gray90",
"lX c #E6E6E6",
"zX c #E7E7E7",
"xX c gray91",
"cX c #E9E9E9",
"vX c #EAEAEA",
"bX c gray92",
"nX c #ECECEC",
"mX c gray93",
"MX c #EEEEEE",
"NX c #EFEFEF",
"BX c gray94",
"VX c #F1F1F1",
"CX c gray95",
"ZX c #F3F3F3",
"AX c #F4F4F4",
"SX c gray96",
"DX c #F6F6F6",
"FX c gray97",
"GX c #F8F8F8",
"HX c #F9F9F9",
"JX c gray98",
"KX c #FBFBFB",
"LX c gray99",
"PX c #FDFDFD",
"IX c #FEFEFE",
"UX c white",
/* pixels */
"tX7X7X8X9X9X0X9X9X8X7X7X8X9X0X,X7XwXeXrXeXeXrXrXeXeXwXqXwXwXwX<X8XrXeXwXqX0X0X9X8X8X8X7X7X7X7X-X4X9X0XwXrXrXeXwXwXwXeXwX0X9X8X*X",
"7X=X-X:X>X,X>X:X:X:X;X-X-X;X:X+X>X<X1X3X3X4X4X3X3X2X2X2X2X3X2X%X<X4X4X3X2X1X<X<X,X>X:X;X-X-X;XXX-X:X,X1X3X3X3X3X2X3X3X2X<X>X:X X",
"7X=X-X;X>X,X,X>X:X:X;X=X=X-X;XoX;X>X<X2X3X3X3X3X4X4X4X4X4X4X5X&X1X5X5X4X4X3X2X2X1X<X>X>X>X:X:XoX-X:X>X,X<X1X2X3X3X3X3X2X1X<X,X.X",
"7X-X-X-X;X>X>X>X,X>X;X=X*X-X-XXX=X;X,X1X2X3X3X4X6X6X6X6X5X5X6X-X3X5X4X4X4X3X3X3X3X2X1X<X<X,X,X@X:X:X:X>X,X<X<X1X2X3X2X2X2X2X1XoX",
"9X:X;X;X:X>X,X,X<X>X:X;X-X-X-XXX=X;X>X<X1X2X4X5X6X7X7X7X6X6X7X;X4X6X5X4X4X3X3X4X4X3X3X2X1X<X<X@X:X>X:X;X:X,X<X<X1X2X2X3X3X3X2X+X",
"wX<X>X:X:X,X<X<X1X<X>X;X-X;X;XXX-X:X>X,X1X3X4X5X5X7X8X7X7X7X8X;X4X8X6X5X5X4X3X4X4X3X2X1X<X<X,X+X:X>X:X:X:X>X,X,X<X2X3X4X3X2X3X#X",
"rX3X1X<X,X<X1X2X2X1X,X>X:X;X;XoX;X:X>X<X2X3X5X4X4X6X8X8X7X6X7X-X4X8X7X6X6X5X5X5X4X2X1X<X,X,X,X@X:X,X,X>X:X>X>X>X,X1X2X2X2X2X3X$X",
"rX5X4X3X2X1X2X3X2X2X<X,X>X:X:XOX;X,X<X2X3X4X4X3X4X5X6X6X5X5X8X:X4X8X7X6X5X5X5X6X5X3X1X>X>X,X<X@X:X,X,X>X:X:X:X:X>X,X<X1X2X2X3X$X",
"tX7X7X4X3X2X2X3X3X3X1X<X>X:X:X+X:X<X1X3X3X4X3X3X4X4X4X4X5X5X7X:X4X7X6X5X5X6X6X6X5X4X1X>X:X,X<X@X:X,X,X>X:X;X;X:X:X>X,X1X2X3X5X&X",
"uX8X7X5X3X2X2X2X2X2X1X1X,X,X,X@X>X1X1X3X3X4X3X3X3X3X3X3X4X5X6X;X3X5X4X4X5X6X6X5X5X3X1X,X>X>X<X#X>X<X,X:X;X-X;X:X:X:X,X2X4X5X6X*X",
"uX8X8X5X3X3X2X2X2X2X1X1X1X1X1X@X>X1X1X2X3X4X4X2X1X2X2X3X3X4X5X=X1X3X3X3X4X5X6X5X5X3X1X<X,X,X,X#X,X<X>X;X-X=X-X:X>X>X,X3X5X6X8X-X",
"iX9X8X6X4X2X2X2X2X3X3X3X2X3X2X#X>X<X<X1X2X3X3X1X<X1X1X2X3X4X4X&X<X1X1X1X2X4X5X5X5X4X3X2X<X,X,X#X,X,X:X;X=X=X=X;X>X,X<X3X6X8X0X:X",
"iX9X8X6X5X3X2X2X2X3X4X4X3X4X3X$X>X<X1X2X2X2X1X<X,X<X1X2X3X3X2X$X>X,X,X,X<X2X4X5X4X4X3X2X1X,X,X@X>X,X:X;X=X=X=X-X:X,X1X4X6X8X0X:X",
"iX7X6X6X5X3X2X2X3X4X5X6X6X5X4X$X>X2X3X3X3X1X,X>X>X,X1X3X3X2X<X+X;X:X:X>X,X1X2X3X4X3X2X1X1X<X,XOX;X>X:X;X=X=X=X=X;X,X1X4X6X8X8X;X",
"yX6X6X5X5X3X3X2X3X5X7X8X7X6X5X&X<X4X5X5X4X1X,X>X>X>X<X2X2X1X>XOX-X:X:X>X,X1X2X3X4X3X3X2X<X,X>XoX-X:X>X:X;X;X-X-X:X,X2X4X6X7X8X=X",
"2X*X*X*X*X&X%X%X%X*X-X;X-X-X=X.X$X=X*X*X&X$X@X@X@X+X@X#X#X@X+X[.XXOX+X+X@X#X$X%X%X%X%X$X#X@XOX'.XXOX+X@X@X+X+XOX+X#X&X*X=X-X-X X",
"9X1X2X1X<X<X<X<X1X3X3X3X3X4X4X&X>X3X2X2X2X<X,X>X:X:X:X;X:X>X>X+X*X;X:X:X>X,X,X,X<X<X<X,X>X>X:XXX&X;X:X,X,X,X>X:X:X,X<X2X3X3X3X@X",
"eX3X4X3X2X2X2X3X5X6X6X7X8X8X8X;X3X6X4X5X4X3X1X,X:X>X>X>X,X<X<X#X:X,X,X,X1X2X2X2X3X4X3X1X,X>X>X+X;X>X,X2X3X1X<X,X,X<X2X4X6X6X6X%X",
"eX3X2X1X2X1X1X3X4X4X4X6X7X7X8X-X3X5X3X3X3X2X<X>X:X>X>X>X,X,X<X@X>X<X,X<X2X3X3X3X3X4X3X<X,X>X>X+X:X,X<X2X2X1X<X,X>X,X1X3X4X6X6X%X",
"rX3X2X1X<X<X1X3X4X3X4X5X7X8X7X-X3X5X3X2X1X1X,X,X>X>X,X,X,X,X<X#X>X<X1X1X2X3X4X3X3X2X1X<X<X<X,X+X>X1X2X3X2X1X<X,X,X,X<X2X4X5X6X&X",
"rX3X2X<X>X,X<X1X2X3X3X5X6X7X8X-X3X5X4X2X<X,X,X,X,X,X,X<X<X<X1X$X,X2X2X2X3X3X3X4X3X1X<X1X2X1X1X#X,X3X4X4X3X2X1X<X,X,X<X2X3X4X5X&X",
"eX3X1X,X>X:X,X,X1X2X3X5X5X7X8X-X2X5X4X2X1X,X>X,X,X,X<X1X2X2X3X&X2X4X3X2X2X2X3X4X4X3X2X2X3X2X3X&X2X5X5X5X4X3X2X1X<X,X<X2X3X3X4X$X",
"wX<X<X,X:X;X>X,X<X2X3X4X5X6X7X-X2X5X4X3X1X,X>X,X,X,X<X2X4X4X5X-X3X5X3X2X1X2X2X3X4X4X4X4X4X4X4X=X3X7X6X6X5X5X4X3X2X1X1X2X2X2X2X@X",
"0X,X>X:X;X;X>X,X<X2X3X4X4X5X6X-X2X5X3X3X1X,X>X>X,X<X1X4X5X6X7X-X3X6X4X3X2X2X2X2X3X4X5X5X6X5X5X=X3X7X6X5X5X5X5X5X5X4X3X2X1X1X1X+X",
"0X>X:X;X;X;X:X,X1X2X2X3X4X3X4X=X2X5X4X3X1X,X>X,X<X<X1X4X6X8X8X;X3X7X5X5X4X3X2X2X3X4X5X6X7X7X7X=X3X6X5X6X6X5X6X6X6X6X4X2X1X1X1XOX",
"qX,X>X:X;X-X;X>X,X<X1X1X3X3X4X*X3X6X5X3X1X<X,X<X<X1X2X4X7X7X7X-X3X7X7X6X5X4X3X4X5X5X5X6X6X7X8X-X3X6X5X7X8X6X6X6X6X6X6X3X1X<X1X@X",
"wX1X,X:X-X-X;X:X>X,X<X<X1X2X3X*X3X6X5X3X3X2X<X<X<X1X2X4X6X6X7X-X4X8X8X7X6X5X5X5X5X5X6X6X6X7X8X-X3X6X6X7X7X6X6X6X7X6X6X4X2X1X2X#X",
"eX1X,X:X;X;X:X>X>X>X,X,X<X1X3X=X3X6X5X4X4X3X1X<X<X1X2X4X6X5X6X=X3X8X8X7X6X7X6X5X5X5X5X6X6X6X6X=X2X5X5X6X6X6X6X7X7X6X5X5X4X4X4X$X",
"wX2X<X,X>X:X:X>X,X,X>X:X>X<X3X=X3X6X5X4X3X3X1X<X<X1X2X4X5X5X5X=X3X9X9X8X7X8X7X5X4X5X5X7X7X4X4X&X1X4X4X5X5X6X6X6X6X5X5X6X7X6X5X%X",
"rX4X3X1X,X>X:X>X,X,X>X>X>X,X3X*X2X5X3X2X2X1X1X<X<X1X2X3X4X4X5X*X3X0X0X9X9X9X8X5X4X5X6X7X6X3X2X$X<X3X3X4X5X5X5X5X5X4X6X7X7X6X6X&X",
"tX5X4X2X<X,X,X,X,X,X,X,X,X<X2X&X<X2X1X<X<X<X<X<X<X<X<X2X3X4X6X=X4X0XqX0X0X0X9X7X5X5X6X5X4X2X1X$X<X2X2X4X5X5X4X4X4X3X5X6X6X6X7X*X",
"3X*X&X%X$X$X#X+X+X#X#X@X@X@X#X}.@X#X@X@X+X@X@X#X#X@X@X@X$X&X=XoX&X>X,X>X>X:X:X-X=X*X*X&X%X%X%X|.@X$X%X%X%X&X%X%X%X%X&X*X*X=X-XXX",
"0X2X1X1X<X<X,X:X:X>X,X,X,X,X>XOX-X>X:X;X:X:X:X:X>X>X>X>X,X1X3X&X,X5X6X6X5X4X3X3X2X1X<X,X,X,X<X+X-X<X<X,X<X,X<X<X<X<X<X1X2X2X3X%X",
"yX6X5X5X4X3X2X<X<X1X2X2X2X2X1X$X,X<X,X>X>X>X>X<X1X1X1X1X2X5X7X;X5X9X9X0X9X7X6X6X4X3X2X1X2X1X2X$X<X3X2X2X3X3X4X4X4X3X2X4X6X7X7X=X",
"yX5X6X6X4X4X2X1X<X1X2X2X2X2X2X$X,X<X,X>X>X>X>X,X1X2X2X2X3X5X8X;X4X8X7X7X7X6X5X4X3X2X1X1X1X<X<X$X<X3X3X3X3X4X5X5X4X3X4X6X7X7X7X*X",
"tX5X6X6X6X5X3X2X2X2X3X3X3X2X3X$X,X1X,X:X:X:X:X>X,X<X2X4X5X6X8X;X4X8X6X5X4X3X3X3X3X3X2X1X<X,X<X%X1X3X3X4X4X4X4X4X4X5X6X6X6X6X6X&X",
"wX3X4X5X6X5X4X3X3X3X4X5X3X3X3X%X,X1X<X:X;X:X:X:X>X,X2X5X6X7X7X-X4X7X5X3X2X2X2X3X3X2X1X1X1X<X1X%X1X5X5X5X5X5X4X4X5X6X7X6X5X5X5X$X",
"qX2X3X4X5X5X3X2X3X4X5X4X4X4X3X%X<X2X<X:X;X;X;X:X:X,X2X4X6X6X7X-X2X4X3X3X2X2X2X1X1X<X1X2X2X2X3X%X2X7X6X5X5X5X5X4X4X6X6X6X5X4X3X+X",
"qX1X2X2X3X3X3X2X3X4X5X5X4X4X3X%X,X2X1X,X>X:X;X;X>X<X2X4X5X6X6X*X1X4X3X4X3X2X1X<X,X,X<X1X2X3X4X*X3X7X6X6X6X6X5X4X3X4X5X4X4X2X1XOX",
"qX<X<X<X1X2X2X2X3X3X4X5X5X4X4X%X,X1X<X<X,X>X:X:X>X1X3X4X5X5X5X*X1X5X4X5X4X3X1X,X>X>X,X1X3X5X6X=X3X7X7X8X8X7X5X4X3X3X3X3X1X1X1XOX",
"0X,X,X,X<X1X2X3X3X3X4X6X6X5X5X&X,X1X<X<X<X,X>X>X,X1X3X5X5X4X4X*X1X5X5X5X4X3X<X>X:X>X,X1X3X5X6X=X3X7X7X8X8X7X5X4X3X2X2X2X<X<X<XOX",
"9X,X,X,X<X1X3X4X4X4X5X6X7X6X5X&X,X<X,X<X<X,X>X>X,X1X3X4X4X5X5X=X2X5X5X5X4X2X<X>X:X>X,X<X1X2X4X*X2X6X6X7X6X5X4X3X3X2X2X1X<X,X,XoX",
"9X>X,X,X<X2X3X4X5X6X6X7X7X6X5X&X,X<X,X,X>X>X>X>X<X2X3X3X3X4X4X*X2X5X5X4X3X2X<X>X>X>X<X<X1X1X2X%X<X4X4X5X5X4X3X3X3X2X2X1X<X>X:X.X",
"9X>X<X<X<X<X2X4X5X6X7X8X7X5X4X&X,X<X,X>X:X>X,X,X<X2X2X1X1X1X3X&X1X5X4X3X3X3X2X<X,X,X1X1X1X2X2X$X,X2X2X4X4X4X4X3X2X1X1X<X<X>X:X.X",
"0X,X<X<X<X<X1X4X6X6X7X8X6X4X3X%X<X1X,X>X>X>X,X<X<X1X<X,X,X,X1X%X1X4X4X4X3X3X3X2X1X<X<X1X1X1X1X#X>X1X1X3X4X4X3X1X<X<X,X,X,X>X:XXX",
"qX,X<X<X1X2X3X5X7X6X5X6X5X4X3X&X<X1X,X,X,X,X<X1X<X,X>X>X>X,X1X%X1X4X4X4X4X4X4X3X2X<X<X<X1X<X<X#X,X1X1X2X2X1X1X1X<X,X>X>X>X>X>XXX",
"qX1X1X1X2X3X5X7X7X6X4X4X4X4X4X&X1X2X1X<X1X1X<X1X<X>X:X:X:X>X<X$X<X3X4X5X5X5X4X4X3X1X<X1X1X<X<X#X,X1X1X<X<X<X<X<X<X,X>X:X:X:X>XOX",
",X$X$X$X%X&X*X=X-X=X&X%X&X&X*X.X$X&X&X%X$X$X$X#X@X+X+XoXOXOX+X{.@X&X&X&X*X*X%X&X&X$X#X$X%X$X$X}.OX@X@X@X@X#X@X@X@X@X+XOXOXOX@X].",
"7X<X1X<X<X1X1X2X2X1X<X<X<X<X1X$X:X2X2X2X<X<X,X>X:X>X;X-X=X-X;XoX-X1X1X2X1X1X1X2X1X<X<X<X1X1X<X@X=X:X;X;X:X>X>X:X:X:X:X:X:X>X,XoX",
"wX2X3X3X2X3X3X5X5X3X2X2X2X3X4X*X2X5X5X4X4X3X1X<X,X,X>X;X-X;X:X+X,X2X3X5X5X4X4X5X5X4X4X4X4X3X4X%X>X,X:X:X>X,X<X<X,X,X,X<X1X1X2X@X",
"wX3X3X2X1X<X1X2X2X2X2X2X2X3X3X&X1X3X2X2X3X2X1X<X,X,X>X;X-X;X:XOX:X1X2X4X5X4X3X4X4X4X5X5X5X4X3X%X>X>X;X;X:X,X,X<X,X,X,X1X3X3X3X@X",
"eX3X2X1X,X>X>X,X<X1X3X3X4X4X5X&X1X2X2X2X1X2X2X1X1X1X,X:X:X;X:X+X>X1X1X3X4X5X3X3X3X4X6X7X6X4X3X#X>X>X:X:X:X>X,X<X<X<X1X2X4X5X5X%X",
"tX4X2X<X>X:X:X:X>X<X2X3X5X5X6X*X1X4X3X1X1X1X2X3X3X2X<X,X:X:X>X@X>X<X1X2X4X4X4X3X3X4X7X8X7X4X1X@X;X>X>X>X>X,X<X1X2X2X3X3X5X5X6X*X",
"tX5X4X1X,X>X:X:X:X>X<X2X4X6X7X-X3X6X4X2X1X2X3X4X3X1X,X>X>X,X<X$X>X<X1X2X3X4X4X4X4X5X6X7X6X3X<X+X;X>X>X<X1X2X3X4X4X4X4X4X5X6X7X*X",
"tX6X4X1X,X,X:X;X;X:X,X<X3X6X8X:X4X7X5X4X3X3X4X4X4X2X<X,X>X<X2X%X,X2X2X3X3X3X4X5X5X6X6X6X4X2X<X@X:X,X<X2X5X6X6X6X6X6X5X5X5X6X7X=X",
"tX4X3X1X,X>X:X-X-X;X,X<X3X6X9X>X5X8X5X5X4X4X5X5X4X4X2X<X,X<X3X&X1X3X2X2X3X3X4X6X7X7X6X4X3X1X1X#X>X2X3X5X6X7X8X8X7X7X6X5X6X7X9X-X",
"tX4X1X<X,X:X;X-X=X;X,X<X2X5X8X:X5X8X6X6X6X6X5X5X5X4X3X1X<X1X3X&X1X2X1X2X3X3X4X5X6X6X5X3X2X1X<X@X,X3X4X5X7X7X8X9X8X7X7X6X6X8X9X-X",
"rX4X2X<X>X;X;X-X-X;X,X<X1X3X6X-X4X8X7X6X6X7X6X5X4X4X3X2X2X3X4X&X<X3X2X3X3X3X2X3X4X3X3X3X1X<X,X@X>X1X3X5X7X8X9X0X0X8X8X7X7X6X7X*X",
"eX2X1X,X:X;X-X-X=X;X>X,X<X2X4X=X3X7X6X6X6X7X6X5X4X3X2X3X3X2X2X$X,X2X2X3X2X3X2X1X1X1X2X3X2X<X,X@X>X<X1X5X7X7X9X9X9X8X8X8X7X5X5X%X",
"wX<X,X:X-X=X-X-X-X;X>X,X1X2X3X*X2X5X5X6X6X6X5X5X4X3X2X2X2X1X1X#X>X1X1X2X2X2X1X,X,X<X1X2X2X1X<X@X>X<X1X4X6X7X8X9X0X9X8X7X7X4X3X@X",
"9X:X:X;X-X=X=X-X;X;X:X>X1X2X3X&X1X4X4X5X6X5X4X4X4X3X3X1X1X<X<X@X>X<X<X1X2X1X<X,X>X,X,X1X1X1X<X@X>X<X1X3X5X6X7X9X9X9X7X6X5X3X1XOX",
"7X-X;X;X;X-X=X-X;X;X:X:X,X<X2X%X1X4X5X6X5X5X3X3X3X3X2X1X<X<X,X@X:X<X,X1X1X<X,X>X:X:X:X>X,X,X,X@X>X1X2X3X4X5X6X8X8X7X5X3X2X2X<XXX",
"7X-X;X;X:X:X;X;X;X;X:X:X>X,X1X%X1X6X6X6X5X5X4X2X2X2X2X2X1X1X<X@X>X1X1X2X1X,X>X>X>X;X;X:X:X:X>X+X:X<X2X3X4X5X6X6X6X4X3X2X1X<X,X.X",
"&X|. X.XXXXXXX.X.X.X X X.XoX+X{.+X%X%X%X%X%X%X#X@X@X@X+X+X+X+X].OX#X@X@XOXoXXX.X.X X|. X X X.X_..XoX+X#X&X&X&X%X$X$X$X@XOXoXXX/."
};
