/* XPM */
static char *result[] = {
/* columns rows colors chars-per-pixel */
"64 64 50 1 ",
"  c #545554",
". c #666666",
"X c #696967",
"o c #6C6C6C",
"O c #706E6F",
"+ c #70706E",
"@ c #6F6F72",
"# c #747474",
"$ c #797775",
"% c #777875",
"& c #797976",
"* c #767678",
"= c #767878",
"- c #7B7B7B",
"; c #807E7F",
": c #81817F",
"> c #7E7D81",
", c #807F80",
"< c #7E8083",
"1 c #848484",
"2 c #878887",
"3 c #8A8987",
"4 c #868689",
"5 c #88878B",
"6 c #87888A",
"7 c #8C8C8C",
"8 c #908F8E",
"9 c #91918E",
"0 c #8E8E91",
"q c #928F90",
"w c #959594",
"e c #999795",
"r c #979896",
"t c #999996",
"y c #969699",
"u c #989798",
"i c #97999A",
"p c #9C9C9C",
"a c #A09E9D",
"s c #9EA09E",
"d c #A1A19E",
"f c #9E9EA1",
"g c #A09FA1",
"h c #9FA1A1",
"j c #A2A2A3",
"k c #A7A8A6",
"l c #A9A8A6",
"z c #A5A6A8",
"x c #A6A9AB",
"c c #AAAAAA",
/* pixels */
"##oooO##X oXo#oO#oOo++@@@#X@oO+$#oo##@#o. #X##+oXo#+o@oooo#ooXoO",
"ppjllajlz-cjljtldkddczzczcjkjjcjckkjjjjzj,lglzzzjzkczjjjjzjsippj",
"wwpiiuuey-jeadte77jgwpiwyppjpieppdefptwut$jpppwuuuttteuiuuuwyiyw",
"qpligitii-jeaaatudpppdpigppjiuiaedjpgpiii-jgfpupiujjeiupw8wtipyy",
"iaffjiupw#pjadtapppjdppdjgpppijipjpuuijhu#stppjappkdppipuiteupjp",
"ejjhpjzuu*jjdkpjdppipkdrppuyagpafzgfupikp-hiuiptjdpdfpwpgjywppfp",
"tjzjiapfp-pigzjtppepjikpgfpypipjppgaewaap-zpfepdpdsptu9pgpuwpyie",
"duwaedlpu-ppjjduieiadgpdfgfpiagpdpttwwpat:puaptastiweywwppfpuzpu",
"gpajpppuw*ppptiiitpetptsketpduhppiwtwwwui;ptdkyiedpdatuitdfwpgpg",
"ppfdjpppu-pskpeekpuguipddtpkdiitddapywuyp$tdpdji9pwtpippjuptajjf",
"jpippiwai&dsjapipidpytpjuptpdjuwpq7ipffpp%ptppyyrpadpttguwspdyyz",
"pzapieipu&ktpjieppdspappiiddpetif0etfyfpe-tphpwptpgdplpiitjjkppz",
"pu9wwuwut-ketpiassdsagpitupzpwspphtepuwfw#tppdpyjpjipjaakptikzsi",
"twihuppii-twpjjpjpjtwtiwuwugpjuifpapkjufw%zepdppjuppijaipupsjjut",
"itgjdpfjg;aujppfypjwipppppiufzzpfittiwiet;ditpjpjsjpfgieiippsrip",
"dayyiiwpu-ziwuuuysujdtppypywyppyfttypqwqi-pwffipiispptpuatudswwu",
"&----$$-#o=-#&-##-----X*---&=#=-*&##---$##;#==#*$#$-##o=------#*",
"ljjjjgjppppdjhpspppguj-ydslkspszgakjjzpptdddappfjdzgsd-upzldzjiu",
"tptlpwpiwwppfy9tiayiqt-wrispdp0pupdiupiipt8eaaiwupdpps=udtttruu9",
"tupkaajzuptpffiidtwpjp#wiwrrpppwpjtssryftwaaaapyijluuj,7saptwtuw",
"iispijtgqpdupjypjpjppa&thisrufjetajjpjppw9kdjspzpjpppl;wtesppttu",
"hppsitu7ihfptpppdjsped-99uwpwppijkjpajgpkpppzhhptpuppj1te9t97epd",
"ypuptuffhjuwjggapppjpa&tuwuwpswtfyfpighphptdjzfyfiitpx-8sts0yypu",
"9pujdpzzxzsujpeaypppti-uzuyudhpjfqfpizpyiyptpfyfpueeil-7dtyjprpi",
"isiwezzzssdseiptpfhijz-ijpptpjjapfzgfpiipitdpuiyjdetwj-psrpaatjj",
"rwp9pjkeutrsipapiyptpz-wtpjdfppzpypfpuaghfsjjpuifspptp-ilrpptet8",
"urifajtw9wttjaptppepij,7pfutpujtzpfpiupgpjhssjpwffpspj-uspsptygu",
"yywiiipuwupsaipdja9iwf1upeptpfjpjjpjgfttppjsppuwfppkpp:9shfptuaj",
"pppppptgsppsppupppyspj$uapgaiuidialttpjpdpttwuwwyetkpd-9iffpkpgp",
"ihpp7wttwpiuuuaifjyyii#wfppiupettpjitjjuttspppyutwpgwk-euyfipppi",
"szwpppkzshpidkkdfgfjja;tzjfjkzitjzpajjzlprjuwtfpjgjjpk-rhshzjzja",
"7702623312639321215031X17314342357163262:16-:2512,7721o13-476772",
"32213211,.2::1::;;-2122,13711333212;172-2o441;4--1,4,41111><-212",
"ldpkgpifu&kupaapjfjgapzjkdddddihptpttxgjf-jjjacggafiwldjpzjjppij",
"aateupywi-kppaptiaiiipfte9ttpewetttietpjj*pueeawwpp0pdppp9tpiwtt",
"dapjiiwud;zjjppajupetpjjptpspkjdpptatwijg#duaepwifgpijsjpdtpwwkd",
"kjpkjpjhi-ipiaatpipzpazzjzpspjjpsijpgaity*gfywffuppeakjpfjaiaapp",
"dkipfpjpe-jaiudipfpglppptstdtptisrspjdatp>gffyffppuiptjtigapzttp",
"pgefsuuui-jjpjjtwegjpjppipusfppujpsppdapw-fpjgfwfjiajqpitzjyyypj",
"pwputwttu&pjjjpiuitjjitpjzpjfjpzhhytpatti#fppgppgajgpgzdgpiuttif",
"jpwyppddi,upzpfijjttijpppiggijjppjhpsttuh-s9jpzppppzpppappapsppz",
"sstwphpjp;gpywgigptipjppquppuugghiyptuuwi,degatppujpjpjiiuappjdp",
"pduwpipjp&jpw8paplaupjjafwpyffpttwiiwupy9&ldiupppdjtgjadapattddf",
"eeuwppjte#iwyweiikapfjzgzyfpwfpzpppappfgp%rsupffpiifppktittadtpi",
"attpjwijt-jpteiwpjizppptpapzgpjzjzappppjp#ipgsptupitpskiejdwppap",
"weiijjuwt@uwiuaipappzddpptfpzjptipujppapp+pipppaphueppttppjkiwpw",
"9taadawufowipjjipjiajpjjzipziisjpdipjppgp#tpjauahsepphppjpsprwp9",
"e9iat3iiw#e8w77uwuiwipuuewwewuyetutjiiwww#uwwpwwwuatuwuwthp3rtuw",
"-##,$-####-$->*-#-#=-1.==&$&>*-$#&$---#--#:-##--$$$&*#X+#-$&&**-",
"dpisjzkjhjapjfppdwpppz>pjitpzjjgazpijkpsjjpppdzjjuippf-upjjkkgda",
"uaiwijjuptptp0wwweituj>yatippiupdpwtiawppwtpuipzgaappg-yiuydkypp",
"hadpupyfpptupaiiepgjtp>0gxitajyuptjaatptjiipzdszgjztpj>yjpuiufgf",
"ppkatupfppppfjpputpttp-wjfdauiffpdpaitewwappfjpdetppfp>wdjpephpp",
"jpjddpuaipkppppfjajdsa&9gguyptffp9wetetwwaexajjpjfpyjp-wdddpuppp",
"fypptetipjpdtipfytpwwj#wgwffuppzpptppptptppjpggtjjfjjj-qddppiyph",
"fppdddtitpgjjippipp7uk-wjtypupjjpkktppafppeipyhspgfjil-wstd9itpp",
"wpedwyp8ipwhhsjpzpfjia-egpupttiipdpffwpppwu8phzsegggij#wdpuuuwyi",
"wpipgfwpapyfzphdwppppj;ippipieeujippfypuwwwuudpputttjp#7kjfpppup",
"wphipfpajpfsajapugtipj-7ipjfetpiu5gpitpppwtrrpdpuwtjpj>yitpgjiwi",
"apyyiftajpfjajpdgftjjj-3pppizappwpjgpdwtdtrttdpjtpppia-wpttaaati",
"jjpyjppaupjtpfppfgypjc-pgpfptpadtijpjajiiu9dddzpszpdpj-wteaipgti",
"pjjiupupppquipzipjzpgl-iappweitstpjjatjjissspjzjhpptqp=0pdjiippa",
"jtppiappiiwudzljwpjjpj$eijgptapetafjtuggpjsysjzjyipwtj$eajiuppjp",
"uitdpapeiwupdtpjzjajuk;iitfzdtkppdwipwzjwrrppdppyppipz-waxjijpup"
};
