/* XPM */
static char *result[] = {
/* columns rows colors chars-per-pixel */
"64 64 44 1 ",
"  c #170F0B",
". c #1D150C",
"X c #1F180E",
"o c #20170F",
"O c #21190F",
"+ c #241D11",
"@ c #281F13",
"# c #272013",
"$ c #2B2315",
"% c #2E2618",
"& c #322615",
"* c #352916",
"= c #382B17",
"- c #302718",
"; c #352B1A",
": c #3A2E1B",
"> c #3E311D",
", c #3E3321",
"< c #42341E",
"1 c #433621",
"2 c #463923",
"3 c #4B3D25",
"4 c #473D28",
"5 c #4B3E28",
"6 c #4E4027",
"7 c #4E4129",
"8 c #504127",
"9 c #53452B",
"0 c #56482E",
"q c #584A2F",
"w c #544730",
"e c #564A31",
"r c #5B4D32",
"t c #5E5135",
"y c #5F5338",
"u c #615336",
"i c #635539",
"p c #66593C",
"a c #695B3E",
"s c #6C5E41",
"d c #6F6143",
"f c #716244",
"g c #776948",
"h c #796A4B",
/* pixels */
"rtri9688<666t9993<<<&&<<<<<&<<<<<<<<<3933952339q<222=<<388qiiiur",
"au0rt98<<6<8q96<<<<<<<<<<<<<<<<<<<<<<<33230rr033<223<<=<3qrtttrt",
"ut06<38998<8q86<333<<<<2333833<<<<<<<232<3r93233<<<33=::<330q9ri",
"99099<<86<99980q33<<<33q90q833<<<<<<<<2<*293<<<3<::<<<<<<33<3qur",
"<38<383<8899689833<353132332<<<<-><:<<<<=<32<:<3====332222<:0u92",
"<<<<<<888q99qq0933q3211123<<<<<&-:::=<<<*<32<==2<<&&=:==:*@*r812",
"<<<<><688q8rr009qqt323532<<<<<<@;;&&<<<<=:33<<<<<=<:=&=::<<:5212",
"<333<<66888u999qiur933w52<23<&&&;&&&<22<==<<<====33:&&2<:<<:21<<",
"<332<<336<899qtat3qqqt521<<<:*:*&&;<<11<=:*<<==<:5<*&*2<<<<>1,:>",
"333<3363<<q9qiar930qqq<<<<&1:&*-**=:11<**:&<<<1<>5:*&=21><>>1<>1",
"6336633<<9rquap9309t9q<<<<=<<&:>;*:<<<<*:*&=133<15:*&:311<:<2>12",
"33888<<=8qqqudq9903q3q<<::===&>><;<<<11<*<&1532<39>:::321<::5115",
"8993<<<<38qrpfq893333q32<=&&:=1<;<<<<11::<&1532<1932<>33<<<:2555",
"22<369qq989qufq903393q32<<<&&=1<;<<<131<<<&<322<<533<:33222:>522",
">69qrq9888quuuuq309325321<<==**2<<<<<331<<&<321<>3333=3333<<>1::",
"7662<8<3<<<8qqqqq00325<131<<::&**&@@@@&*@&@&3<=&&==><=<2<<:13555",
",,,266<113338rr90re3,622111>::==:&&&*&&$&&;&&==<===&&&><=<29uw53",
"776,1>><33253098666777412221<<1r55512<<<;;;:&2332<<==>=<<35ur533",
"7886<<><225380380aaarw679762<=3i53<<:&*11;;:<5<<<:<:=<<<<8quw555",
"7766<><222350998rae71,1121211=<i551<*<<11::<<5<<::<<=1<==38rw995",
"888<<><<2138q99rsr2,;;:>:,>:1<:u553<<<<14112<33<<1<<<<><<<53w995",
"99<<<<<21<3899rsp9,;;;;:>,:::1<rr5223<<15222<838222<<<<2<1233599",
"96<6<<<<<339q8uay6;;;;:,,:>>>1>9r53<12<3q31138q8332<<<<3121<2350",
"qq8686<6368983rat4:;,:>,,,1221&5u03<<<<30553<8qq92<<<<<33553223q",
"99q93888893360rar1::<>>,12686>>5rq3<<<138qq8<3q833<<<2<33359q53r",
"q009999q9988q0tae321<<126099<298qq311133qqq838q333<<232599999q5q",
"q909990qq98690rr3323326369628qqqqq533300qqq33q933<<3835u95q59995",
"9033993008900008<<33990qe09eqtqqqqrr030093333883339uiauiuurrrq0q",
"q0qrqq8qqrtuuuq09839qqtpirqquuur8338883338838qqqqraaspaurqq09890",
"iuqi0039qsaiuq938333tq09339uuuqq033233qr988<qq8889rasqiu009830ta",
"rt9q99390at0998<23<<q833339qqqq988380ur033<3q88389raiu0iuutruaap",
"qq9393093i03999<<<<<9989990qrq933000838338<q888899rrqi0qiur9tttt",
"9992355539q8833<<<<<300999qrq3908383333335qt399900qqquu3tuqquttq",
"939<3112333333332<<<90ttrrq99qq33389893<33u33q9q30qqqqu33tuuuutq",
"q352<11><q9393332<2330983399rq53380qq93<3ur099qq90q90qu33uatqutq",
"935553::<<93<<3399399339qqq03q33300qrq33qiq33939qtqqqqu0<at330rq",
"99qr2:;*=<<2<<8951<1222509992q3330qrrq33ai03233qqtt03qt02a033333",
"qrqq1&-;<=<2<<031<;=:,113<303r9900rrqqq3at9339qq0qq30tq03aqq0333",
"9u99>-&&=<<<<<031:;=;:<2<<303rqqqqrrq3q3pu0qqqr00qqq0qt33ptqtut3",
"9t59,**=<<23<<831<:;==12<<<930iqrrrrq0030irqqqrrrqqqqt0<3iirrr3q",
"90951::12<<<<&8311<,,,:>:11330uqruurqww53utqqqqrqtqqq3<323uq33qt",
"03502222<<<<<<833321,,><333233990qrqwwrq3rttrqqqquu03<<<33300t00",
"99993<<<3088<<33<:<1<<<1112239rupiuurtrtq350q0900088<<30099qqu00",
"q0932233333333<<:<==,:<3114wiaaaiuupsss5utq5rrrrqqq33qrq90333pq8",
"989393333333999353:::=<15ww5555w0uyysss5pr00ritqq3tq9ttqq8880qt0",
"8009t99933qqtqq002&=<:>>4w4,2455qrsyyysyarrrruiqqqquuuuuqq980308",
"pqq3rq9323qutq0933:*<,,:11;,2259qrrseseyaq0rtqurqqtuuuuutqqq9qaa",
"83339q3330uutq0003<:,>::4,::,14wqre5esysu05rrqquttuuquuuqqqqrgga",
"33333r938ruuurqar2<=>:;>1,,;,2457ww9wyatir8qq00tqquttuuutqrqahaq",
"3<3q3t939rtutqra922>,:;,4,,,,13477769rt0u0239069tuqqqquqqtrrfaq8",
"338q3i030qtutqtr212<1>;>14,,,,1246699rr8q052896qa83qqtqqtuqquaqq",
"839q3tq98qrtrqiq1>142::;44112225560eet099e69q09t8333qqqqqr8quaq9",
"989083q9350033tq1,446>>;1,125533589655665368090u33300qq35r5qriuq",
"0099309<<<<:<3qr4174711;;:::::<<<<369wrrrrrree9y8330qqq35qiitqrq",
"008<3q3<<<<1555q74,>,>,,11242:=1790pspryrre077278000q333uapr53qr",
"93<<<3<===1w1<:34,17w7772411,;-:796e71111,,1111,<<<2223uu5333330",
"7w4;,,%%*;>1;;;,,,7w,,;%&-----*$>4111,;%;;,,,,,;,,%;,,,e3341,144",
"ew,;%;%%-;>1;;;,,,7,;%#O+@@@$#&#+->:,,--;;;,,,,;%%%,,,,451111,,4",
"7,,,%;%%;;;,,;;;;,,,%#+++@@@@##$X#;&;:-$%;;,;,%%%#,%%%%,11,,;,,5",
",,,;%%%%%%%,,;,,,;,,%++++++@@#@+++-%#;-###%%%;$#++,#%%#%@%@%;,,,",
",,;%,%#%%%#%,,%%%%%;#++++O+++++++.#+##$#+@##$$#+X+%++++%%%%%;,;;",
";;;%%%%%%$##%##+++$%#+XXo++++++++.++XO+++++#$#+X.++ Xo ###++#;,%",
"%%%%%%%#+OO+%++OO+@$@XoX.o.o+++OO.+X..XXX+###XXX++X oo +#+ooo%%%",
"#%#%##+OXXXX#+OO+XX+...oX.o+OO.XOXX  .XXXX++X X#$XX     o+++#%#+"
};
