/* XPM */
static char *result[] = {
/* columns rows colors chars-per-pixel */
"64 64 65 1 ",
"  c #110C0E",
". c #150F13",
"X c #161114",
"o c #191216",
"O c #1C141A",
"+ c #1F191E",
"@ c #21161E",
"# c #22181F",
"$ c #221521",
"% c #251A22",
"& c #2A1E26",
"* c #2C1F28",
"= c #2B2127",
"- c #2E212A",
"; c #32242E",
": c #33282F",
"> c #3D2A2F",
", c #2F2530",
"< c #342730",
"1 c #392632",
"2 c #362932",
"3 c #3A2B35",
"4 c #362E39",
"5 c #3E2E39",
"6 c #3B3037",
"7 c #3E313A",
"8 c #432D2F",
"9 c #412E33",
"0 c #482E31",
"q c #412E3A",
"w c #433134",
"e c #4C3232",
"r c #44323D",
"t c #48333F",
"y c #44383F",
"u c #523636",
"i c #3E3643",
"p c #453640",
"a c #4A3541",
"s c #453942",
"d c #4C3A44",
"f c #463D49",
"g c #4B3F49",
"h c #513B46",
"j c #533D49",
"k c #4E4047",
"l c #4D414A",
"z c #54434C",
"x c #59434D",
"c c #52484F",
"v c #4B4652",
"b c #4F4D5B",
"n c #574451",
"m c #594551",
"M c #564B53",
"N c #5C4C55",
"B c #5B5055",
"V c #5D535A",
"C c #615057",
"Z c #61555B",
"A c #66595E",
"S c #655D63",
"D c #695E65",
"F c #6C6165",
"G c #70676A",
/* pixels */
"113511111*&&&**-=-33qq1;<g1<-rsdaattadyMS3=<<33<-*2r1;qqr31<235r",
"15qq1qqq1q72-;;;*-351qq<*52-1paadaptatpBM=-<,2<-*1paq*1ap5335353",
"qq911qq11q1<;333<-13151<&*2<rprraaaaprrB7=,22<-=15qaa1*qq51<;122",
"1111ttq91111;32;---<111<*%*pdpqqrqtaar7k:-,3<-=<35qqaq1;555pff32",
"11<qqqq11<2-<22;--<-;;;;-%6gprq5rqtadt37----==<<25qqraq-;7tdzcs;",
";-<1qqq112-=;2<-=&*-*---*<gprr5qthhhdrrMf---&-3235qqqaa-27377ry3",
"11;;<11<<*==-;--<;-=&&---5s7553rahjjhrlBF7-2=-23335qqaq*;533rtr;",
"5qr2*****&-<2-=-2321;*:;-5sr53qrthhjh5kVFp-2-*<<233qqt1&=23773:2",
"35r1*;;;;*;1131<3332,-;;-3sr3qr90wwdhqaVSs*2<=-2131qq3*;---<;-;2",
"2333-;;;<-;;253<333<;-;;-2s33rq>888waqpVDp,22--,133q3*;2<1<<<233",
";<1;;;--*-;;23q25532----=2d737>8ee8wr9tZDi*2<<-*-;33-;221<1335rs",
"-2313;=;3<;<<3p3552<-<:-*2gr3w80u06wq9aZD7&<<<<--*;;*12<---33qrs",
"-5rqq1;7ns;<<2q5322;-22-*2vr533>88ww93tCS2%**--<;-**:;2;22--137t",
";qqqq3;rldp**<1<-<<-<2<--3vp353>>6w931tNAr%=-1<----;---;3333;-;2",
";qrqr3-5lpa<***<<<--<<2,-7ls5211>33031aNAA-=-<2222377:2-227rr7rr",
";qqq53-2gpp33222222<,--=-ildq21<2233>qjNSG7=---<2335r23-33333rrr",
"*;11;;&<grr2333222<22,,-<fsap1<<11119ajxFG7%%==--<27722;32355555",
"*&&**&&<gr5133222333332-2lpppq2<1<1qaahxSD7%-,<36322213-33355555",
";-;112-1gq3333123333333-,vppq5q533taaaaxNZ6*-2336ryr;53;33323753",
";qqq11-2d51353323355773<*fpqqqparaaahqqxmN6--;2367rt1q5;2255353<",
"2q5312-2dq;3q315qqqqr531*ffqqqraaaahhq5hmM5*-<3667ry373;<223333<",
"1r5332-,dq12115qqqqqrr32&svpqqqpaaahaa1axj<*-;<6337t>3<-,<33333<",
"<q5212-,dr13131qqq315332&2gi5qrrtahapq25p5**-<<33343;;<332<2<<<-",
"<q51<2-;gr21qq155313321-&%1p5pqrqtaaqr5-3ls*;:222<::-;236y35rr52",
"-112<<&,gp<1qqq5215rq551*&-15rrrttaqaaa14iM<-<;;;--:-;266p37rr73",
"*<<<<,*<gq235q53<1rq5pp51;i,;7rrtqqpaas<26c;---=--;<::;:3727rr73",
"=--***&<dp13qq522qq7qpaq171<-3rttaqatr2-276-<--2<222232,;<2rrrr3",
"&&*&&%-lgp35rq513qqpqqpq<31;;-7paaaa2*------<;,:233323232;3rrrr3",
"*<33<-<Vgp55r7r22qpqqqqq2<<<<-:sgzg3=-22-<<<;:;;:227232263<53363",
"=1333,-ggq23qq5<2pqqpppp51*<<<-2dl3*;222<<<<;1rr-:23324235-;<23<",
"-2543:=<q7355551<ppaqqaqrq2*,23-:3==-<1<2<<13tat3-<233332<2--<:*",
"22332,--<2355551<aaqapaq55r3-<2-====---;---9ahtqa;-:,<<<2222--=&",
"332222-22;5q55331aqaqqaqq57rr;---=-;;;:;--3qaattaq--<<2<<212<*%-",
"332<22*23;2555331aqqaqapq5rtr<233-;112;2-1qqtatataq-<<2<2232;%*<",
"222<<<*-32;33q53-333qqpqr5rr2;522;;2;;;1-;1tqaatttq1*<;,,<;**=<,",
"2,<22***;<;*3553-;<;1qrqrqr3;2332--;;;--*-qqqtqqqqqaa1;,,**;<-<<",
"<,-<;--*=*&-3r5<7lps23rr53<-*-;*;=;*-;;;;-1qqaqqqqphha1*;;22221<",
"2<<,,-;---&<33317p3p51rq527saq3rtdadtshkd;3qqqaqqq5haajp-;2222<<",
"--<--<-<--&-11;-,7<632rq57llmjaajjjjhzxMj;1qaqaaq01hhahh7;;--:,,",
"ddgMs<---=&*;;31-3<312qr57vpaaqqtaattjxmj;1qaqqatqqhaahatsgy-121",
"gjskV3&==*&*25q3<-,<<3rr57vi51qtttaa0ahjj-1aaqqqtr3gaahaqthj15r1",
"3rafM7--;-%<13553<33335q52f535qattajaaahj-1aqpqatr3gaaha9aha2rp3",
";;7dM6;;22*-<1332,<<333511gp5qpatthhjhaxh-1qaqqpq95gaahhqqhh3rda",
"r13ab5;2<<*=;;11<------1<<fq5ppqaahhhhqxh*1qaq33533daahjtqaa3ajh",
"a33sM3;22<=*&-;;--22;-&&&,fiqaqtthhahaqjd*1qqq11113daaajhtra5tjd",
"a52sM2*;<--<3233<12232;-&-grqqtqtahhhaamg*;1q;;;<;2spaahhdtt5ajd",
"t33lc2=-=*<33333;2332;;;=4prqqraaahhhaamn,*;-*;<:-<paaadaahs3ajd",
"r:-36-372=;<;;22-;2;22;-,ipq5qqaaahhh0qjV2&;11<<<<-rraaaaajd3sjh",
"q;2kp-26p<--<;--=-;**&&%;vsr53qaahhhq3rlV2=23321<<;rrpaaahhd3ajh",
"q33fV2<363-==-;233;;-%*;2bs515araahhq13gB;&22221<<<pqraaahja5ajj",
"p<66l6;232,---<23::;;&;;2bf31apaaaaaa91rc-&-;-;;--<pqqaaahjr1qhh",
"j5<5r:;33<<--;;<;;;;*;:;,vf55aqqaaaadq2rk=-353*-;-<spqrahjp<;3qh",
"jjq3r::22<;-=---**=;%;;;,vfr5qaaaaahaq35s=;33q123;;straah5-*--2r",
"rjxjxd----==;;2<;;*;;&*&,vsr5qqaaaaha723s;;9qq122;;prrad5--,;--2",
"1rhhha132&-<<2:;;=*;;;-*-vs55qqraaaaa523y=*33q3;2-;prrp5---<<<--",
"&-5atq3rl<=---;--*&;;;**=ip5255qqqtar319y&=1q9;;;--777q1*-<--,-<",
"-&;37223pi#=----=&#;;;*&=pt3;13;;;;13<;1r==:33;;==:7345;&----**-",
"&&&;3<;24l%%&&&=*%#*&&&#+772;;*;--;--*-17=#-2:&==#4i323=%*==*&&=",
"%&&-;2;-=,O#&&%&&#@$###@+63;;;;;;;;;,-*<6%+=;;##+O=:22-&%&&&%&%%",
"%%&---*$=2#+%%%##@@%#%@@+4<;-;*;;*---**-2#O%&%#@OOo+,:&$%%%%%+++",
"#%**=&%O=26#+##+@o$*&%%Oo%==***&%&&&*&%=:oo+$$%%#+ooO+O#$%$+$+$+",
"#%%%%OOO#+-OoOOoOX#$%#OO..oO%%%&%%%&%%O=,oXooO+OOOoO.OOO$$+++OO+",
"##OoXXXo+#%ooOoOX.OOoOOo..oXO%%%%$$%+#+&=oXXo#oOOoooOoOOOOOooOO$",
"@o oooX.Xo....oo..OOOOXX O+o.O@$$++$$#O%=X XOooooX...oooooXooooO"
};
