/* XPM */
static char *result[] = {
/* columns rows colors chars-per-pixel */
"64 64 79 1 ",
"  c #171417",
". c #18161A",
"X c #19191E",
"o c #1C1D24",
"O c #1D1F29",
"+ c #1E2027",
"@ c #1E212B",
"# c #1F2330",
"$ c #21232D",
"% c #232633",
"& c #252936",
"* c #282A37",
"= c #262A39",
"- c #2A2E3D",
"; c #2C303E",
": c #31333F",
"> c #2B2F41",
", c #2D3242",
"< c #2F3348",
"1 c #2F394A",
"2 c #313546",
"3 c #333847",
"4 c #383946",
"5 c #323748",
"6 c #353A4B",
"7 c #383D4E",
"8 c #363B51",
"9 c #3A3E51",
"0 c #3A3E5A",
"q c #3A404F",
"w c #364254",
"e c #3D4254",
"r c #354659",
"t c #3E445A",
"y c #36495C",
"u c #3C495D",
"i c #3E4460",
"p c #3D4D61",
"a c #3C5265",
"s c #3D5569",
"d c #3E5A6D",
"f c #3F5E72",
"g c #404556",
"h c #414857",
"j c #414659",
"k c #44495D",
"l c #484C5E",
"z c #414661",
"x c #454C62",
"c c #494E62",
"v c #464E6B",
"b c #484C68",
"n c #435166",
"m c #4C5165",
"M c #44556B",
"N c #4C556A",
"B c #44596E",
"V c #4C586F",
"C c #515467",
"Z c #51566B",
"A c #53596E",
"S c #485770",
"D c #455B72",
"F c #4C5B73",
"G c #4E5F78",
"H c #535C72",
"J c #595E75",
"K c #446276",
"L c #4A6077",
"P c #476579",
"I c #4D627A",
"U c #51627B",
"Y c #58637E",
"T c #546780",
"R c #546A82",
"E c #5B738C",
"W c #627B94",
"Q c #66819B",
"! c #6C829E",
/* pixels */
"2,,527ecFRFDKKQ!EImkkkkle29622237766662lmj9geeeggk08mAVFNlN76e75",
";=6eeexVTUsKKTWWRDckjttj69j667etjjkct7,ek999g9eggg66kbVVctmn633,",
"%%579gcVFvrMMDETMlggeeee26kejVNFVnNnje253222576756,5glNctteke5,-",
"5,-27jetx88ewtMMte62,,33,7jtnUIHNVBjte6tg62=->--=;2779jkxnktw655",
"ct9jFbketxce89jj66525,,5325gNHYINnnkj76kCck7,656,5wkkkbDLBDMbckc",
"MkkHYZmlkcNmj76,6ttgkcckjt99cVVNcjkkke6gcccg276756kkkkxNDNMDDHVn",
"FMmHNmbmkjgjt922mlkknmmckjggcCmmljggje6tjxxw276766kkkkzbckkxMDUF",
"LIANZNlkjj76ee62mlkgkkkckhgebclkgttjg73klj7,,67769kkgjjgjttuxaDD",
"DHZAAHmgee725795kljkljkkkltqllltkjjte63lkw;;,6675tkgjjj99eettadd",
"IHmmCNcke7626676gkjlmmlklje5gkncckgte55kte,67662,cktkje9797ejMfB",
"HAmmmmlje6666665eeejlccclte5jlccnle733wke7,6ge762cckge979e99tusn",
"ZAcccljt96656636eeejkkcmmt56tklclkt7eteke726geee5kCk99766e77wtje",
"cZljjjeje666,265jtegkcklt6,6ljlmltqelkeljt66eegg5jZje9766676qee6",
"7kjjjjgeg732>566je6eklcjq3,6kghkktwuuutkpuwekthq5jAj77e736777q62",
"5keeggeeq76,2662eejtjkltq6,6ettkkwyKsaxusdwuMnhq5eZg9eg763666662",
"3jee7eee7257e665htjklkjgtq,2eeeewwuMMNMuafrunutwwkxgeck9e766633;",
"6kjgeee99679g675jjlxlklkjg2-6te6eanMsnnnaarruyyaspteejkjge23532-",
"6jje7777969799629kcCblkkgg63egeeupanxunaryuyyrdKdewetjjh765252,-",
"2ejg7765659999759jxbmkgege6eqge7wwhttunVVnsaaydPp677egtt76675,,-",
"2eee6662825g99929xlmmgee9729eee63qqwtuxmnnBBsrwaw6766ee67666,,,-",
"2g9762,-2>2979926ggkje765,,57e952;6e77qjjkMMaw13,5556jeee752,;,=",
">552,===-=>2275-5kkkgg7662,,7g973;66qketlkknuw6,=,336te622,,;;-&",
"225367752222>,>=9Zlkxg99976-5ge76,266mhwkkjjkt5,=5956wq62225,-&=",
"jjg9gZZxggg999,-eAbxkjgg993,69e72,332lmqtjtjtt63-etttlllkgjjw6,6",
"kkeelkCckzlkjg6-kJNxt9g7762-69992,65>9Aketejjj66;etkkcnxkkgeq726",
"xlkkzcccclkjk97>xJZckt0722,-276532972,lAmjhlkjwe,7ttknnkcjgge922",
"gkxcmmCmcckg9662lJCkgk922,>=25>5egg9e53jjjlcjeupwtjxppMbcktwe7,2",
"geglCClkjjgg7672jCbxjt622---,5>29jkke6658kckewuuBDVDBDDMxxlt97,6",
"kzjjcmljgjg094539kbmle5,>,2>>-=-,,5e76,;,6e655vDBIUGIILMpccje6-6",
"lccjjlklgg9794526jcmk6,6tgg962,,,,,7jje775;369MUFDFMVBDBpxck92-9",
"jlclljkjg074966>29kxj2gbij9752226,-ellmmlj66ktDRGSMMnxnatcjt6,,g",
"mmCcljjjgg97679>-5eje-kzzbbz656532-ekkcNmcq7ttHFSVccmjjkkte62,5k",
"lCCmkkjkkj99455==2799-7xbzzj865562=9kgkNZmj6eqNVmbclkjkkktq6,,5k",
"CCCmzkjkjj96622==,22-=9xbzj9222632&7gjkcNNl6e7cmckkkckkjjjte5;5c",
"ClCClkkgjg9422>==-->--7bbzze652262%6ejccNmjet6tjjgtjkkjjtkth6-3j",
"llmmllggje922,:=>5556,9xzbz996253-%5ekbcnce6e27eeqttjkljjjkhe;5t",
"ghlmlje997642,>=2e766>ezzzze05225=&5tnmkkk66729eqeeeejjjjjjj6,,e",
"4eggg9972242,>-&29e76>90eg066<>,>=%,tlutt9565,9bj6799eljgegg6--,",
"=-:-->222>>>-=%%-2,-=%%=---->&%-=%&,6we562,,,->65,,,,,5,-,,---==",
"442-,7gzj992-=-=---&>22257662>=6569txbclkj26966565,,,,,226667we6",
"e9629bhcbCcg,->,,5,,9tjkkxkg92-9ittbCbcxlk57e979jgt6,qttjkjthjjj",
"e962gbgkxxkg2=>>56>6jetkxxbkg6>0bbzkzcbkjg22996eee62;qjlckkjthtj",
"992,gklkkkg92=-226256t9gkbbbz5>0bzztjzkkg97>597779673eknckkkjeee",
"ee62ejkjeee72=>6>>672<290jg89>=8ztzizxzke77257679eee,ejkckjtheeq",
"9e7279gge999,=,5,,99962562>>-><8zzizbzzk975>25667e77,wettkjhtjee",
"ge6277egg997>%,79659kjk9g9>2-508zbzzzzzg777>,2276767;6eejlkthhee",
"gq7299ggg995>%>6e65ggkkg992,>2900zzbbxkg797>-3256666,3eetlkhhhee",
"qg7590gggw65,%-5955g9gt0972>2>90z0zvbkkg995->52,66663qhtttkhehhh",
"7q43gggg9972-%269,5teet997>>>=6itivzbzjjee5-556632256ujttthhtheq",
"qg62kg999795-=2252>9jeg992>2-=>00ivikkkje65;655633552eteeuukheqq",
"67629522>->=%=222,-,jxjg9,>-===-><80tjkk65,=5,-,;23632563qqwe66q",
"-;,=-==2,-=%#%,>-===,ee76>--<65,<>,580w,,,,,55;===;56563222;,;;=",
"2,:266779753-%>->--->--===>29g088<<>,,,356qqgmcxxtq5wq77qqq632;;",
"77777ekxckg92%5247699e62>,65tzz08885,-8jtteewjVVNnt6ekhhhwqqw3;3",
"ge7779gjkjg92=569e9gkkge62550zt00008,,tclmlteqlnkhe33ejhqqqqq6;5",
"hq7777777776>%-2590ggg972>229k088885;;ttlljeqwkktq6;-3eqqeeq63,6",
"hq4qqqq32333;&;->2477642>*<><88<<64<>>0jlheq36ttw61;223qqeqq63;6",
"hqqq:3::2,;3;&;-*:<44<2<****<<44<<4>*%<guqw3225631,;222w7qqq33;3",
"hgq4;::;*;;3-&-,--->--*-*%**<<<:,>>-*%-9qqq;;,,,,,,=1w,w6663;2*;",
":*::*&***=;,-#&,>-**%%%%%$$*>>:::--**$O21;=;=;;;2;;&-1w,;;;&&*&%",
"$$+$$$$&&==-==&;*****%%%O%#%:*:*****$OO*-&#%&&&&*;-&,w1-%@+@%&%%",
"$oX.+$$$&*=-==&-***%%$$%OOO%**$%**$$OOo*&###%%%%%*&&,11##+$%%%%%",
"oX  X++##%##@@&=*%%$OOOOOOOO%$$$$$OOoo.$@+++++++++##=,-&#@@@%$@$",
".X. X++@@@+X++#&%OOOoXOO..oOOOoOOooXX..O+XXXXXXXooo+@&%%@@++ooXX"
};
