/* XPM */
static char * cacodemon_projectile_death_xpm[] = {
"159 48 92 2",
"  	c None",
". 	c #670000",
"+ 	c #5B0000",
"@ 	c #470000",
"# 	c #430000",
"$ 	c #9F3700",
"% 	c #9B0000",
"& 	c #872300",
"* 	c #730000",
"= 	c #4F0000",
"- 	c #731313",
"; 	c #7F0000",
"> 	c #8B0000",
", 	c #B30000",
"' 	c #BF5B5B",
") 	c #A70000",
"! 	c #732B00",
"~ 	c #7F1B1B",
"{ 	c #CB5707",
"] 	c #B37347",
"^ 	c #5B0707",
"/ 	c #B74700",
"( 	c #9B3333",
"_ 	c #972F2F",
": 	c #932F00",
"< 	c #771717",
"[ 	c #D75F0B",
"} 	c #C76363",
"| 	c #CF8353",
"1 	c #AF4747",
"2 	c #B34F4F",
"3 	c #8B2323",
"4 	c #C39B2F",
"5 	c #CB6B6B",
"6 	c #C34F00",
"7 	c #BF0000",
"8 	c #DF670F",
"9 	c #FF8F3B",
"0 	c #F37317",
"a 	c #BB5757",
"b 	c #D7BB43",
"c 	c #DB7B7B",
"d 	c #5F0707",
"e 	c #AF4300",
"f 	c #FF1F1F",
"g 	c #FF7F1B",
"h 	c #D78B5B",
"i 	c #CB0000",
"j 	c #D70000",
"k 	c #CB7F4F",
"l 	c #FF5F5F",
"m 	c #DF9363",
"n 	c #FF3F3F",
"o 	c #A73F00",
"p 	c #EBDB57",
"q 	c #FFA35B",
"r 	c #EB6F0F",
"s 	c #6B0F0F",
"t 	c #E30000",
"u 	c #A33B3B",
"v 	c #FF7B7B",
"w 	c #8F2B2B",
"x 	c #F7AB7B",
"y 	c #D37373",
"z 	c #E78F8F",
"A 	c #E79B6B",
"B 	c #831F1F",
"C 	c #FF9B9B",
"D 	c #FFB37B",
"E 	c #DF8787",
"F 	c #AB6F43",
"G 	c #FFCFB3",
"H 	c #A36B3F",
"I 	c #BF7B4B",
"J 	c #FFBB93",
"K 	c #EF0000",
"L 	c #EFA373",
"M 	c #EB9797",
"N 	c #A73F3F",
"O 	c #BFA78F",
"P 	c #3F2B1B",
"Q 	c #874307",
"R 	c #530707",
"S 	c #9B5B13",
"T 	c #9B633B",
"U 	c #170F07",
"V 	c #670B0B",
"W 	c #533F1F",
"X 	c #6B4727",
"Y 	c #5F4323",
"Z 	c #473323",
"` 	c #4B371B",
"                  .                               .                                                                                                                                                                                                             + @ #             #                                           ",
"                    .                           . .                                                                                                                                                                                       #                       # #   # # #                     #   #                       ",
"                    . .                         $ .                                                                                                                                                                                                               # # #   # # # #               #                             ",
"                      . .                       $ .                                                                                                 . . # #                                                                                 #     #   # #       # #         # #   # # # # #     #   #                         ",
"              %       . & &                   . $ *                                                                                     # #     # .   # = . . + * #                                                                     #   # @   +     # @             #   * +       # # # =           # #                   ",
"                %       . & &                 $ $ - ;                                                                                       # . #   . ; ; > % ; + . #                                                               # #   + +         + * ;       *     # # # # =   + # # # # #             # #             # ",
"                % %     . $ $ .             , $ ' % > *   + + > > )                                                                   # # # # #       # # * > > > = # # # # #     + .                                       #   # # >     + ;     > * +   * @ @ #     #     # # # + #     # # # # # #         # # #           ",
"                  % %     ! $ $ $       ~ & > { ] , > * + > % > ) , ^                         . .                               # # @ # + . . + @ + + . * + = = . ; . .       #     # +                                 #       # >         + ; * ; ; ; ; ; ; ; .       @   @         # #         # # #     #   #             ",
"                  % % > ; ; $ / ( _ : > . < ) [ } , > % ) % % > > % > ^                     . .                                 * * . * % % ) * ; % . ; > ; + # = > > > . # # # # #   . #                                 #     #             +   ; > %   >                     @                     #       #               ",
"                    % % > % ; & | 1 2 3 3 % / 4 5 6 , % ) 7 % & * & > .                 . ~ .                             # # # + . % % ) , ; * * ; # # * + # + # # # + ; = # # # #   # # #                             # #   # >             #     > %     %                     #     @     # # # # #         @ #           ",
"                    % % % ) ) ) 8 9 4 0 { _ a b c a 7 7 ) 7 7 & & * . = . d > % > )   . e ~                             = > + + * + . ) ; % % % ) ) > * ; + + + + + = # = = = = # # #   # . + = #                             >                 * + ;       %   %                           ;       #   #   *     #     #     ",
"                    . % , % ) f 7 0 b | g ] a b h 8 7 ) 7 7 ~ & > > = = + ; ) 7 ) > & e ~                               .   = . =   . . + % ) 7 i 7 % % % % ) ) % ; ; ; + = ; . # + + # # . @ . #                       #         +           * *         % %                                             # *           #     ",
"                    = . ) 7 7 3 ) j 0 k k l h m b } n 3 { [ / % 3 > . ! % 7 , % o $ { { 3                             # # # . . # @ # @ * * % 7 i j i i 7 i , ) ; ; % , , > > > + @ # @ = = # #   # #                           @ #           ;                                             @   @         # # ;       #   #   ",
"                      = . / j i 3 f j 0 n h m p q n l n ( 6 / ) 3 > & 7 j 7 ) o [ r k 2 >                           #   # . . + @ @ . > > > ) ) , i i 7 7 , ) ; * + + = . * . > * # = = # + % > = # # # #                   # # # # #                 + +                                             + *   # # + # #         ",
"                * s % > = / 7 f t u f u f 1 l v v 0 2 2 3 $ - > > % ~ t 7 6 / 8 r k k % & !                             = = # + * + . % > ) % * ; % % ; ; * . = . ) ; * @ # . * ; = # * = # > % % . # # #                     # + @ @ *           *                                                     + # # # # #       #   ",
"              * s % > , > % e / i f u , 3 ( ' { f , , ) s & < s ~ 3 3 t r / | 9 h k / & : !                             = #   = % + . * ; % ; . . % ; ; > > . @ # # = + + = = ; * = # ; . # * % ) * # # #               #       @ @     *                                                   #   * +       # + @ = # #   # #   ",
"            . * . > % % 7 % % [ / 7 1 2 ) 3 _ f f 3 f 3 ( / ~ - ~ 3 f [ [ | l m l / & w ! :                         =   =   = + > * . + * ; . @ * % ; % % * @ ; ; * + = > > * * . . # . . # = ; % * = # # #           #               > *     @ *     +                                                 # # # #     #     #   ",
"            . * % + ; > ) 7 % 7 e 7 2 5 } 3 n n n ( f 1 2 [ 6 , 3 3 ) [ | v x l y & : / &                     = =     = = = + * ; . @ + * . + @ * % % ) ; @ = + + + + # = > > > # = # + + # # . ; . = # #             # #           > >         *                                                 # #           #   # #   #   ",
"            . * % > + > & ) 7 i 7 i 2 2 z A 8 u t i ~ B / 1 u , ~ ~ > ) C D E 5 F _ / & .                     = ;   > = @ * > > > . . + ; . . * * * ; . ; > ; % % . # # # # # ; + # # @ # # # = ; * .     #         #   # #   *           * +   *                                                           *   # @ # # # #   ",
"              . * ; > . * o / 6 / ) n } E A A 2 ) ( 3 3 B B ( u ( ) ~ 3 G C A y H F o *                           + # * . * > , % ; + * ; . * > . * = # @ @ * > ; # #   # # # # + # @ # #   = = + > ; #             #   # #   ;     >   * + @                                                     # # #         #     # # #   ",
"              s + s ; > > & e / / 7 8 0 8 E E y 2 2 ) j B < 1 y 5 f _ I J q A } a 3 ) -                         = =   > ; ; > , % ; . ; ; * ; % @ + # # # # @ = # #   #       # # = @ # # #     = ; > + #   #       #   # #   * +     >   + =                                                         @       + # +     #     ",
"            . ; ; + > > > > & f / i 3 2 { y h } n u t j j > s 2 n } _ l q 4 } a 3 ) B                               = . % * > 7 ; . + ; % ; ; ; * @ = #     #           #       + . . # #     = = . ; . #   #           # #         > >   * + + ;                                                 #   @ + =         #     # # ",
"            % > * = . * > > > i f j i 2 2 I 2 n 2 f i ) ~ > - t j K 3 4 9 L ' 1 K : + *                           = = ; ; . > 7 ; . + > % ; % % ; . =       # #         #       + ; * + +     # = = + ; #   #       #   #     #     * * * + @                                                   *   #   . ; #     # # #     # ",
"            ; ) - * + > % > ) f ( _ i u n n n 2 2 f t 7 7 f _ 7 , i 3 9 E M u f 7 > ; * +                   =   = # # . * . * , ; ; + * ) % ) ) > * #     # . * #       # #     . ; * . * + = = * . # ; + # #         # #     #     + * . # @ * *                                               * * @ # . * +     #     # # # ",
"            ; ; > > + & : s B f N f t , f n n } n n n t i } 1 ~ 7 ~ t v O 5 u ) , ) > > +                         . =   # # = . * = = ; ; ) 7 7 ) ; * # # # * > ; # #         + ; ; + > * * ) > % * # # #   #             # # #     # ; .   #   *                                                   @ + * * *     #     #   # ",
"              3 ~ - P < 3 ~ Q N 1 f 3 7 K f n } n 3 n f u 5 3 3 _ B ~ v x A 8 7 , ) % ; +                       = ; =       # = * . = * > > ) , ) % ; # # # # # = #         # . ; * * ; + > , % > . # # #             #     #         = + @   #                                                 ; + + *   > >         # # # # ",
"              . ~ & R : r S 3 N f g n i j i 2 1 u f f 1 5 3 ~ o 3 < $ k m 9 [ 6 , % * +                           = . = ; # @ + . +   = * % % > ; ; > =     # #           # + ; ; . . . % ) % % * * + = # #             #     + # +       @                                                         = +   >   # + *   # # # # ",
"              ) > . # > 3 3 _ f r q n f t [ 1 3 1 n t f 1 3 ~ 3 s - > i 8 k 8 / o & ; +                             # = . # . * * + #   = ; ; * + + % * =     # # #       # # * * + # * ) ) * > # . * # # # #           # #     #         # # #                                                     @ + *   > # # ;   # #   # ",
"              ; ) . # ; - 3 3 6 n m } 2 n f 6 u u [ ~ ( 3 3 3 3 o 3 - > i { T , : & . +                         = = # # = # * ; + + #   U # = = # # ; ; .       # #         + * = = + > ) > + % @ = > # #   #             # # @     *                                                           *   + *     * +   * @ # # # # ",
"              * * + # = & 3 ( ' v h 2 1 n n f [ } u 3 2 7 B ( _ f } _ s ) 7 / e ! : R s R                         # # # #   . > + +         #       # = = . + # + #     # # @ @ * % ) i ) * = ; . = > = #   # #           # #   #           # #                                                 *       # > > ; @ @ #   # #   ",
"              * # + @ @ V ( a q z f ( 1 n 3 _ 2 c } u u , j ( N y E } - - % ) $ & + ! & = s                   #     #   # # * % . #   #       # #   . #   = * = * . = # # . * > 7 j i ) 7 ; * % % + + @ #   # #       #     #     # # # #                                                 +     * @     * > ; ;   # #   # #   ",
"                . + @ # W [ q 9 1 t f n 3 i 2 | l } u u l n j 2 5 y l K % ) % ; & . = V ; .                   #     # # # # + ; ; =   # + @ # = =   * * #       ; > ; = . ) 7 , j i j * % * ; ) ) . #     @ # #       #         = @ + #       + *   #                                                 @ *     @ @ #   # #     ",
"                * & # = _ l 9 1 / 3 t % % ) 8 0 9 v l n v q n 3 / l 5 n / ) ) % > + # # = +                     #   # # = + + > ; . #   @ + + + . + . . =       + . . ; > % > > > 7 ) * . + > ) % = #     = . #       #         # # # # +                                                     *   @ + *   * @ @ + #   #       ",
"                * = = : n 9 7 3 e i , & . ) 8 r 0 2 5 1 1 9 l n f N 1 k f o % % % > * R R                     # . . # # * > > > * + =   @ @ + . > > > + @     = . + . . @ + * ; * * ; + . ; % > * # #   # ; +                 #   #     * +                                             + +       +       * # # # # # #       ",
"                  = o { { [ 3 % 7 / : + * % 8 4 { 3 1 n n 3 9 ' n $ N 3 3 t & % > % . d                         + = # = > * > > ; * + + + = @ . > % > . = #   + ; * > . = = = @ @ + @ . ; ; ; % . #     = ; .             #         # #         @   @                                             ;     + >   # @ # # #       ",
"                . > { 3 / : % 7 o 6 + # . > 8 4 { [ 3 3 3 _ f } n N ~ 3 $ 3 7 & = * # R ^                         # > > . ; * + + + +   = # # # # = # # = . . ; > > > ; . + = # = = @ = . * > . # #   @                                                                             % %   @     * *   ;       +   # +   #     ",
"                > 3 / : : + , , 6 % # # # V { 8 { i i ) / $ [ 3 1 1 i o X & , % = = + = d                           ; . = ; + = = + = + # #   # # # # # # = . . ; ; > . + + + # = # = * % , . =   #   #                       #     *   #   #       ;                           % + %       ; + * #         #     > =         ",
"                . ) : : . . > e . # # = # = 7 { 7 7 7 ~ / ( ~ 6 / < / j : ! & > ; # #                               + # * % ; = #   #       # # = # # # # + . * . . + . . * + + = # = % % * = #   =   # #                                 # # # #       @     #                     %     % >   # #     #       > # * # #     ",
"              & . & : % % % : * = # # = # = 7 i , , > - ~ & * > , 3 ! 6 3 o & # . # .                                   % % * #   # #     #   # ; > @ # # = = . * * . * > ; * * # = + + #         * ; @ # #                               #                     @                 * ; > ; % > ; @ + #         # # +   # #     ",
"              . & : & & & . * = # # i # = + ) i ) ) * . Y ! . + & ) ~ ~ e e e & # . *                                 . ; . # # # # # #   # # # # # # + = = + . > % > > ) % > . = + = # # # # @ + * ; #                         #         # # #         #           @   Z       . ; ; ; ; ; ; ; * ; +       # > #   #   #     ",
"            . & & & . . . = # = + + , # # + % 7 % > + = P ! . = = . > > . $ / ) & ; +                                       # #   # #     # #   = = @ # # = + . > % ) , , ) > = * > + #       @ * * =                           # #         # # #   #       #   # # #     #     # @ @ *   + * >     ; +     > # # @ #         ",
"            & & & * . .       * * * * * = # > ) > ; # # P ` = # # # & > & & $ $ ) .                                         # # #   # # #   . =   + * * . + + * + + . * . = = + * + = #     # + = + # #             #               #             # #           = # # # #     *       ; * +         + + # # # #               ",
"          . & * . .                 * * * # = > s * * # R B R     # = ! > & & $ & & .                                           # # #     #     + * > * * * ; ; = # # = # + * + = #       + @ . + =                                   # #             # #         + *   #             @ # *   +   @ # # # # # #   #           ",
"        . * * * .                           # > = . . R + +           = * * + . / & .                                                 # #   #         * # # # # # # = = = =   #         ; # . ;                                                 #       # #   #   # #         # #     # # #   #     #   #                     ",
"        * *                                 . > . . + +                         $ & & .                                                     # # # # # #           #   # # #                                                                                       # # #   # # # # #                   #                       ",
"                                            . > . .                               . . &                                                                                                                                                                             # # #   + #                       #                       ",
"                                              . .                                     . .                                                                                                                                                                                   # @ +                                             ",
"                                              .                                                                                                                                                                                                                                                                               "};
