/* XPM */
static char * cacodemon_projectile_live_xpm[] = {
"32 16 28 1",
" 	c None",
".	c #9F009B",
"+	c #B30000",
"@	c #7F0000",
"#	c #670000",
"$	c #CB0000",
"%	c #FF3F3F",
"&	c #D70000",
"*	c #FF5F5F",
"=	c #FF1F1F",
"-	c #8B0000",
";	c #E30000",
">	c #F37317",
",	c #FF0000",
"'	c #FFB37B",
")	c #FFBBBB",
"!	c #BF0000",
"~	c #FF8F3B",
"{	c #430000",
"]	c #FFA35B",
"^	c #FFC79B",
"/	c #FFD7BB",
"(	c #FF7B7B",
"_	c #FFFF47",
":	c #FFFF00",
"<	c #FFFF8F",
"[	c #EF0000",
"}	c #EB6F0F",
"        .                       ",
"    .. .+.            .. ..     ",
"   .@#.$%+..        ..@@.@#.    ",
"  ..@&@%*=.-..     .+++;>&&...  ",
" .@@>&,'%*&)!!.   .++&;,~&@%%+. ",
".{@;,~~]'~)%&-{.  .!+='~~~'**+. ",
" .+;,~^//^)~++@. .@+=~'(^_'%=.. ",
".+&+'(/::/])'$.  .@=~~'/<//~&.-.",
".++&~'/::/'~$$.  .$>*~^<<<^))). ",
".@!+'~^//^~$&.@. .@$*~'/</])~&!.",
" .@;~~%'~)~,&@#. .;;*%'~^''*=+-.",
" .@@>*~%'~,>[@.   .+;=*~~**=$+@.",
"  .}@@*;$$[@@.     ..$$=,,&$$-. ",
"   .@;+;$++@.       .++[>[+...  ",
"    ..-..-..         .+@+..     ",
"      .  .             ..       "};
