/* XPM */
static char * pistol_item_xpm[] = {
"29 14 19 1",
" 	c None",
".	c #2F2F2F",
"+	c #3B3B3B",
"@	c #474747",
"#	c #5B5B5B",
"$	c #434343",
"%	c #373737",
"&	c #6B6B6B",
"*	c #636363",
"=	c #272727",
"-	c #232323",
";	c #575757",
">	c #4F4F4F",
",	c #6F6F6F",
"'	c #777777",
")	c #1B1B1B",
"!	c #131313",
"~	c #000000",
"{	c #7F7F7F",
"     ..                   ++ ",
"   +@#$+.%%+$#&*@+====-++;*& ",
"  +@;>>>>>>>>>>*,'#>>>>>++$$&",
"  +%$%=%%%)%)%)%)))!!!!!!!!!=",
" +~=,{{,#)~-----===.++%.=-~~ ",
"+)~=**#@.)~====-~~~~~~~~))   ",
"  )%$$$+%~)))))              ",
"   ++++%-~ ~ $.              ",
"  ~+%%%.~~>)%.               ",
"  ======~                    ",
" ~==--)-~                    ",
" ~=--))-~                    ",
" ~=-))-)~                    ",
"  ~~~~~~                     "};
