/* XPM */
static char *_29e48a992404a6d8be8e30a674a4558uou4JtkiDWrH1ES9[] = {
/* columns rows colors chars-per-pixel */
"64 64 194 2 ",
"   c None",
".  c #000000",
"X  c #0B0201",
"o  c #0A0A0B",
"O  c #0F0905",
"+  c #120C07",
"@  c #170F0B",
"#  c #15110D",
"$  c #1A1B1B",
"%  c #161413",
"&  c #210202",
"*  c #250808",
"=  c #3F0B0B",
"-  c #231A0D",
";  c #321918",
":  c #2B230F",
">  c #2D2510",
",  c #2A231E",
"<  c #332B13",
"1  c #3C2E16",
"2  c #362818",
"3  c #3D3117",
"4  c #2A2827",
"5  c #373737",
"6  c #3E3732",
"7  c #3E2F21",
"8  c #5D0606",
"9  c #6D1212",
"0  c #7D1919",
"q  c #402F16",
"w  c #403017",
"e  c #443319",
"r  c #4B371B",
"t  c #4D391C",
"y  c #523C1E",
"u  c #4B3D28",
"i  c #493722",
"p  c #543C22",
"a  c #593F22",
"s  c #7E3232",
"d  c #564020",
"f  c #5D4323",
"g  c #54432C",
"h  c #5D452B",
"j  c #544735",
"k  c #634524",
"l  c #6A4727",
"z  c #674927",
"x  c #6A4927",
"c  c #64492D",
"v  c #6E4A29",
"b  c #6A4728",
"n  c #754E2B",
"m  c #784F2C",
"M  c #75512C",
"N  c #7C522E",
"B  c #674C32",
"V  c #6B523A",
"C  c #7E5531",
"Z  c #7E573C",
"A  c #7D593B",
"S  c #73533B",
"D  c #3F3F40",
"F  c #444444",
"G  c #4C4C4C",
"H  c #59544E",
"J  c #5B5752",
"K  c #5D5B5A",
"L  c #565756",
"P  c #6C4849",
"I  c #714F49",
"U  c #6A5541",
"Y  c #645A4B",
"T  c #775D47",
"R  c #645C54",
"E  c #6F5E50",
"W  c #77624E",
"Q  c #6D6254",
"!  c #666564",
"~  c #6D6B6B",
"^  c #6A6865",
"/  c #726C67",
"(  c #797069",
")  c #6F6F70",
"_  c #757372",
"`  c #7A7A7A",
"'  c #787574",
"]  c #831F1F",
"[  c #8F2A2A",
"{  c #823737",
"}  c #80542F",
"|  c #845632",
" . c #885733",
".. c #865933",
"X. c #8C5C36",
"o. c #8C5E39",
"O. c #905E37",
"+. c #945F38",
"@. c #906037",
"#. c #926038",
"$. c #956239",
"%. c #9A633B",
"&. c #9E653D",
"*. c #9B643B",
"=. c #9E683E",
"-. c #A1673E",
";. c #A26A3F",
":. c #A26A3F",
">. c #8E6442",
",. c #846043",
"<. c #946540",
"1. c #9D6A41",
"2. c #946C4B",
"3. c #9D7655",
"4. c #9A6F55",
"5. c #A56C41",
"6. c #AA6E43",
"7. c #AA6E43",
"8. c #AE7144",
"9. c #AD7144",
"0. c #AC7349",
"q. c #B27246",
"w. c #B27346",
"e. c #B47549",
"r. c #B97649",
"t. c #B6784E",
"y. c #BC794C",
"u. c #BC7D52",
"i. c #A87555",
"p. c #867D74",
"a. c #80786D",
"s. c #C37C4D",
"d. c #CA7F4F",
"f. c #C47E51",
"g. c #C87F50",
"h. c #BC845A",
"j. c #B4845C",
"k. c #9D8262",
"l. c #B78864",
"z. c #B9916B",
"x. c #B9997B",
"c. c #C58153",
"v. c #CC8353",
"b. c #C68559",
"n. c #CD895C",
"m. c #CD8759",
"M. c #D18555",
"N. c #D48857",
"B. c #D58A5B",
"V. c #D98C5C",
"C. c #C98C63",
"Z. c #D69265",
"A. c #DD9364",
"S. c #D5936A",
"D. c #D9986D",
"F. c #DC9C73",
"G. c #D19973",
"H. c #E29666",
"J. c #E69B6B",
"K. c #E99D6D",
"L. c #E59F72",
"P. c #E89F70",
"I. c #DDA07A",
"U. c #EDA272",
"Y. c #EDA579",
"T. c #E5A57D",
"R. c #F0A474",
"E. c #F1A779",
"W. c #F5AA7B",
"Q. c #FAAD7D",
"!. c #F5A973",
"~. c #FEB37C",
"^. c #EFA46F",
"/. c #8A8885",
"(. c #96928E",
"). c #959594",
"_. c #A09F9D",
"`. c #A2A09E",
"'. c #ACA7A3",
"]. c #E9AB84",
"[. c #F6AE82",
"{. c #FAB48A",
"}. c #FDB586",
"|. c #EAB696",
" X c #F3B692",
".X c #FFBB93",
"XX c #F5BC99",
"oX c #EDB08A",
"OX c #FFC09C",
"+X c #F7C09F",
"@X c #FBC8A8",
"#X c #FED0B4",
"$X c #FDD7BC",
"%X c #FFD0B2",
/* pixels */
"                          r r t f f f f f f f k l l v n n n n n n n n n n n n n v l z f f f f f t r r                           ",
"                          t t t f f f f k k k z n n n N N N N N N N N N N N N M n v z k k k f f t t t                           ",
"                < < w f f a y y f f k l l N ..X.8.q.8.6.6.r.s.s.s.s.r.6.6.5.:.:.$.+. .n n z f f y y a f f w < <                 ",
"                < < e k k f d f k k z n n ..#.*.r.s.y.q.q.d.v.v.v.v.s.q.q.8.6.6.&.*.X.M M z k f d d f f f e < <                 ",
"          < < 1 y a k n n N ....X.X.*.8.8.r.y.s.v.v.y.5.5.q.r.e.5.5.:.-.-.&.&.&.#.+.X.X.X.M n n n n z d d t e e < < <           ",
"          < < 1 f k z m M ..X.O.*.*.6.y.y.d.d.d.v.v.y.:.:.8.q.8.&.*.*.*.*.*.*.*.X.X.X.X.X.} n n n n z y y t r r < < <           ",
"          < < 1 z n m | | N N N X.#.*.:.:.q.r.e.&.*.&.6.6.&.%.*.:.:.$.} } } } N N N N N N v z z f f y 3 3 1 1 < > > >           ",
"          < < 1 v n N  . .N n M X.X.#.*.*.6.q.7.X. .+.6.6.*.X.#.=.:.@.n n n n n n n n n n z f f y y e < < < < < : : :           ",
"      : : < 1 w k z v N N v z z X.X.#.*.*.*.*.*.X.X.O.%.%.#.X.X.z z n .. .n z z a a f z z a y t 3 3 < > > > > > : : : : :       ",
"      : : 1 1 e f f z n n z f z X.X.#.*.*.#.X.@.X.X.X.X.X.X.O...y r k X.X.n f f t r y f f y r r < < < : : : : : : : : : :       ",
"      : : 1 1 w y y a f f f f z X.@...v v X.*.#.M m m m m ..@.X.z k k k k z z k t r r r r y a y < > > > < < < < < 1 < : :       ",
"      : : 1 1 w r r t y y f f z X.#.M y y | &.$.n l l l z | @.X.v l k r r f l z t r e 1 1 y k a < : > < < < < < 1 q 1 : :       ",
"      : : 1 e e r r y z z v v v v v v M M n n v v l v n n m M m v l v m m N | C M m n b b n m n y y r w w 1 1 1 e e 1 : :       ",
"      : : w r r r r f n m n n n d y z #.#.z y d l l v n n v l l l l m O.O.O.X.O.@.@.X. . . . . .v v k r r w 1 w r t w : :       ",
"      : : w r t t t f n n N ..| z z z v v N C N k f z n n N C | X.X.#.5.5.*.$.$.*.*.$.X.X.X.X.X.| C n f f t e e r r w : :       ",
"      : : w r t y y k n n ..O.X.M n z y y ..5.*.f y f n n ..X.@.:.:.6.q.q.:.*.*.:.:.&.X.X.X.X.X.X.@.| l l y r r r r w : :       ",
"      : : w r t d f z | | #.&.&.$.$.X.N N $.:.=.....o.5.5.e.u.u.c.c.c.g.g.q.5.6.r.y.8.*.*.&.:.:.&.&.#.N N f t t r r w : :       ",
"      : : w r t f f n X.X.:.6.7.w.e.8.:.:.:.:.5.q.q.s.V.V.H.K.K.K.K.H.V.V.s.q.e.N.V.c.:.:.8.e.q.7.6.:.X.X.z y y t r w : :       ",
"      : : w r t z z M $.$.7.r.r.y.y.r.e.e.8.6.8.y.f.f.g.g.m.m.m.m.m.m.g.g.f.f.f.c.v.r.:.:.5.6.6.r.r.7.$.$.v d d t r w : :       ",
"      : : w r y n n  .*.*.y.M.v.d.d.d.d.d.r.q.e.N.V.v.6.6.6.6.6.6.6.6.6.6.v.V.N.r.q.6.*.*.*.*.-.g.M.y.*.*.n f f t r w : :       ",
"      : : w r y n n  .*.*.y.M.M.B.V.B.B.B.g.y.y.m.m.s.6.6.e.y.y.f.c.y.6.6.s.m.v.8.6.8.t.t.y.u.u.v.M.y.*.*.M z z t r w : :       ",
"      : : w r t n n | *.*.y.v.M.K.U.U.J.J.B.v.v.s.y.e.:.:.c.V.V.J.K.n.:.:.e.y.r.*.*.e.J.J.U.U.K.M.v.y.*.*. .n n y r w : :       ",
"      : : w r y n n ..:.:.g.B.V.E.W.W.Y.Y.A.B.B.v.c.y.6.6.c.V.V.H.H.m.5.5.q.r.r.h.l.C.K.K.E.W.E.V.B.g.:.:...n n y r w : :       ",
"      : : 3 r y n n X.w.e.B.K.U..X.X.X.X.XY.J.J.V.B.v.q.q.v.V.V.V.V.v.6.6.6.6.t.@X#XXXR.R.{..X.XU.K.B.e.w.X.n n y r 3 : :       ",
"    k 1 1 e r y M N X.&.-.y.b.n.F.I.T.[.[.Y.U.U.L.L.Z.y.y.c.m.m.m.m.g.e.e.h.C.C.XX+XoXA.A.G.G.G.b.b.y.-.-.X.N M y r e 1 1 k     ",
"q.e.*.l l y r y ..O.| l l v v n ..X.5.M.M.R.}.}.@X#X XB.B.s.q.q.w.q.y.v.v.oX#X@XK.H.m.5.5.M d f z v v l l | O...y r y l l *.e.q.",
"q.e.%.l l a r p | X.......C m M .. .$.8.8.C.F.F.|.|.].V.V.v.y.y.r.r.s.B.B.].XX|.n.c.e.X.X.n f k m M C ....X.X.| p r a l l %.e.q.",
"q.e.*.l l p i i n n *.A.A.y.6.5.#.O.m e e k n m X.o.0.A.H.H.J.H.M.v.B.J.J.m.y.0.M n k w w n X.@.5.6.y.A.A.*.n n i i p l l *.e.q.",
"7.8.$.l l a p p n n $.N.B.5.X.o.>.>.S g g h k z m M *.N.N.A.J.H.m.v.m.Z.Z.e.:.*.l k f u u A 2.2.o.X.5.N.N.$.n n p p a l l $.8.7.",
"#.#...l l M | | v l M $.$.1 X % ^ ' /.`._.Y q w t t z $.$.c.H.A.s.s.q.%.%.z y y e q j _ _ (.'.(.$ X 2 $.$.M l v | | M l l ..#.#.",
"X.X.C l l N  . .n v m ....2 o $ ! / ` (.(.R u u w 1 a ....y.V.B.v.v.w.....a 1 w i i j ^ ^ /.)./.4 % 7 ....m v n  . .N l l C X.X.",
"v v b k k M  . . . .m f f R ~ ! g p 1 % % ~ _./.% . - f f X.6.e.U.W.h.f f - . # ! _ G o o 1 g j /.).a.f f n  . . . .M k k l v v ",
"v v l f f M  . .X.O.C f f Q _ / g i 2 o o / '.(., @ > f f X.5.0.U.Q.h.f f > @ , / p.H o o 2 i g (.`.p.f f C O.X. . .M f f l v v ",
"|  .m f f M  .X.y.d.r.5.5.C c B H J H G G 3.n.C.S.S.u.....6.y.s.J.K.b.....u.S.S.b.b.4.G G H J H V B A 5.5.r.d.y.X. .M f f m  .| ",
" .X.M f f M  .O.d.M.g.r.e.| z c J K K K K i.M.N.W.Q.Z.$.$.q.s.c.J.K.m.$.$.Z.Q.W.B.M.i.K K K K J c k | e.r.g.M.d.O. .M f f M X. .",
"X.X.N f f N X.$.g.M.B.A.A.y.5.&.c h B Z A q.M.B.{..XY.v.v.v.v.M.!.~.K.v.v.Y..X{.B.M.e.A Z B h c &.5.y.A.A.B.v.g.$.X.N f f N X.X.",
"X.@.C f f C X.$.d.v.B.J.J.c.e.8.n z m X.X.r.M.B.{..XW.V.V.N.M.B.Q.~.R.V.V.W..X{.B.M.r.X.X.m z n 8.e.v.J.J.B.v.d.$.X.C k k C @.X.",
"      f f C X.$.y.s.N.J.J.K.P.K.S.S.F.T.T.P.J.K.Q.[.U.B.B.K.!.W.@X%X XB.B.U.[.Q.R.U.K.Z.Z.F.I.I.P.P.K.J.J.N.s.y.$.X.C f f       ",
"      f f C X.$.r.y.m.J.J.R.W.W.Q.Q.}..X.XW.U.U.W.W.K.B.B.^.~.}.#X$X|.B.B.K.W.W.W.W.R.R.R.{..X.XQ.W.R.J.J.m.y.r.$.O.C f f       ",
"      f f C O.#.*.*.7.f.f.f.u.c.J.U.J.A.A.u.0.0.u.c.y.7.7.j.z.z.x.x.l.7.7.y.c.u.0.0.u.B.V.J.Y.P.c.u.c.m.v.8.*.*.#.O.C f f       ",
"      f f C @.X.X.X.*.q.q.7.6.q.A.K.A.v.v.5.X.@.5.6.:.*.*.3.k.k.k.k.3.*.*.:.6.5.@.X.5.v.v.A.J.A.q.6.q.y.y.=.X.X.X.@.C f f       ",
"      f f ..=.*... . .O.O.&.5.8.A.K.n.5.5.#.X...M v M | | o.>.>.>.>.o.| | M v M ..X.#.5.5.n.K.A.8.5.=.#.#.X. ...*.=...f f       ",
"      f f X.5.=.| N N N N $.:.0.A.K.b.X.X.X. .| f y f n n |  . . . .| n n f y f |  .X.X.X.b.K.A.0.:.$.N N N N | =.5.X.f f       ",
"          X.%.$.X.X... . .*.:.9.B.A.y.M M $.5.5.5.5.=.X.X.N n n n n N X.X.=.5.5.5.5.$.M M y.A.B.9.:.*. . .X.$.$.$.%.X.          ",
"          X.X.X.X.X.X. . .*.:.6.M.V.q.l l *.e.r.B.V.f.*.*.M l l l l M *.*.f.V.B.r.e.*.l l q.V.M.6.:.*. . .*.:.:.#.X.X.          ",
"          ....X.*.*.#.| | $.:.6.v.N.q.n n &.w.y.H.K.A.y.y.q.7.7.7.7.q.y.y.A.K.H.y.w.&.n n q.N.v.6.:.$.| | :.e.8.X.....          ",
"          N N | =.5.$.N N $.:.6.v.M.q.n m &.q.y.R.Q.U.V.V.V.V.V.V.V.V.V.V.U.Q.R.y.q.&.n n q.M.v.6.:.$.N N 6.s.r...N N           ",
"               .%.*.O.N N $.&.:.s.v.q. . .q.c.c.n.B.c.5.5.5.5.5.5.5.5.5.5.c.B.n.c.c.q. . .q.v.s.:.&.$.N N =.q.8.X.              ",
"                X.X.X.N N O.*.&.r.s.q.*.*.f.V.N.q.8.*.n n n n n n n n n n *.8.q.N.V.f.*.*.q.s.r.-.*.O.N N $.:.:.                ",
"                X.X...N N X.O.$.r.s.q.*.*.e.v.y.Z S S U U T W W W W T U U S S Z y.v.e.*.*.q.s.r.+.X. .N N X.*.$.                ",
"                 . . .N N  . .X.r.s.q.*.*.6.e.5.6 4 D K K ) ` ` ` ` ) K K D 4 6 5.e.6.*.*.q.s.r...N N N }  . . .                ",
"                | | | N N |  .X.8.e.8.:.:.5.6.%.4 $ 4 5 5 F F F F F F 5 5 4 $ 4 %.6.5.:.:.8.e.8.| M N N } | | |                 ",
"                n m M N } } }  .=.:.5.6.6.-.*. .+ . . . . . . . . . . . . . . +  .*.-.6.6.5.:.=.N n M N } M n n                 ",
"                n n N } } N N } *.&.5.q.q.&.+.| + . X & & X . . . . X & & X . + | +.&.q.q.5.&.*.N n M N N M n n                 ",
"                      N } M m M X.X.:.y.y.*. .m O . & 8 8 & . . . . & 8 8 & . O m  .*.y.y.=.X.X.M m M } N                       ",
"                      N N M n M X.X.:.d.d.:.X.| , $ ; 9 9 = * * * * = 9 9 ; $ , | X.:.d.d.:.X.X.M m M N N                       ",
"                      n n n n M  . .-.v.v.q.:.1.R K P [ [ ] 0 0 0 0 ] [ [ P K R 1.:.q.v.v.-. . .M m m m n                       ",
"                      n n n n M |  .&.g.g.q.5.1.E R I { { s s s s s s { { I R E 1.5.q.g.g.&. . .M m m m n                       ",
"                          n n m N N +.e.e.8.6.5.#.o.T K K ~ ' ' ' ' ~ K K T o.#.5.6.8.e.e.+.N N m m m                           ",
"                          n n m N N X.7.7.7.6.6.%.$.,.R R / ( ( ( ( / R R ,.$.%.6.6.6.7.7.X.N N m m m                           ",
"                                n n | #.#.:.7.6.6.6.=.o.o...C C C C ..o.o.=.6.6.6.7.:.#.#.| n n                                 ",
"                                n n N X.X.&.6.6.8.q.6.1.1.<.<.<.<.<.<.1.1.6.q.8.6.6.&.X.X.N n n                                 ",
"                                      M M O.&.-.s.d.N.K.K.oX X X X XoXK.K.N.d.s.-.&.O.M M                                       ",
"                                      n n X.*.-.d.d.V.U.Y.{.OXOXOXOX{.R.U.V.d.d.-.*.X.n n                                       "
};
