/* XPM */
static char *cdbbc91c53674a0cfdf2e4b6abfe755cKOYmRN6bKnPx8UBJ[] = {
/* columns rows colors chars-per-pixel */
"64 64 169 2 ",
"   c #B48863",
".  c #B3896D",
"X  c #AF8B72",
"o  c #BB9277",
"O  c #B5937B",
"+  c #BB967C",
"@  c #BD9A7E",
"#  c #C29A7C",
"$  c #C99E7D",
"%  c #BA9A84",
"&  c #C49E81",
"*  c #C4A183",
"=  c #CBA486",
"-  c #C7A48A",
";  c #CCA68B",
":  c #CEA98C",
">  c #D1A684",
",  c #D5A882",
"<  c #D0A78B",
"1  c #D3AC8D",
"2  c #D9AE8B",
"3  c #D6B08F",
"4  c #DCB18C",
"5  c #CEAC92",
"6  c #CCAE9A",
"7  c #D3AE92",
"8  c #D8AF94",
"9  c #D1AF98",
"0  c #D6B194",
"q  c #DBB495",
"w  c #DEB895",
"e  c #D6B299",
"r  c #DCB699",
"t  c #DEB99C",
"y  c #E1B695",
"u  c #E3BA97",
"i  c #E0B799",
"p  c #E3BC9D",
"a  c #E8BE9E",
"s  c #CEB9A8",
"d  c #D9B7A0",
"f  c #DDBBA1",
"g  c #E4BEA1",
"h  c #E8BFA0",
"j  c #E7C09F",
"k  c #E9C19E",
"l  c #DEC1A7",
"z  c #E6C1A4",
"x  c #EAC3A5",
"c  c #EEC8A6",
"v  c #E5C4A9",
"b  c #EAC5A8",
"n  c #EBC6A9",
"m  c #EAC7AA",
"M  c #E8C5A9",
"N  c #ECC6A9",
"B  c #ECC7A9",
"V  c #EDC7A9",
"C  c #EEC7A8",
"Z  c #ECC7AA",
"A  c #EDC7AA",
"S  c #EFC7AB",
"D  c #EEC7AB",
"F  c #EAC7AC",
"G  c #EBC6A9",
"H  c #EBC8AB",
"J  c #EDC9A9",
"K  c #EEC8A9",
"L  c #EFC9A9",
"P  c #EDC8AA",
"I  c #EDC8AB",
"U  c #ECC9AB",
"Y  c #EEC8AB",
"T  c #EEC9AB",
"R  c #EBC8AC",
"E  c #EACAAF",
"W  c #ECC8AC",
"Q  c #EDC9AC",
"!  c #ECC9AD",
"~  c #EDC8AD",
"^  c #EEC9AC",
"/  c #EFC9AD",
"(  c #EFC8AC",
")  c #EECBAC",
"_  c #EFCAAD",
"`  c #EFCBAD",
"'  c #EECAAD",
"]  c #EDC9AE",
"[  c #EDCBAF",
"{  c #EDCAAF",
"}  c #EECAAE",
"|  c #EFCAAE",
" . c #EFCBAE",
".. c #EECBAF",
"X. c #EFCCAE",
"o. c #EEC9AC",
"O. c #F1CAA7",
"+. c #F0C7A8",
"@. c #F1C8A9",
"#. c #F0C9AB",
"$. c #F4CBA9",
"%. c #F1CCAB",
"&. c #F0C9AC",
"*. c #F0CAAD",
"=. c #F1CBAD",
"-. c #F1CAAE",
";. c #F0CBAE",
":. c #F0CBAF",
">. c #F2CBAF",
",. c #F1CCAD",
"<. c #F1CCAE",
"1. c #F1CCAF",
"2. c #F2CCAF",
"3. c #F2CDAF",
"4. c #F3CDAF",
"5. c #F1CBAD",
"6. c #E5C7B1",
"7. c #EDCAB0",
"8. c #EECBB0",
"9. c #EFCBB0",
"0. c #EBCCB2",
"q. c #ECCCB1",
"w. c #EFCDB2",
"e. c #EFCDB3",
"r. c #EECEB4",
"t. c #EECEB5",
"y. c #EECFB7",
"u. c #EECCB2",
"i. c #F1CDB0",
"p. c #F2CDB0",
"a. c #F2CEB0",
"s. c #F2CEB1",
"d. c #F2CFB1",
"f. c #F1CEB2",
"g. c #F3CFB2",
"h. c #F2CEB3",
"j. c #F3CEB3",
"k. c #F2CFB3",
"l. c #F3CFB3",
"z. c #F2CEB2",
"x. c #F1CFB9",
"c. c #EED2BB",
"v. c #EED0B8",
"b. c #EED0BA",
"n. c #F4D0B3",
"m. c #F4D0B0",
"M. c #F2D1B6",
"N. c #F3D2B6",
"B. c #F4D2B5",
"V. c #F6D3B7",
"C. c #F4D1B5",
"Z. c #F8D3B5",
"A. c #FCD6B7",
"S. c #F2D2B8",
"D. c #F2D3B9",
"F. c #F7D6B9",
"G. c #F4D5BC",
"H. c #F5D4BA",
"J. c #F8D7BE",
"K. c #F7D8BE",
"L. c #FAD8BD",
"P. c #E9CFC1",
"I. c #EFD5C2",
"U. c #EFD8C1",
"Y. c #F6DAC3",
"T. c #F9DAC3",
"R. c #FBDCC0",
"E. c #F4DBCA",
"W. c #FDE5D1",
/* pixels */
"F ' b 1.x g g z z n.; t p M ! ' z x i.i.i.x p ' ' x ' 0 g z z b 1.b Y b x z r u k Z.-.z b g b b.t t.r r g ' b g p p g Y t r 1 b ",
"B b g g p p g x b Y 0 & 5 7.b b z 1.Y n.b 0 z ' i.B Y g g 1.b Y t x z z a p a a Y b g p p z M ' p r = t.b B ' b x p z Y B z g g ",
"p g B t r p p b z z x t g M S.' z Y i.i.B.M f ' -.-.B ' -.p g b 7 p b B u a z a ' z p h x x z B x a 0 T.i.B -.-.' b r p p g z -.",
"0 v z z ' i.z t ! p g g g z 0.G.H B Y n.B.n.i.i.i.B Y 1.1.1.' ' ' a g Y j x Y ' b g b %.%.g a x t b.e.B B Y i.1.X.' t z B Y z z ",
"g r x z z ' ' p g p v 7.z ' ' S.' B x Y i.n.-.b e.i.B ' b v n.g v b z x ' %.V F.z 1 r b b z z $.5 6 g Y ' g p 7.7.t.e.b ' B z z ",
"x g t g ' g b x z i.t 0 z g b W B p p ' b b z g i.' z ' i.t i.b p x Y p B Y a z Y j %.a p b l.%.x 0 z n.i.B r b x z n.i.b x x b ",
"B a 0 0 0 - p x 1.i.z 7 p a p g p q z Y z l.i.B Y f t z n.L.7.f t ' e.b b i.x a Y b b Y b Y e.Y ' n.l.n.S.B.x B r q 0 i.-.B b Y ",
"x k 7 v 7 = 0 z b z z b p a 0 r z r 1 p B B ' -.' g b ' Y n.B.l.r p : 7 b %.i.B x r p H 1.1.' n.H.n.n.i.i.B.' B 1 r g Y n.i.x -.",
"i.%.r z q r r 1 p a x g a p p p t ' g z 1.' -.-.g.-.x i.n.n.b z z r 7 7 a u x v 7.0 g B 1.n.' e.n.n.' i.B i.b ' r 1 -.i.l.i.i.n.",
"1.1.V p g b b 0 p b b ' i.b V z p b i.b z z B b z ' Y z i.n.z p h p b g i a B x 0 0 b r Y Y l.i.i.-.g 7.' g 1 r b b 1.' B i.B.H.",
"' n.V p p g -.g g r x l.' b Y z t e.z p r 2 w B Y b b g %.x B -.a B b a p a x 1.g r e.p B B B x b b B B g r g e 0 1.i.i.1.B.F.H.",
"b b x j z x B z a p g b Y b B n.b n.i.u 0.6.p -.Y x x x x x b i.Y t q B z Y B n.Y z ' Y x i.n.i.i.B.-.x r r r p p H Y n.B.B.F.S.",
"' B x x B -.X.x x p g g x z z i.x i.' 2 p b ' B z b %.x b p k x z g z B.' ' Y B z g B b g -.B.i.i.i.' b b b p r u -.i.i.X.H.F.F.",
"' g Y a a z x p z z 0 p r t z ' g a x 7 0 z z x 1.B -.1.M b a z B r b i.B.B p p p r a z B i.B.n.B.i.' b ' ' ! z a Y i.B.B.i.z g ",
"z g 0 x a z x a p g B p g B b b x z r x v x b b x b ' B.b p a g z z ' x g F b b b 1.x B i.Y B.B.B.i.B z z G.' ' b B b 1.' ' b 7 ",
"x ! p z p 7 q p r z a p g p g t f l.B r g b ' M b Y x ' z t 0 u 1 g b x q b H z ' z ' b b ' B.F.n.i.i.Y B ' b H 1.' z x x l.G.Y.",
"0 M z b 1.x a a g z p r p p M v O z z g 7.' b z b z B x u = - 2 g v g N.z b n.' z a ' i.b z b Y ' i.z b B.i.' b -.' b i.1.p P.I.",
"r r 0 1 a a u z x x p b p g z b * 7 x b z n.S.x x p O.V b 1 @ * 0 a B b B 1.i.n.n.n.z ' F.Y a b x b ' b B B.' Y %.' ' i.Y u = p ",
"B B u r u p g z Y z g t a p : = t 0 n.z t n.n.' x a x u k x z t r Y b p g 1.i.R.F.Y n.' G.1.b ' -.' 1.-.Y ' n.Y i.-.b B b z $.a ",
"%.1.%.u u M b.x x g z 1 p x g - g Y n.' x t.H.B z r p B 4.z b ' ' x x z z Y t B x x z -.' B.1.b z H i.' a Y ' i.Y Y g g z p Y 4.",
"z ' b x t p Y z a a g x q g x ' a r r i.z e.i.B z a a b B B ' t g g x a g z p 1 j a B b B e.i.g g q i.' 0 t z 1.1.b B x B ' a k ",
"g a i.z b X.-.g g a 0 p z a p p t 9 & r g 1.' B x b B -.1.0 b b z x b x z 1 1 r b b -.r e i.-.B Y b G.n.a p p a x z b x i.B.b b ",
"b Y B a q F.' ! 7.v g 1 f b t t 0 p p r z i.b x Y t.i.Y Y t q b z x z b g b 7 p z M b M 0 g Y Y ' B ' i.z t w w p b n.p g 1.1.z ",
"x ' i.t.= 0 b g z x ' e t i.a g v p 0 z z g z z Y b -.x B ' a p x z x Y g x x g g r 0 M -.z b 1.M ' 1.i.' p 3 u a ' B.b g B ' b ",
"b x x r r 0 z g b e.! p t.S.a e t t q t x t g p b g x x x b x x b 1.B b -.x b x x g z a p b x B ' B.H.n.F.Y r z ' b z i.Y Y b x ",
"B g a p r t B x b t.b g x g g f + v z 0 b z 9 g g B x a B z x z z %.i.' M B x h z z g a p p r z e.F.J.n.t.i.g p b x b z B x p B ",
"' g p p r p e.' z 0.b ' ' z r z X : -.z ' B e b i.1.Y ' z x B g x x b i.x B z p p p x B b g b b z e.B.b z b b z g p g b t t p g ",
"a z t t r 1.' X.F p g B.l.g 7 7 p p Y b x.z v l.F ' b z g x z b B q p b z b z x a r p b x b n.F.g X.i.Y r r ' z b ' W z M ' S.S.",
"x B z z Y i.%.x B p ' B.Y 0 1 w p z g p v M - 0.g p z g ' z b Y 0 < = 0 r g z t r r b t x p g e.b z g M z p z p g b z B i.' ' n.",
"Y a a Y r 0 x x z ' Y Y b 8 r i a a 1 F g ' p z b 0 z g B.! b a a x a > b 0 r g t a x b ' g t z z p z b i.v p z p x B x ' Y Y b ",
"X.z Y B z r b b z x B.g p z x g p g 9 t g f ' ' ' z ' ' B.e f z 0 g.n.b p p z p x ' Y z i.b ' g 5 0 a p z g a b z x x x g.B B ' ",
"H.1.B.' t t i.t p g v g p b F F b g 7.G.v 7 ! X.b p b i.Y B g i.g a i.B.1.B.i.' ' g r t b b M F.f t g z g 0 z x z Y B b g b Y n.",
"i.i.B.x p z b x a z p t b b ' l.b v t l 0.v f n.i.x v ' B ' r z B.X.' b ' 1.b F.n.' f g r B l.i.' ' g b z # r z p z ' i.; z Y 1.",
"i.z B z B g x z 1.a a 7 r z Y i.p 0 g r b 7.t z 1.%.b z ' b r g ' n.g.z x Y b K.e.g Y z p ' W ' b i.b p g t p 0 p b i.' ' x -.' ",
"g g b B x b 1.a g r p 2 1 1 a t ' p g g n.1.u x x Y Y z b z v 0 p 1.i.g.x x i.! H Y b z Y Y i.B.i.B.B 7 r p n.p t ' 7.S.b Y b 0 ",
"& 7 t z Y b z %.; 9 z p b p p r p i t + q B g x r x r X.z g t z x B.i.-.x b 1.i.Y ' ' x t g p Y Y i.b : : 0 z B p t F S.l.H.Y 0 ",
"q ; f ' z g x t 7 t n.e.' q a z g a 0 t z z x -.x p : z b x 0 x %.i.B.g.b ' X.i.B.' t g ' b a z 1.-.' r p t 1 p x e.B.i.B.' b z ",
"p ; f b b z x 7 7 g n.i.1.b r r r a i ; f g.B i.x a b p Y %.a x -.i.-.B.B.B q i.n.z q : Y %.X.B b i.' b p g i.b b ' i.n.B.b t t ",
"q = 1 p i.n.n.i.p 9 i.Y 7.F.x g p q x x b ' 1.B.B Y z x -.x a x g g 1.' B.-.x 1 v p g Y x t 0 H z i.i.i.i.z -.i.-.x ' B.H.-.M t ",
"z g t r ' H.B.i.x z ! Y z e.x z z x g i.i.z i.g.Y b a a t b r z g g i.' X.n.-.0 r B g h x t g g ' X.n.' i.Y x B ' Y i.b b b ' t ",
"F ' b b b ' ' r q g ' l.H.' x 7 p B x -.-.x z z p x a 2 = a z 0 B g.7.! H.B.e.S.' x g g x z ' t.e.' B e.B Y x p g b b t r z g 1.",
"b ' ' z t 0 7 1 i 0 p Y x g b b ' -.x 1.g.-.p x z x F g p t.n.g x 1.B b H.F.n.7.B.' p i.i.n.z t g p z Y z p z B x z x B z g z t ",
"r x z 0 5 f : p a h r i p b a b B.-.-.g g n.z g B Y z b : % 1.p u x b q ' n.-.i.l.e.B z i.b q r f t a k b z a e.1.1 t x Y x %.z ",
"2 x x u 0 0 b b z p p a a r g B B.B.x e.p M z z B -.x z ' t x a u g t t 0 M i.i.' b ' Y Y z t p r t y ,   4 > M b r u u a g b 1.",
"Y Y x a p B b g z , $ z i.p a z b F.b ' B.r g a z r a a g b e.b x p a b i g i.b p p a B B t t b z h v 1 r u 0 b t 5 p i z x 1.n.",
"Y Y x B g i.B b z a # o x g p x x ' z r i.b t r e z z g b b i.H.p q 0 1 x z Y ' ' x p g g t z b x p b v K.X.Y b a k z v g x x -.",
"a z ' B Y B.' B z x x 0 z b p x x g z t ' x p g g b Y B.B.i.B.M r 0 z p r x -.i.i.' t B t g z ' Y p Y Y b 1.b u u 2 t ' ' i.z a ",
"x a -.x g Y i.B Y +.x z a x x Y p a b v b Y a p b x ' G.F.%.1.B 1 f t.= t G.' ' B z r z b a ! G.Y B ' b 1.x z a 4 = ; a Y x t 0 ",
"B u z x a g b B x B p r p B x g x i.z b Y -.g ; 1 g l.H.F.i.-.z & 5 t e t z Y b g z r ' ' v ' ' ' 7.z z z ' z b g & p a b b z z ",
"x z z x Y z B 1.z p g r a a x -.r p z z B Y B r 1 t i.F.B.7.g b 1 1 1 - t x p Y z -.p g S.v 7.B.B.r 0 g H 7.p 0 1.M z z z Y Y p ",
"B z z z b z -.g p 1 r r p r 0 b t p p B Y B x p ; e i.B.e.' b r t 1 7 e g B B.-.1.i.B p 0 1 Y i.z p g ! z p b p a t B -.b b n.Y ",
"' x g r 7 z e.g 0 r p a z g ; 7 0 i.z t e.F M F W X.n.B.b z H 7 & 7 ; = p z Y F.i.' z g 7 1 p p a b ' b x a %.%.x b ' B.b b b z ",
"n.x q z z ' B x r g p a %.4.p 7 r 0 1 p x i.r Y Y Y t z b z M g z a x x r b 4 i.' f v g z 4.p r b i.b B b z z -.b B ' S.' 0 0 t ",
"' g r z b 7.z p r r 0 p x z a g g g r x Y B z p q z 0 z 1.z p Y e.i.B.F.G.E.b x ! ! b x B x z r z x 1 g ' b p B z r z e.H.-.b ' ",
"b t Y x g b z t r z b p g b b b b v g z x p z ' g 1 r p b W M y g.D.H.i.B.n.n.B x x x -.z g x x p 1.r g ' n.u p Y t 0 b ' i.i.' ",
"i.b ' b ' t M B.b b i.p g 1.l.e.e.' v z Y Y Y b F z b x g.Y U.i.i.E.n.i.1.1.1.B -.Y b e.i.B b i.-.! b z t.! z a k p 0 g x 1.' ' ",
"i.z F Y B B B b ' 1.i.' Y i.' Y i.n.b b x Y x b z b i.L.F.b ! ' - 6.B x ' K.-.i.H.F.e.b H.i.Y Y t b V O.B ' b 1.x p z i.' ' B.g.",
"' ' ' b Y B n.g -.-.i.B.i.x e.i.B.n.b ' b W B i.i.b ' z i.z x a t b Y r B W.x ' e.n.B.i.b ' z b 0 1 z x x e.n.' b t p i.%.%.g b ",
"x a p t z B -.%.4.x ' b n.g p e.' B z z ' n.n.i.-.' b 1 u g r t b ' g f 6 0.a B e.i.S.n.B b b z x r t a x Y i.! F b b Y %.Y b b ",
"1.+.e d b x b x g b b u ; t z p z p p t ' ' i.i.i.Y -.0 1 1 Y z 7 x e v r i B i.e.B.' i.i.i.b b z t p # b b b i.' Y 1.i.b b b 1 ",
"A.9 s 0 p p p 1 a t f z r r ' z z z g 1.x a 1.Y i.g p p 1 r r ' g u z a n.g.' Y p i.e.i.B.b r 0 p 0 b g r ! ' ' x z B ' x g B z ",
"z p p B.b g x k z g x M ! l.n.D.l.-.x i.g 0 a i p t : g F -.9 z ' z z ' z a b p z p b 1.B.i.b t r z z z b ' z X.g u ' G.z 0 u x ",
"i g.n.z B p x x a z i.b ! S.n.G.Y.i.B ' ' i r z g x ' g x x g b i.i.B.e.t , 2 q i.z z n.L.n.' ' g g z -.p z z z ' B x a 4.g r -.",
"z g.p p b p g z 1.' Y b z t.S.e.i.Y x B i.p z b t M i.g 7.g r p i.' ' b a a 2 . 0 -.b x i.B.Y S.i.g g p a b B b z b g r 0 r 0.F."
};
