/* XPM */
static char * hand_xpm[] = {
"113 151 39 1",
" 	c None",
".	c #4B371B",
"+	c #774F2B",
"@	c #8F5F37",
"#	c #875733",
"$	c #9B633B",
"%	c #533F1F",
"&	c #3F2F17",
"*	c #6B4727",
"=	c #7F532F",
"-	c #332B13",
";	c #5F4323",
">	c #AB6F43",
",	c #B37347",
"'	c #CF8353",
")	c #A36B3F",
"!	c #DF9363",
"~	c #D78B5B",
"{	c #2B230F",
"]	c #BF7B4B",
"^	c #E79B6B",
"/	c #EFA373",
"(	c #F7AB7B",
"_	c #CB7F4F",
":	c #FFB383",
"<	c #FFBB93",
"[	c #FFCFB3",
"}	c #FFBF9B",
"|	c #FFC79B",
"1	c #FFD7BB",
"2	c #FFE3D3",
"3	c #FFD3BB",
"4	c #FFEBDB",
"5	c #E7E7E7",
"6	c #EFEFEF",
"7	c #FFDBC7",
"8	c #FFEBDF",
"9	c #272727",
"0	c #1F170B",
"                                                                                                                 ",
"                                                                                                                 ",
"                                                                                                                 ",
"                                                                                                                 ",
"                                                                                                                 ",
"                                                                                                                 ",
"                                                                                                                 ",
"                                                                                                                 ",
"                                                                                                                 ",
"                                                                                                                 ",
"                                                                                                                 ",
"                                                                                                                 ",
"                                                                                                                 ",
"                                                                                                                 ",
"                                                                                                                 ",
"                                                                                                                 ",
"                                                                                                                 ",
"                                                                                                                 ",
"                                                                                                                 ",
"                                                                                                                 ",
"                                                                                                                 ",
"                                                                                                                 ",
"                                                                                                                 ",
"                                                                                                                 ",
"                                                                                                                 ",
"                                                                                                                 ",
"                                                                                                                 ",
"                                                                                                                 ",
"                                                                                                                 ",
"                                                                                                                 ",
"                                                                                                                 ",
"                                                                                                                 ",
"                                                                                                                 ",
"                                                                                                                 ",
"                                                                                                                 ",
"                                                                                                                 ",
"                                                                                                                 ",
"                                                                                                                 ",
"                                                                                                                 ",
"                                                                                                                 ",
"                                                                                                                 ",
"                                                                                                                 ",
"                                                                                                                 ",
"                                                                                                                 ",
"                                                                                                                 ",
"                                                                                                                 ",
"                                                                                                                 ",
"                                                                                                                 ",
"                                                                                                                 ",
"                                                                                                                 ",
"                                                                                                                 ",
"                                                                                                                 ",
"                                                                                                                 ",
"                                                                                                                 ",
"                                                                                                                 ",
"                                                                                                                 ",
"                                                                                                                 ",
"                                                                                                                 ",
"                                                                                                                 ",
"                                                                                                                 ",
"                                                                                                                 ",
"                                                                                                                 ",
"                                                                                                                 ",
"                                                                                                                 ",
"                                                                                                                 ",
"                                                                                                                 ",
"                                                                                                                 ",
"                                                                                                                 ",
"                                                                                                                 ",
"                                                                                                                 ",
"                                                                                                                 ",
"                                                                                                                 ",
"                                                                                                                 ",
"                                                                                                                 ",
"                                                                                                                 ",
"                                                                                                                 ",
"                                                                                                                 ",
"                                                                                                                 ",
"                                                                                                                 ",
"                                                                                                                 ",
"                                                                                                                 ",
"                                                                                                                 ",
"                                                                                                                 ",
"                                                                                                                 ",
"                                                                                                                 ",
"                                                                                                                 ",
"                                                                                                                 ",
"                                                                                                                 ",
"                                                                                                                 ",
"                                                                                                                 ",
"                                                                                                                 ",
"                                                                                                                 ",
"                                                                                                                 ",
"                                                                                                                 ",
"                                                                                                                 ",
"                                                                                                                 ",
"                                                                                                                 ",
"                                                                                                                 ",
"                                                                                                                 ",
"                                                                                                                 ",
"                                                                                                                 ",
"                                                                                                                 ",
"                                                                                                                 ",
"                                                                                                                 ",
"                                                                                                                 ",
"                                                                                                                 ",
"                                                                                                                 ",
"                                                                                                                 ",
"                                                                                                                 ",
"                                                  ....+                                                          ",
"                                 @#++$           .%%&...$                                                        ",
"                                ++**%.%%+        %%%*+=+*..@                                                     ",
"                                +*=+*%%%%%=      -%*#@@@===**.$                                                  ",
"                                *%=#==*%%%%%     -%*#====@==*;%%*;+                                              ",
"                                *%*#@@@@=*%%%.=   -%%##@@@>,,,,'',$==$                                           ",
"                                *.%##@@@@===**%%*  -.++#@),'!!!!~!,$$+=                                          ",
"                                 {.%###@@==@@@@**%;;-.%*#),'!!!~~!],>>$=                                         ",
"                                  {&*##@@@@@$>>>@=#@@%.;%@,]~^!//!~]]]$$=                                        ",
"                                   {.*##@@@>>,]],>=#>@;..*$,'!!//(/~!!']==                                       ",
"                                    &{*##@),,]__],>##@@;..#$]!//((//^^!!]==                                      ",
"                                      .++#$,]''__],>@#@@=%%#>'!/((((/^^!^,@+$@@;>                                ",
"                                       .%=$,]''''_],>)@>##*%@]!^/(::<::::^',>[}/]%@                              ",
"                                        -%#$,]'''_],]],,@$$**>'!/(:<<<<<<:(^''|</>%;                             ",
"                                         {%#$,]']'~']'_],$>@+#$]!/:<<<<<<<<:(^^|<('%;                            ",
"                                          -%=$,]''!!]~'']],,,$@$'/:<<<<<:<<<:((!|<|/%;                           ",
"                                           {%#$,]'~!!~~''!!~''')$!(<:((((::<<<::'|<|<>@                          ",
"                                            {;=$,_'~~~!!/^!^^//^']'~^^//(((<<<<::^!<||]@                         ",
"                                             -%#$,''~!!!^^^////^^^']>]'!//((:<<|||}//<(]                         ",
"                                              .;=$,,'!!!^//////((((///!!//:<}|1221[||<^!>                        ",
"                                               {+=$]'!^/////(/(<<<<<}}<((((<<|344541}||^~)                       ",
"                                                %*#,'~^^/////(<}}|}}|1}<<(:<||345565[1[3<])                      ",
"                                                 ;#$]~^^^////(<<|1[[[[71|}<<<|33455547113<]],                    ",
"                                                  %#,~~^^///(<<|333722333|<<|<||3245543||3|!!#=                  ",
"                                                   ;$]~^^^//(<<|1332222233|||[||33322421<||<(/>@                 ",
"                                                   %#,~^^!/(<}|3332448442233[[3|333<1243|:<<<((/]                ",
"                                                    ;)~~^^^/(<|13322488884233[3|3[<||322|:(<<<(/<'>              ",
"                                                    .#,~^^^/<}[73324488888423|31|33<[313<1:|<<</</]$             ",
"                                                     ;)]~^^/<}|33224888888442|3|[|1[[[3331|<<((<(^]]#            ",
"                                                     .#)]^^/(<|[3244444888244233|[3|||3|31|<:<:|(!^/]>           ",
"                                                      ;#,~^/(<||372244444424442333||33|3<|3|:(<(</~(^'@#         ",
"                                                      .#,'^^(<<|[72244244424244233||3|<|<73<<:(<<//(/!^@%        ",
"     +=@####%**                                        %)!!/(<<|337244244224224473<3<|3<33|3|<<:<((^/~,'>%       ",
"   =@)]~!!~]))@#%%                                     %@!^/(<||[372242422442242273|33<13|33|</((|</!!/''#@      ",
"  +,'^!(((!!!])))@#%;                                  %@'/^(<<||33722244224224222213|[||[37<|::<:|//(^'>]@      ",
" *@'(~'~!~'''!!!]]))@#%                                %#'^//:<||[377222224242244277|<|<1733<[|::</|</!^!]>;     ",
"%#>^~]_'~!~)''''']_,,>@#+                              %#,!/(<<||[33772442244424447|3||<733<333(/(<|<((^^!>@;    ",
".#]],,,>>>>#,,,___'~!!''>#%                            %@'!/(<<<|333377422224224427313[[[3[3331|^<|||(//~^']={   ",
"&*)))))@@@+;#]),,~~/((^!~~,#=                          ;@'^/(<<<|[333372222422224774373|3[33|33||:(<<<|/!']],=.  ",
"&.######=;+;#,]$>>'~///^^!~,@++                        %>~//<:<<||3333372722727272|4|77[3||33|173|(<|<<<(!]>>@=& ",
" {&%%%%%%.*.=,]))>,]'!^//^!'')@+#                     =%'!/((<<<||333337772222272737<773||33[|3773:<<:<<<|!'>>@{ ",
"  90&&&&&&.{+)]))>>,]''~!^^!'',>#;                   ;#*'!/(:<<<||[333|3372727227737|733|73|333373:<|||<|^(~',@%{"};
