/* XPM */
static char * imp_projectile_death_xpm[] = {
"150 44 15 1",
" 	c None",
".	c #730000",
"+	c #7F0000",
"@	c #670000",
"#	c #5B0000",
"$	c #8B0000",
"%	c #9B0000",
"&	c #A70000",
"*	c #B30000",
"=	c #BF0000",
"-	c #CB0000",
";	c #D70000",
">	c #EF0000",
",	c #E30000",
"'	c #FF0000",
"                                                                                                                       ..+++          . .             ",
"                                                                                                                  @ ##  @@@+                          ",
"                                                                     @@@@@                                       @@  ###      @@@@@   ...             ",
"                                                                   @@+++++@@                                   @@@  ####  ###  @@@@@@ ...             ",
"                   ...++.                                       @+++@@@++++@@                                @@@@@@+++@##  #  @ @@@      @@           ",
"                  .++$$%%%.                                   @@++++@$$$$$$+@@ @@@@                         @@@@@@++++@...    .@@@@@@  . @@@          ",
"                ..++@ .$%+.                                  @+++$@@$$.$%&&$$@@@@.@@.                      @@@ @+++$@@$$........@@@.@@@@@ @@          ",
"               .@@+++...$$  .....  ..                       @+++$$$$$$$%%&&&%$+++++.@@.                   @@ @@+++$$$$$.....$...+++++.@@@@ @@ @@      ",
"               .@@%***%+...$%&&%$. ..                       @++..%%%%$$$$$%&&%%%%$$$+..@                 @@  @##+..%%%$$$#.  @#$$$$$$$+..@@@@ @@      ",
"             +...%*===*%%$$%%%&&&$.                         @@..%%%%%%%%%$$$%%%%&&&%$$+@@                @@@@ ###..$$$$$$#   @#.$$$$$@@$+@@@@         ",
"            +$$+$%&&&&&%%=-;;;*%&%. ++                     .@.$$%%&*******&$%$%%*&&&$$$+@                @@   @##.$$$$$..#....#...$$@@@@@+@  @@@      ",
"           $$&%$&&=---====-->>>*$+. .&.                   @.#$%%&*****====*%$*%%%&&&$%%$++ +.+         @@@@    @.+$$$..@@@@.   .....@@  @@$+ +@@@  @  ",
"          $**%$*=-;,,,;-&&--;>>-&+.@ .%                  @.#$%%&*=****====%=-*&%%%%%%&%$$++#..+       @@@@@   ##++$$..      ...   ....@@@$$$+#+@@@  @ ",
"         $%*%$*--,,>>>>,-=&&-;;-*%.+@ @ ..               @..$%&*==****====***&%$$$%%&&&%%$+.#..       @@@ @ .##@.....      .            ..$$++++.@@ @@",
"         $*%$*--,>>>'''>,-===&-$&&.%+@  ..              @.+$%****==******-**%%++$$&&****%%+.#@.@      @@@@@@@@@.$..   ..                 .%$$++++@@ @@",
"        .$*%&=-,;'''''>>,;=;;=&&$&$&&@@@ .              @+$$&*&&*===*%%%%%&&$$+++++&**=*&%$$.#@@      @ @@@@@.$$.     ..                 ..$$$+++@@  @",
"        .$&%&=-;>''>>-&==**=;,,=&$$&*.@..               @+$$*=*&==**%++...$$....+++%*===&&%$.#@@         @@+$$$..  ..                     ..$$++++@   ",
"        .$&%&==->>>-=*==-$$&=;,-*&%$%. $%.              @+$%*=*%%**%+.######   ##.+$***=&&%$$@@@      .. @@+$$$.   ..                      .$$$++@@@@ ",
"      . .%&%%=**,>,;=&-*$$  $=,;--&$.. .$%@             @+$&**&$$$&+#     ##     #.$%&&*&&%$$@@      .$. @@+$$..   .  .                    .$$$++@@@@ ",
"         $$.*==-,,,;=**$ %$ $*=-,,-%$.@ $%.            @#.$&**&$++%#              #+%%%&&&%++@@     .$$  @   $.   ..                       ..+++@@@@@ ",
"       @ @@.===-;-',-%$   %$&&=-,,-%&$@.$%.            @..$%**&$@@+# @@            #$%%%&%++.@      .$.         . ..                       ..+.+@@ @@ ",
"      @. @@$***-;,',-%.    %&*=,-**&&$@.$$.           .@#.+%&=*&@@#  @@            #$+$%%%+..+      .$   @ .                                 ..+@ .@@ ",
"      @$.@@+.*==-,,-=%$    .$&,,,*%**+.@$$@           ..#@+$&===&$##           #  #+++++$...@@      ..   .#@+                               . @@  .@  ",
"      @$$@.$$*;;=;,;-*%%  %%&=,--=%*&@.@..@          @.$#..+%&**=%###             #$+$+..##@@@          @.#..+..                                  .   ",
"       .$..$%%=;;;,,;%&$&&*-;,>=-&*&+@@@@@           @.+$+.$$*===&+#           #  .%&%$+#####@@        @$@$+.$..                           #          ",
"       @$..%*.=;;=-;;-=-=-;>''>-,%&$@@@ @            @.+$$$$&*==*&$#           # $$*&%$$+#@##@@      . @$@$$$$.$...                      ..#@         ",
"        @@.%*%%*;;=--&=*->''',*,-%$@+@               @.+$$$&*===*&$#          #+$$&**&$$+.@.@@@     .$ .$$.$$%%.$..                     ..+.   @@     ",
"           .%%.%*;===%=--,,,-=,-&$+%%@ +@            @.@+$$&&*===*&$#         #$&&***%$$+....#@     .$  $$.$$%%%$.                      .$@   .#@   . ",
"       . .% $$..$===$%%%*=-,,,,-%$+%%..$@            @#@@+$$&*====*&$#..     #$&&&**%%$$+..+.#@     .$  @@@$$$$$.                    ....@.@...#   .. ",
"         .. ..#@..$$..$$%*----*%$+%%+ @@@             #@@.+.%*====***$ .####.+&&&&%%%$++++++.#@      .   @@$+.....  .              .....+ @@+.@#   ...",
"           .  @#@@.....$$%*****%$%%+@ @@               @#..$%&**===&&$   ..$$&**&%%%$++.++$.#@           @@@@@##..  ..            . ..$+@.+++.#  . ...",
"              .@#@.$&$..$$%%%%%$..@@                   @+...$%&&&***&$+    .$&*&%%$$++.++$$.#@        .  @+ .@# #.  ...        ..  ...+..+$...   .$...",
"               ....$&&&..$$$$...@@                      #+..%++%%&&&%$$+..$$$%%&&$$++..++$.#@@        ...$+ @@@  #. ..       ....    ...+$@.@ @  .$$@@",
"                   .$&&.....@@ .++ $+                   #++$%+$$%%$$$%%$$$$$%%%$$+++..+$+.#@@         .$.$$  @@# #..$      .......  ...+....    ..$$@ ",
"                ..  ...@@#    .$%. ..                    #+.$..$%%$%%&&&%%$$%$++++...+$$++@@          .$ .$# @@.##.....   ......    ..+$$@     .$$$$@ ",
"                .%%.        . .$$                         @#.@@.$$$$$%&&&&%%%$+++.+.+++@@@@            $. $$$  @@#$$$.. @        +..+++.+@ @  ..$$@@  ",
"                 ..   .                                       @.$+++++$$&%%$$$$$+......@               .. ..$  @@.$++++      ............@    .@@@.   ",
"                                                               @..$$+..+$$$$..++@@@@@@@                     ..   @..$   . $$......@@@@@@.  ...@...    ",
"                      ..   .                                     ..$$+..+$.@.@@@@@@                                   @ ..+.....@@@@@. ...@@. ..      ",
"                                                                 @@......@@@##.@                              ...     @ ...@@@##.@   . .@@.           ",
"                                                                    @@@@@@@ @@@                               ....       @@@@ @@@ . @@@@@             ",
"                                                                                                                     @@@@@@@ .....@@...               ",
"                                                                                                                         @@@@@ @@  ..                 ",
"                                                                                                                             @@@                      "};
