/* XPM */
static char * imp_projectile_live_xpm[] = {
"100 44 32 1",
" 	c None",
".	c #670000",
"+	c #8B0000",
"@	c #730000",
"#	c #9B0000",
"$	c #7F0000",
"%	c #CB0000",
"&	c #D70000",
"*	c #B30000",
"=	c #BF0000",
"-	c #A70000",
";	c #E30000",
">	c #EF0000",
",	c #FF0000",
"'	c #FF1F1F",
")	c #CB5707",
"!	c #D75F0B",
"~	c #FF3F3F",
"{	c #F37317",
"]	c #B74700",
"^	c #5B0000",
"/	c #FF7F1B",
"(	c #FFA35B",
"_	c #FF8F3B",
":	c #FF5F5F",
"<	c #FFFF00",
"[	c #DF670F",
"}	c #FFC79B",
"|	c #C34F00",
"1	c #EB6F0F",
"2	c #FFB37B",
"3	c #9F3700",
"                                                                                                    ",
"                                                                                                    ",
"                                                                                                    ",
"                                                                                                    ",
"                                                                                                    ",
"                                                                                                    ",
"                                                                                                    ",
"                                                                                                    ",
"                                                                                                    ",
"                                                                                                    ",
"                                                                                                    ",
"                                                                                                    ",
"                                                                                                    ",
"                                                                                                    ",
"                      .++@.                                             .+##.                       ",
"                    .$%&*=&-+                                         ##%&%%*#+                     ",
"                   .-*%&;&*&-.                                       #=&>&=&+%%#                    ",
"                  .->,&'),&#@+@                                     .+&;&=>=*&;=#                   ",
"                  $&,!!~{!]&]%$                                     $*;,,~)>]];,=                   ",
"                 ^=$*,/(_{!]&*%+                                   ^#%;>_/___!&,%+                  ",
"                 @$%,':<<(([,%>%                                   @$-%':(}<<({,,%                  ",
"                 #=|,1(<<2<([,*%                                   $#-&,/}<<<<({;$                  ",
"                 +*>,][_(_(!>;,-                                   +*&,'[2(_(/);=#                  ",
"                 .###&]!/!]1%-&#                                   .#&,,/{/!11~;=+                  ",
"                  $#%#&]!],&3+-                                     $*;,|;%,,~)>*                   ",
"                  .$@+;;,;&,%#.                                     .#%&;&%;&,,%+                   ",
"                   .$=#**#*=-.                                       .##*-+#*%*-                    ",
"                    .$##&*#$.                                         ^.@$+*#++                     ",
"                      .$#$.                                             .@@$.                       ",
"                                                                                                    ",
"                                                                                                    ",
"                                                                                                    ",
"                                                                                                    ",
"                                                                                                    ",
"                                                                                                    ",
"                                                                                                    ",
"                                                                                                    ",
"                                                                                                    ",
"                                                                                                    ",
"                                                                                                    ",
"                                                                                                    ",
"                                                                                                    ",
"                                                                                                    ",
"                                                                                                    "};
