/* XPM */
static char * former_sergeant_walk_xpm[] = {
"144 55 95 2",
"  	c None",
". 	c #9B633B",
"+ 	c #BF7B4B",
"@ 	c #CF8353",
"# 	c #B37347",
"$ 	c #DF9363",
"% 	c #F7AB7B",
"& 	c #E79B6B",
"* 	c #774F2B",
"= 	c #7F532F",
"- 	c #FFC7A7",
"; 	c #FFBB93",
"> 	c #8F5F37",
", 	c #27531B",
"' 	c #FFDBC7",
") 	c #FFB383",
"! 	c #FF7B7B",
"~ 	c #E30000",
"{ 	c #FF9B9B",
"] 	c #EFA373",
"^ 	c #FFBF9B",
"/ 	c #373737",
"( 	c #434343",
"_ 	c #A36B3F",
": 	c #2F2F2F",
"< 	c #C39B2F",
"[ 	c #5B5B5B",
"} 	c #4F4F4F",
"| 	c #5F0707",
"1 	c #232323",
"2 	c #272727",
"3 	c #3B3B3B",
"4 	c #474747",
"5 	c #D75F0B",
"6 	c #B34F4F",
"7 	c #9B3333",
"8 	c #AF7B1F",
"9 	c #4B4B4B",
"0 	c #575757",
"a 	c #874307",
"b 	c #F37317",
"c 	c #1B1B1B",
"d 	c #6B0F0F",
"e 	c #3F2F17",
"f 	c #2B230F",
"g 	c #0B0B0B",
"h 	c #470000",
"i 	c #332B13",
"j 	c #1F170B",
"k 	c #972F2F",
"l 	c #831F1F",
"m 	c #875733",
"n 	c #8F2B2B",
"o 	c #771717",
"p 	c #8B2323",
"q 	c #BB5757",
"r 	c #AF4747",
"s 	c #5F4323",
"t 	c #636363",
"u 	c #731313",
"v 	c #670B0B",
"w 	c #4F0000",
"x 	c #131313",
"y 	c #6B4727",
"z 	c #AB6F43",
"A 	c #4B371B",
"B 	c #7F1B1B",
"C 	c #A33B3B",
"D 	c #533F1F",
"E 	c #6B6B6B",
"F 	c #A73F3F",
"G 	c #BF5B5B",
"H 	c #DF8787",
"I 	c #D78B5B",
"J 	c #5B0707",
"K 	c #6F6F6F",
"L 	c #530707",
"M 	c #838383",
"N 	c #CB7F4F",
"O 	c #7F7F7F",
"P 	c #F3A3A3",
"Q 	c #232B0F",
"R 	c #C76363",
"S 	c #000000",
"T 	c #FFB37B",
"U 	c #373F27",
"V 	c #CB6B6B",
"W 	c #937B63",
"X 	c #2F371F",
"Y 	c #676B4F",
"Z 	c #474F33",
"` 	c #170F07",
" .	c #171F07",
"..	c #0F1700",
"+.	c #430000",
"                        . + @ @ @ + .                                                           . + @ @ @ + .                                                               . + @ @ @ + .                                                           . + @ @ @ + .                               ",
"                      . # $ % % & $ * .                                                       . # $ % % & $ * .                                                           . # $ % % & $ * .                                                       . # $ % % & $ * .                             ",
"                      = @ % - - - % @ =                                                       = @ % - - - % @ =                                                           = @ % - - - % @ =                                                       = @ % - - - % @ =                             ",
"                      = # ; % ; % ; # >                                                       = # ; % ; % ; # >                                                           = # ; % ; % ; # >                                                       = # ; % ; % ; # >                             ",
"                    & # , - $ ' $ - , # &                                                   & # , - $ ' $ - , # &                                                       & # , - $ ' $ - , # &                                                   & # , - $ ' $ - , # &                           ",
"                    ) $ ! ~ , % , ~ ! $ )                                                   ) $ ! ~ , % , ~ ! $ )                                                       ) $ ! ~ , % , ~ ! $ )                                                   ) $ ! ~ , % , ~ ! $ )                           ",
"                    @ + ) { ] ^ ] { ) + @                                                   @ + ) { ] ^ ] { ) + @                                                       @ + ) { ] ^ ] { ) + @                                                   @ + ) { ] ^ ] { ) + @                           ",
"                  / ( * _ ] $ + $ ] _ *                                                       * _ ] $ + $ ] _ *                                                         : * _ ] < + < ] _ *                                                   / [ * _ ] < + < ] _ *                             ",
"                / ( } * + & [ | [ & + * 1 2 2                                               : * + & [ | [ & + * /                                                   3 : / * + < [ | [ < + * 1 3                                           : : / } * + < [ | [ < + * 1 3                         ",
"        1 3 ( 4 4 : / 2 _ 5 6 7 6 8 _ 1 : ( ( 3 / 2                                       : / / _ 5 6 7 6 8 _ 1 ( : ( 3 :               1 1                 3 ( ( ( ( / / 2 _ 5 6 7 6 8 _ 1 : 3 3 3 :                             / 4 4 9 9 9 ( / 2 _ 5 6 7 6 8 _ 1 : 4 / :                     ",
"    1 3 3 } 0 [ } ( 2 2 : a 5 b 8 a : 1 2 / ( ( ( 3 2                           3 ( ( ( ( ( 1 ( : a 5 b 8 a : ( : 3 } } } ( :       1 / 4 / 1             3 3 } } ( ( ( : ( : a 5 b 8 a : c : 3 ( ( ( ( 3 :                     : 4 } 0 9 9 9 9 : ( : a 5 b 8 a : 1 : 4 4 4 9 ( /               ",
"  1 : 4 4 3 } } 4 2 3 3 d e f g g e d : 3 : : ( 3 2 : 2                       3 3 } } } } ( 3 : c : : 1 1 2 : c : : 3 } ( ( ( / 1 } 4 3 1 g             : 3 ( 3 4 ( 3 ( 3 : h c i j j j j 1 : ( : ( ( ( 3 3 :                 1 3 ( ( 4 0 9 9 ( : 1 : : : : : 2 2 j c 3 4 4 4 4 ( :             ",
"  1 3 } 0 4 3 4 : 4 k ( l d d c c d l 3 3 3 / 2 / 2 : 2           1 /       3 ( } ( } ( 3 } k ( l d d c c d l 3 3 3 : 3 3 3 : > _ m 1 g                 1 : 4 ( 3 1 } k ( l d d c c c d l 3 3 3 3 : ( 3 3 3 :                 : 3 ( } ( ( ( 3 9 n 3 o c h h h h c 1 : 4 3 3 4 ( 3 :             ",
"  1 3 4 } ( 3 : 3 4 } k ( k p l k n n l / 3 : c c : : 1       1 / 4 / 1     : ( } ( 3 : 3 } } k ( k p o k n n l / / 3 : 4 > _ q r s :                   c : ( ( : i } } k ( k p o o k n n l 3 3 3 : 3 3 : : 1 } t :           : 3 ( ( 3 : : 4 n 4 k 4 u v h w v d 3 3 ( / : 3 3 3 : 1           ",
"  x 1 1 : : : x 1 : 3 p k k p l k 7 n / : : 1 i y z z A 1 / } 4 3 1 g       c 1 : : : 1 : 3 3 p k k p B k 7 n / : : ( > _ q q C C f                     c c c c c j 3 3 p k k p B o k 7 n / 3 3 : : : : } 4 4 / g :           1 1 1 1 : c 1 3 3 k ( k p o w v u B 3 3 3 3 1 : : : 2 :           ",
"  = _ $ $ @ _ i g : : p p l B d B l p 2 2 1 c y > : : 4 4 m m 1 g           y _ z > = D g : : p p l B d B l p 2 2 2 E m F F k n o G                   s * > > * y c : : p p l B d o B l p 2 3 3 3 : > _ m 1 1 g g           s = # + _ * 1 1 : / p k k p B w v u B p / / / i e e e e             ",
"  _ H ^ - % I s g g 1 : 1 o c d c i : 1 g g g : 3 4 s C q r s               = $ $ ] I y g x 1 : 1 o c J d d 3 } E K 4 s o o o o | y D                 s z @ @ > s f x 1 : 1 o c J o d d 2 2 : 4 > _ q r s g g               s z $ ] ] @ m 1 j : p p l B d w w d l / : 1 c s * > # > >           ",
"* # H ^ ; % # * g g g g | | | f 1 c 3 } E K 3 4 * m q q C C f             = _ @ I & _ e g g g g w w w w 3 } t K t } } f B v v | d D y                 s _ + + * s c g x x w w w w 2 2 2 2 ( > _ q q C C f * _ D             y + I I & + y 1 g c : 1 o c J L L L c : : c 2 * > @ @ I > / } t :   ",
"* # $ ; ; @ * i g g 1 c c 1 : 1 3 } t K t } : A m F F k n o               = + @ I _ = f i c i 1 c D } t t t } ( : : c 2 c c L L i D y i               s > > > s c g 1 1 i i : 3 ( } [ E M E m F F k n o A A > *             y _ $ @ + _ A x g g L w w w w L g g g g g c : s ( ( ( } 4 4 / / :   ",
"s * ( t t ( c f g c c c c D } t t t } ( : : c 1 s o o o o |               = . + + = e c : 1 1 A > * t 0 ( } : : : 2 c 2 x x c i L L h D             1 y > N _ = s 1 1 1 D } t t t t K t } 4 s o o o o o | y D c             s * > > m * c x c c 1 c c 1 1 1 1 j c 1 c : 4 0 > > _ m 1 1 g g     ",
"D 2 3 + ; % + * e c c A > * t 0 ( } : : : 2 c 1 f B v v | d               : _ @ @ @ c   g : A G F y ( / : : : 2 c c 2 c : x f i i h i c             2 y # $ $ + s 1 A > * t 0 ( } ( / : : } f B v v v | d D y D c         : : * N I I * i x c c x 1 1 : B ( } [ E O O > _ q q q r s g g         ",
"c 2 > ] P ^ ] z A c A G F y ( / : : : 2 c c Q     c c L L               1 : y $ ^ H R I _ m * F 7 / : 1 2 c c 1 2 2 c g   c S c c i S x             1 * @ H I _ m A G F y ( / : : : : : 2 : 1 i c L L i L L h D c         1 c _ T ] ] @ * i x 1 1 D y t t t t K E E E m F F k C C f e c c       ",
"c : z $ ^ H R I _ m * F 7 / : 1 2 c c 1 1 Q : U                         c 2 . 6 + H H V r G 6 k n n n l 3 1 ( 2 1 1 Q : U     S S S x               1 * . # V r G * F 7 / : 1 2 c : 2 c : 2 j W U U c i i h i c           c c . @ ] H V _ m A G F y m / ( } ( / : : : s o o o o o J D e c       ",
"c c . 6 + H H V r G 6 k n n n l 3 1 A Q Q X U U                         c f y m m + R R R r k d d d J J 1 A A c 1 Q X U U                           e e * # R R r 6 7 F 7 n l 3 1 c D : 2 2 i Y Z U f c c i S x           c 1 A m z @ V r G * F 7 A e 1 : : : : : : : f v v J J J D J e c       ",
"  c y m m + R R R r k d d d J J 1 s A Q Q X U U                           c f e D * m 6 C 7 B | | | | L x i D 2 1 Q X U U                           e e * * 6 C 7 k o o d J J : A D D 2 2 2 i U U U   S S S x               1 y y * # R R r 6 7 F 7 n l 2 2 2 c c 2 i i c   J i J J D e         ",
"    f e D * m 6 C 7 B | | | | L x e f 1 1 2 :                               f e e e 2 u u d d w w w w 1 e A D i 2 c c 1 3                             f e e u u d B o o | | L : e c f 2 2 2 c f U                             e A A * 6 C 7 k o o d J J 3 c c c 2 2 2 1 i     e e e e           ",
"    f f e e 2 u u d d w w w w 2 1 2 3 f 2 2 : :                             f e A A e j ` 2 1 1 1  . .Q  . . .c c c c c                               f e e w w d d w w w w 1  . . . . . .c 1 : f                             f e f f u u d B o o | | L : : 1 1 2 2 c 1 j                       ",
"    1 f e A e j ` 2  .Q X X Q  .2 / / / / 2 / 2 /                             f e e j ` x x c c c  .Q X X Q  .( : 1 c : : c                           f e A j ` : 1 1 c c x g  .Q X X Q  .c c : : c                           f e f f w w d d w w w w 2 2 : : 1 c c 1 / c                       ",
"      f f e j ` 2 2 .. .Q Q  . ./ 3 3 3 / 2 2 / (                             f ` ` x x 1 1 : : : .. .Q Q  . .: : 1 c c c :                             f e ` : 1 1 2 2 2 : 1 .. .Q Q  . .1 1 c 1 1 i                         f e e f j ` c c c c c  .Q X X Q : 1 1 c : : :                     ",
"        f ` x 2 / 4 / ........2 2 / 3 / / / 2 / i                               ` 1 x 1 x c c 2 2 / ........2 2 c c c c c c i                           f `   1 c 3 3 : d : / 1 ........2 c c x g x i                           f e f ` c c c c c c .. .Q Q  .3 1 1 1 1 1 c                     ",
"            c / / / 2 / 2 x x 2 2 2 3 B / B 2 / i                                   x x 1 : : : : 2 c g g c 2 c c c c h c c i                                 : c : 1 d B d 1 c c x g x c c c c x g j                           f f ` 1 : : : c c c c c g g 3 3 : : o 1 1 c                     ",
"            x / 2 2 B d 2 x x 2 / B p p p 2 2 3 /                                   g c c c : p p d g g g c c c c c h h h h i                                 c x x c p k c x c x x g g x c | g L x j                               j 1 1 : / / 3 / 1 1 g c c : : : 1 1 1 c                     ",
"            x 2 2 / d L c g g 2 i 2 d d u u 2 3 /                                   g x x c d d d g c g g +.c c v h L h | c i                                 c x g c v B v g x g g g j j c +.| L c j                               g c 1 1 : l u c : 1 g 1 1 c c | 1 | 1 c                     ",
"              c 2 2 | L 2 g 2 3 B / p p u u / 4                                     g g c c d c c x c x g g +.h h L L L h h i                                   c x c c v L x c x g g g g +.+.+.+.c i                               g c c 1 1 1 J d : 1 c c c 1 B | d 1 c c                     ",
"              x i L 2 L 2 g / / / n F k p o /                                         g g d c d w c c x g +.c c d | J | | g                                     L g L c c J c c x g x +.d +.+.+.+.g                                   g 1 1 1 1 J d 1 c c 1 1 c L B | d c                       ",
"              x L L 2 2 2 g 2 3 B F n p 4 o 2                                         h c d d w x c x c g w c c d d | v L h                                     L L L c c c c c g g g c +.| L w w j                                   c 1 w c L L J 1 c g 1 c L h d B | j                       ",
"                g L 2 2 c g g B } 4 / 4 } 3 2                                         h h h g x g x g g g g x | | o v v v c                                     L L c 1 2 2 2 g g x g g | h +.+.+.g                                   c J w c L 1 1 c g g c 1 c h J d u j                       ",
"                g c c c L g c 3 1 / / / : 3 1                                         h h h c g g g g c g g g o d c v B J i                                       L c : : : : : c c x v g g +.| +.j                                   c J J c c c 1 c g g 1 h h h h h J j                       ",
"                g g g g g g g 1 / 4 } 4 / 1 1                                           h c c x g x c g c g w x g J v J i                                         c c 1 1 : 1 1 :   1 g x x g g g j                                   g 1 L c c 1 c x x c c 1 L J L h c j                       ",
"                  g g g g g g c 1 : / : B B 1                                             g g g g g g g g   c 2 : 3 : 2 :                                           c 1 1 c 1 c x   1 g g g x x 1                                     g c 1 1 : : 2 2 1   c 2 : 2 c c :                         ",
"                  g g g g g g x c 1 1 1 c i                                               g c c c c g g g   c c 2 2 2 c :                                           x c c c d | c x g g g x c c 1                                     g c 1 c c c c c 1 c c c 2 2 / / :                         ",
"                    g g g g g S g g x x g S 2                                             c c 2 2 c g g g   1 g c c c | g                                           1 g g g g g c x g g g x c c c                                       g c d c c c c g g g c c c c c c                         ",
"                        g g c c : / ( 3 : 2 c                                               h c g g g g g   L c g g g g c                                           : c c c 1 c c x c x g +.+.: x                                       j g c c c c g g g g g c c c c c                         ",
"                          g c : c c 1 1 c c c                                                 g g g g h g   +.c 2 : : 2 2                                           1 x c c c x x x +.c x g x 1                                         g J g g g g c 1 c j +.g g g d                           ",
"                          x c c 1 2 : : 1 c c                                                   h h h h h   +.c x L L L 2                                           c c c 1 L c c   1 +.c c c x                                         c 1 c c c c c   : c +.+.+.j                             ",
"                          c g c 2 2 : : 2 c c                                                     h h h h   +.+.x x L d 2                                           c L c 1 1 c :   +.x c L w                                           c u c c L c c   c +.c c c                               ",
"                          x g c c B 2 B 1 c                                                       J d v h g   L d L L x u                                             c c L 1 L :   +.h +.+.w                                             +.J h +.+.    c +.+.+.+.                              ",
"                        x c g c v l B 2 2 v                                                       h h h h g   x L d d L                                               c c 1 L c c   +.h h +.w                                             +.u u +.+.    c +.+.+.+.                              ",
"                        g g g c B n C C n A                                                     h o d h h g     d n n u                                                 f o o |     +.h h +.w                                             +.+.+.h +.    J | +.+.+.                              ",
"                        g g g 1 J v o o v c                                                     h o d h h c   c L d d L d                                               | 7 7 u     +.L L h w                                             +.v v v h     J d | +.+.                              ",
"                          g g J y C C C 7 1                                                     h d h h g     L o F F n |                                             +.u u u u +.  h u B u w                                             v d u v +.    L d d | +.                              ",
"                              A 7 F r F n A                                                     h h h h g     | n F F n |                                             +.k F F C o   h h h h h                                             v u l l v     +.u u | +.                              ",
"                              y n 7 F 7 n s                                                       g g g       | o n n n |                                             +.o C F k o +.                                                      v p 7 l v       +.+.+.                                ",
"                              3 A n n n A 3                                                                   h | o o | h                                             +.o l k l o +.                                                      v l l J +.                                            ",
"                                : : f f : :                                                                     h h h h                                                 +.v v v +.                                                        +.+.+.+.+.                                            "};
