/* XPM */
static char * former_sergeant_attack_xpm[] = {
"54 55 113 2",
"  	c None",
". 	c #BF7B4B",
"+ 	c #A36B3F",
"@ 	c #8F5F37",
"# 	c #CB7F4F",
"$ 	c #DF9363",
"% 	c #F7AB7B",
"& 	c #D78B5B",
"* 	c #FFB383",
"= 	c #E79B6B",
"- 	c #FFBB93",
"; 	c #FFC7A7",
"> 	c #EFA373",
", 	c #27531B",
"' 	c #CF8353",
") 	c #37732B",
"! 	c #E30000",
"~ 	c #FF7B7B",
"{ 	c #B37347",
"] 	c #CB5707",
"^ 	c #FF8F3B",
"/ 	c #F37317",
"( 	c #DF670F",
"_ 	c #FFBF9B",
": 	c #774F2B",
"< 	c #7F532F",
"[ 	c #AF4300",
"} 	c #C39B2F",
"| 	c #FF7F1B",
"1 	c #FFA35B",
"2 	c #AF7B1F",
"3 	c #BB5757",
"4 	c #D37373",
"5 	c #CB6B6B",
"6 	c #EB6F0F",
"7 	c #434343",
"8 	c #6B6B6B",
"9 	c #2F2F2F",
"0 	c #3B3B3B",
"a 	c #875733",
"b 	c #B34F4F",
"c 	c #C76363",
"d 	c #9B633B",
"e 	c #4B371B",
"f 	c #6B4727",
"g 	c #874307",
"h 	c #474747",
"i 	c #4F4F4F",
"j 	c #C34F00",
"k 	c #D75F0B",
"l 	c #4B4B4B",
"m 	c #5B5B5B",
"n 	c #232323",
"o 	c #1F170B",
"p 	c #272727",
"q 	c #2B230F",
"r 	c #575757",
"s 	c #732B00",
"t 	c #636363",
"u 	c #530707",
"v 	c #670B0B",
"w 	c #731313",
"x 	c #1B1B1B",
"y 	c #6B0F0F",
"z 	c #831F1F",
"A 	c #373737",
"B 	c #771717",
"C 	c #5F0707",
"D 	c #5B0707",
"E 	c #932F00",
"F 	c #9F3700",
"G 	c #8F2B2B",
"H 	c #872300",
"I 	c #5F4323",
"J 	c #332B13",
"K 	c #B74700",
"L 	c #AB6F43",
"M 	c #533F1F",
"N 	c #D70000",
"O 	c #FF0000",
"P 	c #CB0000",
"Q 	c #FF3F3F",
"R 	c #FF5F5F",
"S 	c #8B0000",
"T 	c #7F1B1B",
"U 	c #7F7F7F",
"V 	c #FF1F1F",
"W 	c #FF9B9B",
"X 	c #D7BB43",
"Y 	c #972F2F",
"Z 	c #9B3333",
"` 	c #A73F00",
" .	c #FFFF73",
"..	c #FFFF23",
"+.	c #EBDB57",
"@.	c #B30000",
"#.	c #0B0B0B",
"$.	c #FFFF47",
"%.	c #EF0000",
"&.	c #BF5B5B",
"*.	c #A73F3F",
"=.	c #A33B3B",
"-.	c #8B2323",
";.	c #53573B",
">.	c #430000",
",.	c #4F0000",
"'.	c #AF4747",
").	c #131313",
"!.	c #373F27",
"~.	c #474F33",
"{.	c #232B0F",
"].	c #43331B",
"^.	c #470000",
"                    . . . . + @                                               . . . + @                     ",
"                  # $ % % % & . @                                           $ % * * $ # @                   ",
"                  = - ; ; % = & . @                                       = - ; ; % = & . @                 ",
"                . = % - % - > & . +                                     . = - ; ; % & . . +                 ",
"                , $ ' ; $ - ) . . =                                     . & = > % > & . & $                 ",
"                  ! , . , ! ~ = { {                                     ] ^ / ^ / ^ ( = { {                 ",
"                . = ' _ > _ * = : <                                     + ! [ . [ ! ~ = { <                 ",
"                + ' } . } > . ' @                                       . | / 1 / | * = #                   ",
"                  2 3 4 5 3 > ' @                                         ( ] 6 ] 6 | . #                   ",
"                7 ] 6 / 6 ( ' 8 7 9 0 7 0 0                               a b c c b 2 d d 7 7 0 0           ",
"          9 9 7 9 e f a f g 7 9 9 h h i i i h 9                     9 9 7 7 j k ( ] ] : h h l m m i 9 n     ",
"        9 0 n o p q 9 p p 7 9 9 h h i r r h 7 0 n                 0 n n 9 9 s s g g g 7 l l m t r h 0 9 n   ",
"      9 0 9 n o o u o o v w 7 7 9 h h h h h 7 0 9               9 9 n x x x o x y z 7 A 0 h [ [ i h 7 A p   ",
"    9 9 n 9 v n u u o y w B 7 h p 0 0 7 h h 7 0 9 n           9 9 9 w n C D x y z z 7 A 9 E ] j F h 7 A p n ",
"    9 9 n w 9 v y v v w B z 0 0 9 9 9 9 9 A A 9 n o           9 9 w 9 w B G w G G A 0 9 A H F F H A 9 n x n ",
"      I o n 9 9 y y v w B A 0 A n f { ' & . . { d I             J x n 9 B G w G G F E n f K ( ( . L @ : M   ",
"      < f n n n u v u v y 9 9 n o . $ & & . # d f I             I e n n y w v z z E H e a | ^ ^ . # + a I   ",
"    < d < J o u u v u u u u u n n { # $ & & . < f           N O N e J x J v u v v u J e d | ^ ^ & ' d <     ",
"    f f f f n J v v w y y 9 9 9 9 d { ' $ ' d M I       P O Q R Q N S J J T T T w H n 9 a ] / | ' L < I     ",
"  A h i U 8 o o w B z z z 9 n o 9 9 0 h h h 0 I         V R W X ~ Q N S x Y Z Z G F H 9 F ` [ h 0 I I e     ",
"  n A r n r A o u D u D D A < . $ # d n 9 9 9 n       N Q W  ...+.~ V @.x y y w w d | ^ | @ ` 9 9 9 x x     ",
"n d { #.#.9 { n n p n 9 9 { # ' 5 ' { < p n n n       O R X ..$...X R %.S n f + ^ | ^ ^ ' { f n n x x n     ",
": &.: #.#.n : &.p o e f { . &.. { @ : f p p o n         V ~ +...+.~ V N *.Z ( ^ / ( { { @ : e p p x x n     ",
": Y e 9 n 9 e =.-.Y { &.# b =.G I e e q n 9 n p ;.      ! Q ~ X ~ Q ! *.-.T : a Z Y B I e x q x x n p p ;.  ",
"I Y >.e e e ,.'.'.'.=.Y e w w D q q q ).).).).!.!.        ! V R V ! G T w u u T e v v u u q q q q q q q !.  ",
"f z y C C C C G -.-.-.C D e J o 9 ).).).).).n q           @ N Q N B B D D q q u u x x o o 9 q q q q q n q   ",
"  q y C C C y y y y 9 9 ~.~.~.!.9 n #.#.#.#.#.              D D A n q q q q 9 {.!.~.!.{.9 n n o o o o o     ",
"        7 ).).).).).).!.!.!.].J n n ).#.#.#.).).                  7 ).).).).).{.!.!.{.).n n n ).#.#.#.).).  ",
"        9 ).).).).).).o J J J o p ).).#.#.#.).n o                   9 ).).).).#.{.{.).#.p ).).#.#.#.#.).n x ",
"          o ).).).).#.).#.#.#.q ).).#.#.#.).).o n n                 #.).).).#.).#.#.#.).).#.#.#.#.).).x n n ",
"            #.#.).).).#.).#.#.).#.).#.).).).o y 9 o                 #.x ).).).#.).#.#.).x ).).).).).x ).9 x ",
"            #.#.#.n o ).#.).).#.#.).).D o o w n 9 o                 ).x x x x ).#.).).x x ).).y x x w n n x ",
"            #.n #.n n ).).#.#.#.).).).).y w w n 9 o                 x n x x x ).).#.#.).).).).w B w w n 9 x ",
"            #.).n J n o o ).#.#.#.#.).).y B w n n ).                #.x n ).x x #.).#.#.).x ).w B B w n n ).",
"            #.n n n o ).,.,.#.#.).#.#.D v w w y n                   #.n n n x ).u u #.#.).x x y w w w y n ).",
"              n D #.).).#.#.#.#.).#.u v v w w y n                   n D x ).).x #.#.#.#.).x y -.z x z y n   ",
"              v D #.#.#.#.,.#.#.#.u v v n w -.w o                   D D x x x #.u #.#.#.x w z z 9 w -.T x   ",
"              v v D #.u ,.).#.#.^.C y n n 9 z w ).                  D w D x D u ).#.#.#.).w B 9 9 9 z w n   ",
"              v y D #.#.u ).#.#.#.n p A 7 9 n o ).                  D B D x D ).).#.#.#.).n H E ` E 0 x n   ",
"              ).v o D #.).#.#.#.).n 9 9 9 p n x                     n D x D ).#.#.#.#.#.).n 9 H E H 9 n n   ",
"              ).p p n #.).).).).).n 9 9 9 p n x                       p H H H p ).).).).).x 9 9 9 9 n x     ",
"              ).n n #.#.#.).).).#.).n p p z w p                       x 9 9 n ).).).).).#.x x p p z w p     ",
"                ).).#.#.).).).).).#.).).x n n n o                       x x ).).).).).).).#.#.#.#.x n x     ",
"                    ).).).).).).).n #.).u o n 9 o                         ).).).>.).).).).#.H E ` E 9 9 x   ",
"                      ).).).).u ).o n n n n n p o                           ).>.).).>.).).x x x x x x p x   ",
"                      ).o ).).>.).n n n y n p n o                             ).x ).).).>.x n H T 9 9 n x   ",
"                        >.,.).>.).  n n n p y n ).                            ).).u ).>.>.).x n H 9 v n x   ",
"                      y u >.,.>.>.>.n y n B y o                               D D ).u >.>.>.x B H T x x     ",
"                    v u v u >.>.>.>.  o T G T ).                            w ^.>.>.>.>.>.>.  >.B Y z >.    ",
"                  v D D u >.,.>.>.>.  o y D D ).                          w y y D #.u >.>.    >.C D D >.    ",
"                D v u u >.>.>.>.>.    C w T C C                         y w D D >.>.>.>.      >.w T >.>.    ",
"                >.>.>.>.>.>.>.        z T z B w >.                      >.>.>.>.>.>.>.        z -.-.B w >.  ",
"                                    z z z B w w >.                                          -.-.-.B w w >.  ",
"                                  w w w w C C C >.                                        w w w w C C C >.  ",
"                                  >.>.>.>.>.>.>.                                          >.>.>.>.>.>.>.    "};
