/* XPM */
static char * former_sergeant_pain_xpm[] = {
"31 55 85 1",
" 	c None",
".	c #CF8353",
"+	c #DF9363",
"@	c #E79B6B",
"#	c #FFBF9B",
"$	c #FFB383",
"%	c #EFA373",
"&	c #D78B5B",
"*	c #9B633B",
"=	c #2F6323",
"-	c #3F832F",
";	c #B37347",
">	c #CB7F4F",
",	c #BF7B4B",
"'	c #CB5707",
")	c #F7AB7B",
"!	c #8F5F37",
"~	c #AB6F43",
"{	c #A36B3F",
"]	c #875733",
"^	c #EB6F0F",
"/	c #4F4F4F",
"(	c #731313",
"_	c #636363",
":	c #FF7F1B",
"<	c #5F4323",
"[	c #DF670F",
"}	c #FF0000",
"|	c #BF0000",
"1	c #FF8F3B",
"2	c #6B4727",
"3	c #533F1F",
"4	c #6B6B6B",
"5	c #777777",
"6	c #F37317",
"7	c #3B3B3B",
"8	c #2F2F2F",
"9	c #474747",
"0	c #575757",
"a	c #AF4300",
"b	c #B74700",
"c	c #434343",
"d	c #972F2F",
"e	c #9B3333",
"f	c #831F1F",
"g	c #7F1B1B",
"h	c #8B2323",
"i	c #373737",
"j	c #A73F3F",
"k	c #4B4B4B",
"l	c #1B1B1B",
"m	c #272727",
"n	c #771717",
"o	c #232323",
"p	c #332B13",
"q	c #8F2B2B",
"r	c #6B0F0F",
"s	c #774F2B",
"t	c #7F532F",
"u	c #0B0B0B",
"v	c #5B5B5B",
"w	c #7F7F7F",
"x	c #BB5757",
"y	c #AF4747",
"z	c #6F6F6F",
"A	c #A33B3B",
"B	c #2B230F",
"C	c #3F2F17",
"D	c #BF5B5B",
"E	c #5B0707",
"F	c #530707",
"G	c #4B371B",
"H	c #670B0B",
"I	c #4F0000",
"J	c #B34F4F",
"K	c #5B6347",
"L	c #53573B",
"M	c #474F33",
"N	c #1F170B",
"O	c #373F27",
"P	c #5F0707",
"Q	c #170F07",
"R	c #131313",
"S	c #470000",
"T	c #430000",
"                 .+@@+.        ",
"                .@#$%%&.*      ",
"               =-#-=-;>&,*     ",
"           '    $)),!.&&,*     ",
"               &~,@#$%;@{]     ",
"             ^ !/(_@,@>**]     ",
"               '(((:{.]*]<     ",
"             : [}|]1;&]23      ",
"             45*66:&&*]2       ",
"        77777890abba9999       ",
"      77c77cdeefghee99799978   ",
"     i7c77ce9edghej999c7k99778 ",
"     l87m7edeehndejek997k99c7m ",
"     ]]2o777ehnndee99ciplom8m8m",
"    ]>,!2888jjdqfrrf8ml<*.{]2mm",
"   ]~&&;]omffffdee9rooo!;>>__i2",
"   ]~&&;sm88i7j7ee78ooo!t//9iu]",
"   ]!;;!28o887999e9ccc/99iiouus",
"  i999!2oo88iccc890!!{]oouuo88<",
" i2,.,!3oo8c/vww!{xxxy<uu;dtool",
" i!~.~!332___z44<jjdAABChh!rlll",
" yy{]yDj2]i/ci88CnnnnnEFrn<<lm ",
"s!dyDyjeGCo8888lBHHEEEIIIlll3  ",
"3s<dyJejeqfmmlt!!!*!KLMmBl     ",
"CGCpednnrEEll2<<<CNGmOKBBB     ",
"BCCNrgnnPPFm8<<<<<G2MBOmBl     ",
"BCNNNrIIIImm8CCCCCGN7ooo8      ",
"BCNQl  molRRRlllloom7ioRuu     ",
" BQ   mmlRuomRllll888mlRRRl    ",
"     8Qm(h(o7Rmmml8778lRRRu    ",
"     m8hgml(olRRu88m8flRRRu    ",
"     oi8oo(mooRRllm8f(oRRRu    ",
"     omom8glllRRui8llllRRRu    ",
"     looggERllR u8fgrlllllu    ",
"      logrEloRR mmmrEE(RRR     ",
"      lgrER(lR   o8(FlEFlR     ",
"      QrEl(rRl   llllFFllR     ",
"      QolFrFlRl  Rl(EFlloR     ",
"      lollorlRR  Rll888lll     ",
"      l8ollluuu   lmmmmmR      ",
"      mlllllllm   RoooorR      ",
"      llllREERR   uRRRRuE      ",
"       llllRRlR   um88mlu      ",
"        lRRRlRR   lllllll      ",
"         lSloll   llm8mrl      ",
"         BNSSSS   lHm8mHl      ",
"          PPSSN   plH8nlp      ",
"         (TTPlS    lHn(Fp      ",
"        PPPITTT    FFFFN       ",
"       PrPPPIIT    (FF(N       ",
"      P((rPIITT    FgggFT      ",
"      TTTTTTT      Fghn(T      ",
"                   F(((FT      ",
"                   TFFFFT      ",
"                    TTTT       "};
