/* XPM */
static char * arachnotron_bolt_death_xpm[] = {
"185 33 27 1",
" 	c None",
".	c #FFFF00",
"+	c #FFFF73",
"@	c #FFFF47",
"#	c #FFFFB3",
"$	c #FFFFD7",
"%	c #FFFFFF",
"&	c #C39B2F",
"*	c #AF7B1F",
"=	c #D7BB43",
"-	c #27531B",
";	c #2F6323",
">	c #3F832F",
",	c #EBDB57",
"'	c #37732B",
")	c #4B9F3F",
"!	c #53AF47",
"~	c #5BBF4F",
"{	c #1F4317",
"]	c #5FCF57",
"^	c #FFFF8F",
"/	c #67DF5F",
"(	c #6FEF67",
"_	c #439337",
":	c #FFFF23",
"<	c #77FF6F",
"[	c #17330F",
"                                                     ...         +                                                                                                                       ",
"                                                   @.#@.        #  .                                                                                                                     ",
"                                                 @@@  .##@@     $  .                     .+.  #+     @                                                                                   ",
"                                                @@      @$%%%# #%   ..                  .  +.# .+   @ .                                                                                  ",
"                                          @@@@. @    @@@#%###%%#    .                    ..+.#  @ .+@                                                                                    ",
"               &***&&&                 .@@   .@@@   @%%$$#@@@#$@    . .              .%   ..#@@ @@.                                                                                      ",
"             &**=-;;&**&              @         @   $$+@%$#@@@$@  ..  .               ##..@@%@@                             .                                                            ",
"            &=;;;&*;=;;-*             @@   .   %@+++$++$$$%+@@%@@ .    .               % ..@#%@   # @.                       ..                                                          ",
"          **;>&,,*-;;=;''*              @  @#$$%+$+$%$$$%$$#++#$$$@@...                #%@@++%%@  @#. .                      .#.  @                                                      ",
"          *;;>=-'',)'='-*;&             +  ##@%$$$$$%%%%%%$##+++@#%  .              @@@+%#+#+%@#+@@%   .                  + ..#. .@                                                      ",
"         &;*&&!,;)++,=))&*;&            .##   @%%$$$%%%%%%$$$#++@@$  +              .@@@%%##%%#%#+%#.                      %@+##+@%+@@                                                   ",
"        &&==&,!~)+),!)+)-&;**            @@   @%%#%%%%%%%%%%%%#++@$. +              @++#%%%#%%%%%##+#.                     .#%#++@@@+@  .                                                ",
"        **;&=@!~~~~!!!!+'&&**           .     $%%%%%%$$%%%%%%%#++$$..@  @.          +@+%#%%%%%%%%#%+%.                   .@@##+%%%%%#+#%                                                 ",
"       &*;{*@'@]!~~~~!^+'&;-*&         .     @$$$%%%%%%%$%%%%%%+@$$#.+@        ..  %@@###%%%%%%%%%%+#.                  . @###%%%%%#%%%                              @+@                 ",
"       *{{;->@!~/]]((^!=&'--'&        .  @   @##$%%%$$$%%%%%%%#+$@$%$+$@        .@.@%@%%%%%%%%%$%%%%+#..                . %+#%%$$$%%%+@                             @#%#@                ",
"       *-{->)!^@]((##!])=-'';*        . .@@@@$$#$%%%%$$$%%%%%%%$$@@$$.+.+          .@@%%%%$$$$$$%%%%+@#.               .+#%##%%$%$%%##+@ +                         @#%%%#@               ",
"       *{>>-_!!:@^#</]]!&{''&&         .%$$#%%$%#%%%%$%%%%%%%%%%$$@#$$$$$           .@%#%$$%%$%$%%%%%+%@.               @@@+%%%%$$%%%%%%@#                         +%%%%%+               ",
"       &{>-__!:]]^###~!!,=&*;&         .%@@@+#$$%%%%%$$$$%%%%%%%%$#$%#%%       ..  .++#%%$$%%$$$%%%%%%#@.               .@%##%%%$$%%%@%@@ #                        @#%%%#@               ",
"       &&&---)@~]^((]#)),)-*;*        .#..@@@+#$+%%%%%%%%%%%%%#+#$$+$$+.         ...#+@%%$$$%%%%%%%#+%%@.               #+#@%%%%$$$%%#@   +                         @#%#@                ",
"       *&;&-):~~^]](~~#+*-*;*&       ## ....@@+$$%#%%%%$$%%%%%#++#@ .$$          %#+++%%%%%%%%%%%%+%%%#@.               %##+##%%%%%##@  @                            @+@                 ",
"        &-;,:))~/^//~!),=-*;*         .   ..@@$$%%%%%%%%%%%%%##%@#++           ..#+####+%%%%%%%%%%%#+@+@                + ##+#%%%%%%#@@#..                                               ",
"        *-*&,*;/!!::+=,-,';**          .    #%$$%+#%%%%%%%%%$#+@@#@@++        . ....+%###%%%%%%%%##+++@                    ##++++++%# .@ @                                               ",
"         =;*&=+;;+~=&;-{!=!&           .    #%%%%$$%%%%%%%%$$##%%%+           .    .@#######%%#%##+@#%#+                    %+@@ @#..  .  @                                              ",
"          =*,&;*=,,/;-[**;&              .%..###%$%%%%%%%%%###%#@+..                .#@@%%++%+#++++#%+@#                    #@+###.   .                                                  ",
"          &=)'-=*==/&*&*;&&             #%. . @@+#%%%%$$#%%$$%%#@ .                 %.@@#@+#%+#@++###   @#                 @  ...                                                        ",
"            =-&;;*&=*&;;&                .  .  @+@#$$$$@+@+$%$$$#+.               ++  .@@#%%#@%####%      +                #                                                             ",
"             &&*&;*)=*&&                       .@+#%#@..@++$%@@#%+                       @@#+@+%## #                                                                                     ",
"               &&&&&&&                           #%##@. @+$+ %%%%+                     . . #+@@+%# +                                                                                     ",
"                                                 #%#@.  @%+  #. #%                      ...++@.##%+.                                                                                     ",
"                                                  ##.   @$#+##                            ..##+                                                                                          ",
"                                                    @    #%##                              .#                                                                                            ",
"                                                          @##+                                                                                                                           ",
"                                                           .@+                                                                                                                           "};
