/* XPM */
static char * arachnotron_bolt_live_xpm[] = {
"30 15 21 1",
" 	c None",
".	c #5BBF4F",
"+	c #5FCF57",
"@	c #FFFF47",
"#	c #3F832F",
"$	c #77FF6F",
"%	c #53AF47",
"&	c #1F4317",
"*	c #2F6323",
"=	c #27531B",
"-	c #67DF5F",
";	c #4B9F3F",
">	c #FFFF6B",
",	c #439337",
"'	c #FFFF73",
")	c #FFFF8F",
"!	c #FFFFB3",
"~	c #FFFF23",
"{	c #FFFFD7",
"]	c #FFFF00",
"^	c #FFFFFF",
"       .                      ",
"       +        @           @ ",
"      #$#        @   #%#   @  ",
"    &*%@%=&       @-#%+%#-@   ",
"   &*;$>$,*&      -@$+$+$@-   ",
"  &#;'@)@',*&    ##$@>!~>$,#  ",
"  #%$@){)@$%#    #%+]!{!]+%#  ",
".+$@>){^{)>@$+.  %+>!{^{!>+%  ",
"  #%$@){)@$%#    #%+]!{!>+%#  ",
"  *#.'@)@'%#*    *#.@]!]@$##  ",
"   &*%$>$%*&      -@$+$.$@-   ",
"    &#%@%*&       @-#%+%#-@   ",
"      ,$,        @   ,%,   @  ",
"       +        @           @ ",
"       .                      "};
