/* XPM */
static char * baron_of_hell_idle_xpm[] = {
"50 72 82 1",
" 	c None",
".	c #CB6B6B",
"+	c #DF8787",
"@	c #E78F8F",
"#	c #474747",
"$	c #838383",
"%	c #6B6B6B",
"&	c #D37373",
"*	c #DB7B7B",
"=	c #BF5B5B",
"-	c #AF4747",
";	c #939393",
">	c #BFBFBF",
",	c #ABABAB",
"'	c #9F9F9F",
")	c #972F2F",
"!	c #C76363",
"~	c #F7ABAB",
"{	c #8F2B2B",
"]	c #636363",
"^	c #5F0707",
"/	c #8B8B8B",
"(	c #831F1F",
"_	c #434343",
":	c #A7A7A7",
"<	c #B34F4F",
"[	c #777777",
"}	c #670B0B",
"|	c #2F2F2F",
"1	c #8B2323",
"2	c #EB9797",
"3	c #430000",
"4	c #470000",
"5	c #7F1B1B",
"6	c #771717",
"7	c #F3A3A3",
"8	c #BB5757",
"9	c #9B3333",
"0	c #530707",
"a	c #A33B3B",
"b	c #A73F3F",
"c	c #731313",
"d	c #4F0000",
"e	c #6B0F0F",
"f	c #5B0707",
"g	c #FFB7B7",
"h	c #CB7F4F",
"i	c #9B633B",
"j	c #3F832F",
"k	c #BF7B4B",
"l	c #DF9363",
"m	c #E79B6B",
"n	c #F7AB7B",
"o	c #875733",
"p	c #27531B",
"q	c #000000",
"r	c #2F6323",
"s	c #5F4323",
"t	c #8F5F37",
"u	c #B37347",
"v	c #37732B",
"w	c #4B371B",
"x	c #EFA373",
"y	c #4B9F3F",
"z	c #774F2B",
"A	c #7F532F",
"B	c #6B4727",
"C	c #AB6F43",
"D	c #CF8353",
"E	c #A36B3F",
"F	c #3F2F17",
"G	c #17330F",
"H	c #2B230F",
"I	c #D78B5B",
"J	c #533F1F",
"K	c #439337",
"L	c #1F4317",
"M	c #332B13",
"N	c #272727",
"O	c #373737",
"P	c #3B3B3B",
"Q	c #232323",
"                .+@@@                             ",
"               .#$$%@@        &@**=               ",
"               -;>,')&=*@@**!*@~.%%%              ",
"               {;>$]^=@@~~~~~*@~/,,//             ",
"               (_:]#^=&@@@@@@&<*];/,[             ",
"                }%||1!(~@=@=&2<^___,]             ",
"                  33=24<~2122<}54___              ",
"                   6~~<))<}<)){!{                 ",
"                   {<-).@@77*8!2*                 ",
"                   5^33#7@5558{{                  ",
"                  953}33[8550a#<=                 ",
"                 =b5^c333{{{{{31<                 ",
"                =b5d^(33333336305.                ",
"               =b9^d^9(333333{^0e<.               ",
"           888bbb54(9-+333333!e905<+              ",
"         !***9bb9e98a=$933331$9aa11..++           ",
"        )*8-2=9<b=&819=######99{8=<a<<.+!         ",
"       )8b(&*+=+22+++!91333319{*+&&**&<.!         ",
"       d-1a8<<<&&&&+++!=)9^^9b8&&&==.*!<-b        ",
"      ^)15-)11b===&&&&&!<)9(9<8=888-b--91a        ",
"      ^((e)1c^^{9b<=88=!b))e9<8<<-9))1))e9        ",
"     1(9.295fd}6{1)9b<<bb)9()ab999111(55e9        ",
"    ^1b=~g+{ed4ee651)999919())9))((1(eeee(9       ",
"   (e19<.+!bedc0^e66(((91e1e5111(((c^}cee(9       ",
"   91159bab1dd}c0d^}c}}}^191e5((((c^4}^}1(9       ",
"  }1))))51)(d3344edddddd1999)c}fddd04}c}(19       ",
"  }1=---9})^ 34330^^^e5111e(1(eeee334ffe}(9(      ",
"  }1!88hhiejj34300^eee}^033335(1e33044feee^(      ",
"  }11klmmln==jd400^^^d^e(c3feee}03  f4444e0(^     ",
"  64bkllioojjp 400^}66{b(5^18<)e0    qdd^1(6^     ",
"  rstkklujjvpp 440^e51<15ce1b)1^^4   ^ec1b16d     ",
" rjiwtiklxy   }^40^^f^c11c5ee^(e(00  }}19<166^    ",
" prjwztixxyvpecc^0^^^ea81c5aaa1)-50   }699166^    ",
"  pjywszABjjp9cc^^^^1(9a1c)<!b{=-(54  0e61116^    ",
"j  jjyCDDBj  (((d^c(e}e()5)91{&<o9(4   0e6616^    ",
"  prjjjjjjjr 0(BB88{aece1){{88<ECAwF   0e0e66^    ",
"  Gpr rjp pp FFBB{{=-{6}4^({8<iiiAFFF   }006^^    ",
"      pp     FBziiA{<88-{8-8-ztttAFFHF jxluissr   ",
"    p   v    tuhhhhE{{--<<-{BzAAooBFFHFjiuuiizjr  ",
"          v ttCkhImnhAzAAAAiAtzsBzBswFF jJziizjvr ",
"            AtEuhkuCiuAsBBAEukuiBJJJswHsjrzoisjvp ",
"           ABtoittzzosBJsJJtEuhkCizwwJFpjKoozsjp  ",
"           BsBoAsBBAzBJJJJJstukhkCiAswprKyozBsj  j",
"          sziizBBBzozsswFFsJBtukhkCoBJjyxozJBrvp  ",
"          sBzozotitABJwJw wssAtuhhkiABjvjjJJBvrp  ",
"          sBzAAtABsJJwwF   FssAtCkkCiAJpyhCBrjpG  ",
"          sBzzAzBssJwwwF    sBsAtCkkEAJpLpjjjr    ",
"          sBzzzBBsJJwwF      sJAAiCkEoswMw prp    ",
"          sszzBBssJwwFw      sBsAiCuiossFHs       ",
"          oBtsBBssJwww        JJzAttoABJJFs   r   ",
"          zihzJssJJwFw        FwJzAzBBBsAFs       ",
"         zouttsJzJwwF          wwJAtJssstFs       ",
"         oCukiotzsFwF          FwwsCBsszkAst      ",
"        zChkIIIkizwwJ          JFwwDizEEDtBt      ",
"        BhIkkkkkiAzFz           FBACDkkDDEtBz     ",
"       itIIkkCCCtzsH            FBoEkDDkkuEtz     ",
"       ChIIkkCCtBBBw            FJoEuDDkkkDiB     ",
"      DmmmmDuAtBsBF             FJziEkkkkkkEz     ",
"      kIIIImhooBssw              FszooiCukkiA     ",
"     iswoEhhhiAJsw               FssBzoCkhkiz     ",
"     wwsssssAiAw                  JJsBoCuuuiz     ",
"    ikhIIIiAFww                   FJBzthIIIIIu    ",
"    |z||z|AJzFw                    JzthIuoszttz   ",
"   NzOPPtOB|wwt                    AJhIEAwFFwwF   ",
"   NOPPPPOO|w|Q                     JEJtkIIIIIt   ",
"   NOP_PPOO|w|Q                     FFJzstPPtPsP  ",
"  NOOP__PPOO||Q                      FJz|uP_uPPA  ",
"  QOP____POOQQ                      QFFz|P__PPPAP ",
"   QQ||||NQQ                        QQN|PP__PPP|N ",
"                                    QQN|PP___PP|N ",
"                                     QQ|P__#__P|N ",
"                                      NQNN|||NNQ  "};
