/* XPM */
static char * baron_of_hell_walk_xpm[] = {
"196 74 90 1",
" 	c None",
".	c #606060",
"+	c #808080",
"@	c #E48C8C",
"#	c #D87878",
"$	c #B85454",
"%	c #C86868",
"&	c #4C4C4C",
"*	c #383838",
"=	c #DC8484",
"-	c #F4A8A8",
";	c #D07070",
">	c #F0A0A0",
",	c #949494",
"'	c #747474",
")	c #545454",
"!	c #BC5858",
"~	c #9C9C9C",
"{	c #686868",
"]	c #A43C3C",
"^	c #C46060",
"/	c #E89494",
"(	c #983030",
"_	c #BCBCBC",
":	c #7C7C7C",
"<	c #B0B0B0",
"[	c #A8A8A8",
"}	c #909090",
"|	c #8C2828",
"1	c #202020",
"2	c #882020",
"3	c #A03838",
"4	c #701010",
"5	c #404040",
"6	c #343434",
"7	c #B4B4B4",
"8	c #6C6C6C",
"9	c #500404",
"0	c #FCB4B4",
"a	c #680C0C",
"b	c #942C2C",
"c	c #B04C4C",
"d	c #4C0000",
"e	c #7C1818",
"f	c #242424",
"g	c #801C1C",
"h	c #5C0404",
"i	c #AC4444",
"j	c #741414",
"k	c #440000",
"l	c #580404",
"m	c #400000",
"n	c #640808",
"o	c #000000",
"p	c #444444",
"q	c #2C2C2C",
"r	c #1C4014",
"s	c #245018",
"t	c #2C6020",
"u	c #A0683C",
"v	c #986038",
"w	c #347028",
"x	c #D48858",
"y	c #BC7848",
"z	c #DC9060",
"A	c #B07044",
"B	c #489C3C",
"C	c #E49868",
"D	c #C87C4C",
"E	c #684424",
"F	c #8C5C34",
"G	c #5C4020",
"H	c #3C802C",
"I	c #845430",
"J	c #503C1C",
"K	c #483418",
"L	c #3C2C14",
"M	c #A86C40",
"N	c #14300C",
"O	c #7C502C",
"P	c #744C28",
"Q	c #28200C",
"R	c #409034",
"S	c #ECA070",
"T	c #F4A878",
"U	c #302810",
"V	c #CC8050",
"W	c #FCB080",
"X	c #585858",
"Y	c #888888",
"             ...+@@#       #@$..                                %%             %                                   ..$@#       #@@+...                               %             %%               ",
"            &++*=--@#====;->$,,,'                            )''!@#%  !!!!   %#!'')                               ',,,$>-;====#@--=*++&                           )''!#%   !!!!  %#@!'')            ",
"           &+~{]^=@-=--/#-#=(&'_,.                          .:<[}|>@^%@@@%$@@>^}[<:.                             .,_'&(=#-#/--=-@=^]{~+&                         .:<[}^>@@$%@@@%^@>|}[<:.           ",
"           1_~12$]^3@@/=(=!!41&_,5                         6)7,8.9%@>@>0>@%/@%3.8,7)6                            5,_&14!!=(=/@@3^]$21~_1                        6)7,8.3%@/%@>0>@>@%9.8,7)6          ",
"           6:~1abb!]^@^c(^(bd._,)1                         6)7'55ebb%%@@@%(%$((55'7)6                            1),_.db(^(c^@^]!bba1~:6                        6)7'55(($%(%@@@%%bbe55'7)6          ",
"            66 1a(=!===!!ce44'&)&                           6)}ffghi(c%%%(|i4jjff~)6                              &)&'44ec!!===!=(a1 66                          6)~ffjj4i|(%%%c(ihgff})6           ",
"                 (/==@==;/(k9]!                              66 llh];%!c!;$%gmll 66                                 !]9k(/;==@==/(                                66 llmg%$;!c!%;]hll 66            ",
"                 k-0@^>0>$kk$                                     n$@#=%=%#=4o^                                       $kk$>0>^@0-k                                    ^o4=#%=%=#@$n                 ",
"                 ba!3(]c2d]k                                      (h@>@]@>>]e(                                         k]d2c](3!ab                                     (e]>>@]@>@h(                 ",
"                =%ghgehkke%%!                                     %^mhedhhhe(%                                        !%%ekkheghg%=                                    %(ehhhdehm^%                 ",
"               !c=$(i%ie]%=/k                                    #@#]a232aac!#%                                       k/=%]ei%i($=c!                                  %#!caa232a]#@#                ",
"               c2o2]=/#4ba^]o]!                                 ib@3|(%$%(!4#%22                                    !]o]^ab4#/=]2o2c                                 22%#4!(%$%(|3@bi               ",
"              %eaa]=^^=$9khkg(]!                               i29lo%c/#/c%mnnj$$                                  !](gkhk9$=^^=]aae%                               $$jnnm%c/#/c%ol92i              ",
"             %caa|]$mmb2agkgdg(]!                             (4mneo#^(!(^#m2mmb$$                                !](gdgkga2bmm$]|aac%                             $$bmm2m#^(!(^#oenm4(             ",
"            =ce2(]=h2g(k/]k(gke]!!                           ]]jl2e((ik99(|(jmmmb$(                              !!]ekg(k]/k(g2h=](2ec=                           ($bmmmj(|(99ki((e2lj]]            ",
"         ==%%2233^pc33c!8^d3$(a(]](###^                   >=;$enbiec=h2g(k/c22mmmj$i=%==                    ^###(]](a($3d^8!c33cp^3322%%==                   ==%=i$jmmm22c/k(g2h=ceibne$;=>         ",
"       ^=%cc3c!$|caqq**2j$d2$;!]c(!/i$#b                =@%$$!b]]]e^pc33c!8^b](2l4e]($ic$                  b#$i/!(c]!;$2d$j2**qqac|$!c3cc%=^                $ci$(]e4l2(]b^8!c33cp^e]]]b!$$%@=       ",
"       ^%c;##;;=#||n9dd92g^===//=!=#;g]$b              i$;%@@^]^$c3]cqq**2b]lgi]eb]b%=^b((                b$]g;#=!=//===^g29dd9n||#=;;##;c%^               ((b^=%b]be]igl]b2**qqc]3c$^]^@@%;$i      ",
"      ]ic^#%!!;;;$](hh(b!^===;;;;ccc$32id             ($]!@@@%$^;#=@bbdmlh^/=;;^%^i]^@#3ngb               di23$ccc;;;;===^!b(hh(]$;;;!!%#^ci]             bgn3#@^]i^%^;;=/^hlmdbb@=#;^$%@@@!]$(     ",
"      32(ii]]$$$!$c(g(bc^;;;^;!!!]22bie2bh            n(|$^$!!i$cccccbjgb$ccccccc3|e$$339je              hb2eib22]!!!;^;;;^cb(g(c$!$$$]]ii(23             ej933$$e|3ccccccc$bgjbccccc$i!!$^$|(n     ",
"      (aib2bb($cc$c(abb]^!$$!c](ghh42baggh            k|eibb(]]]iicc]|nb(]cciii]]|eebghnlnj              hggab24hhg(]c!$$!^]bba(c$cc$(bb2bia(             jnlnhgbee|]]iiicc](bn|]ccii]]](bbie|k     ",
"      (aeeg222(((]32g(b]]cc](b24hne(/%(g2h            94eeg4e2(]]]]]]e9be]ii]]](beeegdlndlnn             h2g(%/(enh42b(]cc]]b(g23](((222geea(            nnldnldgeeeb(]]]ii]eb9e]]]]]](2e4gee49     ",
"     (gaaaag2ggbb(bbg(2((((b2eagak|=0-!]2h            ljjneeee2b((((2nebeb((((((|g4jmmml9jan2            h2]!-0=|kagae2b((((2(gbb(bbgg2gaaaag(          2naj9lmmmj4g|((((((beben2((((b2eeeenjjl     ",
"     (gaa4nh4ggg222ea2a2(gggg2ahg4]^=%c(2ag          g|gnnnneeee2||244j|e||||||eegjmmm4|;%|nn           ga2(c%=^]4gha2gggg(2a2ae222ggg4hn4aag(          nn|%;|4mmmjgee||||||e|j442||2eeeennnng|g    ",
"     (g2nhnkh4ggggea2(2hnnn4nhd24n2]3]((22(n        g(%=|4nkmne4eeeejjhjgeeeeeejgnmmme(]$$|gnj         n(22((]3]2n42dhn4nnnh2(2aegggg4hknhn2g(         jng|$$](emmmngjeeeeeegjhjjeeee4enmkn4|=%(g   ",
"     (2gn4nk9dddln4b(((2ddddddakkogb2((g2b]n        (i$](bbgm|jnjjjjjhee4hjnnnhllmhjlgbbbb|4nn         n]b2g((2bgokkadddddd2(((b4nlddd9kn4ng2(         nn4|bbbbgljhmllhnnnjh4eehjjjjjnj|mgbb(]$i(   ",
"    g(gnallkmmaaaag2ga222eahhhhkkkhb((2g(!(n       g(]](]eenhhejh9nnng2b2lmddldmmnhlmheggegjnja        n(!(g2((bhkkkhhhhae222ag2gaaaammkllang(g       ajnjgeggehmlhnmmdlddml2b2gnnn9hjehhnee](]](g  ",
"    ghaaalkk9mma2geah999hnaaarsrrkdag^^$#-!(       ((|begjlnmmllllhjee222gjlldmdhlll9ljgjjnnj|e        (!-#$^^gadkrrsraaanh999haeg2amm9kklaaahg       e|jnnjjgjl9lllhdmdlljg222eejhllllmmnljgeb|((  ",
"    g9akkkkl  m9naaaaahgahdhrtuvtw d^-=^^==4n      gjeeen9lkm hdjejjndmmmdhnnnlmkmnh hlnjnlll((a      n4==^^=-^d wtvutrhdhaghaaaaan9m  lkkkka9g      a((lllnjnlh hnmkmlnnnhdmmmdnjjejdh mkl9neeejg  ",
"    gg2hddok   9abc$2ahe2(]2tuxyzA=b0-=!##$]k     gj4nnldll9   mggjndna9ah9m9lk9lma   alhhnm]cc(a     k]$##!=-0b=Azyxut2](2eha2$cba9   koddh2gg     a(cc]mnhhla   aml9kl9m9ha9andnjggm   9lldlnn4jg ",
"    g4]24ahok  hh2b]24ae2c29BxCyyun$0@=!#!$2h     e4jllmmmh    hegbibgn9jjeebhklmm      nmm(%%^c(     h2$!#!=@0$nuyyCxB92c2ea42]b2hh  koha42]4g     (c^%%(mmn      mmlkhbeejj9ngbibgeh    hmmmllj4e ",
"     hc(22gkk 9gaghaae4224hrDzAvvvE=@#^!!2hkk    bb!(jjmmh    |mhhe(^(h9n(c(jlmmom       mc%@@c#(g    kkh2!!^#@=EvvvAzDrh4224eaahgag9 kkg22(ch     g(#c@@%cm       mommlj(c(n9h(^(ehhm|    hmmjj(!bb",
"     d((2ea9k9eib2333e4233atxDFEGGE^=#!((d9k     i!##!ina    $lgajlnjjhl4ee9lmmmmoa      |3#/@c$((     k9d((!#=^EGGEFDxta3324e3332bie9k9ae2((d     (($c@/#3|      aommmml9ee4lhjjnljagl$    ani!##!i",
"     a2b2eakkegi!|]^cb423(gHAvGGGGvb3eaedhk      (!@@#%(h    le(ge(jmkhlejhggmmmmmo      e(;@#]ibg      khdeae3bvGGGGvAHg(324bc^]|!igekkae2b2a     gbi]#@;(e      ommmmmgghjelhkmj(eg(el    h(%#@@!(",
"      9e2akhkg(I%;|2(bebgantGJKLKrhnhhakk        e%@@;^]ed  ]eiiih3c3eenggi(gkmh9nnh     9e^#^]$|g        kkahhnhrKLKJGtnagbeb(2|;%I(gkhka2e9      g|$]^#^e9     hnn9hmkg(iggnee3c3hiiie]  de]^;@@%e",
"      aaeekgkKMMu%;$ccb2a4a3sKKKrh9kk            a^;@!(]ed  niie]|nbeeejeejhllJ(h4em     9nc#%(i|g            kk9hrKKKs3a4a2bcc$;%uMMKkgkeeaa      g|i(%#cn9     me4h(Jllhjeejeeebn|]eiin  de](!@;^a",
"       haeahkIFA!u%#^$cbcbc|LsrNNNws             9i!#^]bed  hg(uO||nge2jjnn|(PPJLnbm      9]%%((2n             swNNNrsL|cbcbc$^#%u!AFIkhaeah       n2((%%]9      mbnLJPP(|nnjj2egn||Ou(gh  deb]^#!i9",
"       abaedkAODzxuu%!]c]^PLPPEJEQsr             e(!;^]2h    LFvyOi$b|bje(Fi|GPJJLQQ   R  |$#%gmg              rsQEJEPPLP^]c]!%uuxzDOAkdeaba        gmg%#$|  R   QQLJJPG|iF(ejb|b$iOyvFL    h2]^;!(e",
"        a2adaDFDxSTCDFiiiPUKJEOPEJo              2e!;%c2d    LEIuvO|$i|((A$|JOPEEJQ     HH($@%gl                oJEPOEJKUPiiiFDCTSxDFDada2a          lg%@$(HH     QJEEPOJ|$A((|i$|OvuIEL    d2c%;!e2",
"        h24]eIMMxxSDAMuOILLJJKJKKJoP              9|@%]j  t EEvADxDO|$ciciPJOFvvFELQ  tHCCA;%igg               PoJKKJKJJLLIOuMADSxxMMIe]42h          ggi%;ACCHt  QLEFvvFOJPicic$|ODxDAvEE t  j]%@|9 ",
"         he2JIFFMAuyzzDIJLLQQLLLJJQP              gi#$bjtt  JOMyDDxxu||i|JGEOOOOOOEL tADvACi2jd                PQJJLLLQQLLJIDzzyuAMFFIJ2eh            dj2iCAvDAt LEOOOOOOEGJ|i||uxxDDyMOJ  ttjb$#ig ",
"          jKKOIIFMxCxDIJLLLLLQQQLJQ               be%;v!!zHtLOuyAuvIIOEEEJEPEEEGJLLL HFAEFAPPKg                 QJLQQQLLLLLJIDxCxMFIIOKKj             gKPPAFEAFH LLLJGEEEPEJEEEOIIvuAyuOLtHz!!v;%eb ",
"        w wGJEFMMDDyAMPJLUQLLLLQQQP               bhc;CCvyDHLPvuvIOFvOOOPEEGGGJJEEGLQHLFAAvEELH                 PQQQLLLLQULJPMAyDDMMFEJGw w           HLEEvAAFLHQLGEEJJGGGEEPOOOvFOIvuvPLHDyvCC;chb ",
"        ss wwUAMAyuMMFPJUQQQLLLLQQ                 e(%yyDyOKGPOvAADyAvFPJJJEPEEJEEEJQtKGEEEGLLt                  QQLLLLQQQUJPFMMuyAMAUww ss           tLLGEEEGKtQJEEEJEEPEJJJPFvAyDAAvOPGKOyDyy%(e  ",
"             EMuMuuuuFEKUQQQQLLLKQ                 enMFOvOPKGOvyMMvIOGJJLLKGEPPEJGGEQtKKKKJLLt                   QKLLLQQQQUKEFuuuuMuME                 tLLJKKKKtQEGGJEPPEGKLLJJGOIvMMyvOGKPOvOFMne  ",
"             FOFMMFMFFGLKQQQLQLLLU                  |EIGGGGKGOvvvvIOGJLLULKGGEPPEKGGQ tKKKKKt                    ULLLQLQQQKLGFFMFMMFOF                  tKKKKKt QGGKEPPEGGKLULLJGOIvvvvOGKGGGGIE|   ",
"             PPFuMFMIIJUJQQQLLQLQI                  tOEGKKKKGPIFFFOEEJJLULKJGEEEEJLKQ  sttts Rw                  IQLQLLQQQJUJIIMFMuFPP                wR sttts  QKLJEEEEGJKLULJJEEOFFFIPGKKKKGEOt   ",
"             PPIFFOFOPJUEQQQQLLKU                    stKKLKLGGIFFOPEJJJLUULKJGEEEGLLQ                             UKLLQQQQEUJPOFOFFIPP                          QLLGEEEGJKLUULJJJEPOFFIGGLKLKKts    ",
"            PPPPIIPIPPJLEQQQQQQQJ                     stttsLJGOIIPPEJGL LULKJGGGGJKQ                              JQQQQQQQELJPPIPIIPPPP                          QKJGGGGJKLUL LGJEPPIIOGJLsttts     ",
"            POIGPIEPEELLEQQQQQQQJ                          LEJOOOPEGJGL  UULKJJJJKLQ                              JQQQQQQQELLEEPEIPGIOP                          QLKJJJJKLUU  LGJGEPOOOJEL          ",
"            JPIEGPEGJJLJPQLJUUQJL                          LEEGPPGGJJJL  UULKKKKKLQQ                              LJQUUJLQPJLJJGEPGEIPJ                          QQLKKKKKLUU  LJJJGGPPGEEL          ",
"            LJIIEJEEJLLEGQQEKKLFQ                          GJEEEEGEJJLL  LLKLLLLLLL                               QFLKKEQQGELLJEEJEIIJL                           LLLLLLLKLL  LLJJEGEEEEJG          ",
"             JOyIJJPuLEGKQLPKGJOGM                         PKPEEJGJJJLL LKKLJEPPPFIJ                             MGOJGKPLQKGELuPJJIyOJ                           JIFPPPEJLKKL LLJJJGJEEPKP          ",
"             PIzIPPIyJKLLLLEGEGEIE                          LFOJGEJLJo  LKJGEEGGEGPG                             EIEGEGELLLLKJyIPPIzIP                           GPGEGGEEGJKL  oJLJEGJOFL           ",
"             PDSAAuuyJJLUUJGEEEEIK                         yGvAJLJPKJo  LLGOIvvAAAMFG                            KIEEEEGJUULJJyuuAASDP                          GFMAAAvvIOGLL  oJKPJLJAvGy          ",
"             PCADDxyAFOJULKGEIEEEK                        AGuFAOJOIJJo  LLOvvuDxxyyMP                            KEEEIEGKLUJOFAyxDDACP                          PMyyxxDuvvOLL  oJJIOJOAFuGA         ",
"            FMDDxzxDAuOEULLJPFJJQI                        IFuyyAuAvEKL   LPAyMDxxVyMP                            IQJJFPJLLUEOuADxzxDDMF                         PMyVxxDMyAPL   LKEvAuAyyuFI         ",
"            FMDDzCDAMuFEUQLJPPLJJ                         IuVyxxxDyvGL   LOyyMDDVVyMG                             JJLPPJLQUEFuMADCzDDMF                         GMyVVDDMyyOL   LGvyDxxxyVuI         ",
"            EMDDzzDvuFFEUQGPIJPPGP                        PuxDxxxDAvEL   LJAyAvDVVyFG                            PGPPJIPGQUEFFuvDzzDDME                         GFyVVDvAyAJL   LEvADxxxDxuP         ",
"            EPMDzzDFMFEJULPIJLJIEI                        PuyADxyAvIOL   LLOuAPyVVvI                             IEIJLJIPLUJEFMFDzzDMPE                          IvVVyPAuOLL   LOIvAyxDAyuP         ",
"            EGuCSWSCMGJLUJEIuvvIEG                        GFAADxuvvOJL    LGFuVzzzVyI                            GEIvvuIEJULJGMCSWSCuGE                         IyVzzzVuFGL    LJOvvuxDAAFG         ",
"            EJzDxDDDzLLLQJIGGfGGIJ                        LPvyxzAvAELL    LLvVvDAFFVAI                           JIGGfGGIJQLLLzDDDxDzJE                        IAVFFADvVvLL    LLEAvAzxyvPL         ",
"            EAMSMFMSIAOLQfGfE6EfGK                         LvDzzyvOLL      LMvVvEJJJPA                           KGfE6EfGfQLOAISMFMSMAE                        APJJJEvVvML      LLOvyzzDvL          ",
"            OExyPJPyxEO fqG*E6E6Gq                         FDCCCxyvoL      JOVPvyxxyFE                           qG6E6E*Gqf OExyPJPyxEO                        EFyxxyvPVOJ      LovyxCCCDF          ",
"            OIEMyDyMEIO f**66666*6f                        uxMOOMxuL       JLPyu1u11uF                          f6*66666**f OIEMyDyMEIO                        Fu11u1uyPLJ       LuxMOOMxu          ",
"            OQFFPMPMFQO f*66**6666f                       uPFOOOOOvL       LPJ1O5&)&5qF                         f6666**66*f OQFMPMPFFQO                       Fq5&)&5O1JPL       LvOOOOOFPu         ",
"            uPJFqPqFJPu 1566*5*6661                       PPDxCCxAPLJ      JJO155&{&561                         1666*5*6651 uPJFqPqFJPu                       165&{&551OJJ      JLPAxCCxDPP         ",
"             G1Pp&pP1G   11fffffq1                        JvEI11OKuUU      LJJ65&+,+&611                         1qfffff11   G1Pp&pP1G                       116&+,+&56JJL      UUuKO11IEvJ         ",
"            .165&.&5q1.                                   qP6up5uqGGU      Lf6p*X{+{X*q1                                    .1q5&.&561.                      1q*X{+{X*p6fL      UGGqu5pu6Pq         ",
"            &f6p)8)pqf&                                   1Ppp&pp6qG1      1f6q111111111                                    &fqp)8)p6f&                      111111111q6f1      1Gq6pp&ppP1         ",
"            *q6){:{)qq*                                  165p&X&p6611       1111111111*                                     *qq){:{)6q*                       *1111111111       1166p&X&p561        ",
"            1qp.'Y'.pq1                                  16p&&X&pp6q1                                                       1qp.'Y'.pq1                                         1q6pp&X&&p61        ",
"             qf*555*fq                                   15&&XXX&p61                                                         qf*555*fq                                           16p&XXX&&51        ",
"                                                          1q*5p5*q1                                                                                                               1q*5p5*q1         "};
