/* XPM */
static char * baron_of_hell_idle_xpm[] = {
"49 76 79 1",
" 	c None",
".	c #CB6B6B",
"+	c #575757",
"@	c #777777",
"#	c #BF5B5B",
"$	c #E78F8F",
"%	c #DB7B7B",
"&	c #636363",
"*	c #7F7F7F",
"=	c #B3B3B3",
"-	c #ABABAB",
";	c #939393",
">	c #8F2B2B",
",	c #F3A3A3",
"'	c #C76363",
")	c #BB5757",
"!	c #373737",
"~	c #B7B7B7",
"{	c #979797",
"]	c #6F6F6F",
"^	c #530707",
"/	c #FFB7B7",
"(	c #EB9797",
"_	c #A33B3B",
":	c #434343",
"<	c #7F1B1B",
"[	c #972F2F",
"}	c #9B3333",
"|	c #272727",
"1	c #831F1F",
"2	c #5F0707",
"3	c #AF4747",
"4	c #B34F4F",
"5	c #731313",
"6	c #771717",
"7	c #9F9F9F",
"8	c #5B0707",
"9	c #A73F3F",
"0	c #D37373",
"a	c #430000",
"b	c #670B0B",
"c	c #DF8787",
"d	c #000000",
"e	c #4F0000",
"f	c #6B0F0F",
"g	c #8B2323",
"h	c #470000",
"i	c #474747",
"j	c #2F2F2F",
"k	c #3B3B3B",
"l	c #A36B3F",
"m	c #7F532F",
"n	c #3F2F17",
"o	c #8F5F37",
"p	c #9B633B",
"q	c #BF7B4B",
"r	c #2B230F",
"s	c #439337",
"t	c #6B4727",
"u	c #875733",
"v	c #3F832F",
"w	c #2F6323",
"x	c #B37347",
"y	c #CB7F4F",
"z	c #D78B5B",
"A	c #E79B6B",
"B	c #533F1F",
"C	c #AB6F43",
"D	c #DF9363",
"E	c #774F2B",
"F	c #4B371B",
"G	c #5F4323",
"H	c #332B13",
"I	c #27531B",
"J	c #37732B",
"K	c #CF8353",
"L	c #232323",
"M	c #4F4F4F",
"N	c #5B5B5B",
"               ..             .                  ",
"            +@@#$%.  ####   .%#@@+               ",
"           &*=-;>,$'.$$$.)$$,';-=*&              ",
"          !+~{]&^.$,$,/,$.($._&]{~+!             ",
"          !+~@::<[[..$$$.}.)}}::@~+!             ",
"           !+;||123}4...}>3566||7+!              ",
"            !! 88290.#4#0).1a88 !!               ",
"                 b)$%c.c.%c5d'                   ",
"                 }2$,$9$,,9<}                    ",
"                 .'a2<e222<}.                    ",
"                %$%9fg_gff4#%.                   ",
"               3[$_>}.).}#5%.gg                  ",
"              3g^8d.4(%(4.abb6))                 ",
"             }5ab<d%'}#}'%agaa[))                ",
"            9968g<}}3h^^}>}6aaa[)}               ",
"         ,c0)<b[3<4c2g1}h(4ggaaa6)3c.cc          ",
"       c$.))#[999<'i4__4#]'[9}g85<9})34)         ",
"      3)0.$$'9')4_94jjkkg[98139<[9[.c'[}}        ",
"     })9#$$$.)'0%c$[[ea82'(c00'.'39'$%_b1[       ",
"     b}>)')##3)44444[61[)4444444_><))__^6<       ",
"     h><3[[}99933449>b[}94433399><<[12b8b6       ",
"     ^5<<15<g}999999<^[<933999}[<<<1e8be8bb      ",
"     866b<<<<g[}}}}gb<[<[}}}}}}>156aaa8^6fbg     ",
"    1>1bbbb<<<<g>>g556><>>>>>><<16aaa5>0.>bb     ",
"   1}.c>5bhab<5<<<<66261<<<<<<61baaa<}9))>1b6    ",
"   }3)9}[[1a>6b666662<<526bbb288a2681[[[[>5bb    ",
"  1}99}9<<b22<62^bbb1g[g8aee8eaab28a2<11<16b6f   ",
"  }}>[<168baa888826<<ggg1688eae2888^86166bb6><   ",
"  16<<<b^8ha 2e6<66beaaae2bbb8ahab2 28b6b888}}f  ",
" 165bb8e88^   a116bebf^f2^a^8h^8af   f822ba944}f ",
" <5688aaa2    2<1[3[1b^66<<[2h8aa      baa}..'4} ",
"[[#}66aa2    8a22<}'}2^b}4}68aada       a4.$$4%}1",
"3#%%#3bf    881f68b6658266b86f188f      >_%($4)}}",
"}#$$%.}2    8<}1<}6ah<82ha6}<1}<8d      <}0$%93[1",
"<.$$0'9<e  8<3332_4_<1b<<_4_2333<82     ^<'%'9)>1",
"f'0$#}9<e  b33<9>b[<<<6<<<[b>9<33ba     ^b4%.}3>1",
"^3#%'9[<e  21}lm>>b1<66g<1b>>ml}12a      ^9..}}gb",
"<}#0'9g2    nopqm3)[><6[>[)3mqponrr   s  >)%.1a1 ",
"g<#0.4ge    ntulpm>)3}}>3)>mplutnr     vv})$.18  ",
" ^>$.96  w ttpxyzym>)434)>myzyxpttr  wvAAx0.311  ",
" 13%)[6ww  BmCqyyzzl>>3>>lzzyyqCmBn wxypxA3g6e   ",
" [<.0p##Dvwnmlqxlpuumtttmuuplxqlmnn voxtoxEEF1   ",
" [240AApqyvnEplpumopmEmmmpomuplpEnnrvnoxxpttnv   ",
"  <}.qqyqmFGEmpxxyqxpBEopxqyxxpmEGFrwFGtttGnnw   ",
"  <bCompmEFGmpqCCpumGnBBGmupCCqpmGFrwFFFFBnnw    ",
"   >tuGGGGFGmpCCCumGBHnnBGmupllpmGFr wFFFFFw     ",
"   wmtGFFFFGEuCCpmttBBnBBttmollpEGFr  IwwwI sJ   ",
"    IwFFnFnGGupCpEtBBBnBBBtEmlluGGnr             ",
"     IwwwInBGmpppEtBGn nGBtEEppmGBn              ",
"          ntBmuputGBGn nGBtEEuumGBn              ",
"          ntBmmuEtGBGn nGBGtEmmmBtn              ",
"          nttGEEGGBBBn nBBBGGEEGttn              ",
"          GBttttGtBBnn nnBBtGttttBG              ",
"          EFEttBGBBBnn nnBBBGBttEFE              ",
"          EnomBGtBnBdn ndBnBtGBmonE              ",
"          qGpxBnBEFBd   dBFEBnBxpGq              ",
"         xGloxmBmuBBd   dBBumBmxolGx             ",
"         uolqqxlxptFn   nFtpxlxqqlou             ",
"         uolqqxlxptFn   nFtpxlxqqlou             ",
"         ulKqzzzyqpGn   nGpqyzzzqKlu             ",
"         Elzyzzzyxptn   ntpxyzzzyzlE             ",
"         Elqxyzqxpumn   nmupxqzyxqlE             ",
"         GoxxyzlppmBn   nBmpplzyxxoG             ",
"         nEpqzDxpxtnn   nntxpxDzqpEn             ",
"          npyDDqpmnn     nnmpqDDypn              ",
"          oyAAAzqpdn     ndpqzAAAyo              ",
"          lzCmmCzln       nlzCmmCzl              ",
"         lEommmmmpn       npmmmmmoEl             ",
"         EEyzAAzxEnB     BnExzAAzyEE             ",
"         BptuLLmFlHH     HHlFmLLutpB             ",
"         jE!li:ljGGH     HGGjl:il!Ej             ",
"         LEiiMii!jGL     LGj!iiMiiEL             ",
"        L!:iMNMi!!LL     LL!!iMNMi:!L            ",
"        L!iMMNMii!jL     Lj!iiMNMMi!L            ",
"        L:MMNNNMi!L       L!iMNNNMM:L            ",
"         Ljk:i:kjL         Ljk:i:kjL             "};
