/* XPM */
static char * demon_walking_xpm[] = {
"160 55 66 1",
" 	c None",
".	c #A43C3C",
"+	c #983030",
"@	c #8C2828",
"#	c #7C1818",
"$	c #D07070",
"%	c #942C2C",
"&	c #C86868",
"*	c #D87878",
"=	c #B85454",
"-	c #E48C8C",
";	c #C46060",
">	c #DC8484",
",	c #AC4444",
"'	c #A03838",
")	c #BC5858",
"!	c #E89494",
"~	c #B04C4C",
"{	c #801C1C",
"]	c #741414",
"^	c #680C0C",
"/	c #F4A8A8",
"(	c #F0A0A0",
"_	c #882020",
":	c #701010",
"<	c #640808",
"[	c #A4A4A4",
"}	c #7C7C7C",
"|	c #545454",
"1	c #FCB4B4",
"2	c #6C6C6C",
"3	c #909090",
"4	c #BCBCBC",
"5	c #B4B4B4",
"6	c #686868",
"7	c #4C4C4C",
"8	c #404040",
"9	c #343434",
"0	c #5C0404",
"a	c #747474",
"b	c #949494",
"c	c #B0B0B0",
"d	c #D8D8D8",
"e	c #C8C8C8",
"f	c #580404",
"g	c #4C0000",
"h	c #A8A8A8",
"i	c #606060",
"j	c #585858",
"k	c #9C9C9C",
"l	c #500404",
"m	c #503C1C",
"n	c #5C4020",
"o	c #28200C",
"p	c #3C2C14",
"q	c #7C502C",
"r	c #8C5C34",
"s	c #E49868",
"t	c #CC8050",
"u	c #383838",
"v	c #444444",
"w	c #400000",
"x	c #808080",
"y	c #440000",
"z	c #ECECEC",
"A	c #D0D0D0",
"               .+@#                                    .+@#                                          #@+.                                    #@+.               ",
"               .$$%                                    .$$%                                          %$$.                                    %$$.               ",
"             &*=-*;>*$&                             ;&*=-*;>*$&                                  &$*>;*-=*&                              &$*>;*-=*&;            ",
"           $*>;%==.&$*>*$;   ;$>>;               ;&$*$&@,,'=;&$$$;   ;$$              ;>>$;   ;$*>*$&.==%;>*$                   $$;   ;$$$&;=',,@&$*$&;         ",
"        &$*$&;)%-$=;;;&&&;;&*>!!-$~          ;;$$&;)===@*),===;;&&;;&*$&=,,          ~$-!!>*&;;&&&;;;=$-%);&$*$&             ,,=&$*&;;&&;;===,)*@===);&$$;;     ",
"    &$;;)=~)))){;$=;&**$&&&$;&*$&==%      ;;&$;;)=~~~==],)]=;&**$$&;&$>*;~.,        %==&$*&;$&&&$**&;=$;{))))~=);;$&        ,.~;*>$&;&$$**&;=]),]==~~~=);;$&;;  ",
"  ;&));&;)~);&*{.;&>!!!-*;==&$>>*;,+=    ;&*$&&&;));&**^,)@&>!!!!-*&==&&;~'+       =+,;*>>$&==;*-!!!>&;.{*&;)~);&;))&;      +'~;&&==&*-!!!!>&@),^**&;));&&&$*&; ",
" ;~)&$&&;,)&***;'-&!//(!*&),==)&&;~'+   )&$&;&&&;);*>>>')-,&!//((!*;~,~=~.+@       +'~;&&)==,)&*!(//!&-';***&),;&&$&)~;     @+.~=~,~;*!((//!&,-)'>>>*;);&&&;&$&)",
")~~&$*$;=.&*>!>)%=*-((!-*;,'~,,~=~.+@   ,&);$*$;=;&*>-!)')'*-((!!-*;,'+'.+@_       @+.~=~,,~',;*-!((-*=%)>!>*&.=;$*$&~~)    _@+.'+',;*-!!((-*')')!->*&;=;$*$;)&,",
"+.~$*$&),.;$!(!;%;&--!-*)'%@,'%+'.+@_   +)~$*$&),);*--!*{).&--!-*;)~'@{{@@{#       _@+.'+%',@%')*-!--&;%;!(!$;.,)&$*$~.+    #{@@{{@'~);*-!--&.){*!--*;),)&$*$~)+",
"##.;;)=,.',;*!>&{-)>**;,+@@@'@{{{@@{#   #+.;;)=,.',)&&&&#>))>**;,,+%@{{#]:]].      #{@@{{{@'@@@+,;**>)-{&>!*;,'.,=);;.##   .]]:]#{{@%+,,;**>))>#&&&&),'.,=);;.+#",
" ^{'...''+%.~&;;%..&&;.@_@__@{{:#]]]#{   ^{'...''+%.,===#'..&&;.@@_@@_]:::]_+     {#]]]#:{{@__@_@.;&&..%;;&~.%+''...'{^    +_]:::]_@@_@@.;&&..'#===,.%+''...'{^ ",
" <<_@@%+'%_#@+=&'{@&*){{@+'+@_#<<^]{{{   <<_@@%+'%_:_+,)@,-@&*){{@+'+_]<^:@%@=    {{{]^<<#_@+'+@{{)*&@{'&=+@#_%'+%@@_<<   =@%@:^<]_+'+@{{)*&@-,@),+_:_%'+%@@_<< ",
"  <<]#{@'+{{{@~&;<.&-)@@+,),+,)-[[}|__    <<]#{@'+{]:_'),]1.&-)@@+,,+_]<^:@%@%    __|}[[-),+,),+@@)-&.<;&~@{{{+'@{#]<<    %@%@:^<]_+,,+@@)-&.1],)'_:]{+'@{#]<<  ",
" +@<<^:#@'@###~&&#,*>*;)=~,..+234532|_   <]<<^:#@'@#<<,&,#-,*>*;)=~,+,)-[[}|__    _|235432+..,~=);*>*,#&&~###@'@#:^<<@+   __|}[[-),+,~=);*>*,-#,&,<<#@'@#:^<<]< ",
" +%]<<+,~===;&$*>{>,***$&;)='{6||7892_   <{]]^0'~===;&$*>{>,***$&;)=.2234532|#    _2987||6{'=);&$***,>{>*$&;===~,+<<]%+   #|2354322.=);&$***,>{>*$&;===~'0^]]{< ",
" @@@]abb;,&>!-->>.))$$$*>--&%]{^]{@#{{   ]{{]abb,,&>!-->>.))$$$*>--&,+6||7892_,   {{#@{]^{]%&-->*$$$)).>>--!>&,;bba]@@@  ,_2987||6+,&-->*$$$)).>>--!>&,,bba]{{] ",
" {'a3cde%,$-/11!>&');&*!//!&{fff^^{##_~  {'a3cde+,$-/11!>&');&*!//!&'_fgg<:##,+  ~_##{^^fff{&!//!*&;)'&>!11/-$,%edc3a'{  +,##:<ggf_'&!//!*&;)'&>!11/-$,+edc3a'{ ",
" :ah}ij|%',*-(//!)')=*!/(!&=+] fff<#@'+  _ah}ij|%',*-(//!)')=*!/(!&=__#fgg<{,_,  +'@#<fff ]+=&!(/!*=)')!//(-*,'%|ji}ha:  ,_,{<ggf#__=&!(/!*=)')!//(-*,'%|ji}ha_ ",
" @k8]^^0^:,=*****~.&.&**$;~@.  <<f<_',@ ._k8]^^0^:,=*****~.&.&**$;~@#  @__{#_,;, @,'_<f<<  .@~;$**&.&.~*****=,:^0^^]8k@ ,;,_#{__@  #@~;$**&.&.~*****=,:^0^^]8k_.",
" +~_<0ffg@:@.=;;;~'&'~=~'+]g'  ]__{@.=: +.,#<<fgg :@.=;;;~'&'~=~'+]g:   +.~'';*, :=.@{__]  'g]+'~=~'&'~;;;=.@:@gff0<_~+ ,*;''~.+   :g]+'~=~'&'~;;;=.@: ggf<<#,.+",
" @_]0lll^=%gm_'~~._~@..@{<nl@  _'=+{'=: ++_^fggg  %gm_'~~._~@..@{<nl#   @~;=.&&. :='{+='_  @ln<{@..@~_.~~'_mg%=^lll0]_@ .&&.=;~@   #ln<{@..@~_.~~'_mg%  gggf^_++",
"+__0gllg  _<mop#{^f__:^^poq]@  _%,.:%,< %+@:gggg  _<mop#{^f__:^^poq]_   @,);+;)' <,%:.,%_  @]qop^^:__f^{#pom<_  gllg0__+');+;),@   _]qop^^:__f^{#pom<_  gggg:@+%",
".+@_:f<g  @]_rsrmm:fg:mrst._^   _'.]@'# @','#<<g  _]_rsrmm:ff:mrst._%   _.~=+=,+ #'@].'_   ^_.tsrm:gf:mmrsr_]@  g<f:_@+.+,=+=~._   %_.tsrm:ff:mmrsr_]_  g<<#','@",
",.==,__<  ~<{+==.@:^g0{+.._]f    _%:{%_ _'==+<{<  +<{+==.@:^f^{..._]%    @.,+,+% _%{:%_    f]_..+{0g^:@.==+{<~  <__,==.,%+,+,.@    %]_...{^f^:@.==+{<+  <{<+=='_",
",~$$;,.@{  f:{@+@#<<lgf<<:::g    #{_{{. _';&,{@{  +<<<{_#:<<<g<<<:]#^    _''++%@ .{{_{#    g:::<<fgl<<#@+@{:f  {@.,;$$~,@%++''_    ^#]:<<<g<<<:#_{<<<+  {@{,&;'_",
"+,$*$~;+#  l:]<<<]{++{<]:##:l    :_.='. _')*=,,+  +<l<<<<<{++{<<:]#<0     _@'++% .'=._:    l:##:]<{++{]<<<]:l  #+;~$*$,+%++'@_     0<#]:<<{++{<<<<<l<+  +,,=*)'_",
"++;*>;*.{ ]<:]]#@#<u9f9ugf_ll<   :.%__@ {'~*&=;, +_<ll]#@#<u9f9ugf_00<     @.,,+ @__%.:   <ll_fgu9f9u<#@#]]:<] {.*;>*;+++,,.@     <00_fgu9f9u<#@#]ll<_+ ,;=&*~'{",
"%+';*>*~_]]<<<]<vjwx6yjvg]+lll<  #_{_..'+%,;*&&,__]0gg]<vjwx6<jvg]+0<^]    @.&~''.._{_#  <lll+]gvjy6xwjv<]<<<]]_~*>*;'+%'~&.@    ]^<0+]gvj<6xwjv<]gg0]__,&&*;,%+",
" %+.;>>;{:^<<0{fg<y<yg<gg{+ll<]_ {@#{~,' @'~**&,#]^fgg{fg<yyy<g<g{+<^:]    @.&~'',~{#@{ _]<ll+{gg<gy<y<gf{0<<^:{;>>;.+% '~&.@    ]:^<+{g<g<yyy<gf{ggf^]#,&**~'@ ",
" @%+;--*@<^^0<_<g<g<g<<<g_+l^]## +~~@'~' _@.*>$~:^<lgg_<g<ggg<<<g'+::]#@  ,$&&~''~'@~~+ ##]^l+_g<<<g<g<g<_<0^^<@*--;+%@ '~&&$,  @#]::+'g<<<ggg<g<_ggl<^:~$>*.@_ ",
"  @%;*-$@<:<<f{{g<<<g^<<g@,<:{#]@~;)~+''  _%*>*=^^<lgg{{g<<<g<^<g.,::##@ ,$&;=,+''+~);~@]#{:<,@g<<^g<<<g{{f<<:<@$-*;%@  +,=;&$, @##::,.g<^<g<<<g{{ggl<^^=*>*%_  ",
"  _+~;;>;#<^<f%.]z<<<<<z]+~^]_#]@;~'~~_+  _%&**&,<<lgg%.]z<<<<<z],~::##@ ',,_=+%+_~~'~;@]#_]^~+]z<<<<<z].%f<^<#;>;;~+_  %+=_,,' @##::~,]z<<<<<z].%ggl<<,&**&%_  ",
"   +;~=;$;_:<f,=#[i<<<i[#';:#@{]@~.#.;~   _+;$$~*~:lgg,=#[i<<<i[#=;:]{#@ '~%#,_@ ~;.#.~@]{@#:;'#[i<<<i[#=,f<:_;$;=~;+   @_,#%~' @#{]:;=#[i<<<i[#=,ggl:~*~$$;+_  ",
"   +;$~=;;;.:0~;.67AjA76+~=#_+_]@~+ _~~   _.=&&:,*,<gg~;.67AjA76+$=:#{#@ @{##%@_ ~~_ +~@]_+_#=~+67AjA76.;~0:.;;;=~$;+   _@%##{@ @#{#:=$+67AjA76.;~gg<,*,:&&=._  ",
"   +~;$$$=~;;#.$~7j+,+j7~$.#_+@]@'   .    @.==&:{,_<gg.$~7j+,+j7~$.:{{#%  +]]]]   .   '@]@+_#.$~7j+,+j7~$.#;;~=$$$;~+    ]]]]+  %#{{:.$~7j+,+j7~$.gg<_,{:&==.@  ",
"   %'=$$;+]@;.<.);)=~=);$=]#_@@]@          .==*<:<:<gg<.);)=~=);$=]^#{#''              @]@@_#]=$;)=~=);).<.;@]+;$$='%          ''#{#^]=$;)=~=);).<gg<:<:<*==.   ",
"   %+.=*;@#<@@^f.)$*--$&=<]#__@{@          ]==*<:::<ggg^.)$*--$&=<]{_{_''              @{@__#]<=&$--*$).f^@@<#@;*=.+%          ''_{_{]<=&$--*$).^ggg<:::<*==]   ",
"    __.*;@#:<<::%%.);)'%f^]{%+%%+=         ^+=*::{#<ggg<%%.);)'%f^]_%@_''             =+%%+%{]^f%');).%%::<<:#@;*.__           ''_@%_]^f%');).%%<ggg<#{::*=+^   ",
"    {@#.$@{:<:]         _]]_'.'',$         ]],&{{__:fgf<        l:{%.+_+'             $,''.'_]]_         ]:<:{@$.#@{           '+_+.%{:l        <fgf:__{{&,]]   ",
"    _~_@.+_:#]          .{]@,,~.~&=        @^]_%{%%{<g<         l:@.,'_%'            =&~.~,,@]{.          ]#:_+.@_~_           '%_',.@:l         <g<{%%{%_]^@   ",
"    _*_##@+#{#          ~%{+,=).~=~        @]^^_{%%_<f<         l:%.=,__%            ~=~.)=,+{%~          #{#+@##_*_           %__,=.%:l         <f<_%%{_^^]@   ",
"    _;_#_@+__{          ;'{+~;$~,~,         @, #@%+@]{          <#+,),_{             ,~,~$;~+{';          {__+@_#_;_            {_,),+#<          {]@+%@# ,@    ",
"       __+++@@          ;+{+~&*~,,.             @+.+_@          <#',)~_#             .,,~*&~+{+;          @@+++__               #_~),'#<          @_+.+@        ",
"       @+.,.%.           %_+=$>=,,              @.,._@           :',)~_               ,,=>$=+_%           .%.,.+@                _~),':           @_.,.@        ",
"        ',=,+            @_')*-)~.              %,~,@            {'~=~_               .~)-*)'_@            +,=,'                 _~=~'{            @,~,%        ",
"        .~&=.            __+=>!;~               .)&~+            _.=;=%                ~;!>=+__            .=&~.                 %=;=._            +~&).        ",
"      ;~~=*&=             _+)>>&~              ~);*&~            +,;$;'                ~&>>)+_             =&*=~~;               ';$;,+            ~&*;)~       ",
"    ,,~~~=*&==~,          +'&***=           ;=~)),,,))~;         '~**&.                =***&'+          ,~==&*=~~~,,             .&**~'         ;~)),,,))~=;    ",
"   6++.~),,,&;'+#i        +,$-!*&          6i~)~,axa,)~~#i      +,)-!*&,               &*!-$,+        i#+';&,,,)~.++6           ,&*!-),+      i#~~),axa,~)~i6   ",
"  6i++.,,axa,,'+@|i    2;.%=;=,=*&=2      6i|+..j6a6j.''@||  2;.%===,=*&=2          2=&*=,=;=%.;2    i|@+',,axa,,.++i6        2=&*=,===%.;2  ||@''.j6a6j..+|i6  ",
"       %76a67%       }2i~..;,axa,;=i2}   6i|v++@7j6j7_@__vi}2i~..;,axa,;=i2}      }2i=;,axa,;..~i2}       %76a67%           }2i=;,axa,;..~i2}iv__@_7j6j7@++v|i6 ",
"       @7j6j7@      }2i|~+,.j6a6j.~|i2}        _87j78_    }2i|~+,.j6a6j.~|i2}    }2i|~.j6a6j.,+~|i2}      @7j6j7@          }2i|~.j6a6j.,+~|i2}    _87j78_       ",
"        77777       2i|v@+@@7j6j7_'v|i2                   2i|v@+@@7j6j7_'v|i2    2i|v'_7j6j7@@+@v|i2       77777           2i|v'_7j6j7@@+@v|i2                  ",
"                            |7j7|                                 |7j7|                |7j7|                                     |7j7|                          "};
