/* XPM */
static char * demon_attack_xpm[] = {
"132 55 81 1",
" 	c None",
".	c #A73F3F",
"+	c #9B3333",
"@	c #8F2B2B",
"#	c #7F1B1B",
"$	c #D37373",
"%	c #972F2F",
"&	c #C76363",
"*	c #CB6B6B",
"=	c #DB7B7B",
"-	c #BB5757",
";	c #E78F8F",
">	c #DF8787",
",	c #777777",
"'	c #939393",
")	c #979797",
"!	c #ABABAB",
"~	c #7F7F7F",
"{	c #B3B3B3",
"]	c #DBDBDB",
"^	c #CBCBCB",
"/	c #5B0707",
"(	c #AF4747",
"_	c #BF5B5B",
":	c #EB9797",
"<	c #B34F4F",
"[	c #9F9F9F",
"}	c #434343",
"|	c #771717",
"1	c #636363",
"2	c #5B5B5B",
"3	c #575757",
"4	c #A33B3B",
"5	c #831F1F",
"6	c #6B0F0F",
"7	c #5F0707",
"8	c #8B2323",
"9	c #F3A3A3",
"0	c #F7ABAB",
"a	c #FFB7B7",
"b	c #670B0B",
"c	c #4F0000",
"d	c #533F1F",
"e	c #731313",
"f	c #470000",
"g	c #8F5F37",
"h	c #3F2F17",
"i	c #E79B6B",
"j	c #530707",
"k	c #2B230F",
"l	c #774F2B",
"m	c #7F532F",
"n	c #CF8353",
"o	c #BF0000",
"p	c #B30000",
"q	c #B37347",
"r	c #6B6B6B",
"s	c #430000",
"t	c #8F7753",
"u	c #A7A7A7",
"v	c #7F0000",
"w	c #838383",
"x	c #373737",
"y	c #8B0000",
"z	c #CB0000",
"A	c #A70000",
"B	c #3B3B3B",
"C	c #2F2F2F",
"D	c #474747",
"E	c #4F4F4F",
"F	c #D3D3D3",
"G	c #5B0000",
"H	c #730000",
"I	c #9B0000",
"J	c #670000",
"K	c #EFEFEF",
"L	c #D70000",
"M	c #EF0000",
"N	c #E30000",
"O	c #FF1F1F",
"P	c #6F6F6F",
"                   .+@#                                         .+@#                                        +..                     ",
"                   .$$%                                         .$$%                                       .$$&.                    ",
"                 *=-;=&>=$*                                  *==-;=&>$*                         ,',))%---*=-..&>.$*                 ",
"               $=>&%--.*$=>=$&   &$>>&                     $=>&&%--.*=>=$&   &$>>&             ,!~{]^/(*$&*$$-.-$->=$&   &$>>&      ",
"            *$=$*&_%;$.&&&***&&*=>::;$<                 *$=$*&__%;$.&&***&&*=>::;$<            [}|123/(_*=;;&_.4<&***&&*=>::;$<     ",
"        *$&&_-<____5&$-4*==$***$&*=$*--%            *$&&_-<_____4$-4*==$***$&*=$*--%            $(.676<_=;:;>$<4<44.<(.-*$>$*--%    ",
"      &>>$&*&_<_&**44&*4**--<(.-*$>>=&(+-         &>>$&*&--&**$=.&*.*=$*&&--*$>>=&(+-        ((-*$(.8/+-=9000:_<4<_=$$*&-&**&<4+-   ",
"     <$;::**---&*$$_.4<4$=$$*&----_**&<4+        <$;,))&(*>:;;;><&_<>>;;::>*(&)),&<4+       (.<&=>$*(8@+.==>>*<4+_=;;;;=*--&&.+@+   ",
"    %--*,))&(*>:;;;$<4<4$>;;;:>**(&)),.+@       %-,'{]^%($;0aaa:_<4_>:aa00;$(%^]{',+@       +4<&**--(.b@+-&&&&<.<*;0aa0;**%){',8@   ",
"   -+(,'{]^%($;0aaa:_<4*>:aaa0;$$(%^]{',8      -+,!~123%4(=;9900:<4_:009;;=(4%321~!,8      -@+.<-<(<@(|cd84<&&<%<=;:09;=$$/^))!,8   ",
"   +4,!~123//(=;9000:<4_:0009;=((|/321~!,      +4[}}}}}6e8-======<.<======-8e6}}}}}[,      +8@+.4+4(@@6fghh#<<%8<&&&===$$_55<{'[5   ",
"   @+[}|6676//-======<.<======-@|/c766|}[5     @+[}|66|//e8.--&&&<4<&&(...@e///766|}[5     @#5@@55@4@#6cgigd5##8<-(4...-__(.55<,[5  ",
"   8@+.4+%||bc/.-&&&&<4<&&&&-.@|cc/bb6|555     8@+.4+%|///chhhe8..@...5jjjj5/j/bb6|555     .||e|#55@||6bcccjjcccjjjjjdf|--+5b6|555  ",
"   #|@@555|b|bfd844<<.8.<<448dfcc/6|@+8858     #|@@555|b//bgkhe58%84%5hhkl|@//6|@+8858     +8|/ee|8@b|6676e|b|bcjdgikmc#((@|@@8858  ",
"  54%6|#||bb%|cdkhh#56/8e66hkmcc/6||@+%5|8    54%6|#||bb//|8giigde88edlin.85/6||@+%5|8    -@%@e//|8b/obp7bbbb|##7jbqnc#..@b|@+@5|8  ",
"  54<@6bjjj78@cfgigdde/cedgincc6#|b|@+%|e8    5(<@6bjjj7//b5+--.@e6c75+..8|/j|b/|5@ee5    54<@6b/jj///opor##5++##bbcc#@.+|f|@+%|e8  ",
"  84<<%|66s7|#bcccce|e6c75b/cc/b#|f/|5@ee5    84<<%|66s7///e5@+@#bbjc/bbeeecj|ffc6|7#8<   84<<%|6ssjo/ot}u27b//@#|ee#8++#bf/|@@ee5  ",
"  88...%||sj/|#b76e|#bbjc/bbeee66bffc6|7#8<   8@((+@#|sj//je|bbb|5++5b|e###c6bf/ccc#@4+   88...%||ssjejt,u,uvwr/xyr#@++@|fjfc6|7#8< ",
"  85+++@#|ssj6||b7bb|5++@#|e##eb7fj/ccc#@4+   55@@5|6/ sj/je||555555555558#j7f bb/b84(@   85+++@#|ssje(2u1,1zoA222ux|5@|ffj/ccc#@4+ ",
"  55@@5|6/s  /6b7|#@#bBx/xBc/85jc  bb/b84(@  <8##566//   /je#|C22DBxDxBC5+#jc  84-+54-e   55@@5|6/s  5@<rEFG,H,1,u,|66|fc  bb/b84(@ ",
" <8##566//    /j7|bD2vwrf2Dc|+5cc  |885@.-e  +4@#b///     /e#5C2s,DsD2sC5+#cc  8%(.e%(b  <8##566//   #5.__&2F22I1u,|6|jj6  |885@.-e ",
" +4@#b///     /j75/76b/fcccc5+5j6  84-+54-e  @(48b/bb     /e#8GcsssssscG8+#j6   84.|@4#  +4@#b///    #5%+.(_-<-FEr2##j765  84-+54-e ",
" @(48b/bb     5e78b|pAIvvvJG8+|65  8%(.e%(b  @-45+-48     5e#5GcsssssscG@+#65    8%e5%8  @(48b/bb    b5%.%%88.(&$-+#8js|5b 8%(.e%(b ",
" @-.@588|    b5eb55IopAAIvvJ@(6|5b  84.|@4#  @(%e.(%8    b5e#5sccccssccG5+#|5b   #585%.  @-.@588|    bf5%<&%%%@%%%+8jj756b  84.|@4# ",
" @-45+-48    b|5e%.IKzoAAAK|+<|56b   8%e5%8  @4@|.48     b|e#5cJHHJGGHvH5+#56b   e8.-4.  @-45+-48    /fff|4<(((_(%%8jf|5c/   8%e5%8 ",
" @(%e.(%8    /b6|(-#u1zzA1u#4&56c/   #585%.  8%5e%8      /be#8JHyyyJHyIy8+#6c/   e.%88@  @(%e.(%8    #/jffff|5_&_4%js75|sc   #585%. ",
" @4@|.48     #/jj<&.rEF2FEr+<-7ssc   e8.-4.  .5585#      #je#5HyIIIIyIAI5+#ssc|  #858..4 @4@|.48    |||/ffffffffffscj|bscc   e8.-4. ",
" 8%5e%8     |||/j.$<E2+(+2E<$.sscc   e.%88@  .4-.8e     |7je#5yAAAAAApzA5+#scj|  5@#5<(4 8%5e%8     ###b7fffffffffffb7sc|eb  e.%88@ ",
" .5585#     ###b7j._&_-<-_&$-fsc|eb  #858..4 @88%.e     7jje#8IooopoooLA8+ecj7b# +#bb4<4 .5585#     ###b7ffffffffff77fsc|eb  #858..4",
" .4-.8e    |##56b7/._$=;;$*-ffcjb8|  5@#5<(44..858#    |jjjj#5ALzzzoozLA@+ej76|@ %8|6654 .4-.8e    |##56b7ffffffffffffcjb8|  5@#5<(4",
" @88%.e    ##5#|e#6j%._&_4%fsc/jb88# +55@4<44(<5#@5   |7jjjj#5ALMMNLzzLA5+#jb6|5@%%8|68+ @88%.e    ##5#|e#6ffffffffffc/jb88# +55@4<4",
"4..858#   |#55|588effsffffscj//###+@ %%%5+444<4###+   7jjjjj#5AzrzOOMzrA54####||8 .#.%< 4...58#   |#55|588effsffffffj//###+@ %%%5+44",
"4(<5#@5   ##@5|8%8effffffs66//b8%8+@@%%4%58+44+#%#    jjjjjj#8I2u2ozO2u28(b@@@8#8       4(<..@5%  ##@5|8%8effffffs66//b8%8+@@%%4%58+",
"4<4###+   #5@|5%4#6fffs cs65bb|%4++%@<.#.%< +8#%4%%  |7jjjjjj552u,Hvo,u,@-|%4+@88       4<4###+%  #5@|5%4#6fffs cs65bb|%4++%@<.#.%< ",
"44+#%##  |#@8#5.4ebffc   //5|e|%44%+@<+ 8<<  <&.#.<  #7jjeeej%.,KuJHvuK,+-|%44%@@       44+#%##% |#@8#5.4ebffc   //5|e|%44%+@<+ 8<< ",
"+8#%4%%  ##+85%(%6/fc/   c/|5|5@4.4+@                676#|88#(-2u1,,,1u,4&5@4.4%@       +8#%4%%  ##+85%(%6/fc/   c/|5|5@4.4+@       ",
" <&.#.<  6#+@@.(86jf/     7b5#8@.<.%@                6##@@.(8<&2rEF2FEr2<-8@.<.%@                6#+@@.(86jf/     7b5#8@.<.%@       ",
" <<_ +_  6#@@4(45ejj6     b7|58@+++%@                6|@@4(45e$<E2+(+2E<$-8@+++%@                6#@@4(45ejj6     b7|58@+++%@       ",
"         6|88(<4#ej6       7b8%4(((.+-                |88(<4#e-_&_-<-_&$-8%4(((.+-               6|88(<4#ej6       7b8%4(((.+-      ",
"          |884<4#e|6       7884(4%@+(.                |884<4#e|-_$;99>*-884+++4.(.                |884<4#e|6       7884(4%@+(.      ",
"          b8%4<4#|#         .(%+44..<4.               b8%4<4#|# --_&_--7.(%+44..<4.               b8%4<4#|#         .(%+44..<4.     ",
"          8%%%.%5#6         <&5+(__.<@%               8%%%.%5#6         <&5+(__.<@%               8%%%.%5#6         <&5+(__.<@%     ",
"           %8@+885          (&5+<&$<(@@                %8@+885          (&5+<&$<(@@                %8@+885          (&5+<&$<(@@     ",
"           88+++@@          (-5+<*=<(%8                88+++@@          (-5+<*=<(%8                88+++@@          (-5+<*=<(%8     ",
"           @+.(.%.           (8+-$>-(@                 @+.(.%.           (8+-$>-(@                 @+.(.%.           (8+-$>-(@      ",
"            4(-(+            .84_=;_<8                  4(-(+            .84_=;_<8                  4(-(+            .84_=;_<8      ",
"            .<*-.            88+->:&<                   .<*-.            88+->:&<                   .<*-.            88+->:&<       ",
"          &<<-=*-             8+_>>*<                 &<<-=*-             8+_>>*<                 &<<-=*-             8+_>>*<       ",
"        ((<<<-=*--<(          +4*===-               ((<<<-=*--<(          +4*===-               ((<<<-=*--<(          +4*===-       ",
"       r++.<_(((*&4+#1        +($;:=*              r++.<_(((*&4+#1        +($;:=*              r++.<_(((*&4+#1        +($;:=*       ",
"      r1++.((,w,((4+@31    P&.%-&-(-=*-P          r1++.((,w,((4+@31    P&.%-&-(-=*-P          r1++.((,w,((4+@31    P&.%-&-(-=*-P    ",
"           %Er,rE%       ~P1<..&(,w,(&-1P~             %Er,rE%       ~P1<..&(,w,(&-1P~             %Er,rE%       ~P1<..&(,w,(&-1P~  ",
"           @E2r2E@      ~P13<+(.2r,r2.<31P~            @E2r2E@      ~P13<+(.2r,r2.<31P~            @E2r2E@      ~P13<+(.2r,r2.<31P~ ",
"            EEEEE       P13D@+@@E2r2E84D31P             EEEEE       P13D@+@@E2r2E84D31P             EEEEE       P13D@+@@E2r2E84D31P ",
"                                3E2E3                                       3E2E3                                       3E2E3       "};
