/* XPM */
static char * arch_vile_pain_xpm[] = {
"38 74 67 1",
" 	c None",
".	c #4F3B2B",
"+	c #FFE3D3",
"@	c #BFA78F",
"#	c #AF977F",
"$	c #FFEBDF",
"%	c #332B13",
"&	c #836B57",
"*	c #473323",
"=	c #775F4B",
"-	c #6F5743",
";	c #9F876F",
">	c #533F2F",
",	c #FFD7BB",
"'	c #836B4B",
")	c #D78B5B",
"!	c #CB7F4F",
"~	c #AB6F43",
"{	c #FFDBC7",
"]	c #937B63",
"^	c #5B472B",
"/	c #675333",
"(	c #FFCFB3",
"_	c #FFC7A7",
":	c #A78F77",
"<	c #875733",
"[	c #B79F87",
"}	c #4B371B",
"|	c #170F07",
"1	c #B37347",
"2	c #FFD3BB",
"3	c #2B230F",
"4	c #0B0B0B",
"5	c #EFA373",
"6	c #FFBF9B",
"7	c #574333",
"8	c #7B634F",
"9	c #533F1F",
"0	c #67533F",
"a	c #BF7B4B",
"b	c #CF8353",
"c	c #E79B6B",
"d	c #9B7F6B",
"e	c #8B735B",
"f	c #9B633B",
"g	c #FFB383",
"h	c #F7AB7B",
"i	c #DF9363",
"j	c #9F8363",
"k	c #5F4B37",
"l	c #372313",
"m	c #6B4727",
"n	c #43331B",
"o	c #131313",
"p	c #5F4323",
"q	c #7F532F",
"r	c #8F7753",
"s	c #FFBB93",
"t	c #4F3B23",
"u	c #FFC79B",
"v	c #774F2B",
"w	c #3F2F17",
"x	c #A36B3F",
"y	c #3F2B1B",
"z	c #1F170B",
"A	c #775F3F",
"B	c #8F5F37",
"                .+@ #+$               ",
"                .%@+&*@@=             ",
"                **-;>.,')!~>          ",
"                **{]*^/(_+_,{:        ",
"                :*'<**[}|<1):2@&      ",
"               @]****34]56,++(6=&     ",
"            78@:9>***>06@abccc{@;.    ",
"           7d@e3//**>3fghifj($c{=&    ",
"        -#+_&k97***37lm~ff;;dd~5@7    ",
"       =@$$,i}}nn3   o3p<15h_5'<h7    ",
"     &[{,@]7}nn*    o-#,@;#${#}lq     ",
"    &@rq9l}nn=    &75{s@6(+jl4}p      ",
"    ;/t}nnn0@#]]#@$$_,#_+@744         ",
"   [;tnnn<7#$+{$$$$$$++@[6]@]=.       ",
"  >;/ttt/&#+gcu$$$$$$${{[++(sh@&      ",
"   f<tt}',{h~bgu$$$$$+__,$$$$+26@     ",
"    /^tt9<b~v99~bchu22__{$$$$$${,2g;  ",
"     /^^^<<v|33f)($$$_g_{22+$$$cs+$_) ",
"       /799}39:bcggg5!g_$${_g_{wiu+$_d",
"            }x~6ighj3>&h($+{(cc7|@g+(#",
"            9qixuh~l|||;({(ss#[s($,u{r",
"            kxxu~9|e@;0|5h((h!gl32$#$q",
"            kq@~||>k8k.|fsbisc!@7|(i+#",
"            >x~9|o&@(:k395s~ib<{22sss2",
"            o//|y8=;&=&*9<!h~o#'/'76g,",
"             >7|*][([ek*;@(@@-&[+l*|(@",
"              ||7/&;&8&**9m<dg[g@4e4$:",
"          7=   .0;@@:83**-mmm9%@*z=~+&",
"          -{; 7;&-6[&7el4@^^9% &l;2g~3",
"          07']]/#>&}7]7>0;'    j}7w4%z",
"         .0ll>>4e/=o=*077l0z   -7n%%o=",
"         7>ll>30//ze*o703*=0   ^7n%%zk",
"         -*>l*&e3>0l=>3>*30k   ^7%%%}.",
"         =707&&>0>-}&&=3>>0*    >%%%%>",
"        00-&]f}7;&'-<##;l0&.     3%%4 ",
"        &ejj'q7//f77ri(ub&ex          ",
"       7fjbbf93*777}~c((sbji          ",
"       accc~<>^tt 07fcs{uhai%         ",
"      <ihhbf}^/tl  79ah++uabm         ",
"     *!ccc~9/A^t   77~5($(hff         ",
"     <iccb</<Bt    .k<is+{ur)         ",
"    %!ccb~9<B^      t/~5_{(ic7        ",
"    <icc~9/fvt      nkmiu((h;=        ",
"    !ccb<7/f^        k}15(_g;]        ",
"   3)cc~w/^t         t0<!6_g;[        ",
"   qiibfq/t3          70f56g)h        ",
"   fbb<~'^t           t/&i6s)h3       ",
"  .~bfrfvt             7=ehsahk       ",
"  Arrh1/t               /&is~50       ",
"  ii~bft                tAch)i8       ",
" 3gbi]/                  /h66#&       ",
" .#~!/t                  ^gjaa]       ",
" 3A<'^tt                  @~~~=       ",
"  %t^//At                 #Bfv>       ",
"   %t/A'A^                ]}v-%       ",
"   %%7/~'/                i3:&=7      ",
"    %7/~'A               .g/#jf<      ",
"    %%^A'^               0_9##f~      ",
"     %t^/^               ._qd#~)      ",
"     %%%^^               .iqd#~)      ",
"      %%^^               .&qe#f)      ",
"      %%t^                7<8#v~      ",
"      %%n>k               *7<dv<      ",
"     0%%n03                7<;7*      ",
"   ^0}%%t>-3               *7;**      ",
"00>}%%3tt%>-3=             *7#*       ",
"0www%%lzo%%-=&              7#}       ",
"  %%%%%%                   38[07      ",
"                           7;@g7      ",
"                           =#_(e=     ",
"                         d@:@s@@[]&   ",
"                        /A'j@j@r:A.   ",
"                          ^A@A@^]^    ",
"                           /&*&kA^    "};
