/* XPM */
static char * demon_pain_xpm[] = {
"39 55 65 1",
" 	c None",
".	c #A73F3F",
"+	c #9B3333",
"@	c #8F2B2B",
"#	c #7F1B1B",
"$	c #D37373",
"%	c #972F2F",
"&	c #CB6B6B",
"*	c #DB7B7B",
"=	c #BB5757",
"-	c #EB9797",
";	c #DF8787",
">	c #C76363",
",	c #BF5B5B",
"'	c #B34F4F",
")	c #831F1F",
"!	c #E78F8F",
"~	c #AF4747",
"{	c #A33B3B",
"]	c #F7ABAB",
"^	c #F3A3A3",
"/	c #6B0F0F",
"(	c #8B2323",
"_	c #530707",
":	c #670B0B",
"<	c #771717",
"[	c #731313",
"}	c #8B8B8B",
"|	c #838383",
"1	c #7F7F7F",
"2	c #5B0707",
"3	c #939393",
"4	c #BFBFBF",
"5	c #B7B7B7",
"6	c #DBDBDB",
"7	c #9F9F9F",
"8	c #5F0707",
"9	c #777777",
"0	c #979797",
"a	c #575757",
"b	c #4F4F4F",
"c	c #B3B3B3",
"d	c #CBCBCB",
"e	c #FFB7B7",
"f	c #ABABAB",
"g	c #636363",
"h	c #5B5B5B",
"i	c #6F6F6F",
"j	c #4F0000",
"k	c #3F2F17",
"l	c #5F4323",
"m	c #533F1F",
"n	c #2B230F",
"o	c #7F532F",
"p	c #8F5F37",
"q	c #E79B6B",
"r	c #CF8353",
"s	c #373737",
"t	c #3B3B3B",
"u	c #6B6B6B",
"v	c #474747",
"w	c #470000",
"x	c #EFEFEF",
"y	c #A7A7A7",
"z	c #D3D3D3",
"                .+@#                   ",
"                .$$%                   ",
"             &**=-;>;*&                ",
"           $*;>>%=..&$;*$>&$*$&        ",
"        &$*$&>,,%-;=>>&&&,,,'=,>>$&    ",
"    &$>>,=',,,,,)>$=>&*$&&>,',>&>,,&>  ",
"  >&,,>&>,',>&**)...;--!***&,~>&&$&,'  ",
"  ',&$&&>~,&****>{-&-]^-!-;*&.=>$*$&'' ",
" ''&$*$>=.&*;-;;,%=*!^-!!^-$>.~,&$*$'. ",
" .'$*$&,~.>$-^-->%..!!!!!-*>~{.~=,>>.# ",
" #.>>,=~.{~>*-;;&)!,;**&=''.%+{{...{)/ ",
" /){...{{+%.'&>>>%..;&,'.+@#(%{+%@)/_: ",
" ::(@@%+{%(#@.==&{)@;$='@@)))+{@)#/_:  ",
"  ::<#)@{+)))@.=>&.&>;$,.###@{@#[___<  ",
"  [::/[#@{@###@=&&#-;~;$,='.==}|1_:<++ ",
" +#<::22~'===>&$*;)''''$$&>,.34567<@+@ ",
" {@[<8900>~&;-!!;;.;;>,$*;!!&aab}7#({) ",
" {{)83c6d%~$!]ee-;&{,>&*-]]--&%2/[#++[ ",
" ++)f1gha%{=*!^]]-,,{,=-]^-*&=/88#@{(@ ",
" @+8ii/8[#~==*****''.&.**$>'@=j28<@(#+ ",
" +((8828:[.))+=>>>''{&{='{+<j{j_8/<#8  ",
" @[<8___::#+/kk({''.('@.@):l_@jj__j88  ",
"+([[j__j8<:#+/mnk#)/2((@/kno<@jj::2/@  ",
".+@([2:j 8<:#+.pqpm/2j[@pqr.(/j:<(+''+ ",
"~.==~((:  :):#%+=&.@_j8)+..(<2)[()=$,+ ",
"~'$$>~.@) 8<)[[)@+<88_j2::[[[ #%%{$*,~ ",
"+~$*$'>+#  :[::::88)++):<[##[ ).{>;*,+ ",
"(+>*;>*.) <:_<)<#@#::ss:tt2(<:('>;*>{< ",
"#+{>*;*'(<<__<()))hh:uu:vv<+/:)>$;>.<: ",
" (+.>;;>)[___:()@jjwjwjjjj)+/:@=$!>+<2 ",
" #%+>!!*@:___2()@jjjjjjjjj(+[:@~$*>%:  ",
"  (%>*!$@:____()@jjjjjjjjj@+:.*!;$'+2  ",
"  #+'>>;>'%___#(@jjjjjjjjj(+[*!$='>+   ",
"   +>'=>$;.%__[(+jjj<<<jjj(~:>>%+$>+   ",
"   +>$';>~;.__[).j:#)))<:j@'[>{+)>~+   ",
"   +'>$$$='.__[(=j#@@))<<j(>[.~$$={%   ",
"   %{=>..~~___[)=j@(()<<<j@=[@.''.~%   ",
"   %+>%%%%#___/%=<x(()<:x<+@<#{''=(    ",
"    ((((([#[_:[~=#yg():gy#{:#@@{{@~    ",
"     @(([<<[2[<'>.ubzhzbu+'[@.'{%,&    ",
"      ([<))#</ <$'bh+~+hb'=[{'='%*&    ",
"      (##(@([/  .,>,='=,>$=(.,>=.>~    ",
"      (##(@(#[   .,$*!!$&=:+'>$,{~{    ",
"       @)(@(#(     .,>,%2[(+'&*,+.%    ",
"        (@+@)            %(+=$;={{     ",
"        (%.+(            @({,*!,.%     ",
"      {%%+'.+            ((+=;->.      ",
"    ~@%%%+'.++%@          (+,;;&'      ",
"   u))(%+~@@.{()/g        +{&***=      ",
"  ug)+(@@9|9@@{[<ag       +~$!-*&      ",
"       #bu9ub#         i>.%=>=~=*&=i   ",
"       <bhuhb<       1ig'..>~9|9~>=gi1 ",
"        bbbbb       1iga'+~.hu9uh.'agi1",
"                    igav@+@@bhuhb({vagi",
"                            abhba      "};
