/* XPM */
static char * imp_walking_xpm[] = {
"156 60 47 1",
" 	c None",
".	c #744C28",
"+	c #7C502C",
"@	c #986038",
"#	c #845430",
"$	c #8C5C34",
"%	c #B07044",
"&	c #684424",
"*	c #A86C40",
"=	c #BC7848",
"-	c #A0683C",
";	c #5C4020",
">	c #483418",
",	c #E05C00",
"'	c #702800",
")	c #302810",
"!	c #3C2C14",
"~	c #B84400",
"{	c #BCBCBC",
"]	c #808080",
"^	c #FCFC70",
"/	c #B0B0B0",
"(	c #7C7C7C",
"_	c #A4A4A4",
":	c #503C1C",
"<	c #28200C",
"[	c #FC7000",
"}	c #686868",
"|	c #B4B4B4",
"1	c #888888",
"2	c #9C9C9C",
"3	c #606060",
"4	c #D45400",
"5	c #D8D8D8",
"6	c #A8A8A8",
"7	c #6C6C6C",
"8	c #747474",
"9	c #DCDCDC",
"0	c #FC7C18",
"a	c #EC6400",
"b	c #E4E4E4",
"c	c #C87C4C",
"d	c #D48858",
"e	c #949494",
"f	c #545454",
"g	c #C8C8C8",
"h	c #444444",
"                                                                                               .+@@+.                                                       ",
"                                                                                              .#$$$$#.                                                      ",
"                                                                                             .$######$.                                                     ",
"                .+@@+.                                                                       .%@+&&+@%$                              .+@@+.                 ",
"               .#$$$$#.                                .+@@+.                               +*=%-##-%=*+                            .#$$$$#.                ",
"              .$$####$$.                              .#$$$$#.                              #;>#@**@#>;#                           .$######$.               ",
"              .%@+&&+@%$                             .$######$.                             #&,')!>)',&#                           .%@+&&+@%$               ",
"             +*=%-##-%=*+                            .%@+&&+@%$                              #&~>&&>~&#                           +*=%-##-%=*+              ",
"             #;>#@**@#>;#                           +*=%-##-%=*+                             .#;&$$&;#.           {               #;>*@**@*>;#              ",
"             #&,')!>)',&#                           #;>#@**@#>;#                             >#>]^/]>#>;        (_                #&,';::;',&#              ",
"              #&~>&&>~&#                            #&,')!>)',&#                ((         .;!+<[<<[<+!;.&    }(|                  #&~>&&>~&#          1    ",
"              .$;&$$&;$.           1                 #&~>&&>~&#&                  223  #$#+;>).<[44[<.)>&#$.;:_5                   .#;&$$&;#.    6   }]     ",
"             $.-<]^/]<-.$+       1/7     6(       #$$.#;&$$&;#.;        8]         8922$-$:!<)&:[00[:&))>;+@+&::        (8    6  ..>#<]^/]<#:#+.&&.:]|}     ",
" ]6        @$#.@![<<[!@.#$$.   7627       (63  +#$$#.;#<]^/]<#>;.+.    _2           8&+#$#+>!);<]^/]<;)!:+@$#.&;         (28  #$#.;!+<a<<a<+!>;&+$$+9]      ",
"  ]2]7  #@-@#&:$>[44[>$:&#@-@$6b67         89(+$-@#;>!+<a<<a<+!>;.@@#.92             ;&..&&&:)>;cddc;>):+$#&&+.&           29+$-@&>)&:0000:&))>:.+-@+:      ",
"    e6b#@-$#;>!#:[00[:#!>;#$-@$#7           8&$-*#;!)).<a4[a<.)!!&#*@+&&:            >;;::;&;!):><<>:!:+#+..>;&;:           (.#@.:!);<]^/]<;)!:&$@@$+&      ",
"     86.#@-$.;>+;]^/];+>;.$-@$#+.           &&+#-@$;>);<]^/]<;)!:#@-@+&;:           !)<<>:]|f>!!;&&;!!;&]|&&>!::>9e]        ;.+#$&>!>;cddc;>):+#$#&&&;>     ",
"      &&.$@$#&:&:cddc:&;+#@@$#+.&           ::&+##++;>>;cddc;>):&+#$+.;;:       ]]_b>!<<)>>!>:>!)<<<!>;;:!;:!<<)>>>        !);&....>!>>!!>>)>&++#.:;:>!:    ",
"      ;:;+#+++!:.;::;.:&#$$$#.&&;>          !>!>&++.&>!>>!!>>):&+++&:!>:>!       ::::>)<<)!!>::>!!<!>:::>!:>)<<)!!    66g{]>!!!:&]|;>)>;;>)!&.]|.;!>!)!;9_( ",
"     !>>!&&&]|;!:;&&;:>.#6b#&;>;:>b61  6((&::))!>:]|;;!!>;;>!!;;]|&;>!!>!!9|1]   :;;>!<<)<)!>:;:!)!)>:;;>!!))<!:;:>     333:>))!:!>::!<<<<>;&&&!;>)<<!>::   ",
" ]]6b>!))>;;;!:>!>)<)>;.+.!&:>!>>>>>     /9:>))<<)!!>:>!<<<<)>:::!;:>)!>!!!      ::>!<<<>!)<<))!)!!!)!))))!>)<!;&;>     >;&;>!<)!!>::>!!<!>:;:>))<<<))!>:   ",
"  ::;:>)<)>::!::>!!<!>:;&;!:>!))!!!)     &:>!)<<)))!>::;:<)<:;;:>!:>!)!;::>&    :>!)<<)!)>!!>:;:!!>!!:;:>))!<<)>;:!     >;.&>!)<)!>::>!)<<)!!))!!)<)!))!>;  ",
"  :;;>!<<<)!>!:;:!)))>::;>!!))<!>>>!)    :>!)<<<!!!<)!>:!)!)!:::>!)!))):&;:>    :!)<)!>  )!>:>!>;:<:;>!>:>)) !<!>!)>    >:&;!))!)<<<)!)<)<))))!:>) !>!))):  ",
"  ::>!<<<>!)!!!!))))))!!!!!!>)<>:;:>)    :!))<<<!!<<)))!)!>!)!)))))!)<)>:;;!_ _:&&>))>    !>>)!::!<!::!)>>!   !<))!:2   >:>!)< !><!::>))>))>::>!!)  >>!))>  ",
" :>!)<<)!)>!!>:;:!)>)!:;:>!)!<<>;&;>)   >!))<<<!<!)!>:;:>!!!>:;:!)<)<!)!>>;:. :&+$.:>      >)<<<)!!!)))))>     !))>;:  :&&:>)<  )!:>!)>><>>!)>:))    )!!)!; ",
" :!)<<!>  )!>:>!>;:<:;>!>:>))  ):;:!<   !))))<!  )!>:>!>:><:;!!>;><<  !)!!:;: ;:&+.;:      !<)!:&:);&:!<)!     !:>:;>  #@@#&!)   !>))::!<!::!<!!)    <<<)!> ",
":;&>)<>    !>>)!::!<!::!)>>!    h!!<<!  !>)<<!    !!!!!>!)<!:>!!>:!    !!:;&; &::;;;;      >!))>>!)!>>))!>     >&:;:> .+###+;><   )<<<)!!!>!)<<)     <<)!:> ",
":&&:!)>     >)<<<)!!!)))))>      )))>>  !:>!:>     !)))))!!!))))!:     ;..;;:  ;>:;..:    !:>!))!!>!!))!>:     >;&;:> >;&&&&><<<  <)!:&:)>&:!<))     <<)!:! ",
";.&:!)      !<)!:&:);&:!))!      <<):;: !;&;:>     !))!:&:);&>))!>     &$#&;:   ;>:#+&;   >:>>:;&;&&.&:>>:      ;&;>   >>:;;<!<<  !))>>!)!>>)<)!     <<)>:! ",
"&+;:!)      >!))>>!)!>>))!>      <)!;&& !:;:!      :!))>>!)!>>))!>    ;.$#&;:    :>#.>&   ::>!>;&:!:&:>>::      :&;!      >:<<!<! !)<<))!!>!))!!     )<):>> ",
".#:>!       :>!))!!>!!)!!>:      )!>;.& !:>!!      :;:!!!!!!!)))!: >&&:$#.;:     :>:&.&   :;:>!::>:>:>!>;::    !>::!        >!<   )!!>>>!!:>!!>>      <!>!  ",
".+:!)      !:>>:;&;:&.&:>>:>     )>>&.} !>!)       >:;;;&;&..;>)!:>::&:&.&:       :>!>:   :&;:>>>!)!>!!;&;:    !!!!               !!>;&:)>&:>!:>>     ))!!  ",
"..:!       !:>!>;&:!:&:>!!:>     !>:&.  )!!)      !>>::;&:!;&:!>>:>>>>.:>:         )):   ::..;:>!))))!:&.;:    !!!!              :>>:::>)!:>!>:>>     <<<!  ",
"..:)       >;:>!::>)>:>!!>:>     !:;&;  ))))      !>>>>::>;;:!>:;;))))&:                 ::+#.;>!)))!>;+.&;>   !!!!              :;&&;:!!!>!!:>!!>   >)<!   ",
"&&:)       >&;:>!>:::>!!>:;:>   &++&.   <))))     !>>>>>>>>>>>:;&.:<<!!                  >:+$#&:!<<)>;.+.&;>                     ;.++.;>))))!>!)!>  >>!>!   ",
"&;&>      >:&&;:>!>>>!!>:;;:>  :>&&&.   <<)<)    !!>>>!)!!!!>:;.++&::                    >:.#+&;>  >:&.+.&;>                    >&+$$+.;!))<!!))!>  >!>!>   ",
":;..!     !:&.&;>)!!!!!>:&&;>! !!>;&    <<<<)    !!>>>!))))!:;&+@#&;:                    >>;..&;>  >;;.+.&;>                    >&#@-#.:><<<!!)<!>: :>!!    ",
":&&>!     ):&+.&:)<<<!>:;.&;>! ))!;:     <<<     !!>>>!)<<<!:;&#@$.;:                    >!:;;;:!  >&;;.&;:>                    >&#@-#&>> <<!))<!>;         ",
";:!)<     )>&#+.:)<<<!>;&.&:>!  <<<              !!>>>!))<<!:;&#*$+;>                    >!>:::>!  >;.:&;;:>                    >&#$$#:;> <<!<<<)>;         ",
" <<<      )>&+#.>)!  )>;&.;:>!                   !)!>>!))< !::&+*$+:>                    :!!>:>!>  >:;&>::>                     >;+#+&;&> <))<<<)>:         ",
"          ):;.#&>)>  )!:&&;>!!                   !)!>>!)<< >>:&.#+.:>                    :>!>>>!>  >>::!!>>                     >:&&&;.;> <)<<<<)!          ",
"          !&:;&;!!:  ))>&;:>)!                   !)!>>!)<<  !>:&&.&!                      :>!>!>:   >>!))!>                     !>::>&;:>  <<<<<)!          ",
"          !&;:;>>>:  !)!::>!)                    !))!!)<<<  )!>:;::!                      :>!!!:>&  !!!:>)>                      >!!!::>>  <<<<<)!          ",
"          !:&;!!!::  >!)!>!))                     )<))<<<   )))!!!)!                      >>!))>>;  )!;;;>>                      >!))!>>   <<<<<)           ",
"           >:>))!::  >!))!!)!                     )<<<<<<   ):!)))!>                       >)<<)>;  )):/;>                       !>;:!!!   <<<<<)           ",
"           )>!<<)!>   !)>>!)                      ))<<<<<   )>!:;:))                       f!>.))>; ))!]!!                        ;/&;!!   <<<))!           ",
"            )<>:>)!   )):5>)                       !:>!!<;  )!!&{+<                         !:/:))> !>!!!!;                       313:!)   )<<3)>;          ",
"            !<;;;))   ))!6!)                       !::>!<>;  !!;1.!                         >!])<<> ;:!!>!;                        >>!)!   >)<7)!:          ",
"             !;5;))   ))<]))                       )!>{><!:  &!>>>!#                        :><<<<> ;>!!>!:                        !<<<!>  :)<<<!>          ",
"             !!9:!!:  !)<<)!                        )!1!<<>  ;!>::!&                         :<<<<: >>!!>!!                        !<<<!!:  )<<<!           ",
"             !!))!>;  ))<<)!                        ))8<<<!  :!>;:!:                          !)<<:  >!!>!                         ><<<)):  )<<)!           ",
"             >)))!:;  ))!!)                          )<<<<   >!>;:!>                          !)<<:  !!!>!                          <<<<!:   )))!           ",
"              )))!::  )!>>!                          )<<))   !!>&:!                           )>>):  !!!!                           )))!::  !)<!!!          ",
"              )!>>>   !>>>>                          )>>))   )!>&:!                           >>>!:  >!!!                            !!!;   >><>>>          ",
"               >;&:   !>:>:>                         >>>!<    )>&:                           >:>:>!  >!!!                            >>>;  >:> ::>          ",
"               :&.;   >!> >>                        >:>:>!    !:;:                           >> >!>  >;;;                            :;::  >2! >2>          ",
"              :&..;>  >6! 6>                        >> >!>    :;.&:                          8! !8> >:..&:                          :&.;:>                  ",
"             &&.&;;:                                6! !6>   :;;&.&                                 :;;&.&&                         &.&;;:                  ",
"            &..> ;..:                                       :..; >..&                              :..; >..&                       ..> ;..:                 ",
"            &/!! >/>:                                       :>/> !!/&                              :>/> !!/&                       /!! >/>:                 "};
