/* XPM */
static char * former_commando_attack_xpm[] = {
"86 58 77 1",
" 	c None",
".	c #5F4323",
"+	c #6B4727",
"@	c #774F2B",
"#	c #7F532F",
"$	c #875733",
"%	c #9B633B",
"&	c #A36B3F",
"*	c #4B371B",
"=	c #932F00",
"-	c #9F3700",
";	c #A73F00",
">	c #9B5B13",
",	c #872300",
"'	c #533F1F",
")	c #43331B",
"!	c #2B230F",
"~	c #3F2F17",
"{	c #8F5F37",
"]	c #530707",
"^	c #CB0000",
"/	c #9B3333",
"(	c #EF0000",
"_	c #7F1B1B",
":	c #B30000",
"<	c #2F2F2F",
"[	c #AF4300",
"}	c #272727",
"|	c #373737",
"1	c #332B13",
"2	c #1B1B1B",
"3	c #5F0707",
"4	c #670B0B",
"5	c #4F0000",
"6	c #730000",
"7	c #430000",
"8	c #232323",
"9	c #5B0707",
"0	c #6B0F0F",
"a	c #470000",
"b	c #771717",
"c	c #5B0000",
"d	c #7F0000",
"e	c #8B0000",
"f	c #731313",
"g	c #9B0000",
"h	c #1F170B",
"i	c #670000",
"j	c #0B0B0B",
"k	c #131313",
"l	c #232B0F",
"m	c #732B00",
"n	c #2F371F",
"o	c #3F472B",
"p	c #474F33",
"q	c #373F27",
"r	c #0F1700",
"s	c #B74700",
"t	c #CB5707",
"u	c #8F2B2B",
"v	c #5B5B5B",
"w	c #AF7B1F",
"x	c #4F4F4F",
"y	c #575757",
"z	c #434343",
"A	c #C39B2F",
"B	c #D75F0B",
"C	c #3B3B3B",
"D	c #874307",
"E	c #D7BB43",
"F	c #FFFF73",
"G	c #171F07",
"H	c #C34F00",
"I	c #8B2323",
"J	c #831F1F",
"K	c #A33B3B",
"L	c #972F2F",
"                  ..+++..                                    ..+++..                  ",
"                 .@#$$$#@.                                  .@#$$$#@.                 ",
"                ..#$%&%$#..                                ..#$%&%$#..                ",
"                *+@@#$#@@+*                                *+=-;>#@@+*                ",
"                *+@.+@+.@+*                                *,==---=@+*                ",
"               '..$'...'$..'                              ',=;,,,,=$..'               ",
"               )#!~#{'{#~!#)                              )=]];;,;;~!#)               ",
"               '+'^!~~~!^'+'                              ',/(_~~,!:'+'               ",
"              <<*--+@$@+#$*                              <<,-;,-[+'+$*                ",
"              }|*,,1*'*1..*222                           }|,,,1,=*1*.*222             ",
"          334]5]),6777776*)8}}9449                   334]5]),6777776*)8}}9449         ",
"       77000003aa~37=;=73~2}<<___b9]              77000003aa,3];[=73~2}<<___b9]       ",
"     7944b___037917cdedc718}<8___f49]           7944b___037917cegdc718}<8___f49]      ",
"    73bb_3__093bb]h7777hh88<2]f434003          73bb_3,,,93bb]hiii7hh88<2]f434003      ",
"   7]4b__f30974__f]h77hh}}<25345]]304]        7]4b==f3,97,__,]h77hh}}<25345]]304]     ",
"   7]4b__f537]4bbbf97j28}<2k775]]]304]        7]b,==,5374,,,,f97j28}b2k775]]]304]     ",
"   7]4b__f57754444]ll28}8k77575]]]]9]]        7]b,==,574m,,,,]ll28bbk77575]]]]9]]     ",
"   71~**~177759999nopp8kj775777777a711        71~**~1774mmmmm,,,=b4j775777777a711     ",
"   ~*...'*1kj7777oooql777777jkh!1~~~**1       ~*,==g*1kj4444;===,777447jkh!1~~~**1    ",
"  ~*'+++.*1jjjj2}<qllrjjjjjjjjh!11~~~'~      ~*,=-gs*1jjjj2},s;,rjjjjjjjjh!,,~~~'~    ",
"  ~*.@@+'~!k72}<<<8lr77777777jh!!11~*'~]     ~,=--:tg!k72}bbu,,r73344477jh!,,,~*'~]   ",
"  ~'.@vvvv82<<<}8j77777777777jh!!!11>wwww    ~,=gdtw^g2bbbuuu4774b,55477jh!m,mm'>ww>  ",
" ~**xyz[[zyx<<8777jjjj7]303]7jh]!!!>wAAAww  ~*=gBtwAtBgbuub77jjjj7],,3]7jh]!m*,wwwAw> ",
" ~*xyC=>w=Cyy77jjjjjjjjjj]f0977]]!DwAw@$$#> ~*,dswAEwtdg77jjjjjjjjjj]f0977]]~*www@$$# ",
"]~zy=[wAAw[=yzjjjjjjjjjjjjk2lln]]]Dww@$@@#>]~g:twAFFAwt:gjjj7]44]77jjk2lln]]]Dww-$@@# ",
"]]z|xj=w>=jx|zGGGG!!111~'Glllln ]]D>w'+''+@]gstwAEFFEAwtHgGG4=--,,,,Glllln]]]D>w,-''+@",
"]~zz}j}[[}j}z<GGGG!!!!!h~j8888l   DD>~~~*'+]~,-dtwEwwtd-,GGG4===,,4,j8888l ]]Dw>-,,*'+",
" ~z<2<C}}C<2|<zjrG!!!!!!1G2}ll<  D>DD~~~*'+ ~,,esBAwBse,,zjrG,,,,,,,G2}ll<  D>>>,-,*'+",
" ~|z|2}CC}2|z<wDjGllll!<}}}}}8|  DD> ~~~*'. ~,[2edwtee2[,>DjGllll!<}}}}}8|  D>> -,,*'.",
" ,}||j2<<2j|<z>w>mGGGj}2|C||}2||D>DD  ~~~'   },[,[t:[,[,zDw>mGGGj}~****}2||D>>>  -,~' ",
"  ~}}C<22<C}}z]D>wmkk22}}b_b_}}|>D>          ~},,[:2[,,,z]>w>mkk2~**IIb_}}|Dw>>       ",
"   ~<}}||}}<}}a]mDw>m}||_Iff}}<>>wD           ~},,[[,,}}}a]>w>Dm}**IIIf}}<>w>D        ",
"   ~~}}}}}}jj7aa]mD>w>11}0Dm>D>>wD            ~~}}}}}}jj7aa]Dww>D11}0mD>>>w>DD        ",
"    ~~~~jjjj77aa2]mmD>wwwwwww>ww><             ~~~~jjjj77aa2]m>>wwwwwwwww>D>D         ",
"        j77722aa2]aak4D>>>>>DJ<<2<                 j77722aa2]aakD>>>>>DJJ<<2<         ",
"        j77228a]82jakk97777772<<22                 j77228a]82jakk97777772<<22         ",
"        7722]82282jjkk977777727}22                 7722]82282jjkk977777727}22         ",
"       j7]8}822jjjj jk772~~~}}}222                j7]8}822jjjj jk772}}}}}}222         ",
"       j2]8}222jjjj  k72~'***||<}2                j2]8}222jjjj  k728<|||||<}2         ",
"       j2222]]jj2j   kk~'*111}}<<k                j2222]]jj2j   kk}<C<}}}}<<k         ",
"       jj22222jjjj    kk}4f_IIIf98                jj22222jjjj    kk}4,--IIf98         ",
"       77]7jjjjjjj    kk530fbbb0497               77]7jjjjjjj    kk53,,,bb0497        ",
"       777]]7jjj77     k530fbbb0497               777]]7jjj77     k530,,bb0497        ",
"       977jjjjjjj7     k755]999]557               977jjjjjjj7     k755]999]557        ",
"       977jjjjjj77      a90_II__035a              977jjjjjj77      a9,=-=,_035a       ",
"       99777jjjj7       ja5]]9]]aaaa              99777jjjj7       ja5]]9]]aaaa       ",
"       999777jjj7       77530fb43]aa              999777jjj7       775d,=e63]aa       ",
"        99777jjj7        7530fb43]aa               99777jjj7        75d,=,63]aa       ",
"        9977jjj7         7]940b495aa               9977jjj7         7]6d==695aa       ",
"       99997jjj7         j7594bb9aa               99997jjj7         j75d,=b9aa        ",
"      7997777jj7          j794_b9]7              7997777jj7          j79,=b9]7        ",
"      99]]557jj7          90_uKK/u_              99]]557jj7          9,=--K/u_        ",
"     7995]]55jj7          7a93033aa             7995]]55jj7          7a93033aa        ",
"     77777777j7          j94bJIJJf9             77777777j7          j9,====Jf9        ",
"     7777jjjjj7          ]44JILLuuJ9            7777jjjjj7          ],=-;;;uuJ9       ",
"                         544b_____b9                                54,,,____b9       ",
"                         7]]4fff0039                                7]]4fff0039       ",
"                          7775995557                                 7775995557       "};
