/* XPM */
static char * former_commando_pain_xpm[] = {
"43 58 59 1",
" 	c None",
".	c #5F4323",
"+	c #6B4727",
"@	c #774F2B",
"#	c #7F532F",
"$	c #875733",
"%	c #8F5F37",
"&	c #9B633B",
"*	c #4B371B",
"=	c #2B230F",
"-	c #533F1F",
";	c #332B13",
">	c #3F2F17",
",	c #2F2F2F",
"'	c #972F2F",
")	c #430000",
"!	c #272727",
"~	c #373737",
"{	c #731313",
"]	c #874307",
"^	c #9B5B13",
"/	c #831F1F",
"(	c #5F0707",
"_	c #670B0B",
":	c #530707",
"<	c #4F0000",
"[	c #43331B",
"}	c #9B0000",
"|	c #B30000",
"1	c #232323",
"2	c #6B0F0F",
"3	c #771717",
"4	c #470000",
"5	c #670000",
"6	c #1F170B",
"7	c #5B0707",
"8	c #1B1B1B",
"9	c #7F1B1B",
"0	c #0B0B0B",
"a	c #131313",
"b	c #232B0F",
"c	c #2F371F",
"d	c #3F472B",
"e	c #AF7B1F",
"f	c #C39B2F",
"g	c #171F07",
"h	c #0F1700",
"i	c #3B3B3B",
"j	c #732B00",
"k	c #474747",
"l	c #5B5B5B",
"m	c #4F4F4F",
"n	c #434343",
"o	c #575757",
"p	c #6B6B6B",
"q	c #636363",
"r	c #8B2323",
"s	c #8F2B2B",
"t	c #A33B3B",
"                  ......                   ",
"                 .+@###@+                  ",
"                .+$$%&&%$+                 ",
"               .+@+#++.++@.                ",
"               *+.=.#&@&#.-                ",
"               *#@.*=-;-=-                 ",
"               *#+%%#%&%#%#                ",
"               *#+@+-*>*-#+                ",
"              ,,*.-';)));'*                ",
"             !~~*+.{)]^])/*                ",
"         ))(_:<:[-+_)}|})_[1!!             ",
"      ))))2332(44*:_)5656_)!,,,3           ",
"     ))7333333_47:{:66666:8!!,,{7          ",
"    ))(3399(_7)(3{22:)66:)7!!!14<3         ",
"    ):_3999{<)__999{7700:)7111<<73         ",
"   ))(4)))))00__333{7)0))7118a)77_4        ",
"   )>>>*-*>=0)_______:bb811aa<):<);        ",
"   >-.@$$@.=0)7_____7cddb11a<))));*-       ",
"   >+#$$$@-;a0))))))8cccd00))0a;*-.+       ",
"  >-+@$$$@*;00000008!cccc000006=>**.^eefe^ ",
"  :{{-@@+->=a00088!!0gccha:))06=;>;^ee&@@% ",
" :__((::>=118))8!!800000a::))06==(^ee&@$$# ",
")(_(-.*:,>i,11!!00000hh):(2:806=((^ee@$@@#@",
"));+@+.1>*-~8a000000000000:{27,6:*^^^-+--++",
")*+$$@.aa!!8!0agggg==;;;>-bbbbc4:*]]]>>>*-+",
")-+$$+iaa>.ia!0gggg=====6>1111j44j^^]>>>*-.",
" >-++*ki.lkiki000gg======;8!bbjj4j]]j>>>>- ",
" =>--im@#$$$lmi0gggggggg,~~,!~jj ^^^;;     ",
" =>>>i@knkkkikm,hggbcccb,!!!!1   ]]]       ",
"  ;=ikm~ioppoiin0gggccb!8~~~!8~ ]^^^       ",
"  ==ik~lm~00~nm~0gggggg!8~~~!8~~ee^        ",
"   =ikmqi8008ilm^jggg08!!!i~~!~^^^         ",
"   ==kk0,!88!,0knejaj08!!!i9r^ee^          ",
"    =k888,,,,888~^e^^j]~]r]^e^e]]          ",
"     k,81,ii,181,!j]e^e^e^e^^]jj8          ",
"     !!,,!00!,,!!:aa!j]j]j]!)))888         ",
"      !,,!00!,,!1aaa888)):::))))88         ",
"      0!,1881,!:aaaaa08)::::)8)!88         ",
"      )),,ii,a::aaaaa000aa888188!8!        ",
"        77000888::0a a00!,i,,,,~,88        ",
"       2)7000008880   8081_{9rrr{71        ",
"       22):00000000   a88<(2{3332_7        ",
"      )<27))4000)0     a<<(2{3332_7        ",
"      :_<<)))))(()      <)<<<<<<<<!        ",
"      :__))))))))       )4729rr992(<       ",
"      :__))))))()        04<::7::444       ",
"     :):7)))))((         4:7{{{_{(:4       ",
"     :_)))))))(          4:_{{{_{(:4       ",
"     )_7)))))(            4_{{2_93<4       ",
"     :)777)))             00)_7_{/34       ",
"     :)))))))              00)7_{//:       ",
"    :__{{{_)):             0729sttts9      ",
"    :7{____7):             0)))47(2((      ",
"    :777)))7):             077_/r//{7      ",
"    :):)))))):             :__/''ss/27     ",
"                           <__399993_<     ",
"                           )::_{{22(()     ",
"                            )))77<<<))     "};
