/* XPM */
static char * former_commando_walk_xpm[] = {
"180 60 63 1",
" 	c None",
".	c #5F4323",
"+	c #6B4727",
"@	c #774F2B",
"#	c #7F532F",
"$	c #875733",
"%	c #8F5F37",
"&	c #9B633B",
"*	c #4B371B",
"=	c #533F1F",
"-	c #2B230F",
";	c #43331B",
">	c #B30000",
",	c #2F2F2F",
"'	c #3F2F17",
")	c #373737",
"!	c #972F2F",
"~	c #332B13",
"{	c #430000",
"]	c #1B1B1B",
"^	c #272727",
"/	c #4F0000",
"(	c #530707",
"_	c #8B2323",
":	c #9B0000",
"<	c #5F0707",
"[	c #670B0B",
"}	c #232323",
"|	c #5B0707",
"1	c #470000",
"2	c #7F1B1B",
"3	c #7F0000",
"4	c #6B0F0F",
"5	c #771717",
"6	c #731313",
"7	c #670000",
"8	c #1F170B",
"9	c #831F1F",
"0	c #131313",
"a	c #0B0B0B",
"b	c #232B0F",
"c	c #2F371F",
"d	c #3F472B",
"e	c #171F07",
"f	c #0F1700",
"g	c #732B00",
"h	c #373F27",
"i	c #3B3B3B",
"j	c #9B5B13",
"k	c #AF7B1F",
"l	c #C39B2F",
"m	c #874307",
"n	c #170F07",
"o	c #474747",
"p	c #5B5B5B",
"q	c #4F4F4F",
"r	c #434343",
"s	c #575757",
"t	c #6B6B6B",
"u	c #636363",
"v	c #9B3333",
"w	c #8F2B2B",
"x	c #A33B3B",
"                                                               ..+++..                                                                                   ..+++..                    ",
"                    ..+++..                                   .@#$$$#@.                                       ..+++..                                   .@#$$$#@.                   ",
"                   .@#$$$#@.                                 .+#$%&%$#+.                                     .@#$$$#@.                                 .+#$%&%$#+.                  ",
"                  .+#$%&%$#+.                                *@@+@#@+@@*                                    .+#$%&%$#+.                                *@@+@#@+@@*                  ",
"                  *@@+@#@+@@*                                *.$.+.+.$.=                                    *@@+@#@+@@*                                *.$.+.+.$.=                  ",
"                  *.$.+.+.$.=                               =.-%#&@&#%-.=                                   *.$.+.+.$.=                               =.-%#&@&#%-.=                 ",
"                 =.-%#&@&#%-.=                              ;#@>-=*=->@#;                                  =.-%#&@&#%-.=                              ;#@>-=*=->@#;                 ",
"                 ;#@>-=*=->@#;                              =+%%#%&%#%%+=                                  ;#@>-=*=->@#;                              =+%%#%&%#%%+=                 ",
"                 =+%%#%&%#%%+=                              ,*.#.*'*.#.*,                                  =+%%#%&%#%%+=                              ,*.#.*'*.#.*,                 ",
"                ,,*.#.*'*.#.*                               )*=!~{{{~!=*]                                   *.#.*'*.#.*,,                             )*=!~{{{~!=*]                 ",
"                ^)*=!~{{{~!=*]]]                           /(;._{:>:{_.;]]]]                                *=!~{{{~!=*]^                            /(;._{:>:{_.;]]]]              ",
"            <<[(/(;._{:>:{_.;}^^|[[|                <<<<<<<<11*2{3(3{2*{}}}}<<<<<                   <<<<<</(;._{:>:{_.;]]]]                   <<<<<<<<11=2{3(3{2={}}}}<<<<<         ",
"         {{44444<11*2{3(3{2*{^,,[555|             |||522256<{|(5{7{|84(]},,,5225|||               ||[22256<11=2{3(3{2={^^^^<<<<             |||522256<{|(5{7{|84(]},,,5225|||       ",
"       {|[[555[|1{|(6{7{|84(]^,,[666||           <652<226444<56(8{{88({]},,^422<926<             <65[62644<{|(5{7{|84(]^,,,2255||          <652<226444<56(8{{88({]},,^422<926<      ",
"      {<552<[|{0<556(8{{88({}^^}<<<1/5          /<6654|[4<1<2225[aaa[5[}^^^]<[|4256</           /<[6[|[4<11<56(8{{88({]^,,^294454<        /<6654|[4<1<2225[aaa[5[}^^^]<[|4256</     ",
"     {([5226/{a{[2226|aaa({]}}}///(/|51         /<6654|/|1|422255(a(55]}}]]|1/|4566</           /<[[4|/11<2225[aaa/|[]^^^}[<42225</       /<6654|/|1|422255(a(55]}}]]|1/|4566</     ",
"     {<1{{{{aaa([5556|{a{{]]]]0{//1||[1         /<6654|//1||44444({([]]]]0a<1/|4566</           /<<<<|/1|422255(a1[5]}}}]//<622226/       /<6654|//1||44444({([]]]]0a<1/|4566</     ",
"     {{'*=*'-a{/[[[[|({a{]0000/{/||(/{~         {{/////{a|||<<<<<({(]0000a{{1{/////{{            /////{1||44444({([]]]]0a/16656626/       {{/////{a|||<<<<<({(]0000a{{1{/////{{     ",
"     {.@$$@.-a{/|||||(bb]0aaa/{{{{{{~*=         -~'*'~-8a///((((({{]00aaa1{{a8-'*=..*            ~1111{/||<<<<<(({]]]]0a{{{1((((<[/       -~'*'~-8a///((((({{]00aaa1{{a8-'*=..*     ",
"     +#$$$@=~0a{{{{{{cddbaaa{{a0]]~*=.+        ~*===*'-80a{{1{|(bb]0aaaa{{{aa8-*.+@+.=          '*'~--8///((((({]00000a1{{a8~*=='{/      ~*===*'-80a{{1{|(bb]0aaaa{{{aa8-*.+@+.=    ",
"    =+@$$$@*~aaaaaaabcccdaaaaaaa8-'**.+        '=..=*~-80aaaaaacddbaaaaaaaaaa88'.+@#@=          '*'~~--a{{1{{{]e000aaa{{{aa-*+@#@=-      '=..=*~-80aaaaaacddbaaaaaaaaaa88'.+@#@=    ",
"   (66=@@+='-0aaaa]0ebbbba0({{{a8-~'*=.       ~*..=*'-800{{{1]bcbbdaaa/{{11aa 8~*+@##+=         '''~~-8aaaaabe]0aaaaaaaaaaa'=+#%$.*     ~*..=*'-800{{{1]bcbbdaaa/{{11aa 8~*+@##+=   ",
"  ({{/<**'-}}]{{]0aaaebbf0(({{{a8--~~1((      '==*''--]00a/1]aebbbba//1{{{11ag8-*.+##+=         ~~~~-88{{{{chceaaaaa0{{1{{{~*+#%$.+     '==*''--]00a/1]aebbbba//1{{{11ag8-*.+##+=   ",
" {{~=='(~,'i,}}]0aaaaaff{(<4<(]a8--~=++jj    /'*'~'-^}}^]0{]aaaebbaa{<4<({/aggg-'=+kkkj        //~~~-88a/1beebbaaa001{{{1{{-*=@@@++    /'*'~'-^}}^]0{]aaaebbaa{<4<({/aggg-'=+kkkj   ",
" {*+$@+'}'*=)]0aaaaaaaaaaaa(64|,h8-=+jklkj   /<</{--^),,^]]aaaaaaaaaaa(64[||,ggg*+kk@$%$       //---8]]]{]eeeeeaaa011<({1aa{'*.+.=*    /<</{--^),,^]]aaaaaaaaaaa(64[||,ggg*+kk@$%$  ",
" {*+$$+'}'*=)]0aaaaaaaaaaaaa0]bbc8'+jk&@@%   /</{/{^,),,]aaaaaaaaaaaaaeeeeeeeegg*jk@$@@%$     '*'~-88]]aaaaeeeaaaaaa(64[|1{}'*###4~    /</{/{^,),,]aaaaaaaaaaaaaeeeeeeeegg*jk@$@@%$ ",
" {=+@$.^0^^]^a0aeeee--~~~'=ebbbbcg*jk&@$$#   ~**'~^,)i)]aaaaaaaa88-~'=fbbbbefbgg*jj=+=+#%     '*'~^}}}]aaaaaaaa8---~eeeeeeemjklllj4<   ~**'~^,)i)]aaaaaaaa88-~'=fbbbbefbgg*jj=+=+#% ",
"  '=++*i0'.i0^afeeee-----8'a}}}}b gjk@$@@#@  ~.+.'^}^^^]aaaae88888--8*aebbbefb  *jk''..+#%    '*~^]}^}aaaaaaaa88--n~a---}~$&&$$kllj6   ~.+.'^}^^^]aaaae88888--8*aebbbefb  *jk''..+#%",
"  -'==*oi.poioimaaae------~e]^bb,  mj=+==++  ~.+*,0'.i0^]aa}}8888---~']]]]eefe   jj''*=+@@    '~-00000]a00aaa8888---eee]~@#%%%@#kll6   ~.+*,0'.i0^]aa}}8888---~']]]]eefe   jj''*=+@@",
"   -''q@#$$ppoikaaeeeeeee,))),^)   mm'''*=+  ~*.*o,=+i,i,a]]]eeeeeeee]}}}]],,]  jjg''*.=.     '~^,^}000000aaaaaeeeeee]]]~+@@#%@+@klk   ~*.*o,=+i,i,a]]]eeeeeeee]}}}]],,]  jjg''*.=. ",
"   -~r@orooiopokmafebcccb,^^^^^})   gg''*=.  '*=iq.+o,)r^jg00eebbccbe}^,,^}]],  jm   *=*       -^'6(]^]]0^]0aaabbcccb]]]]=..+#$@++kk   '*=iq.+o,)r^jg00eebbccbe}^,,^}]],  jm   *=*  ",
"    -q)isttsiiskjmaeeccb^])i))^]))  mg'''=    '*rq.@o,ir^km]]0fbbccbe^}0]]]^]]~jjm             ^,='(},]}g}^,,^}ebcccb}}}]-*=+.+@**jk    '*rq.@o,ir^km]]0fbbccbe^}0]]]^]]~jjm        ",
"     )pq)aa)rq)jjkjgeeea]^^i2)2^)r  mg        ~rq.@oiir),kjm,]0ebbbee^0]}}^<}]mjj              ,i=i]^,(]gm4,)),}bbbb]]]]]m-*=*.ggmj     ~rq.@oiir),kjm,]0ebbbee^0]}}^<}]mjj         ",
"     qui]aa]ipqgmkjjg00]))2___^^i~ jmm         qputppor,}mjkg110eeef^0]}}1<51mkj              ^,==,},,(0gmjmjg,}]]a0]]]]gmg-88gggm       qputppor,}mjkg110eeef^0]}}1<51mkj          ",
"     oa,^]]^,ao)4gjkjjg^~~^4466^,~ jmm        pq),},opq,}]jkjgaa]aa{]]1(<<4mjmjg              ,i=i]^,^]0gmkmkmjg]0aa0]]]mgg{08          pq),},opq,}]jkjgaa]aa{]]1(<<4mjmjg          ",
"     ]]],,,,]]])4ggmjkjjg~m4g66^^mmjj         )},i)},,qi}]gjkmjg]0aa{111(mjmkjg]             rqsv96,,}^a]gkjkmkmjga00]]mjg{{]8          )},i)},,qi}]gjkmjg]0aa{111(mjmkjg]          ",
"     ,]},ii,}]}^<(^(gmmjkjkjkmjmjmkj         ,,}ioi,i)}i,1]gkjkmjmg{](gmjmkjjg]]            )}aa]i)6,]a]]](<mjkjkmg0]]gkgg1/]~         ,,}ioi,i)}i,1]gkjkmjmg{](gmjmkjjg]]          ",
"     ^,,^aa^,,^(}(}]a1|[m5m9mjkjkjj          ,i,]]],ii}},1a|gmkjkmjmjmjjkjmg<a]]             a]^}aa])^0((]<4,,,gmjjmgjkgg1/{a          ,i,]]],ii}},1a|gmkjkmjmjmjjkjmg<a]]          ",
"      ^,}]]},^(}^^}]a1|{{{{{{]{^^,           ]0]^^^]0]^^a1a{/}gmkjkjkjkmg444<a]             }a^,}a]}]a^((]<,,,4^]mkjkmg111//a          ]0]^^^]0]^^a1a{/}gmkjkjkjkmg444<a]           ",
"        ,ii,0((}^}]]aa{{]]]]]}]]^             ]]^^^^]]^1][[{aaa}g<g<g<g|||<[(1              }a]aaa^^]0 ((]<^^^,^]aa0{{{{{{//8           ]]^^^^]]^1][[{aaa}g<g<g<g|||<[(1            ",
"            0a(}^]]]aa{]},,^^,}]^              ^]a]^^^11|[^^^0aaa]a001}}^^|^}]                ^aa]aaa^ (]}^^^^^}aaa0{1111{{{a            ^]a]^^^ ]]}^|^^}}100a]aaa0^^^[|1           ",
"            aa]]]((aa]1^,i,,,),]]                }}}  11]},,,^}}0a]a0]}]]}^^}~                    ]]]  (]},,,,,^}]0{0000{{{]8              }}}   ]]}^^}]]}]0a]a0}}^,,,}]1           ",
"             a]a]]]aaaa}[62___6|}                      1[29992<01aaaa0]]]}}}}|                          }|69____9[}a0{{{{{aa8                     |}}}}]]]0aaaa10<29992[1           ",
"             {({aaaaa{a/<465554[|                      1|65556[|{aaaa/[62__6||                          |[422__95</aaaaaa00{                      ||6__26[/aaaa{|[65556|1           ",
"             {{(({{{{aa/<465554[|                       1<444|({aaaaa/||||||||                          |[4556664</aa0000]{4                      ||||||||/aaaaa{(|444<1            ",
"              {{{{{{aaa{////////^                       {{{aaaaa{a{aaa{||||||[                          ]/////////{a00{{{<44                      [||||||{aaa{a{aaaaa{{{            ",
"              {{{aaaaa1|42__224</                        {{{{{{{aa{a{{a{{{{{02                          /<42____24|10000{{<<                      20{{{{{a{{a{aa{a11{{{             ",
"               {{{aaaaa1/((|((111                          {11aaa{{a{1{000//2<                          111((||(1/1a000000{{                      <2//000{1{a{{aaaa1{               ",
"                {{aaaa1(|[66[[<(1                           1aaaa{aaa/(|<[[411                          1(<[6666[|(1aaaaa0{                        14[[<|(/aaa{aaaa1                ",
"                 {{aaa1(|[66[[<(1                           ||aaaaaaa{//////(                            (<[62226|(10000{{{                        1(//////{aaaaaaa||               ",
"                 {{{{aa1(|[4[[|/1                           ||1aaaaaaa{///111                            /|[42224(1aaaaa0/                          111///{aaaaaaa1||               ",
"                 {aaaaa{/|[[||11                            55<<(aaaaa{///11                             11|[555|/{aaaaa0/                          111///{aaaaa(<<55               ",
"                 {{{{aaa{|[[||({                           |54<<(1aaa{a{//[6                              (|[[[[|{aa0aaa0/                          16[//{a{aa1(<<45|               ",
"                {((//{a|42wxxxw2                           <54<<(1aaaa((<[4({                             62wxxxw4|a00001/                           (4[<((aaa1(<<45<               ",
"                {/((/{a{1|<4<<11                           14<<(11aa{{aaa{11{                             11<44<|1{a111(4/                          {11{aaa{{a11(<<41               ",
"                a{{{{{a|[59_996||                          1111111aa{{11111|{                            ||69__95[|a1111</                          {|11111{{a1111111               ",
"                 aaaaa([9_!!ww94|                           aaaaaa  11(|<[54|                            |49w!!!_9[(00000                           |45[<|(11 aaaaaa                ",
"                      /[5222225[/                                   11(<[[5[/                            /[5222225[/                                /[5[[<(11                       ",
"                      {([66644<<{                                   {11///<<{                            {<<46666[({                                {<<///11{                       ",
"                       {{/||///{                                     {{{{{{{                              {//|||/{{                                  {{{{{{{                        "};
