/* XPM */
static char * baron_of_hell_fireball_death_xpm[] = {
"135 40 15 1",
" 	c None",
".	c #27531B",
"+	c #37732B",
"@	c #1F4317",
"#	c #2F6323",
"$	c #439337",
"%	c #3F832F",
"&	c #4B9F3F",
"*	c #53AF47",
"=	c #5BBF4F",
"-	c #5FCF57",
";	c #67DF5F",
">	c #6FEF67",
",	c #17330F",
"'	c #77FF6F",
"                                                                                                    .+   .      .      .               ",
"                                                                                                       @@#.                            ",
"                                                                     .     .                           ## . ##    #.                   ",
"                $       #                                   .+%     ##.   #%+                       # #    .#%#    #             +.    ",
"                                                            +$+           +                  #          #+%+$$%%+#              .#+.   ",
"                         ## #+#                              +++%                             #        .+%+%$%$$$%$++.      ...  .#+   ",
"                  %%     %# +$%                       +%      +%$%                                ##. .#%$%+%+%$%%$$##  .#. #+##  .    ",
"                 +$$%   .   ++#                       %%%     %&*&% %+#        +%+#             .++%+ #+#+$+##+%+#%$.. .+%+# #%+#   @  ",
"             %$  %$*$$$+%      +                       ++   %%&*=*&%$*%    ++$&%&$+#            #%#+.  #+%+#..++  #. .  .%$++++%#      ",
"             %&%  #$*&&%$%# #++%*&+                      #+%$*&==-=*$&*$ $*&**$+%$%+          .  +##    .##    .  . .#. .#++%%#++ +%   ",
"              $%   $==*%$$+ #+%=;=$                      #%%**==-=*=*==*$**===*%%%+                 +    . # +#     #+. +%#+$%+.# #+   ",
"          @   &&$%%&=;-&*&%+$*$-;;$                       +&****=-===--===--===%+#            # ##.#++#   .. #.      # .+$ #++##  .#   ",
"              **&**&--=-;==$*-**-*+                      #$*&*=---------=----==$+            #+#%+ .##++          #    .+++#+##+#  .   ",
"             #$&=--==-->>;;=**$$%%                     ##+%=-=--==--=*=------=&%+ $%+        .+##   . .#   ,           ##.. # ##.      ",
"            +%$&->;=*-;>>>>-=&$+#  +                  #+$$$*--=***=-***=----=*&%% %&%      . ..   .      .            #  #   #+%##.    ",
"         &   #%%=;;>;>>'>''>*$$#+$=%                  #%$&*---=**&*=*&*===---**&&%              +     ,             #    ++# ##%$%#.   ",
"            #%+$*-->>''''''>-**%+%&&.               #+#%&**===-=*&&**$*=**==--==*%            #%$+%%$  @            ##  ##+#  %$$+.    ",
"          %$$%&=-;;>''''''';=--&$*$%               #%++$&*=-==***$%$&$&$**===--=&%%%       @ +#%&%%+%#                      + +%+#+#.  ",
"         %$**&==-;>'''''''>;;>;=*-*$              .+%$%&*=--=*&&&$   $%$=-------=*$%+     @#..#+$%++                    #+%%%##+%$%+## ",
"         +&*-=*=;>'''''''>;;'>;-**$+              #%+%$***=--*&$$$% %%$&*==-----==&%#      @. .$%+##.                    #+%%###+%+#.  ",
"      %%  +$*&&&-;>''''''>>;;;-=*%#  %            .++%%$&&*=-=*$%%&$%%%$&**==--==$%#  %   @.+#+$%%+                         +#%+++#+#  ",
"      $$    %%$$=-;>''''>'';=*=-;=$ %&+            .#++%&$&*=-=& %&%&&&&=--==-==&%+        .@ #%++%+  #.               # ##   +%+#...  ",
"         +  %$*&=-;>'''>>'';=*=>;;$  +               .#+$&*==--=*&% %$&**------==$    +       .# #++##                   #+#  +%+# .   ",
"      &=*   +*==*==;>>>;;;;=***-;=&+           #      .+%$*====-*&$  $&**=-----=*$   +%#   @# .+ .##.                       + #+#.     ",
"      %$&  #%&**$&&-;;---==*=&$%&*=%                  #++$&*==*****$&&*===*=--==&%+   #    @.  .# .+#  #.                 #+% +%+# .   ",
"          ##+%&&+%%&=-=&*==-*$$#+%&+                  +%%%$&***===-***=-**=&==*&$+#          #  .# .  #.@           #.    #+%#%$++     ",
"           #+%%%+%%&***$&*=-*$$#++%+           #+     #+%$%$&*=----====-=**$$&$$%#.            #+# #++     #     .  ..  ##+# +%$+#  @ @",
"            ##  %&&%&$$%$&*&$##@##+            +%#    ##%%$%$*==---=---==&&++%++#@@          .#+%$%+%# .              #++$$ #+$%#..    ",
"          .     +%%#%$%+#+++#++%                      ##++%%$&===-=*=-=**&$%#.@..@          .##+%&$%+    .      . #     ++%+%+%#.#.    ",
"                #++ ##%%+##  %%$%%                     ...#+%%*===*&$*&$$$%$.               @..#+%+#.   ##   .    +#  +#  +%$%#..#.    ",
"                 ## #+$$%#.  %$&$% #                       #+%%&**&%%$%%$%%+#                @ .##+#%+#%+# # #    %+#     +%$$+#..@    ",
"         .  #+      %$$%    %$&*                           .#++%$$%##+%$&$%+                  .++##+$%%$%+#+#+.  #+#  +%+#%++%#.@@     ",
"            .#   +%  %%   +  %%                            ..#####@ .#++++. #++               .#+#+.%+%$$++++##.#+++#+%$%+#.#+. @      ",
"                 #+$$                                       ....@@    .##.    +%+              .. ++#++$$%%$%+#+%%$%+%#+##. .@         ",
"                 #%*$   #                            #+          +#          +$%#                 #. ##+%%$$$%##+%%++#+%#              ",
"                   +                                 .#     +%   ..          %$+#                    .+##+%%+# ###+##@.## @            ",
"                                                            #++#              +#                     @.#..##@    .#   ..#    @         ",
"                                                            ###                               #+      @.  @@        @.##.   ..         ",
"                                                                                              .#   @        .,       ...   .#.         ",
"                                                                                                     ,@     ,,             @.          "};
