/* XPM */
static char * mancubus_pain_xpm[] = {
"74 67 121 2",
"  	c None",
". 	c #575757",
"+ 	c #4F4F4F",
"@ 	c #4B4B4B",
"# 	c #5B5B5B",
"$ 	c #434343",
"% 	c #3B3B3B",
"& 	c #2F2F2F",
"* 	c #373737",
"= 	c #474747",
"- 	c #272727",
"; 	c #1B1B1B",
"> 	c #3F2B1B",
", 	c #774F2B",
"' 	c #8F5F37",
") 	c #A36B3F",
"! 	c #875733",
"~ 	c #7F532F",
"{ 	c #6B4727",
"] 	c #AB6F43",
"^ 	c #B37347",
"/ 	c #CF8353",
"( 	c #4B371B",
"_ 	c #E79B6B",
": 	c #9B633B",
"< 	c #6B6B6B",
"[ 	c #636363",
"} 	c #CB7F4F",
"| 	c #372313",
"1 	c #1F170B",
"2 	c #BF7B4B",
"3 	c #DF9363",
"4 	c #533F1F",
"5 	c #D78B5B",
"6 	c #777777",
"7 	c #574333",
"8 	c #5F4323",
"9 	c #3F2F17",
"0 	c #EFA373",
"a 	c #7F7F7F",
"b 	c #F7AB7B",
"c 	c #432F1B",
"d 	c #533F2F",
"e 	c #2B230F",
"f 	c #473323",
"g 	c #170F07",
"h 	c #838383",
"i 	c #332B13",
"j 	c #2F1B0B",
"k 	c #070707",
"l 	c #000000",
"m 	c #439337",
"n 	c #1F4317",
"o 	c #171F07",
"p 	c #232323",
"q 	c #0B0B0B",
"r 	c #2F6323",
"s 	c #4F3B2B",
"t 	c #5B472B",
"u 	c #2F371F",
"v 	c #6F6F6F",
"w 	c #4F3B27",
"x 	c #232B0F",
"y 	c #131313",
"z 	c #5F4B37",
"A 	c #430000",
"B 	c #675333",
"C 	c #676B4F",
"D 	c #872300",
"E 	c #932F00",
"F 	c #670000",
"G 	c #530707",
"H 	c #9B5B13",
"I 	c #874307",
"J 	c #972F2F",
"K 	c #939393",
"L 	c #7F0000",
"M 	c #771717",
"N 	c #732B00",
"O 	c #8B2323",
"P 	c #A73F3F",
"Q 	c #5F0707",
"R 	c #6B0F0F",
"S 	c #8F2B2B",
"T 	c #775F4B",
"U 	c #9B3333",
"V 	c #7B634F",
"W 	c #831F1F",
"X 	c #FFB383",
"Y 	c #6F5743",
"Z 	c #4F0000",
"` 	c #67533F",
" .	c #8B735B",
"..	c #6F7357",
"+.	c #9F8363",
"@.	c #A78F77",
"#.	c #BFA78F",
"$.	c #9B7F6B",
"%.	c #373F27",
"&.	c #470000",
"*.	c #FFCFB3",
"=.	c #9F876F",
"-.	c #5B6347",
";.	c #836B4B",
">.	c #AF977F",
",.	c #7B7F63",
"'.	c #3F472B",
").	c #937B63",
"!.	c #B79F87",
"~.	c #8B8B8B",
"{.	c #BFBFBF",
"].	c #8F7753",
"^.	c #836B57",
"/.	c #B7B7B7",
"(.	c #9F9F9F",
"_.	c #474F33",
":.	c #F7ABAB",
"<.	c #53573B",
"[.	c #FFC79B",
"}.	c #ABABAB",
"|.	c #4F3B23",
"                                . . + @ @ @ . # # # #                                                                                               ",
"                          . + $ $ $ $ % & & & & & * = + + +                                                                                         ",
"                      + $ . $ * * & - ; ; ; > , ' ) ) ) ) ! ~ ! ' ' { {                                                                             ",
"                  . # + % * - - &       > ! ) ] ^ ! ! , { ) ^ / ^ ! ~ , { {                                                                         ",
"              # # + $ * *             ( ! ) ^ ] ! ^ ! { ) ^ _ _ / ' ~ { ~ : { ! ' ! ! ! ! ! !                                                       ",
"          < [ # + $ *       ^ } / / > | 1 , ' { 2 ! { ( ) ^ / 3 ^ ' { 4 : } : ' ) ^ } / / 5 } ^ : : : )                                             ",
"        < 6 [ $ 7 7 : 2 / 5 5 5 / : ( > 8 8 8 8 : ' ! : : ) ^ ] ) ' 8 9 : ] : , : 2 / / 5 0 0 3 5 / ^ : ' ' '                                       ",
"      < a # ( : ^ 2 _ 0 _ 3 5 / : { > { 8 ( ( 8 ' ! ' ~ ' ' ' ! ! ( 9 9 , : : , : ^ } 5 _ b b 0 _ _ 3 / 2 ) > c d e c ( ( ( ( ;                     ",
"    < 6 . 7 : ^ 3 3 _ _ 3 5 / : { | , { 4 ( ( 8 : , , 8 , , ' 2 ] { ( 9 8 ] : 3 ) ' ^ 2 / 3 3 _ 3 3 / } ^ : | ( ' ) ) ) : ~ ~ { f g ; $             ",
"    < < > ! ) / 3 3 3 5 / ^ : { > | : { ( ( 8 : { 4 8 ( 4 { ' 5 3 ) , 9 8 } ) ( 8 ~ ' ) 2 5 3 3 3 5 / 2 ) 8 > ( ' / 2 / / 2 ] ' { 4 e ; @           ",
"  < h 4 4 ! ] / / / / / ) : { | | , ] { i > ! / ! , ( ( 4 { ' } ) , 8 8 ] ~ ( ( : , ~ ' ) ] 2 / / 2 / ) 4 > | | ' 5 5 } / / 2 ) ' { 4 i 1 =         ",
"  < h 9 4 { : ^ ^ ^ ^ ' ! ( c j > ! ^ { e j ] { 5 ] ! ( 4 ^ : { e e ( : } { ( } { ' ! ! ~ ~ , , , { ( > > > 4 4 4 ) 3 5 / / 2 ) : ! 8 i | f [       ",
"  < < k | 4 { ~ ~ , ( | e c > j > ! ^ { e g ) > ' 5 ^ ( } _ , l m n : 2 : { ( ~ ! : : : : : : ' ! { | ( , ' ) ) , { ) 5 5 / 2 ) : , 8 i o 1 %       ",
"< h p g 1 1 g g g g g j ( ( ( > j , ! { e q { 4 l r { e ^ ! 8 q l 4 ' : { ( 8 ~ : ^ / 5 5 5 / 2 ] ' ( { : ] / 5 ) , 8 ' ) ] ] : ' { ( 1 j s q       ",
"< 6 & f > > > e g g ( { ~ : : ! ( | , { i l { > q q l l e l q q 9 , , , ( ( , ~ , ^ ^ ^ ^ ^ ^ ] ' 8 { ~ ] } 5 3 5 ' { 4 ( { , { ( | g g k t u       ",
"v + f w 8 { ( | 4 ! ~ ! : ] ] ] ^ ! > , ( l c { ^ 8 ( { , ( ~ ] 2 ' ~ 8 8 8 , ~ { , , , , , , , { 4 { : ] } 3 3 2 ' { 8 > > > > > ( { 4 q 1 x       ",
"v + ; ~ ! ! 8 t , ' ~ ( ! ] / / / ] ^ ! 8 > l > > ( l 4 ^ 8 ~ ~ ' : ' : ^ / } ] { { ~ ~ ~ ~ ~ ~ ~ ' ) ] } / 5 2 : , { 8 ( , ! ' : : : , c g y [     ",
"+ + g z ! ' ' ' : ! { | 8 : / 3 3 / ] ] : 8 | 9 ! { l l l l j l A 9 9 9 4 ' } ' 9 { , ! ! ! ! ' ] ] } 5 } } 2 ^ ^ ^ ) , ' ) 2 ^ ^ : : ! B x C [     ",
"D E F { ! : : : ^ ' , > k > : / 3 3 / } 2 ' 8 e { ' G H G G G I l J ] 4 e , ' 9 8 ! ! : : : ^ 2 } } 5 / 5 / 2 ^ 2 2 ) ' ) 2 ^ ] ^ : , 8 f * K [     ",
"L F A | e ( , ) / / 2 ~ c g 8 ' / 3 3 3 3 / ' > e { M N N A N I A O / ] ( { 4 e , ! : ] ^ 2 5 5 5 5 3 / 5 5 } } 5 5 2 ) } ^ ] ^ ' , 4 9 4 * h [     ",
"A 8 8 ( | > 9 ( , ) / 2 ~ | l 8 ' / 3 0 0 3 5 ' > > ' M M P J M Q J / ] ~ 4 e , ! ! : ^ ^ / 5 3 3 3 3 5 3 3 5 3 3 5 / / ^ ' ^ ' ( | | e ( & [ h [   ",
"- ! ) 8 ( > { c 4 4 , } ) ~ l 1 8 ' 2 5 3 3 / 2 ' , G ' G Q Q R S 8 ] : { 9 4 , ! , : ] ] / 5 3 3 _ 3 3 _ _ 3 _ _ 3 5 ^ ' ) , ( 1 | | c 8 T [ h [   ",
"y 8 ! ! 9 > { 8 9 > 4 { ) : l k j ( 8 ' ) 2 2 2 ^ ) 4 G { M ] U P : : { : 4 { ' ! , : ] ^ 2 / 5 3 _ _ _ b b 0 0 _ 3 2 ] ~ { | 1 1 g e { 8 V [ < [   ",
"y | g | 1 > { { 8 > > 4 { : k k k | | 9 4 , , : ^ : { 4 G G 4 W W 8 ! ) { { : ] ~ , : ^ ] 2 / 5 3 _ _ b X X b _ 3 5 2 ~ i 1 k k g g j 8 { Y [ < [   ",
"y e q y k 1 e > > > 9 > 4 ~ g 1 4 ! ^ } ^ ] : ) ^ ) ! { 4 { ' ) 2 ^ : ! ) 2 2 ] ! , ' ) ] ^ 2 } 5 5 3 0 0 0 _ _ 5 2 ~ i ( l l 1 4 c e ( > {   [ K [ ",
"y y k y i 8 ~ { { ( ( 9 9 { 1 9 | 4 ! ] } 5 5 / } } ) ! , 4 ( ( { 8 ! ^ 2 2 / 2 ] ! , : : ) ) ^ ^ } 5 5 5 5 5 2 ~ i i ( 8 l g e 4 | j G R W   . K [ ",
"y q g ( 8 ' : ~ , ) ' 8 9 9 g 8 9 | | c w { ! ! : : ^ 2 2 3 / ] ' : 5 } 5 } 2 / 2 ) ! , , , , ! ' : ) ^ ) : , > i ( 8 { ( k 1 j | j G Z A Q   $ h [ ",
"y g i , , { j { ) 2 ' 8 9 e g j { ^ ] 2 ] ] ] : ! ] } 3 _ 3 5 / ] 2 5 3 / 2 / 5 } 2 ] ) : : ' ! ~ , { 8 ( > ( ( 8 { , ( 9 q A A > > A A A Q   * h [ ",
"y 1 c { | g > ) 2 / ! 4 e e g e e i i 9 ( ( , ' ~ ^ ] } } 2 } 2 2 ^ ^ ^ 2 2 / 3 3 5 5 2 2 / ] ^ } 5 3 5 / / 2 : : ~ ( 9 4 > `  ...C ..Y T + * * 6 [ ",
"y e 1 | l j ) 2 / / , > e e g e 4 ' ~ i ( ~ ! ~ { ' ! : ] ) ] ^ ^ / 5 / / 2 / 2 2 / 2 ] ^ ^ 2 2 ] ) : ) ! ~ , 8 ( 9 8 , 4 B +.@.#.$. .s %.+ * * 6 [ ",
"&.A &.g 1 , ^ 2 2 ' > ( { c l l i 4 ' 4 i i ( { { { : ] ^ 2 / 5 5 5 / / / / / / / / } ^ ^ ^ { , { , ' ^ 5 3 5 ^ ) : ! { 4 ` $.@.*.=.a -.u + * * v [ ",
"L F A | c ! ] ] ! ( 4 { ! e g k g j 4 ' ! 4 9 9 { : ^ ^ 2 / / 5 3 3 3 3 3 3 3 5 5 5 / 2 2 ] , e | ( 8 ~ ' ^ ] ^ : ' { 4 j z ;.+.*.>.,.'.; & '.= v [ ",
"E L A | { ! ' , { { ! ' { g g k e e e 4 ! ! { ( ~ ] ] 2 / / 5 3 3 _ _ _ _ _ _ _ 3 3 5 2 ^ ] { | j | s 8 ' ) : : ~ { 4 | e 7 ;. .#.>.$.- & ; & = v [ ",
"# < D i ( ( { { { ) 2 ' 4 g g e 9 j e e > 4 ' ' : ^ ] 2 2 / / 5 3 3 _ 0 0 0 0 0 _ 3 5 / ^ ] ' f | | | > s s 8 , { ( j > i ` w ;.).!.@.Y ..- = . ~.[ ",
"# < = i ( ( f ( ^ O J : t g g e 9 e e ( e e > 4 ~ ' ) 2 2 2 / 5 5 3 3 _ _ 0 b 0 _ 3 / } ) ] ] : : 8 | | | 1 e > e e 4 { o T ;.$.=.{...` -.+ = [ 6 [ ",
"# < = i i | > O M Q Q M f   g g 9 9 e 8 { ( | j i ( ~ ] ] ^ } } } / 5 3 _ _ 0 _ 3 / 2 2 ) ' ] ] 2 / 2 : ! 4 ( i > ~ ' > g 7 +.` ;.).7 & - - y v [   ",
"# < = g 1 j O Q G &.&.&.1     g k 9 8 e 4 { { ( j i 4 ' : : 2 2 / } / 5 3 3 3 3 5 2 ^ ] 8 1 4 ' 2 ] ' ' c c 8 ' ' { e g ` g ; - * $ - - ; - p a <   ",
"# < = q | M G &.;.].;. .=.7     g | ( 8 | > : ] ] , { 4 { ! ' ) ^ 2 } / / 5 5 / / ^ ^ ] { e j 4 ' , ( c 8 ] ' 8 1 1 e 8 z y - & ` * = % * - = + <   ",
"# < = k M &.G ]. .^.^. .V T ].    | | ( ! ( ( ] 5 } ^ { ( 8 ' ! : 2 / / 2 2 2 2 2 2 ^ ) ) ( e e e 8 ) ] : 4 | 1 1 e { { w f ` =./.>.,.v # * ; % <   ",
"# < = k G +.` ^. .^.).^.).^.z V     i c ) : > : / 5 _ / ~ { 8 , ! { { ' 3 / 2 ) ) ) : ! ' ' 8 ~ ^ / ^ , e j 4 { > | { 4 ( z @.@.>.). .=...- y * [   ",
"# < = q &.$.@.[ ,.).).)...T z & s s ` w ( 2 : ! 5 5 5 3 / ] ) : , ~ c f , : ] : ^ : : ! ! ^ 5 2 ) , j c 4 ~ 9 g g 1 e | d 7 >.@.>.+.).@.[ u u . .   ",
"+ < = ; ~.v ).).` ,.,.$.,.@.-.Y T Y `  .;.( : ] 5 5 } 5 3 5 2 ^ ^ ^ ^ ^ ^ ] ^ 2 ^ 2 2 ^ ] ' 8 ( | > , ~ ' | g ( { ' ! 8 | z @.@.#.>.=.@...* p 6 +   ",
"+ < = p (.v v . = $ [ @.$.=.@.,.^.^.T Y ^.$.c 2 / } ^ } 5 3 } ^ } 5 / ^ / 5 } } 2 5 } 2 ' ( { ~ : ^ ^ 8 j 1 ( { ' ~ 8 c e d ).@.!.>.=.@.)._.- 6 @   ",
"$ [ =   - K v + $ -.@.a ,.a $.@.).,.^.^.^.@.;.' ] 2 ^ ^ ^ / } ^ } 3 5 / 5 } 2 2 5 _ 5 } ' 8 ^ 2 } ] ! 4 ( { ' ' { | > g y -  .@.#.#.@.@.).` _.v $ # ",
"$ # =   - & a 6 e 6 ~.6 6 ).$.$.$.^.V ` Y . s d ( ' ' : ) ^ ^ ^ / / / / } } 2 5 _ 5 } ] ^ } } ^ ] ^ ! ! : ] : 4 1 k g & - x Y :.#.*.#.{.#.'.-.-.$ . ",
"* . # =   & - [ k y [ a 6 ).a ).$.,.V z -.s 7 <.f +.~ ! ! ' : : ] ^ ^ 2 2 2 2 / 5 } ] ^ } / ^ , : ' ] 2 ] ! ( 1 g k g & - - ` #.#.#.>.>.>.& <.<.@ = ",
"* = < =     p & k k y -.@.).v ~...).<.7 -.@.@.=.).=.@.4 4 4 8 , ! ' ) ) ] ] ] 2 } 2 ] / / ^ ! { { ' ! { | j g k g g g - * & 7 #.!.).>.=.).. -.= % @ ",
"  ; . < +     - k - & y -.,.a ..>.7 ` %.* ,.@.$.$.).^.;.z | > c | | > ( 8 , ! : ] 2 2 ^ ] { 4 e j j e e 1 g g g 8 1 k ; * 7 ^.+.$. .).).T -.-.$ [ v ",
"  y % . < <   ; y % -.% $ ..` ).& -.Y & f & T =.). .^.7 Y ^.- 1 y ; 1 j | c ( ( 8 { ! , { ( c c e g g g g g > e g g k ; %.<.Y ^.+.@.@.).^...-.$ . ..",
"    y % = # < ; $ + $ -.+ 7 @.& * ..Y & & s - z =.^.,.). .).!.+ ; p g g g 1 j 1 j j 1 k g { ~ : ' , 4 c > 8 , k 1 ( c - & 7 T ).>.[.#.>.^.Y z 7 $ -.",
"      ; p % + <   * v = + -.,.1 >.V ` <.f & - & 6 ).,.V V 7 s - & p g 1 1 1 1 y g g g g 1 e | , ~ { 8 > | g k > ( , 4 & %.$ -.).>.#.>.=...[ + * - %.",
"        - - % % + + - = <.Y p % . @.< '.- * 7 6 >.@.#.$ % & % & & $ % - p p - y g 1 g g e g g 1 j | 1 k g g 1 , | e 1 ; - * 7 7 <.` 7 z * * & & & & ",
"            ; * % = = y .._.l -.+ * a * '.` $.@.#.!.V $ % + [ a =.).,...,...p ; | c 9 e 1 g g k g g | c 8 { 4 4 > { 1 ; - & $ = + + + _...% % % * _.",
"                ; * % $ - 7 k -.* - g ; = ).=.!.>.. + @ [ #.>.=. .,.^.....,.~.* | e c 9 9 9 9 ( 4 ~ ' ' ~ 4 4 , { ' f - * 7 -...V ^.)...^.+ $ <     ",
"                    p ; 1 e y . $ & y ; [ $.!.!.+ + v >.#.$.=.@.@.$.....C C V ).z 1 j ( ! ~ , { 8 ' ^ 2 ' ! 8 8 { ( , > g y y 1 e e - * y y k       ",
"                        y g k = ..= ; $ $ =.}.[ [ 6 K ` a @.#.>.C $ & % * x 9 7 C $ y 4 { , { { c j 8 , ! : ! > ( 8 4 ) 1 + = & * ; + ..* * -       ",
"                        1 g q l & K * = [ K $.v =.V 7 $ a !.@. .7 !.=.* & - e - 7 a k ! ! ' ' ' ! > ~ : ] / } : 8 ( { ) { V C C -.s 7 ..f '.'.      ",
"                        k q l q l y C = ..$.v ,.>.` [ [ #.). .f ). .#.>.+ & - & Y >.k ) ) ) ) ) { { ] ^ } 3 3 2 : |., ~ 8 ).` T ` 7 7 ,._.,.@.      ",
"                        g q k k k l l -.V ..,.. !.<.,.#.).& g - T @.!.>.>.C !.7 7 -.q ).).V ^ ) 4 4 ^ ~ Y ^.^.Y ) |.4 |.B                           ",
"                      & g g k k l l l k a <.` ,.^.` !.=.z g 1 f ` #.@.=.#.#.%...7 =.c #.#.@.V 2 4 4 ) Y ^.#.#.^.Y T                                 ",
"                      ` i k k k l l l l y & %.$.7 $.@.@.y y e ` $.!.).$.>.g q y _.z ' =.=.@.Y 2 4 t , Y ).>.>.).Y                                   ",
"                      ;.` & y y g g g g g g k a % >.$.Y * 1 ^.=.$.@. ...; g l k - o #. . . .Y           ).=.=.).                                    ",
"                                ; y y y y y g $ Y =.$.).+ & $.!.).=.).y k l l k - V >.                                                              ",
"                                  = - ; y y y x <.=.).C ; f Y @.!.=.> y k k k g =.                                                                  ",
"                                              y - ,.=.,.C g p ..#.C 1 ; k k k `                                                                     ",
"                                                y - ).=.).- y ; -.+ - & ; - > ;.                                                                    ",
"                                                  $ * ` ^.* q q k 1 u <.7 Y                                                                         "};
