/* XPM */
static char * imp_pain_xpm[] = {
"41 55 34 1",
" 	c None",
".	c #9B633B",
"+	c #A36B3F",
"@	c #B37347",
"#	c #8F5F37",
"$	c #AB6F43",
"%	c #BF7B4B",
"&	c #5F4323",
"*	c #6B4727",
"=	c #875733",
"-	c #774F2B",
";	c #533F1F",
">	c #E30000",
",	c #7F532F",
"'	c #838383",
")	c #939393",
"!	c #9F9F9F",
"~	c #6F6F6F",
"{	c #979797",
"]	c #ABABAB",
"^	c #636363",
"/	c #A7A7A7",
"(	c #B7B7B7",
"_	c #7F7F7F",
":	c #4B371B",
"<	c #6B6B6B",
"[	c #D3D3D3",
"}	c #3F2F17",
"|	c #332B13",
"1	c #CBCBCB",
"2	c #2B230F",
"3	c #DFDFDF",
"4	c #DBDBDB",
"5	c #B3B3B3",
"                         .+@+#           ",
"                        $%%%%+#          ",
"                       .&*=**-#=         ",
"                      .-.%#;>;-&         ",
"                      #.$$$*;-&&         ",
"                      #####=-*&&         ",
"                      -*-*-,-*&   '      ",
"                      *-#-*-*&;   )      ",
"                      -=#-&*&;   '!      ",
"           ~{        +-#=*,.$+.  )]      ",
"            ^/' ++.+@@---#.$%%$+~!($     ",
"             ~(+@.+@@@,-.$$++$$+,~_-=    ",
"              +@+##++#*=$+.####.#=,*-=   ",
"              ##,,,##-;#.##=,,,,-***&*   ",
"              ,,*-!^-;:.#=/<-*&;&&&&**   ",
"           !][=*:&&&;;:*=---*&:}};*=-'!/'",
"              *;:}}}}}:::;;:::}||&=.=!1{ ",
"             *-*::-&:}:;&&&:}}|22&=#=-*  ",
"             -,-}}&::||:*&;.$-|2|;*--*&  ",
"             &-*2}::|22|:;.%-,|2|};**&;  ",
"             :&;|}}|2222}:3=;-,,-&&*;:   ",
"             }}||}|2222||};&:*;$$#,&*}   ",
"            =|22|:}||||}}}-:|;=$...,;    ",
"_{&-=-     =-}|22;}::}}}2+@=2;3#*;;&:    ",
"    &-=-*&=-&}|22;};;:}}2@3[;|;:|||}}    ",
"     ;*,,*&&:}|2 :};&;:}22222|}}}}}      ",
"     22;*:;:22   &:;*&;}|222|}:|         ",
"    :|2|;:|2    *,&};*&::}2|:;;:         ",
"   ;22 2|}      ,=*:}:::}2|:*-*:         ",
"   *2  |2      *,#-;}}}|2|:&-=,;:        ",
"  {   |2       *=#-&}2222:&*,#=&:        ",
"     {         *#=*;}222|:&*=.=&}        ",
"               *#-&;}222}:&-#.,&|        ",
"              *-#-&;:2} ::&,.#-&|        ",
"              *-#=*&:2| ::&=.=*&|        ",
"              *-=#-&:2| ;:&-=-&&|        ",
"              :**=,;}2| ;:&*-&;*}        ",
"              }:&*,:|2  &;:&&;&-}        ",
"              }}:;;}|2  &&}:;&-*         ",
"              }}|}}|22: ;*:|};*;         ",
"               4}}::|2} ::|||};|         ",
"                |:;;}2} }|};}2|          ",
"                |}::}2} ||;&;2}          ",
"                 ||||2} ||&4&}           ",
"                  2222};}};3}}           ",
"                  2222}&:}||}}           ",
"                 |}}22}&;}|||:           ",
"                }}::}2};;}|||            ",
"               }}::::2} :::}|            ",
"              }}};:;:}} ;*&:             ",
"              5} :5:}   &-*;             ",
"                       :&--*;            ",
"                       ;&&*-**           ",
"                      ;--& :--*          ",
"                      ;:5: }}5*          "};
