/* XPM */
static char * imp_attack_xpm[] = {
"147 60 58 1",
" 	c None",
".	c #774F2B",
"+	c #7F532F",
"@	c #9B633B",
"#	c #875733",
"$	c #8F5F37",
"%	c #B37347",
"&	c #6B4727",
"*	c #AB6F43",
"=	c #BF7B4B",
"-	c #4B371B",
";	c #730000",
">	c #5F4323",
",	c #777777",
"'	c #D70000",
")	c #FF7B7B",
"!	c #838383",
"~	c #8B0000",
"{	c #939393",
"]	c #9F9F9F",
"^	c #2B230F",
"/	c #FFFFFF",
"(	c #B3B3B3",
"_	c #533F1F",
":	c #ABABAB",
"<	c #A36B3F",
"[	c #6F6F6F",
"}	c #B7B7B7",
"|	c #979797",
"1	c #670000",
"2	c #3F2F17",
"3	c #7F7F7F",
"4	c #CBCBCB",
"5	c #FF1F1F",
"6	c #332B13",
"7	c #636363",
"8	c #A7A7A7",
"9	c #B30000",
"0	c #BF0000",
"a	c #9B0000",
"b	c #4F0000",
"c	c #6B6B6B",
"d	c #CB0000",
"e	c #EF0000",
"f	c #8B8B8B",
"g	c #C7C7C7",
"h	c #CB7F4F",
"i	c #D78B5B",
"j	c #BFBFBF",
"k	c #7F0000",
"l	c #FF3F3F",
"m	c #DFDFDF",
"n	c #D3D3D3",
"o	c #2F2F2F",
"p	c #3B3B3B",
"q	c #DBDBDB",
"r	c #575757",
"s	c #4F4F4F",
"                       .+@@+.                                                                                                                      ",
"                      .#$$$$#.                                                                                                                     ",
"                     .$######$.                                                                                                                    ",
"                     .%@+&&+@%$                                                                                                                    ",
"                    +*=%+&&+%=*+                                                                                                                   ",
"                    #-;#@++@#;>#        ,                             .+@@+.                                             .+@@+.                    ",
"                    #&')>@@>)'&#        !                            .#$$$$#.                                           .#$$$$#.                   ",
"                     #&~-&&-~&#        ,{                           .$######$.                                         .$######$.                  ",
"                     .#>&$$&>#.+$&     !]                           .$######$.                                         .%@+&&+@%$                  ",
"                      $^!/(!^#_&+#$#++,{:                          +.%@+&&+@%$+                                       +*=%<##<%=*+                 ",
"                      $^^^^^^+-_>&+#$@[]}                          +*=%<##<%=*+                               (       #>-#@**@#->#                 ",
"              [|     #@^^11^^+2-_>.#$$+[3>                         #>'#@**@#'>#        !                      ]4      #&;562-65;&#                 ",
"               78! >#+<^~90~^+62_.$#$$$#+&_                         #abb&&-ba#        ]c                      3]4      #&b-&&-b&#                  ",
"                [}$#+.@^deed^+^_.$#.#+.&>__                         .#>&$$&>#.#     3:!                        f(] >$$&.#>&$$&>#.                  ",
"                 +#$#+$^!/(!^+-.$#.&&&>__>&&            {(        <*>#^!/(!^#.#<@$#&,!                         3|g$$+.-6#^!/(!^#_     (]           ",
"                 .+#+.#.hiih&&_#<$&>>_-_&+#.!]8!c        3{j   , <$+-+^k^0k^+2_&$@*<$,>                       .$$$$.>@@^+^k^0k^+_.  j4]            ",
"                 &.+.&>@+.&>>-&+@$&__-6>+#$.]4|            {8($@*+&-2.^k1lk^.62_>++*<$$                      .#<$+.>-*=^.^k1lk^.^$@jm]             ",
"              ]:n >&>__-#$$&-6>.$}>-26^>.+#+.&              ,,#$<*$&-&_aaaa_&2->+**<@$+.                     >.+#==&>*=>._aa5a_&6#$#.              ",
"                 &_-2-_.>-26o6_&-3-26^6_&.+.&>               .+#$@@#->^!/(!^>6>+@<<$+.&>>                    >>..<=-<+g_.^!/(!^>-+#+.              ",
"                &.&_-26_}__2o6-_22-6^662_&.&>_               >.+.+##_->hiih>-6+##$$+&>-_>    f,               >__<=2.6[-#>hiih>-2.+.>              ",
"                .+.&>-622__2o66222^^62->&.+.&>-              ->&_.++&p--22--66+++.&_-2_>+.  ],              8}&>>+g66^^62#$22--62>&>               ",
"                >.&>_-6^^22^6666^^62->.#$$@#&>-             >2-_6>..>26-__-662&&&&_-2_..&#&(,                #$@#-[^^^2_-6_@<g!6--_>               ",
"                ->_-266 ^^^6.*<@$#+..+$@@$#.>_&        .*@ +&_266-&j_2^666666->j>>_62.@#.&.,                .+#$.>662^^666&_-666^2>&&q}            ",
"                222666   ^6#_%@$#+.&&.+#+.&>_&#        +.=@.+&-6^2-6-266^^^2--26__66-&#+.>>_                .++._-62^22_-2666662^-.+&_             ",
"              &&26666^   6^-.&$$.&>_>&..&>_>&#&     *++._#m_&+_2^^662666^^666266-2^62_&.&>_>                ..&_-26^2_g.#>6-222^^_+$.>             ",
"            .++&2266^     ^.-_.&>-6^^62-_-__>&     +**_&->__>&>2^^^^^^^66266^^^^^66 62-___>&                }-_22^^^2-6&.>6__g6^6-.#&_             ",
"3|>.#.     ++.&_--2^      ^^&2>_-62-_-22-   m[      #*#_6-._->_2^^^62-_-262-_-26^^   6--_>&.              7!7-6^^^^^626__-22-6^^62_>__             ",
"    >.#.&>+.&>_-26^       22__2^-&>_-2622-   (r      $m_^#%<^--6^ ^6-2->2^2>>_-26^    2_.#+._                   ^^^2_262-66-22 ^622-_-             ",
"     _&++&>_-26^^         262_-6->_-262--2    ,       _6_nm%^226   662__262-_-26^    _$<@$+>-                   ^^2_-62-&6>26   622&&>             ",
"     ^^_&-_-26^           2262_6-_-262-_>_-           26^^^^^^6     ^^^62-26^^66^   +$<@#.>_2                   6^2-6^622626    62_#+&             ",
"    -6^6_-6^             ---2622--262->&&>_            26^^^^^      62_>_6>&_2^62 &@##+.>-26^]                 666^^^2_-^_-^     6-...>            ",
"   _^^ ^62               _---2662262->&..&>             26^^^       26--262--662--&--.#-6666                   6226622-2^-22     62_>&&            ",
"   &^  6^                _-__-26666-_&.+..&               66        _-222-222-2-2&-6.@_22                     6222226666-2--      6-_>&_           ",
"  |   6^                _-_>>_-2666->.#@#+.&                        -_>&>_&.&_--266-._2                       22--2222262--__      2_.#.-          ",
"     |                  -->&&>-2666-&+$<$#.&                        -_>&_2_&>_-2262>_2                       22-__262_^2-__--       -&-.2-         ",
"                        2->&.>-6^ 6-&##@#+.&                       2-__>__-_---__-2                          2-_>_266-_-_>>_-       2&6&^-         ",
"                        2->&&_26^ 6-&++#+.&>                       2-____--22->&&>-_                         -_>>_2662-_>&.>_-      2_+^-^         ",
"                        2->&>-2^6  ->.+#.&>_                       -_>>_-222->+..&_-                        -_&&>_262-_>&...>_      2^^-^          ",
"                        2->>_26^-  -_>.+&>_-                      2->&&>-226>+@#+.>_                        ->&.>-6222>&+#$+.>        ^^           ",
"                        22__-6^6_  2-_>.&>-                       2->&.>-662.$<$#.>_                       6_>&&_262^6&+$<@#.&                     ",
"                        262-2^^^>   2-_&>-6                      62->&&_266-+$@#+.>-                       6->&>-626  .#@*@$.&                     ",
"                         6666^^^    62_._26                      62->&>-26 _.#$+.&_-                       62_>_2626  .$@<@$.>                     ",
"                         s]66^^^    66.g.-6                      62->>_266 _&+#.&>--                      226-_2626   &#$@$#&_                     ",
"                         {-26^^^     6_(_66                      622__-666 _>.+&>_2-                      2-2226666   >+#$#+>-                     ",
"                        3 62^^^^     62>-66                       22--2^^^ -_>.&>-2                       26__26^^    -.+#+&_2                     ",
"                          666^^^>    &6_226&                      66666^^^  -_>&_26                        6s]66^^    2>.+&_2_                     ",
"                           66^^^_    _262-6>                      6s]66^^^  2_.+.66                        6{-26^^>   2_>&-22                      ",
"                           66^^^-    222>_2_                       {-26^^^^ 6-&m&62                         6^^^^^_   2>+#&26                      ",
"                            66^^2    662>_2-                      3 6^^^^^^ 66_(_6                          6^^^^^-   -&.g#_2                      ",
"                            >6^^^     62>_--                        6^^^^^^ 662[26.                          6^^^^2   >-_6&2                       ",
"                            &2^^6     62>_-                          6^^^^^ 666666>                          26^^^6   _6_6_6                       ",
"                            &22^6     62_-                            6^^^6 666^62_                           22662   -^^^6-                       ",
"                           -& -22     62--                             ^666 262^6-                            2-262   2^^^^-                       ",
"                           -: >:      6622                            6-666  62^6                             2-262   6^^^^                        ",
"                                      22-2                            6- 66  2222                             2-262   6^^^^                        ",
"                                      -----                           [- [6  ----                             2- 62   62226                        ",
"                                     -_..&_                                  _..&                             ,2 ,2   -_____                       ",
"                                     _>>&.&&                                _>>&.&                                    _>>&.&&                      ",
"                                    _..> -..&                              2..> -..                                  _..> -..&                     ",
"                                    _-(- 22(&                              2-(- 22(&                                 _-(- 22(&                     "};
