/* XPM */
static char * imp_death_1_xpm[] = {
"290 62 60 1",
" 	c None",
".	c #CB0000",
"+	c #A70000",
"@	c #774F2B",
"#	c #5F4323",
"$	c #7F0000",
"%	c #533F1F",
"&	c #9B633B",
"*	c #7F532F",
"=	c #4F0000",
"-	c #5B0000",
";	c #8F5F37",
">	c #875733",
",	c #A36B3F",
"'	c #9B0000",
")	c #670000",
"!	c #BF0000",
"~	c #B37347",
"{	c #6B4727",
"]	c #4B371B",
"^	c #3F2F17",
"/	c #E30000",
"(	c #AB6F43",
"_	c #8B0000",
":	c #777777",
"<	c #838383",
"[	c #B3B3B3",
"}	c #FFFFFF",
"|	c #ABABAB",
"1	c #7F7F7F",
"2	c #6B6B6B",
"3	c #2B230F",
"4	c #939393",
"5	c #636363",
"6	c #9F9F9F",
"7	c #B30000",
"8	c #DFDFDF",
"9	c #6F6F6F",
"0	c #979797",
"a	c #332B13",
"b	c #A7A7A7",
"c	c #BF7B4B",
"d	c #B7B7B7",
"e	c #730000",
"f	c #DBDBDB",
"g	c #CBCBCB",
"h	c #D3D3D3",
"i	c #C7C7C7",
"j	c #430000",
"k	c #000000",
"l	c #FF3F3F",
"m	c #FF5F5F",
"n	c #D70000",
"o	c #CB7F4F",
"p	c #D78B5B",
"q	c #575757",
"r	c #1F170B",
"s	c #43331B",
"t	c #BFBFBF",
"u	c #8B8B8B",
"                            .                                                                                                                                                                                                                                                                     ",
"                                                                                                                                                                                                                                                                                                  ",
"                           .  .                                                                                                                                                                                                                                                                   ",
"                             .                                                              .                                                                                                                                                                                                     ",
"                            .+                                                            .                                                                                                                                                                                                       ",
"                           @@@@@@                                                       #  #.                                                                                                                                                                                                     ",
"                          @$%&&*@@                                                        .  .                                                                                                                                                                                                    ",
"                         @$=-;;;>@@                                                    # .#+, ,;                                                                                                                                                                                                  ",
"                         @$-%>>>>;@                                                     #'.).!!,;                                                    $                                                                                                                                            ",
"                         @~;{{;~@&@                                                     + ).>{)@;>                                                 +                                                                                                                                              ",
"                         @]^&&^%{@@                                                     &@'!;%/%@#                                                                                                                                                                                                ",
"                         @%]{{]%>@@                                                     ;'((+{%@##                                                +   $                                                                                                                                           ",
"                         >@{;;{&;@@                                                   + ;_;;;>@)##  :                                               $                                                                                                                                             ",
"                         ,%<[}<%,>@                                                     @@)#@*@{##  <                                                                                                                                                                                             ",
"               |1      ;@>]23323>>@                                                     @@_##@{#%  :4                                                $                                                                                                                                            ",
"                1|5 *;;####][}<#*@%>    :4                                              @>;@#{#%{  <6                                               +7 $                                                                                                                                          ",
"                 :81*>##%^%{{{@*@#%>>@&&<6                                   90        ,@;>*#{%#  :4|                                             7  $_,+7,;                                                  $                                                                                   ",
"                  :{;*>>{%a#{;*@#^^]#**:4|                                    5b< &&&,(~@;>;&cc~cc96d(                                               $$!cc!,;                                                                                                                                     ",
"                  {{*&;*>*%aaaaaaaa]#{&96d                                     9d&~&,~~~*>&,,,,((~*91#>                                              --{_33{;>                                                                                                                                    ",
"                  %%{>**@@*%aaaa^]#{*;;*91#                                     &~&;;,,;{>(&;;;;;&;>*{%>                                            ee'!;#3^@#                                                 $                                                                                  ",
"                  ^]^**@{{@@]]%@@@*>>;;;>*{%                                    @>{**;;@%;&;>*****@{#%%{                                          7 e'((+{%@##   f                                            $                                                                                   ",
"             |11{%%aa%###%##]%#{{{{{{>*@{#%%                                    {{{@65@%]&;>b2@{#%#%%#{{                                        7   --#-#e{#%#  gb                                           .  .                                                                                 ",
"               [8%]a33^d9]]#]%%##%%%##{#%%#{{                                6|h>{]###%%]{>@@@{#]^]%{*@<6b<                                  g    7 -##e#{-%## bb                                              $                                                                                  ",
"               {%]^a333^]]]%]%#%#d9]]%%]%{*>@<6b<2                              {%]^^^^^]]]%%]]]^aa#*>@6g0                                   bg>>b7e,,,*;3c(]#@*;                                                .                                                                                ",
"               %]^a33333a]%^a^%#]]]]]%]a#*>;@6g0                               {@{]^@#]^]%#]^^^aa33#@**@{                                   >;>>*70,7;>((#c(#{cc>                                             $.                                                                                  ",
"               %^aa33^33aa^a]^a^aaaaaa^3#@*>*@{                                @*@^^#]]a.%{^%&(@a3a%{@@{#                                  **{{*;9+e*>&,,%i*,]c,@*                                            .$_>_>-                                                                             ",
"              ]^aa333 a^]%#aj^^]%#%]^a3a%{@*@{#                                #@{3^].a33k%7&c@*33a^%{{#%                                 >*{#%@@+e7){>,>]9a@^c,%>@                                           $j^-+_@-                                                                            ",
"             3^aaaa3^  ]%]3j))ja]%#%]^3a^%{@{#%                                ]#%a^^3%_7_k%8>%@**(##{%]                                 *&&>#a##$+)e];>^a33aai*###[1                                         jj]=]#){                                                                            ",
"             333333^   ^%3j)_!)ja]%##]^]#{@*@{#]                               ^^^a^a._k_7)_%#]{%((*>#{^                                *&&>@#a]+$<i,&%a]%^3339]>*#:                                         ^j^)]j]-)#                                                                           ",
"            %,~333a]    a3j_e--jaa]%#]#@>;;&>{#]                              {^aa]]$3klm'==@]a%>(>;&>%                                ;;&>@#] ]#.7.]%{aaa333aa#@*{                                          ^j^##]^=-#                                                                           ",
"         &8%@~8333a     %%ae{@(,&;>*@@*;&&;>@#%{                  10#@>@     *{^^aa%^kn_-l',~>3%8;{%%#]                                *(&##]  #._jc)_7c%aaa33a]%a]                                         0^]#)^]^4-#                                                                           ",
"        &c>#]>h33a      %*]]>%~&;>*@{{@*>*@{#%{>                      #@>@{#*@%]]^3%3^)jj_$~8h%a%]aaa^^                                >(&@]   ]__;7)#@{>^^aaaaaaa                                      @>;,h+({$((c[(&;>>                                                                        ",
"        (@%]a3%3a       ^%*]]@{;;@{#%#{@@{#%#{>{                       %{**{#%]^a3 ]^^^--e_jkk3a^^^^^                                  &o&>#   ^)@#)],]]a^aaaaaa                                       @*#;;;;#])@(((&;>>@@@  0                                                                   ",
"        @*@{%%a         ]^{#@]%@{#]a33a^]%]%%#{                        33%{]%]33   #]^{{%^3333a^]a                                    &po>,o] ##a)=],>{aa^aaa                                        00#%%###!]])e%{{{{@##@*>0                                                                    ",
"          *%>8         ##]^{%^^#%]a^]%]%     89                       ]a3a%]a3    {*#^]{%]]33a#{%]                                   *&o@#>,]@{{{####]^^^aaa                                           %]]#^a+kk=ea]]]]^%#;~(*                                                                    ",
"          *((;         *#%^]%]%^3]]%##]%      [q                     %33 3a^      **{^^]%]^3a%{@{]                                   *>&#  i%@>@@#####]]]aaa                                          >&%^^a_e!e=ek]#]a3^%%;~>*                                                                   ",
"          ((>         **{%^^%]]]]]%#{@%%       :                     {3  a3      {*;{^^^]a3a]#@>*%]                                  *>@i @>@>@{%%##%]#{#]]3                                          >;#^a]cpee='kk]#]aa^^%{>;;                                                                  ",
"                      *;{]^^^a^^]%#@**{%%                           0   a3       {>;{^^3333a##*;>%]                                  i   >;*@@{%%]%%]#{@@@#%r                                         %%a%e+$=#e#~+ka%]^^33^{&,*                                                                  ",
"                     {>;{]^333a^%#{*&>{#%                              0         {;>#]^333a]##@&>%^                                    @@>*@@{%%]s]]^{*>;;;#%^                                       %%a3%_eaj-e]@'-3]^^  {]@,(>                                                                  ",
"                     {;>#]^3333^%#{>&;@#%                                        {;@#]^333^]%{*&*%a                                   @@;*@{#%]]%s3^^%{*;;;>#^                                       %a33^-ej->e@=e-j3^    #>&o&                                                                  ",
"                     {;@#]^333 ^%#{>(;*#]                                       {@;@#%]3^ 3]%@;>@]a                                  @@>*;@#%]]^%a3aa%{@*;,,@%|                                     ]#333j=jj,{_,))-j3^    o,>op&                                  4       jjj4'(                 ",
"                     @;@#%]3^  ^%%{*(;*%]                                       {@>*{#]3a ^^]@&*{]a                                 @@>;;*{%]]^%s   ^^%{**(((|0                                     #]#{{)j-3-+{==->>%s{   ,>#@o&*                                 6     eej==6-!~                ",
"                    {@>*{#]3a  ]]%{@>*@%]                                       {@@;@#]3a ]a]{>@#%a                                 @;;,;*%]]^a#     ^^@{#>&|0                                     %>;,,,;{%-#{)$$e';,*{   >  #&>*                                 |4  )e]]]_4|j]'                ",
"                    {@@;@#]3a   ^]%{{@{^                                        ^{#@*%^3a %^^#{#%{^                                {>>,;*%]]^3s       a{]%@;;>#                                   @;,,,&;>$#%=)@eee*',,*{  b   h>*                                {d4-)%]#>;;6d'_*&               ",
"                    ^{#@*%^3a   a^]%#%%^                                        ^]%#{]a3  %]]%#%#{^                                @**@%]]^33          ]]%#@@#]                                  @>,,&;>**{#=]{){{){#;,,*{       {                              %]){=->e@'=#*@@_{-%$*%            ",
"                    ^]%#{]a3a   aaa^^^a^                                        ^^]%%^a3  %%^^%#{%                                {;;>%^a333           ]>%#@@%]                                ;,>,;>>*@@#%%j^=###%##{>;;@%      h                           @{%]33e_,{_,e-3^%{{]-%*_#%21b        ",
"                     ^]%%^a3^a  a%^aaa^]                                        ^^a^^a33] %%^aa]%]                               0|0@@{]arr            s*#{*@%]                               (~~,;>**@##%]]aa%%%%%%%{{@;,@@                               @@#a3a-e_77__7_$-33^]a]-{)]]%2         ",
"                     ^a^^a3^]^  a]^%#%aa                                         f^^]]a3^ ]^a33^]a                                %{{@{%rr             ^*@{@@%]                              (~~;>**@#%%%]^^aaaaa]]%%{@{*@@@                             ;;>@%^)_'++'&'&'+7'$]3^30-==%#]          ",
"                     f^^]]a%]]3 a^^{t*3                                           a]%%^3^ ^a]%]3a                                 #{{@{@r               %@{@{%%                              ;;;>@@#%%]]^^aar   aaa^^{{*@@**@ *0                   d    &>;*{>'__;_'{@{_{$'(&'&33g-j#>*^          ",
"                       ^^a^]]^^3 ^^#u@^                                           a^]]^3^ aa###3^                                 ###%{@3               ]@{@;;**                             **{{#%%]]^aaaa       aaa%]@***&*#^3                    db @]%&,+(++_){-==))]_>___;;_g-j]%]a^         ",
"                        ^^aaa^^3{^]]]^>                                            aaaa3^ aa#f#^                                  ]#%%#{s                #;;*#[3                            {@@*#]aa3333             ]%{**@*#^33 30                 ,dbc+,((*+;$@)==^a^=-#]-%#e@#e*3a^aaa^;       ",
"                          ^33^^^#^]%%^{                                             3333^%^^%8^^                                  %##%%#^                %**%333 3[                         @*@#%]a333                ]#{#@#%333333        0%*      {*,,&_;;_;@))%]333a]-#-%=]]--*&&3aa03{0%      ",
"                           3333^%^]#%^%                                             3333^#]^aa^^                                  %{#%%^s                ]@]3333333                 0***   {***%]^^a                   ]%%#%^333333     03 33{*    {%#@**_{*@{)=%]s3kka^=]j^j^^j#@##*3a33%33;;;;  ",
"                          a^^33^]^]#%^]                                            a^^33^#%^aaa]                                  #{#%%s                 ##^3333r3                  33%{**{@**%#^s                      s]]^333333      3a3aa]{*  @**##{#%=]%]]=]^^kkk3ja^j^ja^j^##@;#3^^333>*{   ",
"                         ^^]]^3^^^]{%^                                            ^^]]^3^%%^aaa                                   {@#%]s                 {^333r3r                  0 333{@*@@{#%^{                       ]]^33333       3^a]%]{;>@*;>*>@%]^3a^^jaaajjjjj33jajaj%@@>;@%3]]^^3{{>&;;",
"                        ^^]]]]3 a^]{%^                                           ^^]]]]3^ ]]]^a                                   {@#%]s                 ]3333rr                   33 333%@{##%s{                        s]3rrrrr        a]%]^%@*#{>@>;;{]a3jaaj--)eeee)--j3j^j#*;**#]3^^]]3>;;;{%",
"                        [^ ]%]   a]{%                                           ^^^%]%]^^ %{#]                                    {%#%s                  r3333r                     33333^#{@]s                           ]33a3a         a]^a^^@*{%@*;>{%a3eee__'''+++''_$eeeej]#@*{]^333^^{%%%{{ ",
"                          ][]    ^%#%                                           [^ ][]^   #@{%                                    ]]%%s                   rrrr                       3r33^]@@#]                           ^3333r          333^^#@@@@{{%%^a     '''''''         a^]%#]^rrrr3       ",
"                                 %#@{%                                                   ]#@@{%                                  ]]^]%s                                               r3r3^]@{                             rrrr            a^]^^{{##%%a                         3a^^]3r^3ra       ",
"                                %##{@{                                                   %##{@{{                               ^]]]]]ss                                                a3333]#                                              ]^33%%%]a                             3a^r333a        ",
"                               %@@# ]@@{                                                %@@# ]@@{                            ^^^%]%]]]]                                                 r333^^                                              aa33s%s                                33r333a        ",
"                               %][] ^^[{                                                %][] ^^[{                            [^a][]^33]                                                  rrr^                                                333^%                                  ^rrrr         "};
