/* XPM */
static char *door_resized[] = {
/* columns rows colors chars-per-pixel */
"64 64 79 1 ",
"  c #161716",
". c #171817",
"X c #181816",
"o c #1C1C1B",
"O c #1F201E",
"+ c #20201F",
"@ c #242423",
"# c #282927",
"$ c #2B2C2A",
"% c #2F302E",
"& c #30312F",
"* c #343433",
"= c #373837",
"- c #383837",
"; c #3C3C3B",
": c #3F403E",
"> c #40403F",
", c #444442",
"< c #484847",
"1 c #4C4C4B",
"2 c #50504F",
"3 c #555553",
"4 c #585856",
"5 c #5B5B5A",
"6 c #5F605E",
"7 c #60605E",
"8 c #646463",
"9 c #686967",
"0 c #6D6D6B",
"q c #6F706E",
"w c #71716F",
"e c #757573",
"r c #777874",
"t c #797976",
"y c #7D7D7B",
"u c #7F807D",
"i c #81817E",
"p c #858583",
"a c #878885",
"s c #898987",
"d c #8C8C8A",
"f c #8F908C",
"g c #91918E",
"h c #949592",
"j c #979895",
"k c #989996",
"l c #9C9C9A",
"z c #9FA09D",
"x c #A1A19F",
"c c #A5A5A3",
"v c #A8A7A4",
"b c #A7A8A5",
"n c #A9A9A6",
"m c #ACACAA",
"M c #AFB0AC",
"N c #B1B1AE",
"B c #B5B5B2",
"V c #B8B7B4",
"C c #B7B8B5",
"Z c #B9B9B6",
"A c #BDBDBA",
"S c #C0BFBD",
"D c #BFC0BC",
"F c #C1C1BE",
"G c #C5C5C2",
"H c #C7C8C4",
"J c #C9C9C6",
"K c #CDCDCA",
"L c #CFD0CC",
"P c #D1D1CE",
"I c #D4D5D1",
"U c #D9D9D6",
"Y c #DDDEDA",
"T c #DFE0DC",
"R c #E1E1DE",
"E c #E6E6E2",
"W c #E7E8E4",
"Q c #E9E9E5",
"! c #EBEBE8",
/* pixels */
"><;;=;-;--------===*====**************&&%*%%*&*%*%%&:#%%%%%%%%57",
"<0y0009999988888666665555555555445444444444444444444553443454372",
",elclzkhzcbbMBSSZNZZmBmNBBBNckllccklxclhgsssssupuiu0ui0uiiiiuu91",
",0llnhlllbBBZGKIUIJIPJKKKIUIJZNNBSSBASSCMbxhggspiggiiiiiiiiiuu9>",
",0kjjxkNclmBNCSGPILGSJKPLSFJSJBAAAAAAASSMzcgghhdidhhggijviziii1&",
":0jjjcIUmcBASZBCSKIJGUQRUKFGFGJPGAAAASKUZhbkggghgiifgggxJIVvii>#",
",9jjjjKAypnNCFSCCSGGIGLNxZFJFJSJPJSSABKUnfNmxggghhdiighDIIiiiu>+",
":9lclyhy6ylcNCSSZBSGLkswtmJJJJGGGPKSSldgusZMMbhggiifghgiiiuiiu>@",
">9jzclaiydkhzmCSSSCSSGlgnGKHKSCGKPIGSChtdmZmMMckjiiizijju8ivii<%",
">9kcxcccccclhlbmASSSSGGLIIIPILLLPIPPGSZCZSSZMMMmzjjiiiiiiiixii2&",
":9kccxcxcccclhhkNCSSSSSGPIIIIIIIIIIIIKSSSSASZNmmMviliiiiiviiiui3",
";8kBbzcccxcmcckbBZCSCnNBCSSSSGSGSGGJHHGSAZBZAAmmvMMvijiziiiviuvu",
";8kmbcxbbccbmccxBCASluw9999990909000000wwtfnAACmMMMvliiiliiiiiiu",
":8hgbmbcbmczbMbccCZKSCh4,,,>,:,,,,,:>,>16yZKASANvMvMMzviiiziiiu;",
";8hksxmbcccllxcclNCKSNBxddhghggsgssgddsdcJLASPGZMMMvMMvziiiiiuu-",
";7hpaalmbccblhlbxhnNBNSZBSSSSGSGAABSBBGUUJZAAGPHDVMvvvMMMiiiiii>",
";6hatgdgcmcccckxhxhcNNFIGBASSSSSHAFDVFTWIVAAAADLKDVMvMMMvviiiii<",
"=6hdsyudgxNxmcckchmcmNNGPZBCASAAFFVJLYELDFHFHDJILLDMvvvvMvvjiii,",
"=6hMzhppsdxBNccCCBBCBBNNAKJBBAAAAAFPUTLVVJFJFJFJLHDvMMvvvMvvzri,",
"=5hMNzxgtugxksxcBSSBBGKSNHQLNAAAAVVPTHVVDJHJFJHJGVjivVMvvvMvvrr>",
"-5gMBmhkkuyge4yxNNASZUTAnBPRCBASAAIUHDFLTTAvADAFii7iVVVMvvvvvr0-",
"-5gmNbgdgghse*;ennNZnKAulKKRYBNCAFTLVVHVVViiDDVvi70MDVVMMvMvvrr;",
"=5gMNNzhkcNle*%<thmBlht8hSASPGBNATRIJDDvii4uLLMi79lUJVVVVvvvvii>",
"*5gmNMNckxCmw*:83tnBSnxcmSASKKKCLUFAHFVLFivMIvi3>iDYJVVVVMvvvri>",
"*5fmBBGPAkjce*1s45tnBASJJSAASJKPIDMvMDVDLUITVu<;7VLTKVVDLLVMvri>",
"*5fBHSIUAksd0*<gh840lBBAGJSAASJGVMxzVVMVFIKi4>-uVLLTIDDHLVzVMrq-",
"*3dmMlxxsujl9*<pxke49kNBBSSAASSJFFVvDVMFVii23uuVLKYEKDVviirvVi0-",
"*5dzcxzgfcmh9*<pxkdy80hNCNxBNcxcmvMDDFIFi>;4iVVJKKTEKDHDMjMHGr,%",
"*3dmcmcljlkh9&,yhphx0<0xCBnNnyweu8uvDDvu>;uMJILKKKYEIHDMiiiVIu#@",
"*3dMBnnckhhh9&,dmglxk8<tnNNNnq4,::1jFM7&*3iLLLLKLKTEIKGiuuuiDq#+",
"*3dMBBMmnxhh0&,dkhhhdu51wzNNcw1#o>3iFl>:5iMJLLKKKKTWIKIi741uiu#+",
"%3dlcBMcncxh0&:yhhhhhht2>6dxcq:O%13uMvu8iVGVDDDDJKTEIKKi<&,iiu&@",
"*3dnccNmcmxx0*,dhhhkdhhe0wykc0;*>33uiMDFFMxNVVVVFKRRFFFi1*>vNe>&",
"$3smBcxmNcml9*:skhhhpykPYCdkc3=24117jMMKYNljVMMVVFR!FBDi>*>MFu2&",
"$3snNNmllNnxy*:sksddelPYNphll021::2ujMvDYFxgxBMMDFRRFDFi>*>DLu2%",
"$2snNmNnhhmhw*:dmsysuBUcpkhdccxljiuixMvvFIKvflMmMFRQFMDi2&>BIr1$",
"*2pnNmmmchdlw*;pmppplPJhwpkslmBABDMMDDMDFFLLkijnzFTRFDxu:+>jDw2$",
"$2scmmNZmhmly*:lSNhmKChuweuuslplmDDDBMMBVFFYFligxFRWFMBd>:4fx02$",
"$2pnmBPUSxNcu*:lZZJRBywweephsu,1iDMDDMMMVDFFIFViiDYQFMFFMxfig01$",
"$2pcmNPYnpNme*:lAPRPkwweewehs5O$>uxMBDDMMVDMDIFjdDYRFMDKRKxfi01$",
"$2pnmshxywmmp=1mURJhwukpwypy5@$y>2uzDDMDPFDDMDIFjSRRZxmAFMszs02#",
"$2pcmmdeydmms;dJRGheuZINsppe,=ymi>:ulMMDTPMNVVFFSFYWNlnlr7uVxw1$",
"$1pcmmmmmmmny3GYAxu0sAJlupe=$unmMi>>8gfjDiiDDMNDFJUQmdlldgxFDq1$",
"$2pcmmmmmmmnsxUNldew0eewuw:O1pcnmMl9:uzf92uNNDVMFJYRngllxMMBmq1#",
"$1pcmmmmmnmnhhBmdpusuyutw*@1yhdkvnnmu>qjjvMDNDDMVFURNglxgxxnxq1#",
"$1pcmmnmmmmncpmmkdcxdhle$@1uhdkdxMnmDu$>fxvxNMBBVNHRFmxlxljjz02#",
"$1ucmmnmmnnmcpmxhlnkdhd3$1udhhkdxxxMMj>:ujmxBBBBNVNFSNmcljlgf01#",
"$1ucmnmnnmnmmksklllxkw:*,0ewyeuhjljzMx9#3hxDDMBBmmmMNNNmvxjxgq>+",
"$<ucmnmmnmnmckkdhhxk0=*5uhshshxlxncmNml9,5hnmmNBNnmnmNBNMbxkl0=+",
"$<ucmnnnnnnmnlkxdyll3=uJPUIIKJSSSSSGKKKSl00kskmcNNnmnnmNMMnbh0;+",
"$1pxmnmcnnnnmldkhpudskJIIIIPSSASSAAZAZSKPBgpysgllnmnnnbnMNMnx0;+",
"@<pxnmcmnchckcldduuyshyupuhpuuyuuyuyyphdklsghsdsggxnnbbbbmNNn0;+",
"$<ucnccccccmlccxyueyuuy9syssssssssssyyutuydlhgsdadglcnnbmmmMmq;+",
"$<uxncxNNmcckclccu0qyuhlssddddddddddduhnhypshdsdsashllxnCKZMn0=+",
"@<yxcnSJZmcccckcklseelKInhsdsdddddssshSUBdphkhgsfasgkglZJKcmn0=+",
"@<yxnhhneeccccchkkyyu9sc8yudsdsdsddssydmy5hygkhhhhssghfiiw5dnq$o",
"@<yxclse60cccccxhxkuuy655epshssssdssssy050khkkkhhhdpdhgkg8exnq# ",
"@,yxccxhhkccccclccklkuupphsdkddsssssssssssphkkhhlkddkhsddcMmmq# ",
"@<ylcccccccccccccclxclspdphskssssssssppsppskhkpghkghkhdgsulmnq#.",
"@<yxccccccmccccccccccnckdpddhsssssdssssssppdlhhhhhhhhhgkdsuhnq$ ",
"@<elxxxxxkkklkhhhkhhhhkdupupduuuuuuuyuyyyyytydusuppppup9e0p7s0;@",
"@,5wyeeew555555555545544443355533334333333333333333333332222232*",
"@<,::::;::;;:;:;;;;;;;;;;;;;;;;=====;=======*=*==******:4443334=",
"@$@@@@@@@@@@@@@@OOOOoOoooooo.ooo.o.o...o               .@@@@###o"
};
