/* XPM */
static char * rocket_live_xpm[] = {
"68 34 36 1",
" 	c None",
".	c #7F0000",
"+	c #B30000",
"@	c #4F0000",
"#	c #9B0000",
"$	c #EF0000",
"%	c #CB5707",
"&	c #A70000",
"*	c #E30000",
"=	c #D70000",
"-	c #BF0000",
";	c #670000",
">	c #CB0000",
",	c #730000",
"'	c #D75F0B",
")	c #EB6F0F",
"!	c #B74700",
"~	c #FF8F3B",
"{	c #FF0000",
"]	c #C34F00",
"^	c #AF4300",
"/	c #430000",
"(	c #8B0000",
"_	c #FF3F3F",
":	c #FF1F1F",
"<	c #FF5F5F",
"[	c #F37317",
"}	c #FFB37B",
"|	c #FFBBBB",
"1	c #FFA35B",
"2	c #FFC79B",
"3	c #FFD7BB",
"4	c #332B13",
"5	c #FF7B7B",
"6	c #FFFF00",
"7	c #DF670F",
"                .                                  .                ",
"                 +.                              .+@                ",
"                #.                               @.#                ",
"              $%+#.$&                           +.#+                ",
"            +*=#.-#+;+                          +#-.#==             ",
"           .&>-.+-#,@&,                         ,#'+.->&&           ",
"           ,#-#+>-*@)!,, .                       @'~>+#-            ",
"           --$+${=;#..].+,#                   &&$%~~%$&&#           ",
"         ..);#&##.#.;];,;;;@,            .#]^);#&##.#.;];,,.&#      ",
"     ,##&##;;#-%##;#,;;,+#,;,           #%]];;;#--&.##,;;,.-*-#     ",
"     #.###.;.#-,'&##.,#&&-$>##,       />#.###;.#-*>#&#.,#&#>**#.    ",
"    >+..]'.&&#>&'']--#&>+(]'+>-,     ##%..&&#&&#>>-#*--#&>&&>&,##   ",
"    ;;;())#>>##-')]**-&&]!))#+->    =-+..;##&&-**#+#>##>>-##..%+-=  ",
"    ',;;#]&#.;#-])#+##>-.,#]>++##    ;&.,.#>->##+_>>>#;.#$##;!!,;;  ",
"  -!^.,,##&#.=.##'+:#(##,...(++-#   ;&&.&;.-##(#:<___.=]'###,#-.!;  ",
" #>',#.,###.[={}}}_<=|--,##.,('>#   ;&&&&.,#]'|=<_}}}{=)).#&,.##@;  ",
"#&').-&###.*{~~111}~|_=(#&&#.()'&#  ;&.##.#/))_|~}111~~#]./##&#.!;  ",
"-%),%,&--#.*{~233332|~++#--&,&1)%- #&4#&&#-##]~|233332~{*+.#&>&#!;  ",
"$%,^#''']#.+}53666631|}=#]''.&1)%$ %%.#&>-&+>}|13666635}+=#*&&#,.%% ",
" ,#^#&'))'-=~}366663}~>+'))'&^){*  $+77#&##+>>~}366663}~=+#>&.;]!.$ ",
" $.];#]]#++=~}366663}~>-+#]]#,!+$  *{117..#.>>~}366663}~=-##*-#^.#, ",
" %%.,&>-&+=+}~233332~>=.+&->&#.%% $%)17&.#&##=>~233332~}+..#**#11,%$",
"  ;!#&>&#.+*~~_}}}~|~{=.#-#&&#4&# -%)1^&,-#..={~|~}}}_~~*.;&*-#,1)%-",
"  ;!.#&##/(.[<~___}~{[$./#.##.&;  #&'^;.&#&#.$[{~}___~<[.####&-.)'&#",
"  ;@##.,&#-)..<***>>$..##,.&&&&;   #>;;,.,#,]'.$>>***<..]'##,.#,'># ",
"  ;!.-#,####.*+##'+++.#&-.;&.&&;   #-+>;,.,&)).++>***+**))###,.^!-# ",
"  ;;,!!;##-.##(-])#(##>&>#.,.&;    #;;,!;.#-#]##(-])#(###].>#.,.&## ",
"  =-+%..##&.#.#-')]##&###]'..+-=    =+!..###&##.(-')]#####&##.,.-;> ",
"   ##,&]'&>,,,,&'']],#_.&)).%##      #%,&>&.#.,.#&'']]#,&_.&.;.##,  ",
"    .#*))#&;;+','&#&.((.##]#>/        .#*#&>&,,+,,'''&.(#(#&##>/    ",
"     #-#].,*+->%##;.%(.#]]%#           -*>-.,;;-'%&#;#%(.#.]%#      ",
"     ,#&.,,,.#,,,%,$(,;.]#             ,*&.,,,+#'%&%,$.(;..#        ",
"         ;;;,#,,,$%,;;                     ;;;,#>,&$%,$;            ",
"              ;;;;;                             ;,;;;               "};
