/* XPM */
static char * cacodemon_pain_xpm[] = {
"63 67 92 2",
"  	c None",
". 	c #5B5B5B",
"+ 	c #6B6B6B",
"@ 	c #777777",
"# 	c #6F6F6F",
"$ 	c #8B8B8B",
"% 	c #575757",
"& 	c #636363",
"* 	c #838383",
"= 	c #979797",
"- 	c #ABABAB",
"; 	c #7F7F7F",
"> 	c #4F4F4F",
", 	c #A7A7A7",
"' 	c #939393",
") 	c #474747",
"! 	c #9F9F9F",
"~ 	c #7F0000",
"{ 	c #B30000",
"] 	c #434343",
"^ 	c #9B0000",
"/ 	c #D70000",
"( 	c #FF0000",
"_ 	c #EF0000",
": 	c #CB0000",
"< 	c #3B3B3B",
"[ 	c #BF0000",
"} 	c #A70000",
"| 	c #E30000",
"1 	c #FF3F3F",
"2 	c #FF7B7B",
"3 	c #FF5F5F",
"4 	c #FF1F1F",
"5 	c #BFBFBF",
"6 	c #373737",
"7 	c #C7C7C7",
"8 	c #DBDBDB",
"9 	c #DFDFDF",
"0 	c #B3B3B3",
"a 	c #8B0000",
"b 	c #730000",
"c 	c #5B0000",
"d 	c #670000",
"e 	c #5B0707",
"f 	c #6B0F0F",
"g 	c #731313",
"h 	c #771717",
"i 	c #7F1B1B",
"j 	c #5F0707",
"k 	c #831F1F",
"l 	c #972F2F",
"m 	c #670B0B",
"n 	c #732B00",
"o 	c #470000",
"p 	c #530707",
"q 	c #8F2B2B",
"r 	c #8B2323",
"s 	c #4F0000",
"t 	c #9B3333",
"u 	c #B34F4F",
"v 	c #A73F3F",
"w 	c #A33B3B",
"x 	c #AF4747",
"y 	c #D37373",
"z 	c #BF5B5B",
"A 	c #C76363",
"B 	c #BB5757",
"C 	c #CB6B6B",
"D 	c #DB7B7B",
"E 	c #EB9797",
"F 	c #DF8787",
"G 	c #E78F8F",
"H 	c #4B371B",
"I 	c #3F2F17",
"J 	c #1B1B1B",
"K 	c #430000",
"L 	c #000000",
"M 	c #CBCBCB",
"N 	c #232323",
"O 	c #000047",
"P 	c #2F2F2F",
"Q 	c #000053",
"R 	c #272727",
"S 	c #000083",
"T 	c #00009B",
"U 	c #AF4300",
"V 	c #0000B3",
"W 	c #0000CB",
"X 	c #0000E3",
"Y 	c #0000FF",
"Z 	c #1B1BFF",
"` 	c #D3D3D3",
"                                    .                                                   .                                     ",
"                                  . +                                                   + .                                   ",
"                                  + @                                                   @ +                                   ",
"                                # @ $                                                   $ @ #                                 ",
"            % &                 # * =                                                   = * #                 & %             ",
"            % &                 # = - @                                               @ - = #                 & %             ",
"            % + +               & $ - ;                                               ; - $ &               + & >             ",
"            % & # @             . * , ' @                                           @ ' , * .             @ # % )             ",
"            % . & @ #           > # = ! ; @             ~ { { { { { ~             @ ; ! = # >           # @ & > ]             ",
"              % . @ * #         ] + ; ' = ; @   ~ ^ ^ { / ( ( _ _ / { { ^ ^ ~   @ ; = ' ; + ]         # * @ . >               ",
"              ] ) & @ $ #       ] & ; ' ^ ^ ^ { { { { ( _ { : / : { : : { { { { ^ ^ ^ ' ; & ]       # $ @ & > ]               ",
"              ] ) % # * $ #     < . ~ ~ ^ { [ [ } : | | [ / 1 1 | / [ [ | : } [ [ { ^ ~ ~ . <     # $ * # % ) ]               ",
"                ) ) . @ $ ! $   < ~ ~ ~ ^ : : : { : | / : 1 2 3 4 / : { | : { : : : ^ ~ ~ ~ <   $ ! $ @ . > )                 ",
"                ] ) % + @ ' ! ! ; : | ( _ _ | / { : | : / 3 3 3 1 4 / } | : { / | _ _ ( | : ; ! ! ' * + % ) ]                 ",
"                  < ) > + ; ' , , 5 5 ' @ ( ( / { : | [ / 1 1 3 1 ( / } | : { / ( ( @ ' 5 5 , , ' ; + > ) <                   ",
"                  6 < ) % + ; ' , 7 8 5 5 @ ( | } [ _ { / _ 4 1 ( _ / : _ [ } | 3 @ 5 5 8 7 , ' ; + % ) < 6                   ",
"                  [ 6 < ) % + @ ' , 5 9 5 @ | | } } ( ( : [ | ( | [ : ( ( } } | 2 @ 5 9 5 , ' @ + % ) < 6 [                   ",
"% + $ $ ;       [ [ : 6 < ) % + # @ = , 0 @ _ | } [ / ( / { [ | [ { / ( / [ } | 2 @ 0 , = @ # + % ) < 6 : [ [       ; $ $ +   ",
"  . % # $ , ,   / { [ { 6 < ) % + + # * $ @ ( / } : } / ( { [ | [ { ( / } : } / ( @ $ * # + + % ) < 6 { [ { /   , , $ # % . % ",
"    . % & ; = - ' ; & / { 6 < ) ) % & # @ [ | [ { ^ [ } ( : { [ { : ( } [ ^ { [ | [ @ # & % ) ) < 6 { / & ; ' - = ; & % .     ",
"        % % & $ = ' * & _ } { 6 < > % . [ / [ } : | [ [ : _ { { { _ : [ | : : } [ / [ . % > < 6 ~ ~ _ & * ' = $ & % %         ",
"            > % # * @ & _ ~ ^ } : [ : : : { } ^ | ( | [ ^ _ { { { _ ^ | ( | { ^ } { : : : } ^ a ~ ~ _ & @ * # % >             ",
"          [ [ < > % & % / / { ^ ^ a a a ^ } { [ : | / : { : | } | : { : | : } } { } ^ a b c c c b a / % & % > < [ [           ",
"        } { _ / } < < } | : } ~ a ^ { [ { [ : | _ _ / [ ^ a { : { a ^ [ [ } [ | : [ { [ { ^ b c ~ { : } < < } : _ { }         ",
"        } { _ [ / | : | / { } b b ^ { [ { [ : ( ( _ / [ } ~ b ^ b ~ } ^ } : | _ | [ { [ { ^ a b c d : | _ _ : [ _ { }         ",
"      { } } / _ : ^ ~ ^ { { b d d d ~ a ^ { [ : ( _ / [ } a b d b a ^ } : | ( _ [ { ^ a ~ e e c c d b a / / _ _ / } } {       ",
"      { [ { } { ^ ^ { ^ } ^ d d d f g h a a ^ } _ ( / [ } a b d b a } [ | ( _ : ^ a a h e e e e ~ ^ ~ ~ b ^ { { ^ { [ {       ",
"    ^ { [ | } ~ ~ ^ { / ( / b d f g g h f i i a { : ( [ } a b d b a } [ ( : { } i i j j j j e e a { } a a b ~ ~ } | [ { ^     ",
"    ^ ~ ^ { ^ : _ ^ [ / _ { a k l i i i h f e m a ^ _ | : } a b a } : | | ^ a a f j j f h f j e a ^ { } a c _ a a { ^ ~ ^     ",
"    n d b ~ a { / a { { } a ~ i k i h h h j e o p k { ( | [ : a : [ | ( { k ~ p e e f f h f j p ~ a ^ } a c / { a ~ b d n     ",
"    ~ c c b b a } b a a k ~ i q r i g g g m m e o p a [ : { : a : { : [ a p o s e m m f f i i j i ~ a a a b } a b b c c ~     ",
"  [ a ~ c c d d d d h ~ q l t u v q h i m f h g e p e ^ } { ^ a ^ { } m e o s j m h f m q i i i i i i r h d d d d c c ~ ^ [   ",
"  | : ^ ~ b c c d k l w x y l w v w q m h h k i g m e f ~ ~ b c b ~ f m e f j f f m i i i r l l i r t r i f d c c d ~ ^ : |   ",
"[ / / { ^ b s c c h k l u z t u A w w r i h f h g g m e e e e e e e e e m f i q t v v x x w q r i t u w r h c c s b ^ { / [   ",
"{ : [ } a d d d h h k r u v t u B w l r k w u C C w k i g f i f i f g i i r l v u C D C y x r i i v u l r r e d d d a } [ : [ ",
"} { } a ~ a ~ d f f h k l r q v x t r v u y E F A C C v r i k f k i r v A y A z y G y B u B v i g r l r k f e d ~ a ~ a } { { ",
"} { } a ~ ^ a d f f f h l r q v x t B u y E D z x C F C v r t f t r v y y z A z D E y B u B x r g m r k h e H d ~ a ~ a } { } ",
"~ } a b a } ^ d I ' + n f g i t u t z y E y u x l t C F C x w f w x F z u v w x u y F y w u u t m s f n + ' I d ^ } a b a } } ",
"d ~ d a } ^ a d J & > & + f g k r w z B B v y F x l t B B B l r l t r q t x C F y z x v z x r k e f q & > & J d ~ ^ } a d ~ ~ ",
"n d d b a ~ d s J ] < ' ! + f h r l t l v B A y F x x z x l r l r r x z z x v y A B x l t u r h f + + ' < ] J s d ~ a b d d d ",
"a a ^ ~ d d c s K L I & @ @ % f f f r i w x B A x x z F A x w A w x A F A F F u v x w i r f f f % @ ! & I L K s c d d ~ ^ a n ",
"^ ^ { ^ d ~ ~ e o K L ] & @ % f , . f f r t v B x A y B x B q C q B x B y A y B v t r f f . , l % @ @ ] L K K e ~ ~ ~ ^ { ^ a ",
"^ [ [ [ ~ { . M o o o N O % > P $ * > > f h i r w q w w v x l v l x v w w q w r i h f > > * $ P > % & N o m m M . { ~ [ [ [ ^ ",
"^ } [ | ^ ^ : = n i m o 6 O O O % # > , > k f i i r k k q l w l w l q k k r i i f k > , > # % O O ] ] o m i n = + { ^ | [ } ^ ",
"  } { : } : { + H g i m m o O Q 6 % % * 6 % * ] + . t r i i l l l i i r t . + ] * % 6 ) % % 6 Q O o 6 m i g H + [ : } : { } ^ ",
"  [ } } : | { : ^ n > > ; e o Q R 6 P & S # - > % ! . q r l u C u l r q . ! % > - # T S P 6 R Q o e m > > n ^ [ : | : } } [   ",
"  U a ^ { _ 4 / 4 { > & ; e o Q R 6 P & s @ ! $ . V W X Y Z ) @ ) P Z Y W V . $ ! @ O O R 6 R Q o e ; & > ^ [ / 4 _ _ ^ a U   ",
"    { ^ ^ [ / _ 4 4 : { # a a n a s Q S a + ' = @ ] H & ' & < Z < & ' & H ] @ = ' + R R R R R n a a # . ^ : | _ / [ ^ ^ {     ",
"    : } ^ a ^ [ | 4 4 : : ^ ^ [ : a a b } . @ ! @ ] ^ # , ' a a a ' , # ^ ] @ ! @ . } } a ^ } ^ ^ } { : 4 / [ [ ^ a } [ :     ",
"      { } ~ h ~ ^ / | | 4 [ [ : [ [ ^ ^ } ~ . @ & ^ } & ' # [ / [ # ' & } ^ & @ . ~ } { ^ ^ } { [ : 4 / [ [ [ } a : [ {       ",
"      } a h q a ~ ^ [ [ : | / : { { : 4 / ~ d d ~ } : } ^ [ | | | [ ^ } : } ~ d d ~ { : : { [ : 4 4 : ^ ~ [ { } : { { }       ",
"      { h t w v ^ ~ ~ a } : 4 | | / 4 _ 4 / [ { [ : | _ | 4 4 / / 4 1 4 4 : [ { [ / _ 3 1 / | | 4 : } ~ a ~ | : { { ^ {       ",
"      ^ ^ l t w v ^ a ~ a } : 4 _ 4 | / _ 4 1 4 4 4 1 3 1 4 _ : : _ 1 1 3 3 3 2 3 1 1 3 1 4 4 4 : } ~ a t b : } ^ a ^ ^       ",
"      ^ ~ k l t w a ~ ~ } a } : : / { [ _ _ 4 1 1 1 3 1 4 4 | [ [ | ( 4 4 1 1 3 3 2 3 1 _ / : : } ~ a t q b } ^ a b ~ ^       ",
"      a d   k l a ~ ~ ~ } a } : : / { [ | | _ 4 4 4 4 4 _ | / { { / | _ 4 4 4 4 4 4 _ | | / : : } ~ a t q b } a ~   d a       ",
"        ~ { { ~ ~ : / _ [ ^ a a ^ { { [ : / / / | | | / / | / { { / / / : / / | | | : [ { { } a r l q _ / : ^ b { { ~         ",
"          ~ b ^ : : : : _ [ a a ~ ~ a } { [ : : : [ { } : / / ^ ^ { : } { [ : : : [ { } a ~ ~ a r [ _ : : : : ^ b ~           ",
"              ^ { ! ` { : _ { } : : { a ^ } { [ { ^ a ^ } { { a a ^ } ^ a ^ { [ { } ^ a { : : } { _ : { ` ! { ^               ",
"                ; = * . : _ { : _ [ ^ ~ a ^ } { ^ a { a [ } ^ a a } [ a { a ^ { } ^ a ~ ^ [ _ : { _ : . * = ;                 ",
"                # @ & > : _ { _ [ ^ ^ ^ { ^ { a b : ( { ~ ^ ^ a ^ ^ ~ { ( : b a { ^ { ^ ^ ^ [ _ { _ : > & @ #                 ",
"                # @ & > : _ { _ [ ^ ^ ^ { ^ { a b : ( { ~ ^ ^ a ^ ^ ~ { ( : b a { ^ { ^ ^ ^ [ _ { _ : > & @ #                 ",
"                & + > < : { a [ ^ b   a a b [ { { ( :   a ~ ^ a ^ ~ a   : ( { { [ b a a   b ^ [ a { : < > + &                 ",
"                > . <   s d d [ { b b ~ b ~ ~ [ / [   a b ~ a a a ~ b a   [ / [ ~ ~ b ~ b b { ^ d d s   < . >                 ",
"                > .             [ ^ ~ b     b ^ d   ^ b c ~ ~ ~ ~ ~ c b ^   d ^ b     b ~ ^ ^             . >                 ",
"                                  { ~ ~ :     b ^ ~ b c d d b d b b d c b ~ ^ b     : ~ ~ ^                                   ",
"                                      d ~ { : [ ~ c s d b b d     b b d s c ~ [ : { ~ d ^                                     ",
"                                          d d d c s                       s c d d d ^                                         "};
