/* XPM */
static char * cacodemon_walk_xpm[] = {
"63 66 103 2",
"  	c None",
". 	c #636363",
"+ 	c #5B5B5B",
"@ 	c #6B6B6B",
"# 	c #777777",
"$ 	c #6F6F6F",
"% 	c #8B8B8B",
"& 	c #838383",
"* 	c #979797",
"= 	c #ABABAB",
"- 	c #7F7F7F",
"; 	c #A7A7A7",
"> 	c #939393",
", 	c #575757",
"' 	c #4F4F4F",
") 	c #9F9F9F",
"! 	c #B30000",
"~ 	c #D70000",
"{ 	c #EF0000",
"] 	c #434343",
"^ 	c #CB0000",
"/ 	c #474747",
"( 	c #3B3B3B",
"_ 	c #4B371B",
": 	c #533F1F",
"< 	c #7F0000",
"[ 	c #9B0000",
"} 	c #A70000",
"| 	c #E30000",
"1 	c #BF0000",
"2 	c #FF0000",
"3 	c #FF3F3F",
"4 	c #FF5F5F",
"5 	c #BFBFBF",
"6 	c #C7C7C7",
"7 	c #DBDBDB",
"8 	c #B3B3B3",
"9 	c #DFDFDF",
"0 	c #8B0000",
"a 	c #730000",
"b 	c #670000",
"c 	c #8B2323",
"d 	c #831F1F",
"e 	c #6B0F0F",
"f 	c #731313",
"g 	c #771717",
"h 	c #8F2B2B",
"i 	c #7F1B1B",
"j 	c #972F2F",
"k 	c #B34F4F",
"l 	c #A73F3F",
"m 	c #732B00",
"n 	c #A33B3B",
"o 	c #5B0000",
"p 	c #C76363",
"q 	c #670B0B",
"r 	c #0B1707",
"s 	c #17330F",
"t 	c #1F4317",
"u 	c #27531B",
"v 	c #2F6323",
"w 	c #AF4747",
"x 	c #BB5757",
"y 	c #3F832F",
"z 	c #53AF47",
"A 	c #77FF6F",
"B 	c #BF5B5B",
"C 	c #D37373",
"D 	c #9B3333",
"E 	c #13230B",
"F 	c #4F0000",
"G 	c #CB6B6B",
"H 	c #F7ABAB",
"I 	c #E78F8F",
"J 	c #3F2F17",
"K 	c #DF8787",
"L 	c #1B1B1B",
"M 	c #232323",
"N 	c #000000",
"O 	c #430000",
"P 	c #2F2F2F",
"Q 	c #EB9797",
"R 	c #5B0707",
"S 	c #CBCBCB",
"T 	c #272727",
"U 	c #470000",
"V 	c #373737",
"W 	c #00003B",
"X 	c #000047",
"Y 	c #000053",
"Z 	c #AF4300",
"` 	c #FF1F1F",
" .	c #D3D3D3",
"..	c #874307",
"+.	c #00006B",
"@.	c #000083",
"#.	c #0000B3",
"$.	c #00009B",
"%.	c #0000E3",
"&.	c #B7B7B7",
"*.	c #0000CB",
"=.	c #0000FF",
"-.	c #1B1BFF",
"          .                         +                                                   +                         .           ",
"          . @                     + @                                                   @ +                     @ .           ",
"          @ @                     @ #                                                   # @                     @ @           ",
"          . $ #                 $ # %                                                   % # $                 # $ .           ",
"            . #                 $ & *                                                   * & $                 # .             ",
"            + # &               $ * =                                                   = * $               & # +             ",
"            + . # %             . % = -                                               - = % .             % # . +             ",
"              + $ & %           + & ; >                                               > ; & +           % & $ +               ",
"              , . # & %         ' $ * ) -               ! ~ { { { ~ !               - ) * $ '         % & # . ,               ",
"                ' @ - % > -     ] ' - > * -         ! ^ ^ ^ ~ { ~ ^ ^ ^ !         - * > - ' ]     - > % - @ '                 ",
"                / , @ - % > >   ( _ : < [ } } } } ^ | 1 ! ~ 2 3 2 ~ ! 1 | ^ } } } } [ < : _ (   > > % - @ , /                 ",
"                  ' , @ - > ) ) - < < [ 1 ~ ~ ~ [ ^ | | ~ 2 3 4 3 2 ~ | | ^ [ ~ ~ ~ 1 [ < < - ) ) > - @ , '                   ",
"                  / ' + @ - ) ; ; 5 - ! ! 1 ~ | ! 1 { 2 ~ | 2 4 2 | ~ 2 { 1 ! | ~ 1 ! ! - 5 ; ; ) - @ + ' /                   ",
"% &                 / , . @ - = 5 6 7 5 [ } 1 ~ ^ } 1 ~ 2 1 | 2 | 1 2 ~ 1 } ^ ~ 1 } [ 5 7 6 5 = - @ . , /                 & % ",
"  & & #               / + . @ # > 8 5 9 5 [ | 1 | 1 } ! 1 ! 1 | 1 ! 1 ! } 1 | 1 | [ 5 9 5 8 > # @ . + /               # & &   ",
"    - > % #       1 ^ [ / + @ @ $ # * ; 8 } { 1 } ^ 0 } ^ ^ ! 1 ! ^ ^ } 0 ^ } 1 { } 8 ; * # $ @ @ + / [ ^ 1       # % > -     ",
"      $ % ; > - $ ! 1 ! [ / . $ @ @ $ & % ! 2 1 } [ 0 } ^ { ! ! ! { ^ } 0 [ } 1 2 ! % & $ @ @ $ . / [ ! 1 ! $ - > ; % $       ",
"        . - * = > - . ~ ! [ / , . $ . $ # 1 | 1 ! ^ 1 1 [ ^ | } | ^ [ 1 1 ^ ! 1 | 1 # $ . $ . , / [ ! ~ . - > = * - .         ",
"          , . % * > & . 1 } ! ^ / ' , + 1 ~ 1 } ^ | ^ 1 ! 0 ! ^ ! 0 ! 1 ^ | ^ } 1 ~ 1 + , ' / ^ ! } 1 . & > * % . ,           ",
"            ' , $ & # . { < [ } ^ 1 ^ ^ ^ ! } [ ! ^ ~ ^ [ < a [ a < [ ^ ~ ^ ! [ } ! ^ ^ ^ 1 ^ } [ < { . # & $ , '             ",
"          1 1 ( ' , . { ~ [ < [ [ 0 0 0 [ } ! 1 ^ 1 1 } 0 a b a b a 0 } 1 1 ^ 1 ! } [ 0 0 0 [ [ < [ ~ { . , ' ( 1 1           ",
"        } ! { 1 } ! ^ | ! ^ } < 0 [ ! ! ! 1 ^ | { { ~ 1 } 0 a b a 0 } 1 ~ { { | ^ 1 ! ! ! [ 0 < } ^ ! | ^ ! } 1 { ! }         ",
"        } } ~ { ^ [ < [ ! 1 ~ [ c 0 < 0 [ ! 1 ^ | | { | ^ } 0 a 0 } ^ | { | | ^ 1 ! [ 0 < 0 c [ ~ 1 ! [ < [ ^ { ~ } }         ",
"      ! 1 ! } ! [ 1 1 [ } [ < c d e f g 0 0 [ } ! ^ ^ ~ | 1 ^ 0 ^ 1 | ~ ^ ^ ! } [ 0 0 g f e d c < [ } [ 1 1 [ ! } ! 1 !       ",
"      ! 1 | } < < } ! ~ 2 ~ } c e f f g h i i 0 0 [ ! 1 ^ ! ^ 0 ^ ! ^ 1 ! [ 0 0 i i h g f f e c } ~ 2 ~ ! } < < } | 1 !       ",
"    [ < [ ! [ ^ { [ 1 ~ { ! d c j c h h k l h f < d 0 [ } ! [ 0 [ ! } [ 0 d < f h l k h h c j c d ! { ~ 1 [ { ^ [ ! [ < [     ",
"    m b a < 0 ! ~ 0 ! ! } d j n n m c d j j j i a < h 0 < < a o a < < 0 h < a i j j j d c m n n j d } ! ! 0 ~ ! 0 < a b m     ",
"    < b b a a 0 } a 0 0 d n n k l h m c k p l d q h a r s t u v u t s r a h q d l p k c m h l k n n d 0 0 a } 0 a a o o <     ",
"    0 < b b b < 0 b g c w j l k x x h i c h h j i a s t y z A t v z y t s a i j h h c i h x x k l j w c g b 0 < b o o < 0     ",
"  1 | 1 [ a b b b g j w j w B C k l D h i c l k j d w t v y t E t y v t w d j k l c i h D l k C B w j w j g b b b a [ 1 | 1   ",
"  | 2 ^ ! 0 a F b d j h w C B x C G x l D h i D j j d l t v v t v v t l d j j D i h D l x G C x B C w n j d b o o 0 ! ^ 2 |   ",
"1 | ^ 1 } 0 b o o e i i k B w k p C C C k l D h i k l d j D l w l D j d l k i h D l k C C C p k w B k j m e o o F a } 1 ^ | 1 ",
"! ^ 1 } 0 c c f o o e c k l D k x B C G p B k l h d i i f e e e e e f i i d h l k B p G C B x k D l k c e o o b b b 0 } 1 ^ ! ",
"} ! } 0 c l D c _ . m e j c h l w x k x C H I B p B k l D d f e f d D l k B p B I H C x k x w l h c j e m . _ b < 0 < 0 } ! } ",
"< } 0 c n k l i J > @ m e f i D k k n C K C k w p B G C K p n e n p K C G B p w k C K C n k k D i f e m @ > J b [ } 0 a 0 } < ",
"b < < j k l h b L . ' . h e d h w n k C G l j n w k B G C K B i B K C G B k w n j l G C k n w h d e h . ' . L b < [ } 0 b < b ",
"m b f D j i b M L ] ( > @ e f d c n k l w B C K G x x C I H H c H H I C x x G K C B w l k n c d f e @ > ( ] L F b < 0 a b b m ",
"0 a a f f b 0 M L N J . ) @ e g c j D j w x p C K G B I K K G j G K K I B G K C p x w j D j c g e @ ) . J N O F o b b o b a 0 ",
"a a a 0 < 0 } M M L P ] # # , w d e c i n w x p K K p K Q H w p w H Q K p K K p x w n i c e d w , # # ] N O O R < < b b b b a ",
"[ 0 0 ^ } ! + S T M L P . # , j ; + e e c D l x C B K p K Q h H h Q K p K B C x l D c e e + ; j , # . M U q q S + ! < } 0 0 [ ",
"[ } 1 | ! [ @ * m M M M ] , ' P % & d $ e g i c n p C k x K h G h K x k C p n c i g e $ d & % P ' , ] U q i m * @ [ [ | 1 } [ ",
"  } ! ^ } ^ @ @ _ F T T V ] P W , $ ' ; $ d j i i h n n k B j l j B k n n h i i j d $ ; ' $ , X X ] V q i f _ @ @ ^ } ^ ! }   ",
"  1 } } ^ | ! < [ m F F T T W X V , , & $ d g d i c d d h j n j n j h d d c i d g d $ & , , V Y X U q i f m [ < ! | ^ } } 1   ",
"  Z 0 [ { { ` ~ 1 . m . - T W X Y V P . , _ + _ + + D c i i j j j i i c D + + _ + _ , . P V T Y U R - . m . 1 ~ ` { { [ 0 Z   ",
"    ! [ ^ 1 ~ { # = . -  ...F X Y Y +./ V , & ] @ ) + h c j k G k j c h + ) @ ] & , V / M +.R g c .. .- . = # { ~ 1 ^ [ !     ",
"    ! } [ [ 1 | [ % / $ ) . a F F Y +.@.@.$ = ' , # / #.@ ) ' # ' ) @ #./ # , ' = $ $.@.R g c c a . ) $ / % [ | 1 [ [ } !     ",
"    ^ 1 } 0 [ 1 | [ 0 + $ 0 0 m a F Y @.$.& 6 $ P / ( %./ , + ; + , / %.( / P $ 6 & $.q g c a m 0 0 $ + 0 [ | 1 [ 0 } 1 ^     ",
"      ! 1 < g } 1 ~ ` [ 0 [ [ [ 0 a F @.$.- &.- ] #.*.%.=.-./ # / P -.=.*.#.] - &.- e g c a 0 [ [ [ 0 [ ` ~ 1 } 0 ^ 1 !       ",
"      } 0 g h D D [ 1 ~ ` | } . } [ 0 a F # ) % + _ *., $ , P / P , $ , *._ + % ) # g c 0 [ } . } | ` ~ 1 [ 0 } ^ ! ! }       ",
"      ! g D x G x D 0 [ ^ | ` ! . % } [ 0 @ > * # ] _ . > . ( -.( . > . _ ] # * > @ 0 [ } % . ! ` | ^ [ < 1 ! ^ ! ! [ !       ",
"      [ < j l B C l h 0 } ^ ` | ^ ! . % } + # ) # ] [ $ ; > 0 0 0 > ; $ [ ] # ) # + } % . ! ^ | ` ^ } D h < | } [ 0 < [       ",
"    [ < b d j l B l h d 0 } ^ ` | ~ ^ ! } < + # . [ } . > $ 1 ~ 1 $ > . } [ . # + < } ! ^ ~ | ` ^ } D x D a ^ [ 0 a b < [     ",
"    0 b     d j l D h d } 0 } ^ { ` ` { } < b b < } ^ } [ 1 | 2 | 1 [ } ^ } < b b < } { ` ` { ^ } D x w h a } 0 <     b 0     ",
"    < [ ^     d c h c 0 [ } 0 } ^ ~ | ~ { } < b } ^ ~ | | | | | | | | { | ^ } b < } { ~ | ~ ^ } h w l h < < 0 <     ^ [ <     ",
"      < ! ^ ! a < ^ ~ { 1 [ 0 0 } ! ! 1 ^ { } } ^ | ^ ! ~ | ~ ~ ~ | ~ ! ^ | ^ } } { ^ 1 ! ! } 0 c j h { ~ ^ < a ! ^ ! <       ",
"        < a a b ^ . + ! { 1 0 0 < < 0 } ! 1 ^ ~ ^ 1 ! } ^ ^ ^ ! ^ ^ ^ } ! 1 | { { 1 ! } 0 < < 0 c 1 { ! + . ^ b a a <         ",
"                $ )  .+ ! { ! } ^ 2 ! 0 [ } ! 1 ! [ 0 [ } ^ { 0 2 ^ } [ 0 [ ! 1 ! } [ 0 ! 2 ^ } ! { ! +  .) $                 ",
"                - * & + 0 { ! ^ { 1 [ < 0 [ } ! [ 0 ! 0 1 } | a | } 1 0 ! 0 [ ! } [ 0 < [ 1 { ^ ! { 0 + & * -                 ",
"                $ # . ' < { ! { 1 [ [ [ ! [ ! 0 a ^ 2 ! < [ 1 ~ 1 [ < ! 2 ^ a 0 ! [ ! [ [ [ 1 { ! { < ' . # $                 ",
"                . @ ' ( ^ ! 0 ~ [ a   0 0 a 1 ! ! 2 ^   0 < [ ~ [ < 0   ^ 2 ! ! 1 a 0 0   a [ ~ 0 ! ^ ( ' @ .                 ",
"                ' + (   F b b 1 ! a a < a < < 1 ~ 1   0 a [ 0 ^ 0 < a 0   1 ~ 1 < < a < a a ! 1 b b F   ( + '                 ",
"                ' +             1 [ < a     a [     [ a o ! < } ! < o a [     [ a     a < [ 1             + '                 ",
"                                  ! < < ^     a [ < a o   ! < b ^ !   o a < [ a     ^ < < !                                   ",
"                                      b < ! ^ 1 < o o     [     b ^     o o < 1 ^ ! < b                                       ",
"                                          b b b o F b } [ b       b ^ } b F o b b b                                           ",
"                                                    b b b           b b b                                                     "};
