/* XPM */
static char * revenant_shoot_xpm[] = {
"98 79 165 2",
"  	c None",
". 	c #774F2B",
"+ 	c #6B4727",
"@ 	c #5F4323",
"# 	c #5B472B",
"$ 	c #574333",
"% 	c #67533F",
"& 	c #8F5F37",
"* 	c #836B57",
"= 	c #7B634F",
"- 	c #8B735B",
"; 	c #4F3B23",
"> 	c #A36B3F",
", 	c #9B633B",
"' 	c #5F4B37",
") 	c #533F2F",
"! 	c #675333",
"~ 	c #000000",
"{ 	c #3F2B1B",
"] 	c #7F532F",
"^ 	c #937B63",
"/ 	c #9B7F6B",
"( 	c #9F8363",
"_ 	c #775F4B",
": 	c #775F3F",
"< 	c #372313",
"[ 	c #875733",
"} 	c #9F876F",
"| 	c #836B4B",
"1 	c #473323",
"2 	c #533F1F",
"3 	c #BFBFBF",
"4 	c #B3B3B3",
"5 	c #CF8353",
"6 	c #D78B5B",
"7 	c #A78F77",
"8 	c #EFA373",
"9 	c #DF9363",
"0 	c #AF977F",
"a 	c #7F7F7F",
"b 	c #939393",
"c 	c #ABABAB",
"d 	c #F37317",
"e 	c #B37347",
"f 	c #9F9F9F",
"g 	c #272727",
"h 	c #6F6F6F",
"i 	c #EB6F0F",
"j 	c #FF8F3B",
"k 	c #FFB37B",
"l 	c #FFB383",
"m 	c #332B13",
"n 	c #AB6F43",
"o 	c #C7C7C7",
"p 	c #2F1B0B",
"q 	c #636363",
"r 	c #FFC79B",
"s 	c #FFFF6B",
"t 	c #1F170B",
"u 	c #170F07",
"v 	c #F7AB7B",
"w 	c #BF7B4B",
"x 	c #CB7F4F",
"y 	c #6B6B6B",
"z 	c #575757",
"A 	c #373F27",
"B 	c #2F371F",
"C 	c #FFFF73",
"D 	c #FFEBDB",
"E 	c #FFFFB3",
"F 	c #FFA35B",
"G 	c #FF7F1B",
"H 	c #B79F87",
"I 	c #232B0F",
"J 	c #5B5B5B",
"K 	c #979797",
"L 	c #DFDFDF",
"M 	c #2F2F2F",
"N 	c #373737",
"O 	c #777777",
"P 	c #A7A7A7",
"Q 	c #FFFFFF",
"R 	c #BFA78F",
"S 	c #4F4F4F",
"T 	c #6F5743",
"U 	c #CBCBCB",
"V 	c #838383",
"W 	c #676B4F",
"X 	c #FFCFB3",
"Y 	c #FFC7A7",
"Z 	c #43331B",
"` 	c #3F472B",
" .	c #474747",
"..	c #EFEFEF",
"+.	c #E7E7FF",
"@.	c #E7E7E7",
"#.	c #D3D3D3",
"$.	c #B7B7B7",
"%.	c #E79B6B",
"&.	c #FFFF23",
"*.	c #434343",
"=.	c #8B8B8B",
"-.	c #DBDBDB",
";.	c #FFD7BB",
">.	c #5B6347",
",.	c #6F7357",
"'.	c #7B7F63",
").	c #2B230F",
"!.	c #070707",
"~.	c #1B1B1B",
"{.	c #4B371B",
"].	c #432F1B",
"^.	c #D7BB43",
"/.	c #C39B2F",
"(.	c #474F33",
"_.	c #FFD3BB",
":.	c #0F1700",
"<.	c #FFBF9B",
"[.	c #171F07",
"}.	c #4F3B27",
"|.	c #AF7B1F",
"1.	c #131313",
"2.	c #232323",
"3.	c #FFE3D3",
"4.	c #670000",
"5.	c #430000",
"6.	c #FFFFD7",
"7.	c #7F0000",
"8.	c #4F3B2B",
"9.	c #EB9797",
"0.	c #8F7753",
"a.	c #3F2F17",
"b.	c #470000",
"c.	c #4F0000",
"d.	c #5B0000",
"e.	c #8B0000",
"f.	c #9B0000",
"g.	c #730000",
"h.	c #BF0000",
"i.	c #0B0B0B",
"j.	c #53573B",
"k.	c #530707",
"l.	c #A70000",
"m.	c #5F0707",
"n.	c #FFDBC7",
"o.	c #8B2323",
"p.	c #670B0B",
"q.	c #972F2F",
"r.	c #3B3B3B",
"s.	c #771717",
"t.	c #831F1F",
"u.	c #6B0F0F",
"v.	c #7F1B1B",
"w.	c #731313",
"x.	c #5B0707",
"y.	c #8F2B2B",
"z.	c #A73F3F",
"A.	c #A33B3B",
"B.	c #9B3333",
"C.	c #AF4747",
"D.	c #732B00",
"E.	c #BF5B5B",
"F.	c #874307",
"G.	c #9B5B13",
"H.	c #B30000",
"                                                                                                                                          . + + @ # $ %                                             ",
"                                                                                                                                        . & & * = = = @ %                                           ",
"                                                                                                                                      + . & - * * * = @ ; %                                         ",
"                                                                                                                                      + . & > - - & & @ ; %                                         ",
"                                                                                                                                      + . > , & & & & # ' )                                         ",
"                                                                                                                                      # > @ @ @ @ @ @ . . #                                         ",
"                                                                                                                                      ! @ ~ ~ { { ~ ~ ~ @ ;                                         ",
"                                                                                                                                      . @ ~ ~ @ ] ~ ~ ~ @ #                                         ",
"                                                    ^ / ( ^ * _ :                                                                     ! > > ! ] < . > > [ !                                         ",
"                                                  ( } } } } ^ * | &                                                                     < 1 2 & > & 2 { { 1                   3 4 4 4               ",
"                                                5 6 7 7 7 7 } ^ & & &                                                                   { { 2 & > & 2 { {                   3 ~ ~ ~ ~ 4             ",
"                                                8 9 7 0 0 7 7 / , & &                                               a b a                 2 ~ ~ ~ ~ ~ 2 {                   c ~ ~ ~ ~ 4             ",
"                            d                   8 6 ( ^ ( ( 9 5 e , >                                             f g ~ g h               2 2 2 2 2 2 2                     f ~ ~ ~ ~ 4             ",
"                    i     j k j     i           l ; m ; , [ < < 5 n e                                           a b ~ ~ ~ o                 { . [ [ @ p                     q 3 f 3 3 q             ",
"                      k j r s r j k             l t ~ $ 8 # u u v w x                 d                         y b ~ ~ g b             y y z ~ ~ ~ ~ g     a q               ~ A B q               ",
"                      j C D E D C F   a a a a c F 5 0 l u 6 w > v 5 x         i     G k G     i                   h b H b I       J y K 3 L 3 J ~ ~ ~ M N O 4 P K h q         ~ M                   ",
"                    j r D E Q E D r 8 k R 4 c c ) ) ) 9 u n 9 . . ) ) S         k j r s r j k                         B ~     y J T 0 3 L L L L J ~ ~ M J P U U c K V O q J ~ g W                   ",
"                  d k s E Q Q Q E s k F k X Y r ! u ) 8 6 6 v Z Z Z ~ c f O     j C D E D C j                         g `  .J J q M 4 Q Q ..+.@.....O 4 #.Q Q ..U P K V V y a $.3 b                 ",
"                    j r D E Q E D r 9 %.8 r &.Q q p p ; ; ; ; p u Z u *.Q Q P 9 r D E Q E D r G                       h =.=.J  .~ $ $.Q Q ..P b f 4 O 4 #.Q Q Q ..-.$.} q m $...@.$.c b             ",
"                      i C D E D C j : N 0 = Q Q q u u u u u u u u u u 1 Q ;.%.k s E Q Q Q E s k d                   h =.J  .~ ~ ~ % - : ] . ] ] ] . 1 c 4 #.@.@.-.-.$./ *.m K a >.W ,.'.a           ",
"                      x j r s r i n & 0 Q M 4 Q  .t Z [ % n 5 + u u u *.Q &.e F r D E Q E D r G                     N ).~ ~ ~ ~ : , , | [ ] [ [ [ + 1 Z - - - h h J *.*.*.g ~ ~ ~ ~ ~ ~ *.*.        ",
"                    i !.n j k j n . i W ;.A  . .u u u > > [ > [ u u 1 f ;.z # e F C D E D C j                         m ~ ~ + , , : : # ; Z 1 ) # ! 1 1 H H 4 4 V h q *.*.g ~ ~ ~ ~ ~ ~ ~ ~         ",
"                  ] !.p !.> d 5 w N ).7 }  .~.J O o p u u u u u u u S k z !.~.n k %.r s r j r                       ] @ + , e > + + 1 {.;.D 3 0 | ].; m H f Q L 4 7 ,.z *.g ~ ~ ).).).              ",
"                  : !.!.!.!._ ^./.w (.u u % 0 _.D s o ~ !.:.u u u *.j S P S '.6 6 ( <.k Y ;.<.                  + | | e e > & + 1 1 : H ..$.R = ~ ~ ~  .h P L L 4 R a q *.g ~ ).{.{.).              ",
"                  : [.!.!.!.!.}.|./.u 1 = H _.D Q Q s <.y !.( R k 1.2. .P  .P r v r ;.X ;.3.Q               ; % : e e > , . ; ; $ : R R 3 R = ~ 4.4.5. .h P #.L c K h z *.g ~ ).@ @ @               ",
"                  | @ [.!.!.u - $ ) ^ = ^ H <.X D Q Q <.'.H ;.Q Q k u A =.b 4 -.s 6.6.6.-.-.-.          ! ' ] e e > | | . ; ; $ ! ^ ( ( R = ~ 4.5.5.7.~  .f o o R O y z *.g ).).8.+ . @             ",
"                  T 2 1 [.!.!._ $ % R / '.} H 9.Y _.X R g I W D Q Q 0 t W } b 4 o o o U U o o         ' : > e > | ( 0.+ ; Z   $ ^ - = / = ~ 4.4.5.5.7.5.{  .f H K y S *.M   ).).a.. . @             ",
"                  + 2 {.].< !.,.W >.R 7 V '.'.7 P c 4 P g S N v Y Y R } a | } } } 7 7 0 f $.        ) [ : > > | | | ; ; 1     T _ = = $ ~ ~ 4.b.~ c.d.e.7.~  .f V z *.M g     ).).8.. @             ",
"                  @ 8.1 < < u ^ >.,.0 R R 0 0 R 3 $.R b q $.$.K 7 } V O J t # / / / / / ^         @ ] [ , & | | . ; ; ).      M _ _ ~ ~ 4.f.g.b.5.c.g.g.h.7.p h f a *.M g     ).).a.; @ +           ",
"                + @ 1 1 < p i.} j.W 4 #.#.3 c 3 o ..g B t ,.W c y y y y *.< < ; % ' +             + # [ & ] ] ; 1 { {         >.'.p ~ 4.4.e.c.~ 5.k.5.4.g.f.7.).h f h M         ).).; + +           ",
"                @ 8.1 ].< p ~ T = _ ;.6.D 3.U #.L ..#.M L c c f ^ '.,.'.{ < }.. . '                 { ; ; ; 1 { m             a  .~ 4.l.f.~ ~ ~ 5.m.k.c.4.e.h.7.~ h =. .        ).).{ 1 #           ",
"                + 8.1 < p u   M % } 7 R X n.L ..Q f >.J b f f 0 0 7 a '.< @ + ] !                     ; 1 { {                 a  .~ d.7.7.4.~ b.4.g.m.b.b.4.e.f.4.~ f  .          ).).1 {.;         ",
"              ! ' 8.1 p p ~     g % - ^ H R R #...g ~.8.8.j.R $.4 H a S < @ @ +                                                 a  .~ d.d.c.b.5.4.e.o.e.p.b.4.4.4.m b y           ).).{ 1 {.        ",
"              + ! 1 { p p       7.p ) $ T W 7 0 } ` >.L -.f 0 R R V y t 1 ; @ @                                                   a J b.b.~ ~ d.c.g.p.q.p.k.k.5.5.r.,.              ).).1 )         ",
"            . . ! 1 { u u     s.7.7.u ).{ 1 T T / j.H ! 0 7 R } y S !.< ].}.@ }.                                                      a a r.r.g.4.g.p.o.t.k.k.r.r.                  ).).{ 1 ;       ",
"            . ] ] 1 { u       s.s.u.7.~ ~ 1.g T T *.~.1.1 y J S ).  t < ].}.}.}.                                                        s.v.5.m.p.d.g.v.v.p.k.k.w.o.s.                ).).1 1       ",
"            & ] : ) { 1.    w.s.v.k.7.u.1.~ !.!.~ ~ ~ i.1.u ).t     ).< ].].}.}.                                                      v.v.w.5.5.p.s.p.p.t.v.x.v.y.o.s.                ).).{ 1 ].    ",
"            [ ] : ) {     w.s.o.w.5.k.w.k.7.~ ~ ~ ~ ~ ~ 5.5.p u     < < ].].].}.                                                      s.o.s.m.k.p.t.s.d.p.k.x.y.q.q.o.u.v.              ).{ 1 {.{.  ",
"            , ] : ; {     v.o.s.k.k.k.u.u.k.5.5.u ~ !.5.k.k.p 5.5.v.!.< ].].}.#                                                   v.q.q.s.o.s.m.k.s.p.d.p.k.v.v.p.y.q.o.o.v.            2 2 2 @ ;   ",
"            & ] : }.{     s.o.k.u.u.s.s.s.w.w.s.w.u.k.5.k.p.s.p.u.v.u < ].) ) #                                                   v.z.q.s.q.o.s.m.m.p.p.s.p.v.p.w.w.q.A.o.v.            . . [ . 1 m ",
"            0.0.! }.      o.q.o.w.s.o.s.k.u.w.o.v.s.s.x.x.s.t.s.s.o.{ u ].1 ; # :                                                 q.z.o.m.s.q.s.u.m.m.u.p.p.m.k.m.w.q.B.o.t.v.          . [ , + @ m ",
"          : 0 0.! @       v.o.s.w.p.s.p.5.p k.k.w.w.v.w.k.p.s.p.s.v.v.!.].) @ @ [                                               o.q.q.s.m.x.t.q.y.u.u.v.p.p.k.k.k.w.B.C.q.t.v.          . [ + 2 @ m ",
"          & / & ! }.    o.v.D.D.s.p p p p       u.u.w.u.x.x.k.k.u.s.o.!.].' @ @ [                                               q.q.v.o.x.x.x.v.t.v.v.u.u.k.5.k.5.w.B.E.C.o.v.      . > [ 2 2 2 {.m ",
"          & e [ #       o.F.G.F.D.p k.u.            x.x.u.u.k.p.u.D.F.v.!.@ @ + [                                             o.q.o.v.v.x.5.k.  k.k.    k.5.    k.s.B.C.B.v.F.  [ > > > 2 {.{.m m   ",
"          , e & +     > o.G.G.G.F.u.@                   D.D.s.t.s.D.F.o.x.2 + + [                                             v.o.t.w.u.5.5.                    w.t.q.B.o.o.G.  + > > [ 2 m m m {.  ",
"          0.e & @     o.o.F.G.F.D.w.                      D.t.o.t.D.D.F.s.].+ . [ &                                         t.v.o.v.w.x.5.                        s.q.q.v.F.G.  {.{.+ [ 2 m m ;     ",
"          , 5 +       o.v.v.v.s.w.w.                      D.s.t.s.s.D.o.s.!.+ . & >                                         v.t.o.v.w.p.5.                        s.C.q.v.F.G.  m {.{.+ 2 m m       ",
"        : , 5 Z       v.F.& : F.w.w.                        D.w.v.o.o.v.o.!.2 . , n                                       D.F.F.D.u.p.5.                          w.B.y.w.F.G.    m m {.2 1 #       ",
"      . 5 %.w #       v.e.F.F.e.k.                          & D.+ + F.F.D.x.{.. > e |                                     F.G.G.F.u.k.5.                          w.y.v.u.s.F.    m m m m 1         ",
"    . 5 %.6 e '       v.F.! F.f.k.                            : + + F.F.F.D.~ & w x 0.                                  F.G.G.G.F.m.k.                            D.D.D.D.p.p.                      ",
"  . & 6 : 1 Z       v.F.! , . f.;                             e ' + + F.D.e.~ & x 5 0.                                  D.F.G.F.D.m.k.                            D.F.F.F.D.p.                      ",
"  [ ] > t.]         F., w n G.f.                                : + , & l.H.x.[ 9 6 5 }                               v.v.D.F.D.u.k.                              F.G.G.F.D.p.                      ",
". 0.t > 1           , w x G.f.f.                                & F.F.w & F.e.. 9 9 6 0.}                             v.v.t.o.u.m.k.                              F.G.G.G.F.D.                      ",
". > u @ )         , w x 6 , G.u.                                & s.w.w w & e.2 9 w G., ( }                           [ F.w.v.u.k.                                s.. G., F.D.                      ",
"& ( ) p ;         e 9 9 9 x ] +                                   F.w.> 9 e | { > + . { { }                         [ & & F.w.m.k.                                w.s.[ > & F.                      ",
"[ , (             ! e 6 6 x ]                                     & F.> 9 9 e @ 1 . C.@ { & /                       [ > & F.v.m.                                  s.v.| > > .                       ",
"] ; 0.(           ! , , , , +                                     > : > : : : ; u : G.G.@ p }                     [ > > & . F.w.                                  s.+ | > > .                       ",
"@ T : ( .         F.! , + @ +                                       [ ] ! ! ! ; ~ : : ) ) : }                   [ > > n & . @                                     + . 0.n > [                       ",
"  T ! ( +       F.F.! ! + @ 2                                       [ + @ 2 2 @ g . : > e < |                   [ [ w w n . @                                     % : n n > [                       ",
"    ] +         F.F.! ! + @                                       ! [ ] @ 2 2 @ T ! < < < Z                     . [ , , [ +                                       ! n e e e [                       ",
"                F.F.! ! + 2                                       [ [ ] @ 2 2     < # t 1                       @ ; ; 2 2 +                                       ! n w w e [ :                     ",
"                F.F.! ! + 2                                       ! [ . @ 2 2                                   a.; {.{.{.@ @                                     # n w w e [ .                     ",
"                F.F.! ! @                                         : : ! @ 2 @                                   a.{.a.a.a.@ @                                     # , , , & [ &                     ",
"                F.. ! + 2                                         : : : @ 2                                     a.a.a.a.a.@ @                                       @ {.{.{.{.[ &                   ",
"                F.. ! @                                           : : ! @ 2                                       a.a.a.a.2                                         + 2 Z a.{.[ &                   ",
"                + . . 2                                           [ ! + @ @                                       a.a.a.a.2                                           . 2 a.{.+ [                   ",
"                + . + 2                                           [ . + @ @                                         a.a.a.@                                             + Z Z 2 .                   ",
"                + . @                                               . + @                                           a.a.m :                                               2 Z }..                   ",
"                ] + @                                               . + @                                           a.a.m                                                 2 Z ; .                   ",
"                . + @                                               . + @                                           a.a.m                                                 2 Z ; ! !                 ",
"              : . + @                                               + ' +                                           a.m m                                                 ; ; ; @ !                 ",
"              : + @ @                                               + ' +                                           a.m a.+                                               ; ; @ @ .                 ",
"              [ [ . @                                               @ @ .                                           2 m 2 +                                               # ; @ @ .                 ",
"            . , & . @                                               @ . .                                           ! @ 2                                                 @ 8.+ + .                 ",
"          : & n n > @                                             + . [ [                                         : : & [ +                                               [ ] . ] :                 ",
"        : & n e e n .                                             + [ , , ,                                       [ : e , +                                             : | : [ ] : :               ",
"        $ [ & , , > .                                             ! & , , , &                                   . ; + [ + + &                                           : 0.> > & : :               ",
"        $ $ ' ' : = &                                             @ & & & & > n                               [ {.! | 0.> + :                                             : . . : .                 ",
"                                                                    : & & & & &                               . @ > # 0.: ] [                                                                       "};
