/* XPM */
static char * revenant_pain_xpm[] = {
"66 72 127 2",
"  	c None",
". 	c #67533F",
"+ 	c #5F4B37",
"@ 	c #533F2F",
"# 	c #875733",
"$ 	c #5F4323",
"% 	c #A36B3F",
"& 	c #AB6F43",
"* 	c #432F1B",
"= 	c #7F532F",
"- 	c #9B633B",
"; 	c #8F5F37",
"> 	c #775F3F",
", 	c #675333",
"' 	c #43331B",
") 	c #4F3B27",
"! 	c #3F2B1B",
"~ 	c #6B4727",
"{ 	c #774F2B",
"] 	c #473323",
"^ 	c #4F3B23",
"/ 	c #372313",
"( 	c #170F07",
"_ 	c #5B472B",
": 	c #332B13",
"< 	c #1F170B",
"[ 	c #2B230F",
"} 	c #373F27",
"| 	c #474747",
"1 	c #2F2F2F",
"2 	c #1B1B1B",
"3 	c #574333",
"4 	c #2F1B0B",
"5 	c #6F7357",
"6 	c #7B7F63",
"7 	c #7F7F7F",
"8 	c #979797",
"9 	c #2F371F",
"0 	c #3B3B3B",
"a 	c #070707",
"b 	c #373737",
"c 	c #232B0F",
"d 	c #B79F87",
"e 	c #ABABAB",
"f 	c #BFBFBF",
"g 	c #D3D3D3",
"h 	c #C7C7C7",
"i 	c #3F2F17",
"j 	c #474F33",
"k 	c #9F9F9F",
"l 	c #8B8B8B",
"m 	c #434343",
"n 	c #575757",
"o 	c #636363",
"p 	c #838383",
"q 	c #6F6F6F",
"r 	c #4F4F4F",
"s 	c #9F876F",
"t 	c #676B4F",
"u 	c #D78B5B",
"v 	c #A78F77",
"w 	c #5B6347",
"x 	c #000000",
"y 	c #777777",
"z 	c #272727",
"A 	c #B7B7B7",
"B 	c #FFFFFF",
"C 	c #EFEFEF",
"D 	c #DBDBDB",
"E 	c #CF8353",
"F 	c #533F1F",
"G 	c #5B5B5B",
"H 	c #939393",
"I 	c #A7A7A7",
"J 	c #4B4B4B",
"K 	c #E7E7E7",
"L 	c #DFDFDF",
"M 	c #232323",
"N 	c #4B371B",
"O 	c #53573B",
"P 	c #4F3B2B",
"Q 	c #CBCBCB",
"R 	c #6B6B6B",
"S 	c #131313",
"T 	c #9B7F6B",
"U 	c #4F0000",
"V 	c #775F4B",
"W 	c #470000",
"X 	c #5B0000",
"Y 	c #836B4B",
"Z 	c #6F5743",
"` 	c #670000",
" .	c #8B735B",
"..	c #430000",
"+.	c #730000",
"@.	c #9B0000",
"#.	c #8F7753",
"$.	c #BFA78F",
"%.	c #7F0000",
"&.	c #FFFF8F",
"*.	c #3F472B",
"=.	c #8B0000",
"-.	c #A70000",
";.	c #D7BB43",
">.	c #171F07",
",.	c #B37347",
"'.	c #0B0B0B",
").	c #B3B3B3",
"!.	c #530707",
"~.	c #7B634F",
"{.	c #5F0707",
"].	c #9F8363",
"^.	c #6B0F0F",
"/.	c #7F1B1B",
"(.	c #8F2B2B",
"_.	c #771717",
":.	c #831F1F",
"<.	c #8B2323",
"[.	c #9B3333",
"}.	c #A73F3F",
"|.	c #731313",
"1.	c #5B0707",
"2.	c #972F2F",
"3.	c #670B0B",
"4.	c #874307",
"5.	c #9B5B13",
"6.	c #732B00",
"                                                  . + +                                                                             ",
"                                            @ # # $ % & % +                                                                         ",
"                                          * = # % # - ; & # > ,                                                                     ",
"                                          ' ) ! ~ # - { ] ; % ; ^                                                                   ",
"                                          ^ ] / / @ ; = ( _ - ; $ ^                                                                 ",
"                                          : ] < [ * { ) [ ; - = $ $ ^ } | 1 |                                                       ",
"                                          2 ! ( [ ! ] { ! ; _ 3 = $ 4 5 6 7 8                                                       ",
"                                            < < ] ] ! ! ~ { / 4 , $ 4 9 9 9 0 (                                                     ",
"                    a 1 b a                     2 ( c d e f g h 5 i ( j e 8 k l                                                     ",
"                  b m a a n a                 o b l l p p q o p e r s t f u u % v w o                                               ",
"                  h x x j y | z       a r | 6 o A 7 B B B C C C D p t , u E & - F ' 9 j                                             ",
"                  e o y p n 5 2 0 a m G G g G l H I D C B B B B C w w ) % & % - = F < 9                                             ",
"                    z 5 w ( < x y J r 0 K q y p 8 r H K D L B B C M 3 ] N ; - ; { = F w                                             ",
"                      ( O 9 a z k q n P Q r 6 R 8 7 C C B B D B e 0 i / N = = { { ; { >                                             ",
"                        S 9 9 } n o w 5 T q I x U x Q Q B D Q C B e 1 ] : : $ { { ; ; F                                             ",
"                          9 b + ! n t 6 y h G a U x 2 L e B B L K H 1 * ] : $ ~ { ; ; V {                                           ",
"                        s 9 + V 9 n 6 j I G S x W X < 9 C L B B C l r * * P : $ ~ # - % Y =                                         ",
"                        O 9 Z 3 @ n l 8 G a < ( U ` U [ : K f C B k w * * ,  .a @ = ; % % Y {                                       ",
"                        9 + Z z b l 8 y < U ..( U +.@.U ..M g B f H q P * ) 5 a / F { ; - #.Y ,                                     ",
"                          | $.3 O y A G / W ..W W %.@.%.X ..a y C y w 5 * ) + a     F { # % % ; #                                   ",
"                          5 &.s *.y A < W ` ` W W W =.-.%.` U ( 0 e n j ) *.}         F { ; % % - #                                 ",
"                          e ;.d >.k G < U ` X ` W W ` =.-.%.W U x S D y n j S           F { ; - % - {                     - # = *   ",
"                          f #.Y 6 G ..` ( %.` X %.X U ..U %.W W W x b g 7 j a             F { # ; % - #                 = ; ] ! ,   ",
"                          7 , _ A x U ( X @.` U U %.X X W U X U U < x G g }                 F ~ { # ; ,.& %           $ = $ { = - ~ ",
"                          '.@ ! h < a ..W @.%.U ` ` %.+.X ..U X ` X 4 r K S                   $ ~ { ; % & ,.,.& % - = . ~ - F ! , _ ",
"                            P Y $.w x =.W -.@.U ` %.@.=.+.....` U X ( p k                     F $ ~ { # ; ; ; % ; ; _ _ / { # { - { ",
"                              ] #.s : : X @.=.+.` +.=.%.+.W ` +.` U ] ).                        F $ ~ ~ { # = { ~ _ _ ~ _ - ] + $ ^ ",
"                              1 3 ) v ( ! %.-.@.+.` =.+.=.%.!.` !.! v                             F $ $ $ $ $ ) @ F F F F $ ^ F F ^ ",
"                                3 Z ~.Z + / _ U U X @.=.@.=.%.{.{.P                                                                 ",
"                                '.! @ ]./ < ! ..( W @.+.=.%.^.+.+.                                                                  ",
"                                  '.1 ] ! 4 ( a   ( -.@.%.%./.+.%.                                                                  ",
"                                    a . Y 4 ( (     =.-.@.(./.+.%.                                                                  ",
"                                      z . !._._._.  /.=.=.:._.^.+.      _.<.                                                        ",
"                                         ._.(.[.<._._.=.%.=./.^.{.    !.{.}.<.                                                      ",
"                                          /.[.}.[._._.%.=.%.<./.|.1.1.!.!.2.}.                                                      ",
"                                          _.<.[.(.<._.=.%.=.(.<./.1.3.!.{.(.}.                                                      ",
"                                          _./.2.<.:././.:.<.<./.|.3.^.{./.<.2.}.:.                                                  ",
"                                    ^ ) * / / /.2.<./._._./.<.|.^.3._./.^._.2.}.<.:.                                                ",
"                                  ] ^ ^ ) * / !./.2.<./._._._.3.^._./.^.{.^.2.2.2./.                                                ",
"                                ^ _ _ , ) * ^.!.{./.2.<.<.<.<.:.:._.^.!.U _.2.2.2.:.:.                                              ",
"                              , { , , = ) 3.^.{._._._.<.<.<._.|.^.^.    !.:.(.2.2.<.<.                                              ",
"                            = { { ~ ~ _ ) ^./.<._.{.!._._._._.          _.<.<.4.4.2.<.                                              ",
"                        = = = { ~ $ ^ * ^./.<.<.:./.^.!.                <.:.4.5.5.4.<.                                              ",
"                      = > # # $ ^ ^     ^.:.2.<./._.^.3.                <.4.5.% ; 4.<.                                              ",
"                    & ; ; { ^ ^         <.:.:.:._._.^.3.                <.4.5.% ; 4.:.                                              ",
"      ~ = @ 3 { > % % { $ $ ^           :.6.4.6.:._.^.3.                $ /.4.4.4.:._.                                              ",
"    % , - % = ~ #.; = ^ ^               6.4.4.4.6._.^.3.                  /.<.2.:._.^.                                              ",
"  $ % / > #.% Y #.# =                   4.- 5.4.6._.^.                    /.<.<._.^.^.                                              ",
"^ & = ] = , % #.#.=                     4.5.5.4.6._.^.                    6.4.5.5.4.^./.                                            ",
"  , ~ ~ { = - - ; @                   _.6.4.4.6.|.^.^.                    4.{ & ,.5.^._.                                            ",
"  @ # $ # - ; # +                     /._./._.^.^.^.                      $ { & ,.4./.3.                                            ",
"    $ { ; ] { @                       6.6.6.<.|.3.3.                      $ 5.5.4.<./.3.                                            ",
"        / 3 !                         { ~ 4.4.$ ^.3.                      $ ~ 5.4.4.<.                                              ",
"                                      ~ , { 4.$ /./.                      $ ~ ; # 5.4.                                              ",
"                                      , ~ { 4.$ _.                      Y ~ { = = 4.4.                                              ",
"                                      { 4.4.2.2._.                      = ~ ~ ~ ~ 4.                                                ",
"                                    { # ; 4.4.<._.                      ~ $ $ $ $ ~                                                 ",
"                                    { = #.].Y ; /.                      ~ $ $ $ $                                                   ",
"                                    { = #.#.Y ; =                       ~ ~ $ $ ~                                                   ",
"                                    { { > > > # = # =                     ~ $ $ {                                                   ",
"                                      ~ , # # { { # # =                   ~ $ ,                                                     ",
"                                            P ] ] P . , , = #             ~ ~ {                                                     ",
"                                                  ] ] P . , >             ~ ~ ;                                                     ",
"                                                    ] ] P , .             ~ , -                                                     ",
"                                                    ] ] ] , ,             ~ , -                                                     ",
"                                                    P ] N , ;             ~ = #.                                                    ",
"                                                  ^ ) P ~ ,             $ , ; {                                                     ",
"                                                  ^ ~ ^ # ~           $ , # ; # =                                                   ",
"                                                  ~ # ~ - ~           $ = % Y Y {                                                   ",
"                                                  ; ; # - #           ~ # - #.; +                                                   ",
"                                                                    - % - Y - - #                                                   ",
"                                                                    - % # { { = {                                                   "};
