/* XPM */
static char * plasma_live_xpm[] = {
"30 14 13 1",
" 	c None",
".	c #5353FF",
"+	c #0000CB",
"@	c #7373FF",
"#	c #3737FF",
"$	c #000047",
"%	c #000083",
"&	c #8F8FFF",
"*	c #1B1BFF",
"=	c #ABABFF",
"-	c #C7C7FF",
";	c #FFFFFF",
">	c #E7E7FF",
"       .                      ",
"       .        .           . ",
"      +@+        @   +#+   @  ",
"    $%#&#%$       &+%#@#%+&   ",
"   $*.@&@.*$      +=.@&@.=+   ",
"  $*.@=-=@.*$    $*.-=-=-.*$  ",
"  +#@&-;-&@#+    +#@&>>>&@#+  ",
".@@&--;;;--&@@.  #@&->;>-&@#  ",
"  +#@&-;-&@#+    +#@&>>>&@#+  ",
"  $*.@=-=@.*$    $*.-=-=-.*$  ",
"   $*.@-@.*$      +=.@&@.=+   ",
"    $%#&#%$       &++#@#%+&   ",
"      +@+        @   +#+   @  ",
"       @        .           . "};
