/* XPM */
static char * plasma_death_xpm[] = {
"195 41 15 1",
" 	c None",
".	c #7373FF",
"+	c #8F8FFF",
"@	c #ABABFF",
"#	c #E7E7FF",
"$	c #C7C7FF",
"%	c #FFFFD7",
"&	c #FFFFFF",
"*	c #0000FF",
"=	c #3737FF",
"-	c #5353FF",
";	c #1B1BFF",
">	c #0000E3",
",	c #FFFFB3",
"'	c #FFDBDB",
"                                                    .   .                                                                                                                                          ",
"                                                    +.@@@#                                                                                                                                         ",
"                                                    @@+.+@#.                                                                                                                                       ",
"                                                    @+. .@#@.                                  ...         @                                                                                       ",
"                                                ..@@+  .+@$#+.++                              .$+.        $                                                                                        ",
"                                                .   ...+++#@+.+ .                               .$$++     %                                                                                        ",
"                                                +  ..@++++%@@++ +.                                +%###$ $#   ..                     .@.  $@     +                                                 ",
"                                                +  +$$@@++$%++@  @                      .+     +++$#$$$##$    .                     .  @.$ .@   + .                                                ",
"                                                +$%%&&#$@@+$%%#@+ $   @@         .    ..+     +##%%$+++$%+      .                    ..@.$  + .@+                                                  ",
"                *=*=***                @       +$#$+++$&#$$#$$$%+  $##+         +    ..   +   #+@+#%$+++%+      .                .#   ..$++ ++.                                                    ",
"              **-..+@.-**               $$#   ++%$+@@++$&##$@++%@+@#$@          ++   .   #+@@@#@@#@@#@++#++                       $$..++#++                                                        ",
"             *.-...+@.--=*                $$+++%$@@@@@@$$##@@#+#@@$%..               +$%%#@@@######@#$@@$%%%++..                   # ..+$#+   $ +.                                                 ",
"           **=-...+@$+.---**               ####$+@@$$#$$###$$$@$%###+       .     @..$$+#%%&@@###&&##$$@@@+$#  .                   $#++@@##+  +$. .                                                ",
"           *==-.+$@$@@@+...;              +#$++@@@$##$####&##$$$$$&%+    .@@+.    .$$   +##%%#&&&####$$$@@++%  @                +++@#$@$@#+$@++#   .                                               ",
"          *..=-+.@+&$@++.@.-*             ##+++@@$$#############$$&%@  ..$@       .++   +##$#&&&&&#&####$@@+%. @                .+++&#$$##$#$@&$.                                                  ",
"         >*;;.++@$$&$$$@@.+-==            #$++@@$$$##&%&##&&##&&@$&%#@ @$,.      ..+    @###&#&%%&&&&###$@@+%..+@@+.            +@@$##&$#####$,@$.                                                 ",
"         **-...@@$$&&$$@$@@.-;           +$#++###@##&#####&#&##&#%%@@#@$,@      ..     +#####&&&&&%&#&###@++#$.@+@.             @+@#$########$&@#.                                                 ",
"        >*-...$$$&#&&&#$$@$@--*          ++$##$@@##&&&&#&#&&#####%#+@@,,@      ..  +   +,,###&%%%&&&#&##$@++$#$@.+@            #++$$$####&&#&##@,.                            +@+                  ",
"        >-.@+@$$#&&&&&##@@@+.-*          +++#$@@$#&&&%%&###&&&###&+@$...        . .++++#+$##&#&%%%&&#&####+++$%.@.@          +.+&+#####&&&&%&&##@$..                         +$#$+                 ",
"        *@$$####&&&&&&&&#$&#$+*          +++##@@#&##%%&%&#&&&&#&#&$@@.           .#%%,##@#,###&%&&##&&&#&##$+$%@@@#            .++&##&%%%%%%&&##@+$.                        +$#&#$+                ",
"        >@@#$#$#&&&&&&&&&$$$@.*            +#+#@#&#&&%&%%&&#&%%&$#@+.            .#+++@$#@###&&%%%%&&&#&##&#$%#$##              .+&$#%%#&%&%&&###@#+.                       @#&&&#@                ",
"        *--@.+$$$&&&&#&#$$&+.-*            +#@@###&&%%&&%%%#%%##$#$+..          .,..+++@$$@###&&##&&#&##$@$%%@@#@.              @@$#&%%&#%%%&#&#@ ,+.                       +$#&#$+                ",
"        >*;.-+@@$$#&&##$$@@++-*            +##@@#&&&%%&%&&&&&&####$+++.        $$ ....++@@&#,##&&%%#&###$@@$+@.@@            ...$@+##%%%##&&&&#$@+,+.                        +$#$+                 ",
"        >*--..+@$$$&##$@+.++...             +###&$&&&&%%&&&&#&&#&##$$@+.$$      .   ..++@$###&#&&&&####$$#+$@@@.             #$@@@&#&#&#####&#@###$+.                         +@+                  ",
"         *=-=-.@+$@#$$$+.++.+;                $&$@#%%%%###&##&&##&#,,,&$         .    $&&##@$&###&###&#$@++$++@@           ..$@$$$,@&##&##&&###$@+@+.                                              ",
"         >=;---+.@+#@@@@+-.+-*                $&@#%%&##&&###&&##$&$@+@$          .    ,#&&#$$####&&#&&#$$###@...            ....@#,$$########$$@@@+.                                               ",
"          *=--..+++@++@@-.-.*                 $&@%###&###&&####$$#$..              .#..$$$########&&&$$$#$+@...           .    .+,,$$$$$##$#$$@+$#$@                                               ",
"           *;--....@+++..-.*             +   +$&@%$$###&&###&#$$&$@@.             $#. . ++@$###&&@$#&%%&#$+ .                   .,++##@@#@$@@@@$#@+$                                               ",
"           **-----.+++.--.**              +   $+@'@$#######$$$$&#$@+               .  .  +@+$#++++@+@%#%%%$@.                   #.++$+@$#@$+@@$,,   +$                                             ",
"             *==--..-.-==*                 +  $+$#+@$###$$$$@$#&+++.                     .+@$#$+..+@@%#++$#@                  @@  .++$##$+#$$,,#      @                                            ",
"              ***=--+--**                  .    %+++@$$##$$$@@#&+..                        $#,$+. +@%@ ####@                         ++,@+@#,$ $                                                   ",
"                *******                     .   '+   ++$##$@++$#$.                         $#,+.  +#@  $. $#                       . . ,@++@#$ @                                                   ",
"                                            .   $$     +$#@+++++#.                          $$.   +%$@$$                            ...@@+.$$#@.                                                   ",
"                                             ..++$     +$#++..  #.                            +    $#$$                               ..$$@                                                        ",
"                                                 .$+   ++#+++   .#.                                 +$$@                               .$                                                          ",
"                                                 .$++ +++#+.     .#.                                 .+@                                                                                           ",
"                                                 @...  ..$#.      $.                                   +.                                                                                          ",
"                                                @.  .   ..$#.                                          .                                                                                           ",
"                                            .  +    ..  ...$                                                                                                                                       ",
"                                             ++      ...   .$                                                                                                                                      ",
"                                                      .     $                                                                                                                                      "};
