/* XPM */
static char * pain_elemental_pain_xpm[] = {
"82 57 99 2",
"  	c None",
". 	c #4F3B2B",
"+ 	c #533F2F",
"@ 	c #574333",
"# 	c #5F4B37",
"$ 	c #6F5743",
"% 	c #7B634F",
"& 	c #67533F",
"* 	c #775F4B",
"= 	c #434343",
"- 	c #4F4F4F",
"; 	c #575757",
"> 	c #6B6B6B",
", 	c #838383",
"' 	c #533F1F",
") 	c #5B5B5B",
"! 	c #979797",
"~ 	c #2F2F2F",
"{ 	c #8B735B",
"] 	c #636363",
"^ 	c #272727",
"/ 	c #0B0B0B",
"( 	c #9B5B13",
"_ 	c #7F532F",
": 	c #875733",
"< 	c #474747",
"[ 	c #6F6F6F",
"} 	c #7F7F7F",
"| 	c #3B3B3B",
"1 	c #372313",
"2 	c #9B633B",
"3 	c #774F2B",
"4 	c #937B63",
"5 	c #6B4727",
"6 	c #232323",
"7 	c #170F07",
"8 	c #131313",
"9 	c #1B1B1B",
"0 	c #000000",
"a 	c #432F1B",
"b 	c #8F5F37",
"c 	c #473323",
"d 	c #373737",
"e 	c #2B230F",
"f 	c #3F2B1B",
"g 	c #5F4323",
"h 	c #3F2F17",
"i 	c #4B371B",
"j 	c #1F170B",
"k 	c #43331B",
"l 	c #4F3B27",
"m 	c #070707",
"n 	c #2F1B0B",
"o 	c #430000",
"p 	c #5B0000",
"q 	c #730000",
"r 	c #670000",
"s 	c #872300",
"t 	c #BF0000",
"u 	c #732B00",
"v 	c #7F0000",
"w 	c #874307",
"x 	c #AF7B1F",
"y 	c #CB0000",
"z 	c #FF0000",
"A 	c #D7BB43",
"B 	c #B30000",
"C 	c #9B0000",
"D 	c #A70000",
"E 	c #4F0000",
"F 	c #8B0000",
"G 	c #836B57",
"H 	c #9F876F",
"I 	c #5F0707",
"J 	c #530707",
"K 	c #5B0707",
"L 	c #9F8363",
"M 	c #332B13",
"N 	c #AF4300",
"O 	c #470000",
"P 	c #932F00",
"Q 	c #BFA78F",
"R 	c #D75F0B",
"S 	c #9F3700",
"T 	c #B74700",
"U 	c #A73F00",
"V 	c #7F1B1B",
"W 	c #C34F00",
"X 	c #F37317",
"Y 	c #A78F77",
"Z 	c #2F371F",
"` 	c #CB5707",
" .	c #731313",
"..	c #AF977F",
"+.	c #8F2B2B",
"@.	c #8B2323",
"#.	c #831F1F",
"$.	c #771717",
"%.	c #EF0000",
"                                                                                . . . . .                                                                           ",
"                                                                          . + @ . # # # . @ + .                                                                     ",
"                                                                    @ . . . + @ # # # # # @ + . . . @                                                               ",
"                                                              # $ % @ . # . # # & * * * & # # . # . @ % $ #                                                         ",
"                                                . = - ; > , ; ' $ % @ . # # & & & & * & & & & # # . @ % $ # ' ; , > ; - =                                           ",
"                                          ) ) = ! = ) ; = ~ ~ ' $ % $ + & $ # @ & % { % & @ # $ & + $ % % # . ~ ~ = ; ) = ! = ) )                                   ",
"                                      ) - - ) = ] ~ ^ / ~ ( _ ' % { % + & $ # @ & % { % & @ # $ & + % { # ' _ ( : ~ / ^ ~ ] = ) - - )                               ",
"                                  < [ - } ) - | - / / = 1 : 2 3 # % { . & $ $ & % { 4 { % & $ $ & . { % 5 3 2 : 1 = = / / - | - ) } - [ <                           ",
"                                < [ - = ! - ~ / / / 6 ~ 7 5 2 3 5 # $ @ # * % & $ % 4 % $ & % * # @ $ # 5 3 2 5 7 ^ ~ 6 / / / ~ - ! = ) [ <                         ",
"                                < ; = ; } 8 / / / ^ 6 9 0 a b _ 5 $ # * c # & % # $ % $ # % & # c * # $ 5 _ b a 0 0 9 6 ^ / / / 8 } ; = ) )                         ",
"                                d = = d ) e / 0 / - ~ / 0 a 3 5 5 * # $ # f @ # @ # $ # @ # @ f # $ # * 5 5 3 a 0 0 / ~ - / 0 / e ) d = = d                         ",
"                                ^ d d 9 6 g h e 9 d 6 / 7 i 5 g 5 % # + & c + & & @ # @ & & + c & + # % 5 g 5 i 7 0 / 6 d 9 e h g 6 9 d d ^                         ",
"                                6 ^ 9 / 0 e e 8 9 9 / 0 1 g 5 g 5 $ # + . c # % { # c # { % # c . + # $ & g 5 g 1 0 0 / 9 9 8 e e 0 / 9 ^ 6                         ",
"                                # 6 j e h j 0 0 / 0 e 0 c 5 g ' & * # 1 1 1 c @ # c 1 c # @ c 1 1 1 # * * ' g 5 c 0 9 e 0 / 0 0 j h e j 6                           ",
"                              + # a 6 j e h h e j 8 0 1 g g i k l l 1 0 / 0 0 0 0 0 0 0 0 0 0 m / 0 1 1 k k i g g 1 0 8 / j e h h e j 6 # +                         ",
"                              + @ l 1 n n n n 0 0 0 1 ' i i 1 n j 0 0 0 0 0 0 0 0 0 0 0 0 0 0 0 0 0 0 0 0 1 1 i i ' 1 0 0 0 n n n n 1 l @ +                         ",
"                            @ + + & * a 1 n n n 1 1 ' g 1 f n 0 0 0 0 0 o o o o o 0 0 0 o o o o o 0 0 0 h 0 0 f 1 g ' 1 1 n n n 1 a * & + + @                       ",
"                            @ # @ + @ . # # . + l c # f n n 0 0 0 0 0 p p p o 0 0 0 0 0 0 0 o p p q 0 0 0 0 0 0 n f # c l + . # # . @ + @ # @                       ",
"                          . @ # $ + f f + @ & { & @ c n n h n h / 0 r q q q 0 0 0 n s n 0 0 0 q q t r 0 / h n u 1 n c c . % & @ + f f + $ # @ .                     ",
"                          . f . @ . & * . # & * @ f n f 1 n n 0 0 0 r t t v 0 0 n w x w n 0 0 v t y r 0 0 n n c c f n f . * & # . * & . @ @ @ f                     ",
"                        f f n 1 f c @ & c @ @ + f . + + 1 c f u j 0 r y z r 0 0 s x A x s 0 0 r z 1 1 1 1 k c c 1 + + f n + @ @ c & @ @ f n n j 1                   ",
"                        f f 7 j 1 1 c + 1 c c f @ * & + c 1 c n 0 0 r B B v 0 0 n w x w n 0 0 q 1 1 @ + k @ + 1 c + & @ a n c c j + c f n 0 0 0 1                   ",
"                        f c f 7 j n f c n 1 n @ * * * # # c + . u f f C D z q E 0 0 0 0 0 E q 1 k k # * + . & c # # & & @ a n 1 n 1 n n 0 n 1 a f f                 ",
"                      c @ @ # . 7 n n n 1 1 a & & & & * * # * & # @ + f F B y q v r E r v 1 1 a @ * G G $ @ & & & & & & & + a 1 1 0 0 0 1 1 a + % $ + f             ",
"                      c & % & @ c 7 j n 1 a + @ & # * * * & % G G $ # c @ . & & & @ f . 1 a a # G 4 H 4 % $ # & # # @ @ $ @ + 1 n j 0 0 n a + % { % & f f           ",
"                    c @ & % & @ c 7 j n 1 a + @ & # * & & & * % G $ # c # # % G G @ & @ % $ @ G G G 4 { G $ # & # # $ * $ @ a 1 n j 0 0 n a + & % $ & c f           ",
"                    c @ $ & # + 1 7 j j n 1 + @ # @ @ # # & # $ G @ @ @ # # $ % G @ & @ % $ @ * * $ { % % $ & @ @ @ @ . a a a j j 0 0 7 n c + # # # @ c f 1         ",
"                    c a & # + c n n n j j 1 a @ + . @ # # & # $ $ @ # & # # $ $ % . & . % $ @ & $ $ & $ $ * @ @ @ c u q E E o o 0 0 n n n f c + + # + a a 1         ",
"                    1 1 a + c f c 1 n n 1 1 1 @ c c $ @ # @ & % + @ # & # # $ $ % . & . % $ @ & $ * * * % @ s c c u q I o J f + c / n n n 1 f c . + @ a a c c       ",
"                  j j n 1 1 1 f c 1 n n 1 1 1 @ c c $ # # @ & % + @ # & # # $ $ % . & . % $ @ & % { { % * + s q q I J o o f f + c / n f n f i f c . + + # * # .     ",
"                c & 1 / n n 1 c + 1 j n 1 1 1 @ c c # $ # + @ & # & $ $ & # $ * % @ * @ % * + & * * # # # s v K o o o o f # 4 @ 4 0 j . a n f c i c . + # & & l 1   ",
"                j l a / n n c + . c j j n n n 1 1 f c # * # + @ # & & $ $ & & $ * c % c * $ q + c u u q q p o o # G o f # L & c & 7 j c . a n j M c c . + # # g 1   ",
"              c 1 l a / 0 n 1 k c f n j 0 E o E I q u c # @ u c c @ @ @ # . . u . c & c $ # p E o o o o o o G f G { f f * * . e 1 7 n f c c c M i ' # c . l c g h   ",
"              1 1 a 1 0 / n j @ 1 n n / c + f f o I q u c u s s u u c c c c u u u . c c u r o o # # o o J $ G @ $ @ 0 f @ & 9 7 0 0 n n 1 1 1 j M h ' + c . c g '   ",
"              1 j 1 / 0 j n n + n f n 0 4 @ 4 # f o J o o K r r J r u u u u q r q p q p r o o # L $ s N N @ & @ @ f s j f . 0 o o o n f n j j n j n f @ & & @ ' g n ",
"            n j / / 0 0 1 c + c f u 1 7 & c & L # f o G # o o o E r r o o E p O o o O o o O o . * @ N N N f . P f e s s j c 1 j j 0 / / n 1 f n f . & % % % @ c ' n ",
"          0 j / 1 / e 0 j + + + u 5 Q o 1 e . * * f f { G f G 5 o J o # # o o f . f & f . f R . @ S N N N T N U P s s s / 1 c . $ & & # @ # $ # # & * * % $ . f h 1 ",
"          0 0 1 0 e h j   c . c q # 4 . n n n f j f 0 @ $ @ G $ ' # V $ L # N $ L @ * @ L $ R R N S N N N T N U P s s s n n @ 1 * & # @ + . @ + . + @ + . c h n 1 @ ",
"        1 & * 0 0 e i n   @ . n q $ $ . D D & G f 0 0 f @ @ & @ @ G . @ * . W . @ # H # @ . X R N S N N N T N U P s s s n n n . c # # . c f 1 h ' 5 : 3 g ' h 1 @ c ",
"  & 2 1 . * 2 0 e i e     @ + c q f . ' y . G Q & 0 j e f P . f $ Y @ Z . S R X T . * . T X X R T S . # T T N U P s s s 1 f . n 1 . c f n / 0 0 h ' ' ' ' h 1 f c   ",
"& % @ f n @ 3 0 M e       & & u u E o E D & $ L . o o o 1 P U T G Q $ . N ` R X T . * . T X X R W P @ G @ T N U P s s s j 1 1 j j f 1 n / ' . 1                     ",
"$ . 1 n / 0 1 0 e         & G $ 5 u v q  .. # $ . C v r o 1 s U G ..G # S ` T % @ Z X Z @ % R R W s @ Y $ T U P P s v F f n 1 n 1 j 0 # q u # @                     ",
". + . c 1 1 /             & G * 5 u v q r O O O E y C F K o o o * L { * O s & 4 % c X c % 4 & ` W . $ Q G T P P v F B y & Q G . F . $ $ q u $ n                     ",
"    + 1 @ 2                 & G & g g ' u r O E u +.@.#.C B C $.$ 4 4 * F O $ H 4 c c c 4 H $ W O # G ..G T P v F D B %.. L $ & $.' . f q u # 1                     ",
"    + $ $ #                 . G 4 { * & # # # & & $.$.& { C { $.# * L & B F & 4 $ D t D $ 4 & O F * { L * U C B C B t y . $ # .  .E o E u $ n n                     ",
"    $ $ @                   c & * & # + @ f . + + w w u p p p p ' # * c F F q v v F D F v v q F B * 4 4 $ o { C { & D D E O O O r q v u 5 * n /                     ",
"                              c c c + @ @ c # . . % $ $ & g u u f n n f  .$.u u $.$.F $.$.u u F F & L * # $.p p p u w w u E O r u ' g g & G / c                     ",
"                                c c c c c . @ # @ & % 4 { % & 5 u f n + u u 5 g u $.$.$.u g 5 $. .c * # ' $.u g & $ $ % & & # # # & * { 4 G c                       ",
"                                        a a a + . + & % % $ # & * + + & $ * G 4 * g u g * 4 G u u f n n f p % % { 4 % & + + . f c + # & * & c                       ",
"                                              1 # c + & & $ + @ & * * $ # @ * G { 4 4 4 { G * * $ + n f u % & $ & & + c @ # @ . f $ & & c c                         ",
"                                                1 a a & $ & c . # & & # . c @ * * % % % * * @ @ # & + + * & c & $ & c c . + c c c c c c                             ",
"                                                  1 1 a * # c . + @ # @ . c + & & $ * $ & & + c . $ * * & @ c # * & c c # &                                         ",
"                                                      1 n n 1 a + @ # @ . c . + & % % % & + . c . @ # @ + . c @ % & + @                                             ",
"                                                            n n 1 1 a . c @ c # + $ * $ + # c @ c . @ + . c f . # *                                                 ",
"                                                                n n 1 1 a c a . c + # + c . a c a c c c c a                                                         ",
"                                                                    1 n n n a . c + @ + c . a c a c c                                                               ",
"                                                                              c a c + c a c                                                                         "};
